<svg xmlns="http://www.w3.org/2000/svg" width="1068.156" height="713" viewBox="0 0 1068.156 713"><g transform="translate(-4502.922 -1489)"><path d="M27.5,0h988.155a27.5,27.5,0,0,1,27.5,27.5v633a27.5,27.5,0,0,1-27.5,27.5H27.5A27.5,27.5,0,0,1,0,660.5V27.5A27.5,27.5,0,0,1,27.5,0Z" transform="translate(4515.422 1501.5)" fill="#967880" opacity="0.6"/><path d="M1042.263,713H35.145a24.273,24.273,0,0,1-11.879-3.143,31.458,31.458,0,0,1-9.7-8.572,42.245,42.245,0,0,1-6.54-12.714A50.614,50.614,0,0,1,4.627,673V106.942L8.5,104.525l3.021,1.51-1.179-2.58,2.374-3.888L4.627,80.915V40a50.615,50.615,0,0,1,2.4-15.57,42.245,42.245,0,0,1,6.54-12.714,31.46,31.46,0,0,1,9.7-8.572A24.273,24.273,0,0,1,35.145,0H1042.263a24.272,24.272,0,0,1,11.879,3.143,31.46,31.46,0,0,1,9.7,8.572,42.25,42.25,0,0,1,6.54,12.714,50.616,50.616,0,0,1,2.4,15.57V673a50.614,50.614,0,0,1-2.4,15.57,42.25,42.25,0,0,1-6.54,12.714,31.46,31.46,0,0,1-9.7,8.572A24.272,24.272,0,0,1,1042.263,713ZM35.145,25a10.218,10.218,0,0,0-8.092,4.393A17.516,17.516,0,0,0,23.7,40V673a17.515,17.515,0,0,0,3.352,10.606A10.217,10.217,0,0,0,35.145,688H1042.263a10.218,10.218,0,0,0,8.092-4.393A17.517,17.517,0,0,0,1053.707,673V40a17.517,17.517,0,0,0-3.352-10.606A10.218,10.218,0,0,0,1042.263,25Z" transform="translate(4498.296 1489)" fill="#310b07"/><path d="M1043.263,713H36.145a24.271,24.271,0,0,1-11.879-3.143,31.464,31.464,0,0,1-9.7-8.572,42.25,42.25,0,0,1-6.54-12.714A50.614,50.614,0,0,1,5.627,673V106.318L8.5,104.525l3.021,1.51-1.179-2.58,2.374-3.888L5.627,83.22V40a50.616,50.616,0,0,1,2.4-15.57,42.25,42.25,0,0,1,6.54-12.714,31.465,31.465,0,0,1,9.7-8.572A24.272,24.272,0,0,1,36.145,0H1043.263a24.274,24.274,0,0,1,11.88,3.143,31.464,31.464,0,0,1,9.7,8.572,42.253,42.253,0,0,1,6.54,12.714,50.61,50.61,0,0,1,2.4,15.57V673a50.61,50.61,0,0,1-2.4,15.57,42.253,42.253,0,0,1-6.54,12.714,31.464,31.464,0,0,1-9.7,8.572A24.273,24.273,0,0,1,1043.263,713ZM36.145,20a12.136,12.136,0,0,0-5.94,1.572,15.724,15.724,0,0,0-4.851,4.286A23.355,23.355,0,0,0,20.885,40V673a23.355,23.355,0,0,0,4.469,14.142,15.724,15.724,0,0,0,4.851,4.286A12.135,12.135,0,0,0,36.145,693H1043.263a12.135,12.135,0,0,0,5.94-1.572,15.723,15.723,0,0,0,4.851-4.286A23.355,23.355,0,0,0,1058.523,673V40a23.356,23.356,0,0,0-4.469-14.142,15.724,15.724,0,0,0-4.851-4.286,12.135,12.135,0,0,0-5.94-1.572Z" transform="translate(4497.296 1489)" fill="#653542"/><path d="M52.249,718.738H1058.713c8.422,0,15.25-8.864,15.25-19.8V693c0,10.934-6.828,19.8-15.25,19.8H52.249C43.827,712.8,37,703.934,37,693v5.94C37,709.874,43.827,718.738,52.249,718.738Z" transform="translate(4481.519 1469.131)" fill="rgba(255,255,255,0.5)" opacity="0.3"/><path d="M1054.636,20H47.519C30.664,20,17,37.909,17,60v6c0-22.091,13.664-40,30.519-40H1054.636c16.855,0,30.519,17.909,30.519,40V60C1085.155,37.909,1071.492,20,1054.636,20Z" transform="translate(4485.922 1469)" fill="rgba(255,255,255,0.5)" opacity="0.3"/><path d="M5.629,87.511h0V46.584L8.5,44.791l3.021,1.51-1.179-2.58,2.374-3.888L5.627,23.486V0l12.5,45.309A179.622,179.622,0,0,0,9.741,65.216,75.369,75.369,0,0,0,5.629,87.511Z" transform="translate(4497.296 1548.734)" fill="#310b07"/><path d="M28.237,138.434c-5.45,4.375-10.906,8.905-11.237,14.4V123Z" transform="translate(5538.8 1954.318)" fill="#310b07"/><path d="M5555.953,593.722l8.488-15.388-2.935-2.189,5.049-12.552-7.387,12.552,1.1,3.658-4.313,4.187Z" transform="translate(0 1154.105)" fill="#310b07"/></g></svg>