<svg xmlns="http://www.w3.org/2000/svg" width="738.155" height="713" viewBox="0 0 738.155 713"><g transform="translate(-4502.922 -1489)"><path d="M27.5,0H685.655a27.5,27.5,0,0,1,27.5,27.5v633a27.5,27.5,0,0,1-27.5,27.5H27.5A27.5,27.5,0,0,1,0,660.5V27.5A27.5,27.5,0,0,1,27.5,0Z" transform="translate(4515.422 1501.5)" fill="#967880" opacity="0.6"/><path d="M703.677,713H35.732a23.691,23.691,0,0,1-11.718-3.143,31.17,31.17,0,0,1-9.569-8.572A42.465,42.465,0,0,1,7.993,688.57,51.253,51.253,0,0,1,5.627,673V106.318L8.5,104.525l3.021,1.51-1.179-2.58,2.374-3.888L5.627,83.22V40A51.253,51.253,0,0,1,7.993,24.43a42.464,42.464,0,0,1,6.452-12.714,31.17,31.17,0,0,1,9.569-8.572A23.691,23.691,0,0,1,35.732,0H703.677A23.691,23.691,0,0,1,715.4,3.143a31.17,31.17,0,0,1,9.569,8.572,42.467,42.467,0,0,1,6.452,12.714A51.253,51.253,0,0,1,733.782,40V673a51.253,51.253,0,0,1-2.366,15.57,42.466,42.466,0,0,1-6.452,12.714,31.17,31.17,0,0,1-9.569,8.572A23.691,23.691,0,0,1,703.677,713ZM35.732,25a10.042,10.042,0,0,0-7.983,4.393A17.68,17.68,0,0,0,24.442,40V673a17.679,17.679,0,0,0,3.307,10.606A10.042,10.042,0,0,0,35.732,688H713.677a10.043,10.043,0,0,0,7.983-4.393A17.68,17.68,0,0,0,724.966,673V40a17.68,17.68,0,0,0-3.307-10.606A10.043,10.043,0,0,0,713.677,25Z" transform="translate(4497.296 1489)" fill="#300b07"/><path d="M713.263,713H36.145a24.27,24.27,0,0,1-11.879-3.143,31.458,31.458,0,0,1-9.7-8.572,42.249,42.249,0,0,1-6.54-12.714A50.614,50.614,0,0,1,5.627,673V106.318L8.5,104.525l3.021,1.51-1.179-2.58,2.374-3.888L5.627,83.22V40a50.614,50.614,0,0,1,2.4-15.57,42.251,42.251,0,0,1,6.54-12.714,31.458,31.458,0,0,1,9.7-8.572A24.27,24.27,0,0,1,36.145,0H713.263a24.272,24.272,0,0,1,11.879,3.143,31.46,31.46,0,0,1,9.7,8.572,42.248,42.248,0,0,1,6.54,12.714,50.614,50.614,0,0,1,2.4,15.57V673a50.614,50.614,0,0,1-2.4,15.57,42.251,42.251,0,0,1-6.54,12.714,31.46,31.46,0,0,1-9.7,8.572A24.272,24.272,0,0,1,713.263,713ZM36.145,20a12.135,12.135,0,0,0-5.94,1.572,15.727,15.727,0,0,0-4.85,4.286A23.356,23.356,0,0,0,20.885,40V673a23.355,23.355,0,0,0,4.469,14.142,15.727,15.727,0,0,0,4.85,4.286A12.135,12.135,0,0,0,36.145,693H713.263a12.136,12.136,0,0,0,5.94-1.572,15.729,15.729,0,0,0,4.85-4.286A23.356,23.356,0,0,0,728.522,673V40a23.356,23.356,0,0,0-4.469-14.142,15.729,15.729,0,0,0-4.85-4.286A12.136,12.136,0,0,0,713.263,20Z" transform="translate(4497.296 1489)" fill="#653542"/><path d="M52.249,718.738H728.713c8.422,0,15.25-8.864,15.25-19.8V693c0,10.934-6.828,19.8-15.25,19.8H52.249C43.827,712.8,37,703.934,37,693v5.94C37,709.874,43.827,718.738,52.249,718.738Z" transform="translate(4481.519 1469.131)" fill="rgba(255,255,255,0.5)" opacity="0.3"/><path d="M724.636,20H47.519C30.664,20,17,37.909,17,60v6c0-22.091,13.664-40,30.519-40H724.636c16.855,0,30.519,17.909,30.519,40V60C755.155,37.909,741.492,20,724.636,20Z" transform="translate(4485.922 1469)" fill="rgba(255,255,255,0.5)" opacity="0.3"/><path d="M5.629-688.489h0v-40.927L8.5-731.21l3.021,1.511-1.179-2.58,2.374-3.888L5.627-752.514V-776l12.5,45.309a179.642,179.642,0,0,0-8.386,19.907A75.369,75.369,0,0,0,5.629-688.489Z" transform="translate(4497.296 2324.734)" fill="#300b07"/><path d="M28.237,138.434c-5.45,4.375-10.906,8.905-11.237,14.4V123Z" transform="translate(5208.8 1954.318)" fill="#300b07"/><path d="M5555.953,593.722l8.488-15.388-2.935-2.189,5.049-12.552-7.387,12.552,1.1,3.658-4.313,4.187Z" transform="translate(-330 1154.105)" fill="#300b07"/></g></svg>