<svg xmlns="http://www.w3.org/2000/svg" width="738.155" height="713" viewBox="0 0 738.155 713"><g transform="translate(-425.922 -324)"><path d="M724.637,45c6.321,0,11.444,6.716,11.444,15V693c0,8.284-5.124,15-11.444,15H47.519c-6.321,0-11.445-6.716-11.445-15V60c0-8.284,5.124-15,11.445-15H724.637m0-25H47.519C30.664,20,17,37.909,17,60V693c0,22.091,13.664,40,30.519,40H724.637c16.855,0,30.519-17.909,30.519-40V60C755.155,37.909,741.492,20,724.637,20Z" transform="translate(408.922 304)" fill="#310b07"/><path d="M27.5,0H695.655a27.5,27.5,0,0,1,27.5,27.5v633a27.5,27.5,0,0,1-27.5,27.5H27.5A27.5,27.5,0,0,1,0,660.5V27.5A27.5,27.5,0,0,1,27.5,0Z" transform="translate(438.422 336.5)" fill="#4b0e1f" opacity="0.5"/><path d="M724.636,20H47.519C30.664,20,17,37.909,17,60V693c0,22.091,13.664,40,30.519,40H724.636c16.855,0,30.519-17.909,30.519-40V60C755.155,37.909,741.492,20,724.636,20ZM739.9,693c0,11.046-6.832,20-15.259,20H47.519c-8.428,0-15.259-8.954-15.259-20V60c0-11.046,6.832-20,15.259-20H724.636c8.428,0,15.259,8.954,15.259,20Z" transform="translate(408.922 304)" fill="#653542"/><path d="M52.249,718.738H728.713c8.422,0,15.25-8.864,15.25-19.8V693c0,10.934-6.828,19.8-15.25,19.8H52.249C43.827,712.8,37,703.934,37,693v5.94C37,709.874,43.827,718.738,52.249,718.738Z" transform="translate(404.519 304.131)" fill="rgba(255,255,255,0.5)" opacity="0.3"/><path d="M724.636,20H47.519C30.664,20,17,37.909,17,60v6c0-22.091,13.664-40,30.519-40H724.636c16.855,0,30.519,17.909,30.519,40V60C755.155,37.909,741.492,20,724.636,20Z" transform="translate(408.922 304)" fill="rgba(255,255,255,0.5)" opacity="0.3"/><path d="M29.5,168.309C23.438,181.154,17.369,194.452,17,210.6V123Z" transform="translate(408.922 260.734)" fill="#310b07"/><path d="M28.237,138.434c-5.45,4.375-10.906,8.905-11.237,14.4V123Z" transform="translate(1131.8 789.318)" fill="#310b07"/><path d="M5555.953,593.722l8.488-15.388-2.935-2.189,5.049-12.552-7.387,12.552,1.1,3.658-4.313,4.187Z" transform="translate(-4407 -10.895)" fill="#310b07"/></g></svg>