<svg xmlns="http://www.w3.org/2000/svg" width="1400" height="713" viewBox="0 0 1400 713"><g transform="translate(-260 -324)"><rect width="1375" height="688" rx="27.5" transform="translate(272.5 336.5)" fill="#3f4040"/><path d="M1377,20H57A40,40,0,0,0,17,60V693a40,40,0,0,0,40,40H1377a40,40,0,0,0,40-40V60A40,40,0,0,0,1377,20Zm20,673a20,20,0,0,1-20,20H57a20,20,0,0,1-20-20V60A20,20,0,0,1,57,40H1377a20,20,0,0,1,20,20Z" transform="translate(243 304)" fill="#272625"/><path d="M29.5,168.309C23.438,181.154,17.369,194.452,17,210.6V123Z" transform="translate(243 260.734)" fill="#3f4040"/><path d="M33.641,145.856c-8.071,6.48-16.15,13.188-16.641,21.331V123Z" transform="translate(1622 782.143)" fill="#3f4040"/></g></svg>