<?xml version="1.0" encoding="utf-8"?>
<!-- Generator: Adobe Illustrator 24.1.0, SVG Export Plug-In . SVG Version: 6.00 Build 0)  -->
<svg version="1.1" id="Layer_1" xmlns="http://www.w3.org/2000/svg" xmlns:xlink="http://www.w3.org/1999/xlink" x="0px" y="0px"
	 viewBox="0 0 1296 1239.7" style="enable-background:new 0 0 1296 1239.7;" xml:space="preserve">
<style type="text/css">
	.st0{fill:#DF8230;}
	.st1{fill:#C16825;}
	.st2{enable-background:new    ;}
	.st3{fill:#330B15;}
	.st4{fill:#FFFFFF;}
	.st5{fill:none;stroke:#330B15;stroke-width:13.17;stroke-miterlimit:10;}
	.st6{fill:none;stroke:#330B15;stroke-width:12.08;stroke-miterlimit:10;}
	.st7{fill:#DF8230;stroke:#330B15;stroke-width:13.11;stroke-miterlimit:10;}
	.st8{fill:#A55921;}
	.st9{fill:none;stroke:#330B15;stroke-width:14.78;stroke-miterlimit:10;}
</style>
<g id="HOME">
	<path class="st0" d="M1178.9,753.3c-1.2,3-2.4,6.1-3.6,9.1h-29.1c2.9-6.3,5.7-12.7,8.4-19.2c12.9-31,22.6-63.1,29.2-96
		c13.2-65.9,13.2-133.8,0.2-199.8c-6.5-32.9-16.2-65.1-29-96.1c-23.3-56.5-50.9-108.6-92.5-153.4c20.4,21.6,40.5,45,58.6,69.8
		s34.1,51,46.4,78.4C1225.1,475,1229.2,621.4,1178.9,753.3L1178.9,753.3z"/>
	<path class="st1" d="M1223.6,762.4h-30.3c10.9-29,19.5-58.9,25.5-89.3c14.7-73.7,14.8-149.7,0.2-223.4
		c-7.2-36.8-18.1-72.8-32.4-107.5c-26-63.1-56.9-121.5-103.4-171.5c22.8,24.2,45.3,50.3,65.5,78s38.2,57.1,51.9,87.7
		C1260.5,470.6,1268.7,622.3,1223.6,762.4L1223.6,762.4z"/>
	<path class="st0" d="M116.9,753.3c1.2,3,2.4,6.1,3.6,9.1h29.1c-2.9-6.3-5.7-12.7-8.4-19.2c-12.9-31-22.6-63.1-29.2-96
		c-13.2-65.9-13.2-133.8-0.2-199.8c6.5-32.9,16.2-65.1,29-96.1c23.3-56.5,50.9-108.6,92.5-153.4c-20.4,21.6-40.5,45-58.6,69.8
		s-34.1,51-46.4,78.4C70.7,475,66.6,621.4,116.9,753.3z"/>
	<path class="st1" d="M72.2,762.4h30.3c-10.9-29-19.5-58.9-25.5-89.3c-14.7-73.7-14.8-149.7-0.2-223.4
		c7.2-36.8,18.1-72.8,32.4-107.5c26-63.1,56.9-121.5,103.4-171.5c-22.8,24.2-45.3,50.3-65.5,78s-38.2,57.1-51.9,87.7
		C35.2,470.6,27.1,622.3,72.2,762.4L72.2,762.4z"/>
	<path class="st1" d="M1258.4,754.2v32.7c-3.7,11.6-7.7,23.2-12.1,34.6c-16.8,43.8-38.4,85.7-64.3,124.7H112.5
		c-26-39.1-47.6-81-64.4-124.8c-4.4-11.4-8.4-23-12.1-34.7v-32.6H1258.4z"/>
	<g class="st2">
		<path class="st3" d="M255.5,895.1c-5.2,2-10.9,3-17.1,3c-9.9,0-18.5-2.1-25.8-6.4c-7.3-4.3-12.9-10.1-16.7-17.3
			c-3.9-7.3-5.8-15.2-5.8-23.9c0-9.5,1.9-18,5.8-25.5c3.9-7.5,9.3-13.3,16.2-17.4c7-4.2,15-6.2,24.1-6.2c5.8,0,11.1,0.8,16,2.3
			c4.9,1.5,9.2,3.5,12.9,5.8l-7.3,17.6c-6.8-5.2-13.7-7.7-20.9-7.7c-4.8,0-9.3,1.3-13.5,4c-4.2,2.7-7.6,6.3-10,10.9
			c-2.5,4.6-3.7,9.7-3.7,15.3c0,6.1,1.2,11.4,3.5,16c2.3,4.6,5.6,8.2,9.9,10.8c4.3,2.6,9.3,3.9,15.1,3.9c4.6,0,8.8-0.8,12.5-2.3
			c3.7-1.5,6.6-3.3,8.8-5.3l7.7,16.7C264.6,891.2,260.7,893.1,255.5,895.1z"/>
		<path class="st3" d="M286.4,825.7c4.3-7.5,10.2-13.4,17.6-17.8c7.4-4.4,15.5-6.6,24.1-6.6c8.7,0,16.7,2.2,24.1,6.6
			c7.4,4.4,13.3,10.4,17.8,17.8c4.4,7.5,6.6,15.5,6.6,24.1c0,8.8-2.2,16.8-6.6,24.2c-4.4,7.4-10.3,13.2-17.8,17.6
			c-7.4,4.3-15.5,6.5-24.1,6.5c-8.8,0-16.8-2.2-24.2-6.5c-7.4-4.3-13.2-10.2-17.6-17.6c-4.3-7.4-6.5-15.5-6.5-24.2
			C279.8,841.2,282,833.2,286.4,825.7z M303.1,865c2.6,4.6,6.2,8.3,10.7,11s9.5,4.1,15,4.1c5.3,0,10.2-1.4,14.6-4.1
			c4.4-2.7,7.8-6.4,10.3-10.9c2.5-4.6,3.7-9.7,3.7-15.3c0-5.7-1.3-10.8-3.9-15.5s-6.1-8.3-10.5-11c-4.4-2.7-9.3-4.1-14.7-4.1
			s-10.3,1.4-14.7,4.1c-4.4,2.7-7.9,6.4-10.5,11c-2.6,4.6-3.9,9.8-3.9,15.5C299.2,855.3,300.5,860.3,303.1,865z"/>
		<path class="st3" d="M395.4,802.3h28.3c12.1,0,22.1,2.3,29.9,7c7.8,4.7,13.5,10.7,17.1,18.2c3.6,7.4,5.3,15.4,5.3,23.9
			c0,9.1-2.1,17.1-6.4,24.1c-4.3,7-10.1,12.3-17.3,16c-7.3,3.7-15.2,5.6-23.9,5.6h-33V802.3z M425.1,879c9.7,0,17.4-2.5,23.1-7.5
			c5.7-5,8.5-12.1,8.5-21.5c0-7.6-1.6-13.6-4.7-18c-3.1-4.5-6.8-7.6-10.9-9.3c-4.2-1.7-8.1-2.6-11.8-2.6H414V879H425.1z"/>
		<path class="st3" d="M513.3,802.3V897h-18.7v-94.8H513.3z"/>
		<path class="st3" d="M623.2,802.3v98.6h-0.5L556.3,841l0.4,56h-18.9v-98.5h0.8l66.2,60.8l-0.4-57H623.2z"/>
		<path class="st3" d="M716.7,892.3c-3.7,1.7-7.9,3-12.4,4.1c-4.5,1.1-8.6,1.6-12.3,1.6c-10,0-18.9-2-26.5-5.9
			c-7.6-3.9-13.5-9.3-17.6-16.2c-4.1-6.9-6.2-14.8-6.2-23.6c0-11.1,2.2-20.5,6.6-28.1c4.4-7.7,10.3-13.4,17.6-17.3
			c7.4-3.8,15.5-5.7,24.5-5.7c5.8,0,11.2,0.6,16.2,1.9c5.1,1.3,9.5,3,13.4,5l-6.1,17.4c-2.5-1.4-5.9-2.6-10.2-3.8
			c-4.3-1.2-8-1.7-10.9-1.7c-10.3,0-18.2,2.6-23.6,7.7c-5.5,5.2-8.2,12.8-8.2,22.9c0,5.8,1.3,10.9,4,15.3c2.7,4.3,6.4,7.7,11.1,10
			c4.8,2.3,10.2,3.5,16.3,3.5c5.8,0,10.2-0.8,13-2.4v-11.5h-16.4v-18h35.3v40.1C723.1,889.1,720.5,890.7,716.7,892.3z"/>
	</g>
	<g class="st2">
		<path class="st4" d="M845,802.3v18H822V897h-18.7v-76.8h-22.2v-18H845z"/>
		<path class="st4" d="M914.2,897l-20-30.1h-12.5V897h-18.7v-94.8h28.7c11.8,0,20.9,2.9,27.4,8.6c6.5,5.7,9.7,13.5,9.7,23.4
			c0,5.8-1.2,11.3-3.7,16.4c-2.4,5.1-6.2,9.1-11.3,12l22,34.4H914.2z M881.8,848.9H895c5.1,0,8.8-1.5,11.1-4.4
			c2.3-3,3.5-6.2,3.5-9.6c0-3.4-1-6.7-3-9.9c-2-3.1-5.8-4.7-11.5-4.7h-13.4V848.9z"/>
		<path class="st4" d="M1016.1,802.3v18h-46v20.2h40.7v18h-40.7V879h47.8v18h-66.5v-94.8H1016.1z"/>
		<path class="st4" d="M1101.8,802.3v18h-46v20.2h40.7v18h-40.7V879h47.8v18h-66.5v-94.8H1101.8z"/>
	</g>
	<path class="st3" d="M1258.4,786.9c-3.7,11.6-7.7,23.2-12.1,34.6c-27.3,71.2-67.1,136.9-117.6,194.2c-6.1,6.9-12.4,13.7-18.8,20.4
		c-14.3,14.8-29.3,29-45,42.5c-16.9,14.5-34.6,28.1-53,40.7c-35.4,24.5-73.2,45.3-112.9,62.2l-15,6.1c-5,2-9.9,4.2-15.1,5.8
		l-15.3,5.3c-5.1,1.7-10.2,3.7-15.4,5.1l-15.5,4.5l-7.8,2.3c-1.3,0.4-2.6,0.8-3.9,1.1l-3.9,0.9l-15.8,3.7l-7.9,1.8l-3.9,0.9l-4,0.7
		c-42.3,8.5-85.4,12.9-128.6,13c-43.2-0.2-86.2-4.5-128.5-13c-106-21.6-204.7-69.6-287.1-139.7l-0.1-0.1c-16.3-13.9-32-28.6-46.8-44
		c-6.4-6.6-12.6-13.4-18.7-20.3c-50.5-57.2-90.3-123-117.7-194.3c-4.4-11.4-8.4-23-12.1-34.7c-47.7-150-38.5-312.3,25.8-455.9
		c16.9-37.9,38.3-73.9,62-107.7c17.6-25.1,43.5-48.8,64.5-71c-25.1,27-45.9,56.2-64,87.1S90.7,303,76.6,337
		c-15.5,37.4-27.2,76.2-35,115.8C25.9,532.4,26,614.2,41.9,693.7c4.1,20.4,9.2,40.6,15.3,60.5c5.8,18.7,12.4,37.1,19.9,55.2
		c31.2,74.8,76.7,142.7,134,199.9c2.2,2.1,4.3,4.3,6.5,6.4c115.1,111.6,269.2,173.9,429.5,173.7c40.4,0,80.6-3.9,120.2-11.7
		c116.6-23,224-79.2,309.3-162c2.2-2.1,4.3-4.2,6.5-6.4c57.3-57.2,102.8-125.1,134-199.9c7.5-18.1,14.1-36.5,19.9-55.2
		c6.1-19.9,11.2-40.1,15.3-60.5c15.9-79.5,15.9-161.3,0.2-240.8c-7.8-39.7-19.5-78.5-35-115.9c-28.1-68.1-61.3-130.9-111.5-184.9
		c24.6,26.1,48.8,54.2,70.6,84.1s41.1,61.5,55.9,94.5C1296.8,474.5,1306,636.8,1258.4,786.9L1258.4,786.9z"/>
	<line class="st5" x1="139" y1="946.3" x2="1155.4" y2="946.3"/>
	<line class="st5" x1="43.4" y1="762.4" x2="1250.9" y2="762.4"/>
	<polyline class="st6" points="435.2,1076.9 435.2,1019.6 564.4,972.6 564.4,946.3 	"/>
	<line class="st6" x1="647.2" y1="946.3" x2="647.2" y2="1127.1"/>
	<line class="st6" x1="564.4" y1="942.9" x2="564.4" y2="1070.3"/>
	<circle class="st7" cx="564.3" cy="1070.3" r="17.6"/>
	<circle class="st7" cx="647.2" cy="1127.1" r="17.6"/>
	<circle class="st7" cx="435.2" cy="1076.9" r="17.6"/>
	<polyline class="st6" points="859.1,1076.9 859.1,1019.6 730,972.6 730,946.3 	"/>
	<line class="st6" x1="730" y1="942.9" x2="730" y2="1070.3"/>
	<circle class="st7" cx="730" cy="1070.3" r="17.6"/>
	<circle class="st7" cx="859.1" cy="1076.9" r="17.6"/>
	<path class="st0" d="M711.5,213.2c-12,16.5-32.6,30-64.3,39.8c-31.7-9.8-52.4-23.3-64.3-39.8c-13.3-18.4-15.8-40.5-10.7-65.2
		c8.6-41.4,38.6-90.1,75-141.1c36.5,50.9,66.5,99.7,75,141.1C727.3,172.7,724.8,194.8,711.5,213.2z"/>
	<path class="st1" d="M711.5,213.2c-12,16.5-32.6,30-64.3,39.8c-31.7-9.8-52.4-23.3-64.3-39.8c-13.3-18.4-15.8-40.5-10.7-65.2
		c45.1-31.2,104.9-31.2,150.1,0C727.3,172.7,724.8,194.8,711.5,213.2z"/>
	<path class="st8" d="M711.5,213.2c-12,16.5-32.6,30-64.3,39.8c-31.7-9.8-52.4-23.3-64.3-39.8c22.9-35.5,70.2-45.8,105.8-22.9
		C697.8,196.2,705.6,204,711.5,213.2z"/>
	<path class="st0" d="M588.3,323c1.5,23.2-7,50-28.1,81.4c-35.4,14-63.7,16.7-86.5,10.5c-25.4-6.9-43.9-24.8-57.5-50.5
		c-22.8-43-31.8-107.8-36.8-179.2c69.9,19.4,132.4,41.3,170.5,72.1C572.6,275.6,586.7,297.1,588.3,323z"/>
	<path class="st1" d="M588.3,323c1.5,23.2-7,50-28.1,81.4c-35.4,14-63.7,16.7-86.5,10.5c-25.4-6.9-43.9-24.8-57.5-50.5
		C424.6,335,442,309,465.9,290c24-19.3,53.3-30.7,84-32.7C572.6,275.6,586.7,297.1,588.3,323z"/>
	<path class="st8" d="M588.3,323c1.5,23.2-7,50-28.1,81.4c-35.4,14-63.7,16.7-86.5,10.5c-3.6-29.5,8.3-58.7,31.5-77.2
		C528.6,319,559.9,313.5,588.3,323z"/>
	<path class="st0" d="M563.2,521.2c6.5,32.1-0.1,71.1-23.4,118.8c-46.7,26.1-85.7,35.2-118.6,30.9c-36.8-4.8-66-26.3-89.9-59.6
		c-40-55.7-65.2-144.4-86-243.1C346.4,382,437.9,401,496.9,436.7C532.2,458,555.9,485.4,563.2,521.2z"/>
	<path class="st1" d="M563.2,521.2c6.5,32.1-0.1,71.1-23.4,118.8c-46.7,26.1-85.7,35.2-118.6,30.9c-36.8-4.8-66-26.3-89.9-59.6
		c6-42.5,25.2-82.1,54.8-113.2c29.8-31.4,68.5-52.8,110.9-61.4C532.2,458,555.9,485.4,563.2,521.2z"/>
	<path class="st8" d="M563.2,521.2c6.5,32.1-0.1,71.1-23.4,118.8c-46.7,26.1-85.7,35.2-118.6,30.9c-10.8-40.3,0.2-83.4,29.1-113.6
		C479.2,526.8,521.8,513.2,563.2,521.2z"/>
	<line class="st9" x1="613.9" y1="710.4" x2="433.4" y2="532.4"/>
	<ellipse class="st3" cx="483.9" cy="327.6" rx="13.9" ry="13.7"/>
	<ellipse class="st3" cx="647.3" cy="173.5" rx="15.5" ry="15.3"/>
	<ellipse class="st3" cx="434.9" cy="532.4" rx="20.1" ry="19.8"/>
	<polyline class="st9" points="613.9,762.4 613.9,455.7 483.9,327.6 	"/>
	<path class="st0" d="M706.1,323c-1.5,23.2,7,50,28.1,81.4c35.4,14,63.7,16.7,86.5,10.5c25.4-6.9,43.9-24.8,57.5-50.5
		c22.8-43,31.8-107.8,36.8-179.2c-69.9,19.3-132.4,41.3-170.5,72.1C721.7,275.6,707.7,297.1,706.1,323z"/>
	<path class="st1" d="M706.1,323c-1.5,23.2,7,50,28.1,81.4c35.4,14,63.7,16.7,86.5,10.5c25.4-6.9,43.9-24.8,57.5-50.5
		c-8.4-29.4-25.7-55.4-49.6-74.4c-24-19.3-53.3-30.7-84-32.7C721.7,275.6,707.7,297.1,706.1,323z"/>
	<path class="st8" d="M706.1,323c-1.5,23.2,7,50,28.1,81.4c35.4,14,63.7,16.7,86.5,10.5c3.6-29.5-8.3-58.7-31.5-77.2
		C765.7,319,734.4,313.5,706.1,323z"/>
	<path class="st0" d="M731.2,521.2c-6.5,32.1,0.1,71.1,23.4,118.8c46.7,26.1,85.7,35.2,118.7,30.9c36.8-4.8,66-26.3,89.9-59.6
		c40-55.7,65.2-144.4,86-243.1C947.9,382,856.5,401,797.4,436.7C762.2,458,738.5,485.4,731.2,521.2z"/>
	<path class="st1" d="M731.2,521.2c-6.5,32.1,0.1,71.1,23.4,118.8c46.7,26.1,85.7,35.2,118.7,30.9c36.8-4.8,66-26.3,89.9-59.6
		c-6-42.5-25.2-82.1-54.8-113.2c-29.8-31.4-68.5-52.8-110.9-61.4C762.2,458,738.5,485.4,731.2,521.2z"/>
	<path class="st8" d="M731.2,521.2c-6.5,32.1,0.1,71.1,23.4,118.8c46.7,26.1,85.7,35.2,118.7,30.9c10.8-40.3-0.2-83.4-29.1-113.6
		C815.1,526.8,772.5,513.2,731.2,521.2z"/>
	<line class="st9" x1="680.5" y1="710.4" x2="861" y2="532.4"/>
	<ellipse class="st3" cx="810.4" cy="327.6" rx="13.9" ry="13.7"/>
	<ellipse class="st3" cx="859.5" cy="532.4" rx="20.1" ry="19.8"/>
	<polyline class="st9" points="680.5,762.4 680.5,455.7 810.4,327.6 	"/>
	<line class="st9" x1="647.2" y1="762.4" x2="647.2" y2="178.1"/>
</g>
</svg>
