<svg xmlns="http://www.w3.org/2000/svg" viewBox="0 0 1296 1239.74"><defs><style>.cls-1,.cls-8{fill:#df8230;}.cls-2{fill:#c16825;}.cls-3{font-size:128.78px;font-family:JosefinSans-Bold, Josefin Sans;font-weight:700;}.cls-3,.cls-5{fill:#330b15;}.cls-4{fill:#fff;}.cls-10,.cls-6,.cls-7{fill:none;}.cls-10,.cls-6,.cls-7,.cls-8{stroke:#330b15;stroke-miterlimit:10;}.cls-6{stroke-width:13.17px;}.cls-7{stroke-width:12.08px;}.cls-8{stroke-width:13.11px;}.cls-9{fill:#a55921;}.cls-10{stroke-width:14.78px;}</style></defs><title>logo_homepage</title><g id="HOME"><path class="cls-1" d="M1178.86,753.28c-1.16,3-2.36,6.06-3.59,9.09h-29.1q4.41-9.5,8.42-19.15a511,511,0,0,0,29.2-96,513.06,513.06,0,0,0,.22-199.8,511.46,511.46,0,0,0-29-96.13c-23.29-56.45-50.88-108.63-92.48-153.38,20.37,21.63,40.5,45,58.57,69.8s34.14,51,46.38,78.42a532.31,532.31,0,0,1,11.39,407.14Z"/><path class="cls-2" d="M1223.57,762.37h-30.33a570,570,0,0,0,25.53-89.29,574.11,574.11,0,0,0,.23-223.44,569,569,0,0,0-32.43-107.51c-26-63.13-56.89-121.48-103.42-171.53,22.78,24.19,45.28,50.32,65.51,78s38.17,57.1,51.86,87.7a595.58,595.58,0,0,1,23,426Z"/><path class="cls-1" d="M116.9,753.28c1.16,3,2.36,6.06,3.59,9.09h29.1q-4.41-9.5-8.42-19.15a511,511,0,0,1-29.2-96,513.06,513.06,0,0,1-.22-199.8,511.46,511.46,0,0,1,29-96.13c23.29-56.45,50.88-108.63,92.48-153.38-20.37,21.63-40.5,45-58.57,69.8s-34.14,51-46.38,78.42A532.31,532.31,0,0,0,116.9,753.28Z"/><path class="cls-2" d="M72.19,762.37h30.33A570,570,0,0,1,77,673.08a574.11,574.11,0,0,1-.23-223.44,569,569,0,0,1,32.43-107.51c26-63.13,56.89-121.48,103.42-171.53-22.78,24.19-45.28,50.32-65.51,78s-38.17,57.1-51.86,87.7a595.58,595.58,0,0,0-23,426Z"/><path class="cls-2" d="M1258.41,754.2v32.73q-5.55,17.45-12.13,34.59a638.28,638.28,0,0,1-64.34,124.74H112.49A637.38,637.38,0,0,1,48.07,821.43q-6.57-17.16-12.13-34.65V754.2Z"/><text class="cls-3" transform="translate(183.65 897.05)">CODING <tspan class="cls-4" x="591.73" y="0">TREE</tspan></text><path class="cls-5" d="M1258.41,786.93q-5.55,17.45-12.13,34.59a640.55,640.55,0,0,1-117.58,194.15q-9.2,10.41-18.83,20.42-21.46,22.26-45,42.47a622.71,622.71,0,0,1-53,40.72A632.79,632.79,0,0,1,899,1181.46l-15,6.06c-5,2-9.94,4.16-15.07,5.83l-15.27,5.31c-5.11,1.72-10.15,3.68-15.36,5.08l-15.52,4.54-7.77,2.27c-1.28.37-2.57.79-3.89,1.12l-3.92.94-15.76,3.72-7.89,1.84-3.93.89-4,.72a658.75,658.75,0,0,1-128.57,13,664.94,664.94,0,0,1-128.55-13A640.75,640.75,0,0,1,231.36,1080.1l-.12-.1a638.83,638.83,0,0,1-46.82-44q-9.57-9.95-18.68-20.3A641.34,641.34,0,0,1,48.07,821.43q-6.57-17.16-12.13-34.65A641.08,641.08,0,0,1,61.71,330.84c16.87-37.9,38.33-73.93,62-107.71,17.62-25.08,43.51-48.76,64.45-71-25.07,27-45.93,56.18-64,87.15S90.66,303,76.61,337a613.39,613.39,0,0,0-35,115.84,618.7,618.7,0,0,0,.26,240.82A616.44,616.44,0,0,0,57.2,754.2q8.64,28.06,19.92,55.19a618.69,618.69,0,0,0,134,199.91c2.17,2.14,4.32,4.27,6.51,6.37a615.58,615.58,0,0,0,429.48,173.69,623.7,623.7,0,0,0,120.23-11.7,614.82,614.82,0,0,0,309.27-162q3.27-3.15,6.48-6.37a618.8,618.8,0,0,0,134-199.91q11.26-27.09,19.89-55.19a613.71,613.71,0,0,0,15.31-60.51,618.4,618.4,0,0,0,.25-240.81,613.24,613.24,0,0,0-35-115.85c-28.08-68.06-61.32-130.94-111.47-184.88,24.56,26.06,48.81,54.23,70.62,84.11s41.13,61.53,55.88,94.53a642,642,0,0,1,25.84,456.14Z"/><line class="cls-6" x1="138.97" y1="946.26" x2="1155.38" y2="946.26"/><line class="cls-6" x1="43.4" y1="762.37" x2="1250.94" y2="762.37"/><polyline class="cls-7" points="435.24 1076.88 435.24 1019.61 564.36 972.6 564.36 946.26"/><line class="cls-7" x1="647.17" y1="946.26" x2="647.17" y2="1127.06"/><line class="cls-7" x1="564.36" y1="942.88" x2="564.36" y2="1070.33"/><circle class="cls-8" cx="564.35" cy="1070.33" r="17.58"/><circle class="cls-8" cx="647.17" cy="1127.06" r="17.58"/><circle class="cls-8" cx="435.24" cy="1076.88" r="17.58"/><polyline class="cls-7" points="859.11 1076.88 859.11 1019.61 729.99 972.6 729.99 946.26"/><line class="cls-7" x1="729.99" y1="942.88" x2="729.99" y2="1070.33"/><circle class="cls-8" cx="729.99" cy="1070.33" r="17.58"/><circle class="cls-8" cx="859.1" cy="1076.88" r="17.58"/><path class="cls-1" d="M711.5,213.18c-12,16.51-32.63,30-64.33,39.78-31.69-9.75-52.36-23.27-64.32-39.78-13.34-18.4-15.84-40.51-10.71-65.24,8.59-41.39,38.59-90.12,75-141.06,36.45,50.94,66.45,99.67,75,141.06C727.34,172.67,724.83,194.78,711.5,213.18Z"/><path class="cls-2" d="M711.5,213.18c-12,16.51-32.63,30-64.33,39.78-31.69-9.75-52.36-23.27-64.32-39.78-13.34-18.4-15.84-40.51-10.71-65.24a131.87,131.87,0,0,1,150.07,0C727.34,172.67,724.83,194.78,711.5,213.18Z"/><path class="cls-9" d="M711.5,213.18c-12,16.51-32.63,30-64.33,39.78-31.69-9.75-52.36-23.27-64.32-39.78a76.52,76.52,0,0,1,128.65,0Z"/><path class="cls-1" d="M588.29,323c1.47,23.25-7,50.05-28.08,81.37-35.39,13.95-63.74,16.67-86.52,10.5-25.4-6.87-43.87-24.77-57.47-50.46-22.75-43-31.83-107.84-36.79-179.24,69.89,19.35,132.41,41.34,170.47,72.07C572.63,275.59,586.65,297.08,588.29,323Z"/><path class="cls-2" d="M588.29,323c1.47,23.25-7,50.05-28.08,81.37-35.39,13.95-63.74,16.67-86.52,10.5-25.4-6.87-43.87-24.77-57.47-50.46A146.69,146.69,0,0,1,465.85,290a150,150,0,0,1,84-32.72C572.63,275.59,586.65,297.08,588.29,323Z"/><path class="cls-9" d="M588.29,323c1.47,23.25-7,50.05-28.08,81.37-35.39,13.95-63.74,16.67-86.52,10.5a85.26,85.26,0,0,1,31.53-77.18A88.07,88.07,0,0,1,588.29,323Z"/><path class="cls-1" d="M563.18,521.2c6.55,32.14-.1,71.13-23.44,118.77-46.66,26.11-85.68,35.23-118.65,30.91-36.75-4.8-66-26.31-89.91-59.59-40.05-55.71-65.25-144.43-86-243.09,101.22,13.85,192.68,32.77,251.7,68.49C532.18,458,555.88,485.36,563.18,521.2Z"/><path class="cls-2" d="M563.18,521.2c6.55,32.14-.1,71.13-23.44,118.77-46.66,26.11-85.68,35.23-118.65,30.91-36.75-4.8-66-26.31-89.91-59.59A205.48,205.48,0,0,1,386,498.11a210.43,210.43,0,0,1,110.9-61.42C532.18,458,555.88,485.36,563.18,521.2Z"/><path class="cls-9" d="M563.18,521.2c6.55,32.14-.1,71.13-23.44,118.77-46.66,26.11-85.68,35.23-118.65,30.91A119.69,119.69,0,0,1,450.15,557.3,123.68,123.68,0,0,1,563.18,521.2Z"/><line class="cls-10" x1="613.88" y1="710.39" x2="433.35" y2="532.4"/><ellipse class="cls-5" cx="483.94" cy="327.59" rx="13.92" ry="13.73"/><ellipse class="cls-5" cx="647.26" cy="173.5" rx="15.55" ry="15.33"/><ellipse class="cls-5" cx="434.85" cy="532.4" rx="20.13" ry="19.85"/><polyline class="cls-10" points="613.88 762.37 613.88 455.7 483.94 327.59"/><path class="cls-1" d="M706.06,323c-1.47,23.25,7,50.05,28.08,81.37,35.39,13.95,63.74,16.67,86.52,10.5,25.39-6.87,43.87-24.77,57.46-50.46,22.76-43,31.84-107.84,36.8-179.24C845,204.51,782.51,226.5,744.45,257.23,721.72,275.59,707.7,297.08,706.06,323Z"/><path class="cls-2" d="M706.06,323c-1.47,23.25,7,50.05,28.08,81.37,35.39,13.95,63.74,16.67,86.52,10.5,25.39-6.87,43.87-24.77,57.46-50.46A146.67,146.67,0,0,0,828.5,290a150.07,150.07,0,0,0-84-32.72C721.72,275.59,707.7,297.08,706.06,323Z"/><path class="cls-9" d="M706.06,323c-1.47,23.25,7,50.05,28.08,81.37,35.39,13.95,63.74,16.67,86.52,10.5a85.28,85.28,0,0,0-31.53-77.18A88.07,88.07,0,0,0,706.06,323Z"/><path class="cls-1" d="M731.17,521.2c-6.55,32.14.1,71.13,23.44,118.77,46.66,26.11,85.68,35.23,118.65,30.91,36.75-4.8,66-26.31,89.91-59.59,40.05-55.71,65.25-144.43,86-243.09C947.92,382.05,856.46,401,797.43,436.69,762.17,458,738.47,485.36,731.17,521.2Z"/><path class="cls-2" d="M731.17,521.2c-6.55,32.14.1,71.13,23.44,118.77,46.66,26.11,85.68,35.23,118.65,30.91,36.75-4.8,66-26.31,89.91-59.59a205.48,205.48,0,0,0-54.83-113.18,210.42,210.42,0,0,0-110.91-61.42C762.17,458,738.47,485.36,731.17,521.2Z"/><path class="cls-9" d="M731.17,521.2c-6.55,32.14.1,71.13,23.44,118.77,46.66,26.11,85.68,35.23,118.65,30.91A119.69,119.69,0,0,0,844.2,557.3,123.68,123.68,0,0,0,731.17,521.2Z"/><line class="cls-10" x1="680.47" y1="710.39" x2="861" y2="532.4"/><ellipse class="cls-5" cx="810.41" cy="327.59" rx="13.92" ry="13.73"/><ellipse class="cls-5" cx="859.5" cy="532.4" rx="20.13" ry="19.85"/><polyline class="cls-10" points="680.47 762.37 680.47 455.7 810.41 327.59"/><line class="cls-10" x1="647.17" y1="762.37" x2="647.17" y2="178.1"/></g></svg>