<svg xmlns="http://www.w3.org/2000/svg" xmlns:xlink="http://www.w3.org/1999/xlink" viewBox="0 0 650.65 350.16"><defs><style>.cls-1,.cls-18,.cls-22{fill:none;}.cls-1{stroke:#fff;stroke-width:5px;}.cls-1,.cls-16,.cls-18,.cls-19,.cls-20,.cls-22,.cls-23,.cls-24{stroke-miterlimit:10;}.cls-2{fill:#eb7263;}.cls-3{fill:#9f4a4a;}.cls-4{fill:#fdbd7e;}.cls-5{fill:#c5564e;}.cls-24,.cls-6{fill:#a65265;}.cls-7{fill:#da675e;}.cls-8{fill:#c55d58;}.cls-9{fill:#b45454;}.cls-10{fill:#8d4343;}.cls-11{fill:#7a3b3b;}.cls-12{fill:#422d1e;}.cls-13{fill:#e1b3a5;}.cls-14{fill:#f1beab;}.cls-15,.cls-19{fill:#fff;}.cls-16,.cls-18,.cls-22{stroke:#000;}.cls-17,.cls-22{opacity:0.46;}.cls-18{stroke-width:3px;}.cls-19,.cls-20,.cls-23{stroke:#333;}.cls-20{fill:#51536b;}.cls-20,.cls-23{stroke-width:0.75px;}.cls-21{fill:#fbfbfb;opacity:0.5;}.cls-22{stroke-width:0.5px;}.cls-23{fill:#5c6270;}.cls-24{stroke:#8d475a;}.cls-25{mask:url(#mask);}</style><mask id="mask" x="795.86" y="880.82" width="282.74" height="282.74" maskUnits="userSpaceOnUse"/></defs><g id="DAMIAN_-_LANDSCAPE" data-name="DAMIAN - LANDSCAPE"><path class="cls-1" d="M493.45,175A168.85,168.85,0,0,1,455.3,282c-2.49,3-5.07,6-7.75,8.82q-4.29,4.59-8.93,8.83c-3.35,3.07-6.83,6-10.43,8.81q-3.6,2.83-7.39,5.44c-1.65,1.16-3.33,2.28-5,3.38a170.49,170.49,0,0,1-15.46,8.83l-.33.16a164.57,164.57,0,0,1-20,8.45,6,6,0,0,1-.6.2A167.37,167.37,0,0,1,343.86,343c-4.61.54-9.29.88-14,1-1.83.07-3.67.1-5.5.1q-4.19,0-8.3-.2-7.24-.35-14.3-1.31c-3.21-.42-6.39-.94-9.53-1.54q-5.36-1-10.6-2.41-6.27-1.62-12.35-3.73a5.84,5.84,0,0,1-.59-.2,166.41,166.41,0,0,1-20.32-8.61c-1.8-.91-3.59-1.84-5.35-2.82q-4.77-2.61-9.32-5.51l-.78-.5c-4.27-2.76-8.42-5.69-12.41-8.82-3.6-2.79-7.08-5.74-10.43-8.81-3.08-2.82-6.07-5.77-8.94-8.83-2.68-2.85-5.27-5.8-7.75-8.82A169.11,169.11,0,1,1,493.45,175Z"/><rect class="cls-2" width="650.65" height="350.53"/><rect class="cls-3" x="-0.63" y="292.93" width="652.18" height="57.61"/><circle class="cls-4" cx="366.63" cy="105.94" r="67.81"/><path class="cls-5" d="M646.05,260.5l-18.65.92-4.61-1.54-9.23-1.64-15.17,1.64-8.85,3.69-7.29-2.15L565.91,263l-18.43,1.65-9.66-6.36-14.73,3.18-9.64-3.18-9.05,3.18-11.31-3.18h-4.43l-3.84,4.1-7.69-.92-20.3-5.23-7.31,3.69L444.3,261l-3.68-2.73-11.2,3.14-2.95-.88-1.58.08-5.79-1.11-5.21,1.65-6.06.3-4.62-1.54L394,258.24l-15.18,1.64L370,263.57l-7.29-2.15L346.33,263,327.9,264.6l-9.66-6.36-14.73,3.18-9.64-3.18-9.05,3.18-11.31-3.18h-4.43l-3.84,4.1-7.68-.92-4,1.25c1.74-3.06,3.4-6.17,4.95-9.35l-11,2.87-7.3,3.69L227,262.62,221,258.24l-8.94,2.5-4.7.24-7.88-1.51L196,260.59l-2.12-.71-9.23-1.64-15.17,1.64-8.85,3.69-7.3-2.15L137,263l-18.43,1.65-9.66-6.36-14.72,3.18-9.64-3.18-9.05,3.18-11.32-3.18H59.72l-3.85,4.1-7.68-.92L38,264.6H30.12L18.6,263.37l-6.93-5.13L.33,261.42l-1-.19V287c1.07,1.29,2.15,2.58,3.26,3.83q4,4.59,8.38,8.83,4.71,4.6,9.77,8.82,5.61,4.68,11.62,8.81c.25.17.5.33.73.51l22.65-.51,152.64-3.37q3.54-2.61,6.92-5.44c2.54-2.11,5-4.32,7.41-6.59,2.4,2.27,4.86,4.48,7.4,6.59q5.61,4.68,11.62,8.81c.25.17.49.33.73.51l22.64-.51,152.65-3.37c2.35-1.74,4.67-3.55,6.92-5.44q5.07-4.2,9.77-8.82c.93-.9,1.83-1.84,2.74-2.78.91.94,1.81,1.88,2.74,2.78q4.69,4.6,9.77,8.82,5.61,4.68,11.62,8.81c.25.17.49.33.73.51l22.64-.51,152.64-3.37c2.36-1.74,4.68-3.55,6.93-5.44s4.6-4,6.82-6.05V262Z"/><path id="SHALOIN" class="cls-6" d="M330.19,163.13c-.5-.31-1-.64-1.47-1-.23-.15-.47-.3-.69-.46l.49,2.78h3.89C331.65,164,330.92,163.6,330.19,163.13Zm-67.44.68v.67H263A5.46,5.46,0,0,1,262.75,163.81Zm186.19-8.88c22.15-4.78,32.39-11.39,31.58-19.68-28.95,8.75-43.6,5.36-49.82-7.09-3.33-6.61-4.27-15.78-3.72-27.06V93.93h-8.61v7.17H221.65V93.93h-4.71v7.79c1.21,12-4.41,21.85-11.59,31.19-10,10.78-22.09,9.1-36.21-4.11,3.6,16.45,14.82,26.37,36.21,24.64v33.39h.88c-5.64,10.29-17.63,15.27-34.12,16.53A80.58,80.58,0,0,0,202,209.21v73.84h8.82V235.47a8.85,8.85,0,0,1,8.82-8.82h5.75a8.76,8.76,0,0,1,6.15,2.53,8.89,8.89,0,0,1,2.67,6.29v47.58h10.65V235.47a8.73,8.73,0,0,1,1.46-4.84,8.39,8.39,0,0,1,1.52-1.73s0,0,0,0a8.67,8.67,0,0,1,5.83-2.24h5.76a8.85,8.85,0,0,1,8.81,8.82v47.58h10.66V235.47a8.84,8.84,0,0,1,8.81-8.82h5.75a8.84,8.84,0,0,1,8.81,8.82v47.58h4.83V235.47a8.7,8.7,0,0,1,2.3-5.9,8.58,8.58,0,0,1,5.37-2.83,7.2,7.2,0,0,1,1.14-.09h27.5a8.84,8.84,0,0,1,8.81,8.82v47.58H357V235.47a8.85,8.85,0,0,1,8.82-8.82h5.75a1.31,1.31,0,0,1,.35,0,8.81,8.81,0,0,1,8.47,8.79v47.58h9.39V235.47a8.85,8.85,0,0,1,8.82-8.82h5.74a8.86,8.86,0,0,1,8.15,5.45,8.77,8.77,0,0,1,.67,3.37v47.58h9.4V235.47a8.84,8.84,0,0,1,8.81-8.82h5.76a8.84,8.84,0,0,1,8.81,8.82v47.58h5.23V209.21c10.63-.22,18.79-2.33,25.13-5.85-12.57-1.36-22.9-6.52-30.36-16.61V154.9ZM214.27,175V164.48h25.84V175Zm33.42,0V164.48h25.85V175Zm33.43,0V164.48H307V175Zm59.26,0H314.54V164.48h25.84Zm33.43,0H348V164.48h25.85Zm33.42,0H381.39V164.48h25.84Zm33.42,0H414.8V164.48h25.85Z"/><rect class="cls-2" x="-0.19" y="282.04" width="650.86" height="8.82"/><rect class="cls-7" x="-0.19" y="290.85" width="650.86" height="8.83"/><rect class="cls-8" x="-0.19" y="299.68" width="650.86" height="8.82"/><rect class="cls-9" x="-0.19" y="308.5" width="650.86" height="8.82"/><path class="cls-10" d="M400.33,326.14A166.47,166.47,0,0,1,380,334.76l-.59.2H269.27l-.6-.2a166.33,166.33,0,0,1-20.31-8.62Z"/><path class="cls-11" d="M380,334.76l-.59.2a169.8,169.8,0,0,1-110.15,0l-.6-.2Z"/><polygon class="cls-12" points="262.99 178.33 283.11 211.05 288.96 199.34 315.47 191.79 328.7 192.05 354.83 201.5 359.83 214.63 376.5 174.2 372.33 222.12 357.98 261.4 327.83 279.96 289.9 268.46 268.43 228.66 262.99 178.33"/><path class="cls-13" d="M262.74,170.27a74.27,74.27,0,0,1-5-27.08c2.3-.15,4,1.75,5,6.23v20.85Z"/><path class="cls-13" d="M374.92,171a74.52,74.52,0,0,0,5-27.08c-2.3-.15-4,1.75-5,6.23V171Z"/><path class="cls-14" d="M376.51,171.2c0,55.11-23.58,99.79-55.69,99.79s-55.75-44-58.15-99.79c0-16.54-.38-33.18.69-47.47.09-1.24.14-2.41.23-3.53,0-.44.07-.88.12-1.31a15.72,15.72,0,0,1,.9-3.84c1-2.78,2.18-5.47,3.4-8,.63-1.36,1.28-2.69,2-4l.53-1c1-1.91,2.1-3.77,3.23-5.54,10.36-16.56,31.8-25.1,47.09-25.1,13.15,0,30.91,5.27,40.65,17.92.39.5.77,1,1.14,1.52,0,0,0,0,0,0a3.16,3.16,0,0,1,.2.27,89.74,89.74,0,0,1,6.54,10.51c1.17,2.21,2.3,4.49,3.36,6.89.35.79.68,1.61,1,2.43.52,1.38,1,2.81,1.35,4.27C379.28,131.19,376.51,151.36,376.51,171.2Z"/><path class="cls-12" d="M311.22,139.59c-13.22-2.24-29.21-3.08-41.55-.38-.42-2.78.85-5.56,3.08-7.73,14.27-2.15,28.62-1.1,38.57,5.37C311.9,137.51,311.93,139.32,311.22,139.59Z"/><path class="cls-12" d="M334.5,80.49a84.79,84.79,0,0,0-13.24-1c-18.13,0-35.89,9.92-49.06,19.57C275,94.63,279,86.69,283.88,84.19c-.18-9.07,2.52-16.08,5.28-22.76-1,6.65,1.13,11.34,3.59,15.87C298,61.48,308,55.1,320,52.81c-6.08,3.52-8.37,6.67-9,9.68,4-3.59,9.9-5.68,17-6.87,6.2,0,13-3.9,20-9L342.8,59.15C349.91,56,356,49.29,361.47,40.28c4.21,13.77,2.3,26.92-1.94,39.84l4.29-2.82c-.7,4.8-.85,8.81-2.35,12a85.46,85.46,0,0,0-13.57-5.51Z"/><path d="M316,343.94q-7.25-.35-14.3-1.31l-19.89-32.12-1.54-2.5-3.52-5.68-1.55-2.51-3.51-5.67-1.56-2.52L266.65,286l-1.55-2.5-3.51-5.68-1.55-2.5-3.51-5.69L255,267.09l-3.53-5.68-1.55-2.51-3.51-5.68-1.55-2.51L241.32,245l-1.54-2.49-5.07-8.19-3.52-5.68-1.55-2.52-5-8.15c-1.58-2.54-.18-6.26,3.09-8.3a8.17,8.17,0,0,1,5-1.24,4.84,4.84,0,0,1,3.77,2.18l5,8.14,1.55,2.52,3.52,5.68,1.54,2.5,3.53,5.68,1.55,2.5,3.51,5.68,1.55,2.51,3.51,5.68h0l1.53,2.51,3.53,5.68,1.54,2.49h0l3.51,5.68,1.55,2.51,3.52,5.69,1.46,2.36.09.13,3.51,5.69h0l1.55,2.5,3.51,5.68,1.55,2.51,3.52,5.68,1.56,2.5L316,339.07A5,5,0,0,1,316,343.94Z"/><rect class="cls-15" x="229.36" y="222.25" width="14" height="2.95" transform="translate(-82.37 157.92) rotate(-31.76)"/><rect class="cls-15" x="234.43" y="230.44" width="14" height="2.94" transform="translate(-85.92 161.81) rotate(-31.76)"/><rect class="cls-15" x="239.5" y="238.63" width="14" height="2.94" transform="translate(-89.47 165.71) rotate(-31.76)"/><rect class="cls-15" x="244.57" y="246.81" width="14" height="2.94" transform="translate(-93.02 169.6) rotate(-31.76)"/><rect class="cls-15" x="249.63" y="255" width="14" height="2.94" transform="translate(-96.57 173.49) rotate(-31.76)"/><rect class="cls-15" x="254.7" y="263.18" width="14" height="2.94" transform="translate(-100.12 177.38) rotate(-31.76)"/><rect class="cls-15" x="259.77" y="271.36" width="14" height="2.94" transform="translate(-103.66 181.27) rotate(-31.76)"/><rect class="cls-15" x="264.83" y="279.55" width="14" height="2.94" transform="matrix(0.85, -0.53, 0.53, 0.85, -107.21, 185.17)"/><rect class="cls-15" x="269.9" y="287.73" width="14" height="2.95" transform="translate(-110.77 189.06) rotate(-31.76)"/><rect class="cls-15" x="274.97" y="295.91" width="14" height="2.95" transform="translate(-114.31 192.95) rotate(-31.76)"/><rect class="cls-15" x="280.03" y="304.1" width="14" height="2.95" transform="translate(-117.86 196.85) rotate(-31.76)"/><path d="M329.84,344a5.05,5.05,0,0,1,0-5l22.23-35.93,1.55-2.5,3.51-5.68h0l1.44-2.32.11-.19,3.52-5.68,1.55-2.5,3.51-5.69,1.55-2.5,3.53-5.68,1.55-2.51,3.51-5.68,1.55-2.49,3.51-5.7,1.55-2.49,3.52-5.68,1.55-2.51,3.52-5.68,1.55-2.5,3.52-5.68,1.54-2.5,3.52-5.69,1.56-2.51,5-8.14a4.87,4.87,0,0,1,3.76-2.18,8.15,8.15,0,0,1,5.05,1.24c3.28,2,4.68,5.76,3.1,8.3l-5.05,8.15-1.55,2.52-3.52,5.68-5.07,8.19L404.5,245,401,250.71l-1.55,2.51-3.53,5.68-1.53,2.51-3.53,5.68-1.55,2.49-3.51,5.69-1.55,2.5-3.51,5.68-1.55,2.5-3.53,5.68-1.55,2.52-3.51,5.67L369,302.33,365.52,308l-1.56,2.5L343.85,343Z"/><rect class="cls-15" x="407.99" y="216.72" width="2.95" height="14" transform="translate(3.71 454.11) rotate(-58.24)"/><rect class="cls-15" x="402.92" y="224.91" width="2.94" height="14" transform="translate(-5.65 453.68) rotate(-58.24)"/><rect class="cls-15" x="397.86" y="233.1" width="2.94" height="14" transform="translate(-15.01 453.24) rotate(-58.24)"/><rect class="cls-15" x="392.79" y="241.28" width="2.94" height="14" transform="translate(-24.37 452.81) rotate(-58.24)"/><rect class="cls-15" x="387.72" y="249.46" width="2.94" height="14" transform="translate(-33.73 452.38) rotate(-58.24)"/><rect class="cls-15" x="382.66" y="257.65" width="2.94" height="14" transform="translate(-43.09 451.95) rotate(-58.24)"/><rect class="cls-15" x="377.59" y="265.83" width="2.94" height="14" transform="translate(-52.44 451.52) rotate(-58.24)"/><rect class="cls-15" x="372.52" y="274.02" width="2.94" height="14" transform="translate(-61.8 451.09) rotate(-58.24)"/><rect class="cls-15" x="367.45" y="282.2" width="2.95" height="14" transform="translate(-71.17 450.65) rotate(-58.24)"/><rect class="cls-15" x="362.38" y="290.39" width="2.95" height="14" transform="translate(-80.52 450.22) rotate(-58.24)"/><rect class="cls-15" x="357.31" y="298.57" width="2.95" height="14" transform="translate(-89.88 449.79) rotate(-58.24)"/><path class="cls-12" d="M333.91,139.48c12.58-.53,24.47.42,37.35.42.47-2.57-2.66-4.75-5.54-6.26-13.79-1.87-20.66-2.08-31.69,2C333.47,136.26,333.26,139.21,333.91,139.48Z"/><path d="M404.15,350c-1.48-12.56-7.31-44.55-10.62-53-9.82-8.77-24.83-13.7-42-17l-1.16-.22q-3.8-.71-7.71-1.31l0-.14-.89-3.79H306.18v4.48a.76.76,0,0,0-.21,0q-5.31.41-10.37,1.28a98.1,98.1,0,0,0-35.82,13.29c-4.13,2.13-11.08,44.07-14.94,56.39Z"/><path class="cls-15" d="M288.46,350.2H300L351.52,280l-1.16-.22-7.75-1.45-.74-.14-15.79,21.19L306,279.08l-.44-.44-9.95,1.71h0l24.15,24.89-32,44.79Z"/><path class="cls-12" d="M376.4,177.91,360,217.71l-5-13.13-26.13-9.44-13.23-.27-26.51,7.56-5.86,11.7L263.34,181.2l.55,5.35v.09l4.69,45.11,10.28,19.06,4.86,9,6.32,11.74,12.19,3.69,3.93,1.2.9.28L324.62,282l3.37,1,1.66-1,12.08-7.43,10.46-6.45,4.83-3,1.12-.69,1-2.83,12.77-35,.55-1.48,2.92-33.56.7-8.06.54-6.29ZM321,205.47c13.83,0,25,4.84,25,11.91a14.32,14.32,0,0,1-3.66,9.27c-3,3.22-7.82,4.52-14,0-.29-.21-.61-.44-.91-.69-1.2,0-10.78.07-11.94.07-.27.26-.52.49-.78.71a11.91,11.91,0,0,1-5.37,2.83c-7.54,1.54-13.39-7.21-13.39-12.19C296,210.31,307.19,205.47,321,205.47Z"/><path d="M375.32,116.32c-45.64-12-91.58-13.82-111.73,5.22q0-.8.12-1.56a21,21,0,0,1,.91-4.58,34.12,34.12,0,0,1,3.39-7.3c.65-1.16,1.33-2.41,2-4,25.11-15.87,66.06-19.78,93.45-12a88.1,88.1,0,0,1,6.39,10.53c1.18,2.22,2.24,4.61,3.3,7,.35.8.68,1.62,1,2.43C374.69,113.44,374.93,114.86,375.32,116.32Z"/><path class="cls-16" d="M263.23,120.63l6.07-16c-4.67-.1-8,2.16-9.68,7.26C258,115.84,259.5,118.48,263.23,120.63Z"/><path class="cls-16" d="M259.39,109.62c.46-.7,5.74-5.07,5.74-5.07-1.56-5.51,2-11.75,8.31-18.4L255,97.67Z"/><polygon class="cls-16" points="260 110.78 245.07 120.67 259.37 118.23 260 110.78"/><path class="cls-16" d="M259.37,118.23a15.32,15.32,0,0,1,.63-7.45"/><path class="cls-17" d="M317.24,148.36c-.42,7.91-1.94,27.39-5.45,33A48,48,0,0,0,309.1,186c-.85,2.79.39,4.65,4.52,5.25a5,5,0,0,1-5.58-2,4.68,4.68,0,0,1-.11-3.65,15.64,15.64,0,0,1,2.58-4.49c1.09-1.32,2.17-3.2,3.17-7.21Z"/><path class="cls-17" d="M325.7,148.24c.7,7.9,2.9,27.64,6.61,33.13a48.15,48.15,0,0,1,2.85,4.54c.95,2.76-.23,4.67-4.33,5.41a5,5,0,0,0,5.5-2.24,4.67,4.67,0,0,0,0-3.65,15.87,15.87,0,0,0-2.74-4.4c-1.14-1.28-2.28-3.11-3.42-7.09Z"/><path class="cls-18" d="M266.52,172.22c-5.46-10.77-8.41-21-8-30.44a136.83,136.83,0,0,1,55.42,0,32.48,32.48,0,0,0,15.53,0,129,129,0,0,1,52.91,1.05c2.8,4.3-3.17,26.45-7.14,29.39-11.57,3.3-24.24,2.8-37.58,0-5.09-6.47-9-14.5-11.75-23.94a8.54,8.54,0,0,0-8.19.21,78.6,78.6,0,0,1-10.5,22C294.7,175.48,281,175.53,266.52,172.22Z"/><path class="cls-17" d="M313.41,189.13a12,12,0,0,1,6.57,2.74,5.82,5.82,0,0,0,6,0c2-1.54,4.1-2.63,6.42-2.52-.95-1.3-2.31-1.76-4.76,0q-4.74,5.37-9.48,0C315.82,187.72,314.37,187.94,313.41,189.13Z"/><path class="cls-19" d="M307,152.4c-10.44,8.3-20.08,6-29.34-1.4a27.47,27.47,0,0,1,11.88-4.07,22.62,22.62,0,0,1,8.32.87A30.79,30.79,0,0,1,307,152.4Z"/><path class="cls-20" d="M298.55,150.34a5.14,5.14,0,1,1-9-3.41,22.62,22.62,0,0,1,8.32.87A5.16,5.16,0,0,1,298.55,150.34Z"/><circle class="cls-21" cx="295.26" cy="149.94" r="1.18"/><path class="cls-22" d="M279.64,146.16c7.73-1.13,14.27-4.31,27,3.26"/><path class="cls-19" d="M336.69,152.32c9.66,7.68,18.59,5.53,27.15-1.3a25.55,25.55,0,0,0-11-3.77,21,21,0,0,0-7.7.81A28.28,28.28,0,0,0,336.69,152.32Z"/><path class="cls-23" d="M344.53,150.41a4.76,4.76,0,1,0,8.32-3.16,21,21,0,0,0-7.7.81A4.79,4.79,0,0,0,344.53,150.41Z"/><circle class="cls-21" cx="347.59" cy="150.04" r="1.09"/><path class="cls-22" d="M362,146.54c-7.15-1-13.2-4-25,3"/><path class="cls-24" d="M343.08,218.05c-15.58,10-29.64,8.29-42.83,0l2.52-.85a63,63,0,0,1,36.78-.24C340.72,217.28,341.9,217.65,343.08,218.05Z"/><path class="cls-24" d="M339.55,217a63,63,0,0,0-36.73.24c6.78-6.54,13.31-10.62,19.17-7.64C328.14,206.58,333.88,210.89,339.55,217Z"/></g></svg>