<svg xmlns="http://www.w3.org/2000/svg" viewBox="0 0 278.98 277.41"><defs><style>.cls-1{fill:#eb7263;}.cls-2{fill:#fdbd7e;}.cls-3{fill:#c5564e;}.cls-23,.cls-4{fill:#a65265;}.cls-5{fill:#da675e;}.cls-6{fill:#c55d58;}.cls-7{fill:#b45454;}.cls-8{fill:#9f4a4a;}.cls-9{fill:#8d4343;}.cls-10{fill:#7a3b3b;}.cls-11{fill:#e1b3a5;}.cls-12{fill:#f1beab;}.cls-13{fill:#422d1e;}.cls-14,.cls-18{fill:#fff;}.cls-15,.cls-17,.cls-21{stroke:#000;}.cls-15,.cls-17,.cls-18,.cls-19,.cls-21,.cls-22,.cls-23{stroke-miterlimit:10;}.cls-16,.cls-21{opacity:0.46;}.cls-17,.cls-21{fill:none;}.cls-17{stroke-width:3px;}.cls-18,.cls-19,.cls-22{stroke:#333;}.cls-19{fill:#51536b;}.cls-19,.cls-22{stroke-width:0.75px;}.cls-20{fill:#fbfbfb;opacity:0.5;}.cls-21{stroke-width:0.5px;}.cls-22{fill:#5c6270;}.cls-23{stroke:#8d475a;}</style></defs><title>Damian - Avatar</title><g id="Layer_4" data-name="Layer 4"><path class="cls-1" d="M273.66,138.7a133.93,133.93,0,0,1-30.29,85q-3,3.6-6.15,7-3.41,3.65-7.09,7-4,3.66-8.28,7Q219,246.92,216,249q-2,1.38-4,2.68a136,136,0,0,1-12.27,7l-.26.13a131.49,131.49,0,0,1-15.87,6.71l-.47.16a133.06,133.06,0,0,1-28.24,6.4q-5.49.65-11.12.81c-1.45.06-2.91.08-4.37.08q-3.32,0-6.59-.16-5.75-.27-11.35-1-3.83-.5-7.57-1.22c-2.83-.55-5.64-1.18-8.41-1.91q-5-1.29-9.81-3l-.47-.16a132,132,0,0,1-16.13-6.84c-1.43-.72-2.85-1.46-4.25-2.24q-3.78-2.07-7.4-4.37c-.2-.14-.41-.27-.62-.4q-5.09-3.28-9.85-7-4.29-3.33-8.28-7-3.68-3.36-7.1-7-3.19-3.39-6.15-7a134.27,134.27,0,1,1,238.24-85Z"/><circle class="cls-2" cx="172.97" cy="83.85" r="53.84"/><path class="cls-3" d="M258.43,200.86a133.51,133.51,0,0,1-15.06,22.8q-3,3.6-6.15,7-3.41,3.65-7.09,7-4,3.66-8.28,7Q219,246.92,216,249L86.61,251.67l-19.19.4c-.2-.14-.41-.27-.62-.4q-5.09-3.28-9.85-7-4.29-3.33-8.28-7-3.68-3.36-7.1-7-3.19-3.39-6.15-7a133.8,133.8,0,0,1-11.19-15.91l6.76-2,8.63,1.55,9.61-2.52,5.87,4.07,9.77,1h6.68l8.63-2.53,6.51.73L90,204.77H93.7l9.59,2.52,7.67-2.52,8.17,2.52,12.48-2.52,8.19,5,15.62-1.31,13.85-1.22,6.18,1.71,7.5-2.93,12.86-1.3,7.82,1.3,3.91,1.22,15.8-.73,7,1.95,12.54-2.44,6.19-2.93Z"/><path id="SHALOIN" class="cls-4" d="M238.32,122.75c17.59-3.8,25.72-9,25.08-15.63-35.2,10.64-43.77-1.32-42.51-27.11v-5.7h-6.84V80H57.86v-5.7H54.12V80.5c1,9.55-3.5,17.35-9.2,24.76C37,113.82,27.38,112.49,16.17,102c2.86,13.06,11.77,20.94,28.75,19.56v26.51h.7c-4.48,8.17-14,12.13-27.09,13.13a63.94,63.94,0,0,0,23.7,4.64v58.63h7V186.69a7,7,0,0,1,7-7H60.8a7,7,0,0,1,7,7v37.78h8.46V186.69a7,7,0,0,1,7-7h4.57a7,7,0,0,1,7,7v37.78h8.46V186.69a7,7,0,0,1,7-7h4.56a7,7,0,0,1,7,7v37.78h3.83V186.69a7,7,0,0,1,7-7h21.83a7,7,0,0,1,7,7v37.78h3.83V186.69a7,7,0,0,1,7-7h4.57a7,7,0,0,1,7,7v37.78h7.46V186.69a7,7,0,0,1,7-7h4.56a7,7,0,0,1,7,7v37.78h7.46V186.69a7,7,0,0,1,7-7H229a7,7,0,0,1,7,7v37.78h4.15V165.84c8.44-.17,14.92-1.85,19.95-4.64-10-1.08-18.18-5.18-24.1-13.19V122.72ZM72.52,138.7H52v-8.37H72.52Zm26.54,0H78.54v-8.37H99.06Zm26.54,0H105.08v-8.37H125.6Zm26.53,0H131.61v-8.37h20.52Zm26.54,0H158.15v-8.37h20.52Zm26.54,0H184.69v-8.37h20.52Zm26.53,0H211.22v-8.37h20.52Z"/><path class="cls-1" d="M243.37,223.66q-3,3.6-6.15,7H41.57q-3.19-3.39-6.15-7Z"/><path class="cls-5" d="M237.22,230.66q-3.41,3.65-7.09,7H48.67q-3.68-3.36-7.1-7Z"/><path class="cls-6" d="M230.13,237.67q-4,3.66-8.28,7H57q-4.29-3.33-8.28-7Z"/><path class="cls-7" d="M221.85,244.67Q219,246.92,216,249q-2,1.38-4,2.68H66.8q-5.09-3.28-9.85-7Z"/><path class="cls-8" d="M212,251.67a136,136,0,0,1-12.27,7H79.07a133.3,133.3,0,0,1-11.65-6.61c-.2-.14-.41-.27-.62-.4Z"/><path class="cls-9" d="M199.73,258.68a132,132,0,0,1-16.13,6.84l-.47.16H95.67l-.47-.16a132,132,0,0,1-16.13-6.84Z"/><path class="cls-10" d="M183.6,265.52l-.47.16a134.81,134.81,0,0,1-87.46,0l-.47-.16Z"/></g><g id="DAMIAN"><path class="cls-11" d="M90.49,134.93a59.22,59.22,0,0,1-3.95-21.5c1.83-.13,3.18,1.39,3.95,4.95v16.55"/><path class="cls-11" d="M179.55,135.48a59,59,0,0,0,3.94-21.5c-1.83-.12-3.18,1.39-3.94,5v16.55"/><path class="cls-12" d="M180.82,135.66c0,43.76-18.72,79.23-44.22,79.23S92.33,180,90.43,135.66c0-13.13-.3-26.34.55-37.69.07-1,.11-1.91.18-2.8,0-.35.06-.7.1-1a12.37,12.37,0,0,1,.71-3q1.25-3.31,2.7-6.38c.5-1.08,1-2.13,1.56-3.16l.42-.79q1.23-2.28,2.56-4.4c8.23-13.15,25.25-19.93,37.39-19.93,10.44,0,24.54,4.19,32.28,14.23.31.4.61.8.9,1.21a0,0,0,0,1,0,0c.05.07.11.14.16.22a70.7,70.7,0,0,1,5.19,8.34c.93,1.76,1.83,3.57,2.67,5.47.28.63.54,1.28.78,1.93.41,1.1.76,2.23,1.07,3.39C183,103.89,180.82,119.91,180.82,135.66Z"/><path class="cls-13" d="M129,110.57c-10.5-1.78-23.2-2.45-33-.31a7.17,7.17,0,0,1,2.44-6.13c11.34-1.71,22.73-.88,30.62,4.26C129.52,108.91,129.54,110.35,129,110.57Z"/><path class="cls-13" d="M147.46,63.64A67.25,67.25,0,0,0,137,62.81c-14.4,0-28.49,7.88-38.95,15.54,2.19-3.48,5.42-9.79,9.27-11.77-.14-7.2,2-12.77,4.19-18.07-.81,5.28.9,9,2.85,12.6C118.47,48.55,126.4,43.49,136,41.66c-4.83,2.8-6.65,5.3-7.14,7.69,3.16-2.85,7.86-4.51,13.5-5.46,4.92,0,10.34-3.09,15.91-7.13l-4.17,9.94c5.65-2.49,10.5-7.83,14.82-15,3.35,10.93,1.83,21.37-1.54,31.63l3.41-2.24c-.56,3.82-.67,7-1.86,9.54a68.3,68.3,0,0,0-10.78-4.37Z"/><path d="M132.8,272.81q-5.75-.27-11.35-1l-15.79-25.5-1.23-2-2.79-4.51-1.23-2-2.79-4.5-1.24-2-2.79-4.51-1.23-2-2.79-4.51-1.23-2-2.79-4.52-1.23-2-2.8-4.51-1.23-2-2.79-4.51-1.23-2-2.79-4.51-1.23-2-4-6.5-2.8-4.51-1.23-2-4-6.47c-1.25-2-.14-5,2.46-6.59a6.48,6.48,0,0,1,4-1,3.86,3.86,0,0,1,3,1.73l4,6.47,1.23,2,2.8,4.51,1.22,2,2.8,4.51,1.23,2,2.79,4.51,1.23,2,2.79,4.51h0l1.22,2,2.8,4.51,1.22,2h0l2.79,4.51,1.23,2,2.79,4.52,1.16,1.87.07.11,2.79,4.51h0l1.23,2,2.79,4.51,1.23,2,2.79,4.51,1.24,2,17.65,28.52A4,4,0,0,1,132.8,272.81Z"/><rect class="cls-14" x="63.99" y="176.2" width="11.12" height="2.34" transform="translate(-82.95 63.17) rotate(-31.76)"/><rect class="cls-14" x="68.01" y="182.7" width="11.12" height="2.33" transform="matrix(0.85, -0.53, 0.53, 0.85, -85.77, 66.26)"/><rect class="cls-14" x="72.03" y="189.2" width="11.12" height="2.33" transform="translate(-88.58 69.35) rotate(-31.76)"/><rect class="cls-14" x="76.06" y="195.7" width="11.12" height="2.33" transform="translate(-91.4 72.44) rotate(-31.76)"/><rect class="cls-14" x="80.08" y="202.19" width="11.12" height="2.33" transform="translate(-94.22 75.53) rotate(-31.76)"/><rect class="cls-14" x="84.1" y="208.69" width="11.12" height="2.33" transform="translate(-97.04 78.62) rotate(-31.76)"/><rect class="cls-14" x="88.12" y="215.19" width="11.12" height="2.33" transform="translate(-99.86 81.71) rotate(-31.76)"/><rect class="cls-14" x="92.15" y="221.69" width="11.12" height="2.33" transform="matrix(0.85, -0.53, 0.53, 0.85, -102.67, 84.8)"/><rect class="cls-14" x="96.17" y="228.19" width="11.12" height="2.34" transform="translate(-105.49 87.89) rotate(-31.76)"/><rect class="cls-14" x="100.19" y="234.68" width="11.12" height="2.34" transform="translate(-108.31 90.98) rotate(-31.76)"/><rect class="cls-14" x="104.22" y="241.18" width="11.12" height="2.34" transform="translate(-111.13 94.07) rotate(-31.76)"/><path d="M143.76,272.89a4,4,0,0,1,0-3.95l17.65-28.52,1.23-2,2.79-4.51h0l1.14-1.84.09-.15,2.79-4.51,1.23-2,2.79-4.51,1.23-2,2.8-4.51,1.23-2,2.79-4.51,1.23-2,2.79-4.52,1.23-2,2.79-4.51,1.23-2,2.8-4.51,1.23-2,2.79-4.51,1.23-2,2.79-4.52,1.24-2,4-6.47a3.89,3.89,0,0,1,3-1.73,6.49,6.49,0,0,1,4,1c2.6,1.62,3.71,4.57,2.46,6.59l-4,6.47-1.23,2-2.8,4.51-4,6.5-1.23,2-2.79,4.51-1.23,2-2.8,4.51-1.22,2-2.8,4.51-1.23,2-2.79,4.52-1.23,2-2.79,4.51-1.23,2-2.8,4.51-1.23,2-2.79,4.5-1.23,2-2.79,4.51-1.24,2-16,25.81Z"/><rect class="cls-14" x="205.81" y="171.81" width="2.34" height="11.12" transform="translate(-52.78 259.99) rotate(-58.24)"/><rect class="cls-14" x="201.79" y="178.31" width="2.33" height="11.12" transform="translate(-60.21 259.65) rotate(-58.24)"/><rect class="cls-14" x="197.76" y="184.81" width="2.33" height="11.12" transform="translate(-67.64 259.3) rotate(-58.24)"/><rect class="cls-14" x="193.74" y="191.31" width="2.33" height="11.12" transform="translate(-75.07 258.96) rotate(-58.24)"/><rect class="cls-14" x="189.72" y="197.8" width="2.33" height="11.12" transform="translate(-82.5 258.62) rotate(-58.24)"/><rect class="cls-14" x="185.7" y="204.3" width="2.33" height="11.12" transform="translate(-89.93 258.28) rotate(-58.24)"/><rect class="cls-14" x="181.67" y="210.8" width="2.33" height="11.12" transform="translate(-97.36 257.93) rotate(-58.24)"/><rect class="cls-14" x="177.65" y="217.3" width="2.33" height="11.12" transform="matrix(0.53, -0.85, 0.85, 0.53, -104.79, 257.59)"/><rect class="cls-14" x="173.62" y="223.8" width="2.34" height="11.12" transform="translate(-112.23 257.25) rotate(-58.24)"/><rect class="cls-14" x="169.6" y="230.3" width="2.34" height="11.12" transform="translate(-119.66 256.9) rotate(-58.24)"/><rect class="cls-14" x="165.58" y="236.79" width="2.34" height="11.12" transform="translate(-127.09 256.56) rotate(-58.24)"/><path class="cls-13" d="M147,110.48c10-.42,19.43.33,29.66.33.37-2-2.12-3.77-4.4-5-10.95-1.48-16.41-1.65-25.16,1.61C146.65,107.93,146.48,110.26,147,110.48Z"/><path d="M199.46,258.81a131.49,131.49,0,0,1-15.87,6.71l-.47.16a135.12,135.12,0,0,1-69.24,4.87c-2.83-.55-5.64-1.18-8.41-1.91q-5-1.29-9.81-3l-.47-.16a132,132,0,0,1-16.13-6.84c-1.43-.72-2.85-1.46-4.25-2.24,3-9.65,10-21.86,13.32-23.56a78,78,0,0,1,28.44-10.55q4-.69,8.24-1l.16,0v-3.56h28.22l.71,3,0,.11q3.1.48,6.12,1l.92.18c13.64,2.61,25.56,6.52,33.36,13.49A84.5,84.5,0,0,1,199.46,258.81Z"/><path class="cls-14" d="M161,222.07l-47.09,48.48c-2.83-.55-5.64-1.18-8.41-1.91l28.18-28.85-17.08-17.46h0l7.9-1.36.35.35,13.86,13.85,14.64-14.53.59.11,6.15,1.15Z"/><path class="cls-13" d="M167.7,172.59l-4-10.42L143,154.67l-10.5-.21-21,6-4.65,9.29L91,143.6l4.17,40.14,17,31.6,30.12,9.13,23.94-14.74,11.39-31.19,3.31-38Zm-25.83,6.55c-1,0-8.56.06-9.48.06-8.15,7.84-15.51-1.9-15.51-6.87,0-5.61,8.9-9.46,19.87-9.46s19.87,3.85,19.87,9.46S151.08,186.55,141.87,179.14Z"/><path d="M179.87,92.09c-36.24-9.57-72.71-11-88.71,4.14,0-.42.06-.83.1-1.24A16.44,16.44,0,0,1,92,91.36a27.31,27.31,0,0,1,2.69-5.8c.52-.92,1.06-1.91,1.62-3.16,19.94-12.6,52.45-15.7,74.2-9.55a70.65,70.65,0,0,1,5.07,8.37c.93,1.76,1.78,3.65,2.62,5.55.28.63.54,1.28.78,1.93C179.37,89.8,179.56,90.93,179.87,92.09Z"/><path class="cls-15" d="M90.87,95.51,95.7,82.77C92,82.69,89.35,84.48,88,88.53,86.68,91.71,87.91,93.81,90.87,95.51Z"/><path class="cls-15" d="M87.82,86.77c.37-.55,4.56-4,4.56-4-1.23-4.38,1.56-9.33,6.6-14.61L84.32,77.28Z"/><polygon class="cls-15" points="88.31 87.69 76.45 95.55 87.81 93.61 88.31 87.69"/><path class="cls-15" d="M87.81,93.61a12.14,12.14,0,0,1,.5-5.92"/><path class="cls-16" d="M133.76,117.53c-.33,6.28-1.55,21.75-4.33,26.21a39.54,39.54,0,0,0-2.14,3.68c-.67,2.21.31,3.7,3.59,4.17a3.93,3.93,0,0,1-4.42-1.62,3.64,3.64,0,0,1-.09-2.89,12.37,12.37,0,0,1,2-3.57,13.42,13.42,0,0,0,2.52-5.73Z"/><path class="cls-16" d="M140.47,117.44c.56,6.26,2.31,21.94,5.25,26.3a37.21,37.21,0,0,1,2.26,3.6c.76,2.19-.18,3.71-3.43,4.3a3.94,3.94,0,0,0,4.36-1.78,3.67,3.67,0,0,0,0-2.89,12.49,12.49,0,0,0-2.18-3.5,13.4,13.4,0,0,1-2.71-5.63Z"/><path class="cls-17" d="M93.49,136.47c-4.34-8.55-6.68-16.66-6.33-24.17a108.67,108.67,0,0,1,44,0,25.58,25.58,0,0,0,12.33,0,102.51,102.51,0,0,1,42,.84c2.22,3.41-2.51,21-5.67,23.33-9.19,2.63-19.25,2.23-29.84,0a56.42,56.42,0,0,1-9.33-19,6.74,6.74,0,0,0-6.5.17,62.64,62.64,0,0,1-8.33,17.5C115.86,139.06,105,139.1,93.49,136.47Z"/><path class="cls-16" d="M130.71,149.9a9.49,9.49,0,0,1,5.22,2.18,4.64,4.64,0,0,0,4.77,0,7.75,7.75,0,0,1,5.1-2c-.76-1-1.84-1.4-3.78,0q-3.77,4.24-7.53,0C132.63,148.78,131.48,149,130.71,149.9Z"/><path class="cls-18" d="M125.65,120.74c-8.29,6.59-16,4.74-23.3-1.11a21.93,21.93,0,0,1,9.43-3.24,17.83,17.83,0,0,1,6.61.7A24,24,0,0,1,125.65,120.74Z"/><path class="cls-19" d="M118.92,119.1a4.08,4.08,0,1,1-8.16,0,4.13,4.13,0,0,1,1-2.71,17.83,17.83,0,0,1,6.61.7A4,4,0,0,1,118.92,119.1Z"/><circle class="cls-20" cx="116.3" cy="118.79" r="0.94"/><path class="cls-21" d="M103.91,115.78c6.13-.89,11.33-3.42,21.43,2.59"/><path class="cls-18" d="M149.2,120.67c7.67,6.1,14.76,4.39,21.56-1a20.37,20.37,0,0,0-8.73-3,16.64,16.64,0,0,0-6.11.64A22.34,22.34,0,0,0,149.2,120.67Z"/><path class="cls-22" d="M155.43,119.15a3.78,3.78,0,1,0,6.6-2.5,16.64,16.64,0,0,0-6.11.64A3.79,3.79,0,0,0,155.43,119.15Z"/><circle class="cls-20" cx="157.85" cy="118.87" r="0.87"/><path class="cls-21" d="M169.32,116.08c-5.68-.82-10.48-3.17-19.84,2.4"/><path class="cls-23" d="M154.27,172.86c-12.37,7.95-23.53,6.58-34,0l2-.68a50.09,50.09,0,0,1,29.2-.19C152.4,172.25,153.34,172.54,154.27,172.86Z"/><path class="cls-23" d="M151.47,172a50,50,0,0,0-29.16.19c5.38-5.19,10.57-8.43,15.22-6.06C142.41,163.75,147,167.17,151.47,172Z"/></g></svg>