<svg xmlns="http://www.w3.org/2000/svg" xmlns:xlink="http://www.w3.org/1999/xlink" viewBox="0 0 650 350"><defs><style>.cls-1{isolation:isolate;}.cls-2{fill:#f3e9d2;}.cls-3{fill:#ebb000;}.cls-4{fill:#fcfcfc;opacity:0.3;}.cls-5{fill:#c6dabf;}.cls-6{fill:url(#linear-gradient);}.cls-7{fill:#88d498;}.cls-8{fill:url(#linear-gradient-2);}.cls-9{fill:none;stroke:#e9a38e;}.cls-21,.cls-25,.cls-9{stroke-miterlimit:10;}.cls-10{fill:#a62121;}.cls-11{fill:#1a936f;}.cls-12{fill:url(#linear-gradient-3);}.cls-13{fill:#114b5f;}.cls-14{fill:#4f2d1e;}.cls-15,.cls-22{fill:#fff;}.cls-16{fill:#ffd2bc;}.cls-17{fill:#172028;}.cls-18{fill:#ad595f;}.cls-19{fill:#a05153;}.cls-20{opacity:0.46;}.cls-21,.cls-25{stroke:#000;stroke-width:0.5px;}.cls-21{fill:url(#radial-gradient);}.cls-22{mix-blend-mode:color-dodge;}.cls-23{fill:#155603;}.cls-24{fill:#ddb09e;}.cls-25{fill:url(#radial-gradient-2);}.cls-26{mask:url(#mask);}</style><linearGradient id="linear-gradient" x1="325.51" y1="187.72" x2="325.51" y2="90.5" gradientUnits="userSpaceOnUse"><stop offset="0" stop-color="#fff" stop-opacity="0.4"/><stop offset="1" stop-color="#fff" stop-opacity="0"/></linearGradient><linearGradient id="linear-gradient-2" x1="325.18" y1="241.95" x2="325.18" y2="144.73" xlink:href="#linear-gradient"/><linearGradient id="linear-gradient-3" x1="325.51" y1="280.06" x2="325.51" y2="154.64" xlink:href="#linear-gradient"/><radialGradient id="radial-gradient" cx="299.74" cy="163.41" r="13.4" gradientUnits="userSpaceOnUse"><stop offset="0" stop-color="#dbd2cd"/><stop offset="0.41" stop-color="#dbd1cb"/><stop offset="0.55" stop-color="#dccdc4"/><stop offset="0.66" stop-color="#dec6b9"/><stop offset="0.74" stop-color="#e0bca8"/><stop offset="0.81" stop-color="#e3af92"/><stop offset="0.88" stop-color="#e79f76"/><stop offset="0.94" stop-color="#eb8c56"/><stop offset="0.99" stop-color="#f17732"/><stop offset="1" stop-color="#f27127"/><stop offset="1" stop-color="#ef8d7a" stop-opacity="0"/></radialGradient><radialGradient id="radial-gradient-2" cx="2116.59" cy="163.41" r="13.4" gradientTransform="matrix(-1, 0, 0, 1, 2465.74, 0)" xlink:href="#radial-gradient"/><mask id="mask" x="708.5" y="1506.94" width="282.74" height="282.74" maskUnits="userSpaceOnUse"/></defs><g class="cls-1"><g id="GIUSEPPE_-_LANDSCAPE" data-name="GIUSEPPE - LANDSCAPE"><rect class="cls-2" y="-0.08" width="650" height="350.08"/><path class="cls-3" d="M294.28-.63a62.33,62.33,0,1,0,121.07,0Z"/><polygon class="cls-4" points="421.07 76.56 305.53 71.7 337.12 67.28 229.29 58.22 264.02 54.83 149.37 37.96 176.67 31.18 67.9 15.33 89.48 10.05 0 -0.08 -0.36 1.11 -0.36 30.12 159.94 51.88 115.46 54.83 232.16 72.58 208.65 82.27 421.07 76.56"/><polygon class="cls-5" points="0 82.27 27.83 62.45 36.19 70.38 60.41 58.22 72.74 70.24 98.28 64.65 133.51 97.19 161.7 84.03 186.8 90.5 221.48 89.08 246.33 85.86 259.45 68.28 284.01 79 298.52 109.58 302.98 128.28 312.89 134.42 335.91 197.77 357.12 121.86 399.62 80.64 427.43 87.35 471.5 113.97 477.11 101.75 492.3 105.72 519.05 92.18 553.4 97.19 567.27 83.59 575.2 90.5 600.96 71.04 631.68 102.41 650 90.5 650 304.01 0 304.01 0 82.27"/><polygon class="cls-4" points="301.89 101.4 397.52 97.38 371.38 93.72 460.63 86.22 431.88 83.42 526.79 69.46 504.19 63.84 594.23 50.72 576.36 46.35 650.43 37.96 650.72 38.95 650.72 62.96 518.04 80.98 554.86 83.42 458.26 98.11 477.72 106.13 301.89 101.4"/><polygon class="cls-4" points="-1.13 67.92 -1.13 72.27 10.64 67.81 -1.13 67.92"/><polygon class="cls-4" points="225.76 84.29 152.22 90.15 171.88 84.9 102.9 87.5 124.63 82.68 50.73 80.86 67.49 74.46 -1.13 72.86 -1.13 88.06 58.5 88.86 30.56 94.17 105.83 96.38 91.69 104.33 225.76 84.29"/><rect class="cls-6" x="-0.8" y="90.5" width="652.62" height="97.22"/><polygon class="cls-7" points="0 144.73 40.16 133.35 80.23 137.68 139.24 133.35 196.54 135.79 243.7 137.65 284.6 163.04 334.62 210.76 371.92 182.02 418.19 173.09 456.46 145.12 513.99 139.11 565.95 142.6 650 124.42 650 350 0 350 0 144.73"/><rect class="cls-8" x="-1.46" y="144.73" width="653.28" height="97.22"/><polyline class="cls-9" points="296.94 161.6 301.42 184.32 289.69 184.32"/><path class="cls-10" d="M195.32,122.34l.21-6.85,13.12-2.37-.35-2-22.38,4-20.82-4-.38,2L177,115.5l-.38,7.09-7.84.11,0,2,7.71-.11-.65,12.16v.18l2,.1v-.2l.65-12.26,14.71-.21-.4,13.06v.2l2,.06v-.18h0l.4-13.15,9.23-.13,0-2Zm-10.4.14-6.27.08.36-6.68,5.91,1.15Zm2,0V117l6.59-1.19-.2,6.51Z"/><polygon class="cls-11" points="104.45 170.32 155.8 175 208.97 166.02 243.26 204.9 331.45 243.69 427.73 205.18 459.29 167.88 506.06 161.6 561.11 169.16 597.66 155.38 650 142.16 650 350 0 350 0 175.19 30.47 169.16 104.45 170.32"/><rect class="cls-12" x="-0.14" y="154.64" width="651.3" height="125.42"/><polygon class="cls-13" points="650 351.33 650 252.09 569.04 256.22 510.03 263.38 437.73 257.75 395.91 273.94 355.45 282.31 220.03 268.01 186.36 272.52 61.73 269.44 0 257.75 0 351.33 650 351.33"/><polygon class="cls-14" points="229.29 350 235.52 316.25 305.53 314.78 367.13 314.78 413.93 317 422.39 350 229.29 350"/><g id="GIUSEPPE-2" data-name="GIUSEPPE"><path class="cls-14" d="M413.93,317l-.72.51c-1.51,1.05-3,2.08-4.58,3.07-3.82,2.46-7.77,4.76-11.81,6.87-.76.42-1.52.81-2.28,1.19l-.3.15a150.94,150.94,0,0,1-18.22,7.7l-.54.19c-2.21.75-4.44,1.48-6.69,2.13q-5.93,1.74-12.05,3Q350,343.23,343,344q-6.3.74-12.77.93c-1.66.07-3.34.09-5,.09q-3.81,0-7.57-.19-6.6-.3-13-1.19-4.39-.57-8.7-1.4-4.87-.94-9.66-2.2c-3.81-1-7.57-2.12-11.26-3.39-.19-.06-.37-.12-.54-.19A153.21,153.21,0,0,1,256,328.64c-1.64-.83-3.27-1.68-4.88-2.58l-1.9-1.05c-2.23-1.27-4.44-2.6-6.6-4-.23-.16-.47-.31-.71-.46-2.16-1.39-4.27-2.83-6.35-4.33a112.42,112.42,0,0,1,6.13-23c.74-.65,1.48-1.29,2.26-1.91,11.37-9,27.83-14.23,46.5-17.8l1.34-.26c2.94-.54,5.93-1.06,8.95-1.53l0-.16,1-4.4H343v5.2a2.23,2.23,0,0,1,.23,0q6.17.48,12.05,1.49a114,114,0,0,1,41.56,15.41c1.32.69,3.07,2.54,5,5.16A111.51,111.51,0,0,1,413.93,317Z"/><polygon class="cls-15" points="379.95 350.34 331.32 300.44 330.34 299.44 355.31 273.92 355.32 273.9 343.78 271.91 343.26 272.43 323 292.66 301.6 271.43 300.74 271.59 291.75 273.28 290.4 273.54 315.05 298.91 364.98 350.34 379.95 350.34"/><g id="FACE"><path class="cls-16" d="M379.35,180.19c0,44.07-22.83,77.63-52.6,77.63s-52.9-33.56-52.9-77.63c0-14.27-.88-30.86,3.56-42.46.44-1.18.91-2.31,1.42-3.44,9.76-22.19,28.77-36,47.92-36,18.55,0,40,15,49.73,36.15,0,0,0,.1.07.15C382.37,147.29,379.35,163.65,379.35,180.19Z"/><path class="cls-17" d="M380.25,188.84c-.18-2.63-.44-5.17-.82-7.59,0,.16-.06.31-.09.47h0A97.28,97.28,0,0,1,371,206.17l-.42.84c-3.51,6.85-7.76,13-12.4,16.5l-1.07-6.13-1.26-7.24a4.77,4.77,0,0,0-3.06-3.65l-.87-.32-9-3.3-2.85-1a6.71,6.71,0,0,1-3.12-2.22,5.26,5.26,0,0,0-4.16-2H319.27a5.56,5.56,0,0,0-3.85,1.56l-2,2a6.49,6.49,0,0,1-3.44,1.75l-3.47.45-3.89.49a4.47,4.47,0,0,0-3.39,2.32l0,.07-7.85,14.36c-2.95-3.44-5.91-8.66-8.57-14.36a163.42,163.42,0,0,1-7.59-19.71c-.53-1.7-1-3.26-1.34-4.65h0c-.06-.2-.1-.37-.15-.55a165.6,165.6,0,0,0-1.23,24.92c.36,14.24,2.62,28.39,7.27,40.58a64.7,64.7,0,0,0,13.14,21.7,43.76,43.76,0,0,0,4.11,3.84l.07.06.15.12s0,0,0,0a43,43,0,0,0,12.7,7.22h0c.59.23,1.19.43,1.8.62a50.19,50.19,0,0,0,15.18,2.2,37.43,37.43,0,0,0,6.85-.68c.52-.11,1-.21,1.53-.34a38.78,38.78,0,0,0,15.88-8.24h0l.11-.08a.2.2,0,0,1,.07-.06l.14-.11a53.83,53.83,0,0,0,4.74-4.59,67.69,67.69,0,0,0,7.41-9.84c9.27-14.82,14.72-34.39,16.28-52.44.2-2.23.34-4.42.4-6.59C380.51,195.88,380.46,192.28,380.25,188.84Zm-74.2,23.55a49,49,0,0,1,7.36-2.53,47.75,47.75,0,0,1,22.22-.82,30.72,30.72,0,0,1,5.11,1.63,23.43,23.43,0,0,1,11.76,10.25c.27.47.54,1,.78,1.48v8l-4.2,7.29c-10.47,9.31-29.21,5.2-36.86,6C308,243.32,299.15,228.4,297,226Z"/><path class="cls-17" d="M316.29,223.77l6.62,11.78a.67.67,0,0,0,1.15,0l7.43-11.78a.67.67,0,0,0-.57-1H316.87A.67.67,0,0,0,316.29,223.77Z"/><path class="cls-18" d="M305.53,216.22s11.09-6.68,12.54-7.08a6.38,6.38,0,0,1,3.62,0c.66.28,1.36,1,2,1s1.75-.72,3.79-1,14.37,5.77,17.47,7.08Z"/><path class="cls-19" d="M305.53,216.22l9.14,5.22a3.92,3.92,0,0,0,1.93.51h13.69a4.08,4.08,0,0,0,1.5-.29L345,216.22l-11.8-2.72a3.13,3.13,0,0,0-1.49,0l-4.1,1a3.72,3.72,0,0,1-.88.11H320.9a3.17,3.17,0,0,1-1-.15l-3.06-.95a2.64,2.64,0,0,0-1.5,0Z"/><path class="cls-14" d="M376.46,134.39c-33.87-4-66.54-4.39-97.65-.12a70.43,70.43,0,0,1,7.2-12.69,64.33,64.33,0,0,1,7-8.23c9.67-9.62,21.67-15.11,33.73-15.11C345.27,98.24,366.73,113.27,376.46,134.39Z"/><path class="cls-14" d="M293,113.35a64.33,64.33,0,0,0-7,8.23,5.42,5.42,0,1,1,7-8.23Z"/><path class="cls-14" d="M284.7,118.57c-14.87-11.79-32.9-2.95-36.41,10l-4.42-23.15q19-5.3,40.83,10.59Z"/><path class="cls-14" d="M287.15,113.38C285.71,98.52,282.8,85,275.23,75.64L292.62,77c.87,14.76-.05,27.26-3.92,36Z"/><path class="cls-20" d="M319,169.09c-.86,7.18-1.88,12.31-4.84,17.24-.84,1.42-1.63,2.71-2.28,4.09-.82,2.49,1.19,3.11,4.16,3.86-2,.37-4.41.56-5.16-1A5.21,5.21,0,0,1,311,190a15.46,15.46,0,0,1,2.19-4c.89-1.15,1.81-2.8,2.82-6.4Z"/><path class="cls-20" d="M329.36,169c1.07,7.14,1.83,11.47,4.56,16.36.79,1.4,1.51,2.67,2.13,4,.81,2.48-1.17,3.42-3.64,4.2,1.73.35,4.06.21,4.62-1.35a6.18,6.18,0,0,0-.31-3.31,17.1,17.1,0,0,0-2.05-3.92A19.92,19.92,0,0,1,332,178.7Z"/><path class="cls-20" d="M313.92,192.06c1.89-.5,2.48-1.41,6.76,2.35a5.32,5.32,0,0,0,6,.15c2.57-2.25,3.78-3.54,6.53-2.3-1-1.19-2.75-2.06-4.84,0q-4.83,4.89-9.65,0C316.74,190.48,314.9,191,313.92,192.06Z"/><path d="M382.27,156.79l0-1.56-2.12-.32c-2.8-.43-5.58-.76-8.34-1l-1.35-.13a131.12,131.12,0,0,0-14.89-.4,97.55,97.55,0,0,0-23.06,3.42l-1,.28h-13.4l-1.08-.28c-.58-.15-1.18-.3-1.76-.42A99.76,99.76,0,0,0,281.5,154c-.39,0-.8.07-1.19.13-2.08.24-4.13.55-6.18,1-1.66.31-3.3.68-4.93,1.09v5a3.7,3.7,0,0,1,2,1.27c1.15,1.5,1.12,4.08,2.12,8.2q.24.78.45,1.53v0c.31,1.11.61,2.19.94,3.22,1,3.2,2.46,6,6,7.75a11.13,11.13,0,0,0,1.14.43c1.33.41,2.63.77,3.9,1,10,2.37,18.29,1.24,22.63-1.7a7.85,7.85,0,0,0,1.78-1.72,41.62,41.62,0,0,0,5.16-10.09,72.45,72.45,0,0,0,2.63-7.34c.12-.44.24-.89.35-1.35.07-2.54,12.18-2.52,12.1,0a51.2,51.2,0,0,0,8.16,18.82c1.68,2.11,4.56,3.45,8,4.19,10.42,2.27,25.87-1,27.71-5,2.74-5.4,4.14-11,5.28-17a5.8,5.8,0,0,1,.33-.94.34.34,0,0,0,.06-.12,3.59,3.59,0,0,1,2.36-1.88Zm-68,14.06c-2.61,7-4.21,10.52-7.33,12-5.71,2.31-14.41,2.78-22.42.62-.62-.16-1.23-.34-1.82-.54a11.12,11.12,0,0,1-4.12-2.34,9.36,9.36,0,0,1-2.63-4.41c-.05-.2-.12-.4-.19-.62-.81-2.65-1.53-5.22-2-7.54a23.79,23.79,0,0,1-.62-5.58,7.75,7.75,0,0,1,.39-2.28,10.8,10.8,0,0,1,.37-1.05,4,4,0,0,1,2.33-2.31,16,16,0,0,1,2.92-.94c4.45-1.31,21.4-1.17,30.55.94a14,14,0,0,1,5,1.92,4.66,4.66,0,0,1,1.36,3.72A25.12,25.12,0,0,1,314.3,170.85Zm63.27-4.29c-.94,5.59-2.2,9.84-4.41,13.78a2.39,2.39,0,0,1-.41.55c-2.53,2.4-11.73,4.72-22.39,4-1.25-.08-2.41-.2-3.5-.38-3.8-.65-6.67-2-8.61-5.38A61.91,61.91,0,0,1,333,165.06a10.75,10.75,0,0,1-.41-2.63c-.07-2.72,1.3-4.73,4.78-5.48l.56-.16c3.8-1,10.51-1.78,17.27-2,8-.27,16.19.13,19.61,1.47a4.55,4.55,0,0,1,1.16.55c1.17.78,2.08,2.33,2.05,5.64A25.67,25.67,0,0,1,377.57,166.56Z"/><path class="cls-21" d="M313.05,164.86c-2.26.6-4.51,1.1-6.73,1.48a33.78,33.78,0,0,1-13.42-.06h0a18.73,18.73,0,0,1-5.59-2.34,25.3,25.3,0,0,1,5.61-2.89,20.76,20.76,0,0,1,4.62-1.12,19.37,19.37,0,0,1,5.63.14,20.61,20.61,0,0,1,3.11.85A23.29,23.29,0,0,1,313.05,164.86Z"/><path class="cls-22" d="M306.82,163.69a7,7,0,0,1-.5,2.65,33.78,33.78,0,0,1-13.42-.06h0a7.14,7.14,0,0,1-.48-2.59,7,7,0,0,1,.5-2.64,20.76,20.76,0,0,1,4.62-1.12,19.37,19.37,0,0,1,5.63.14,20.61,20.61,0,0,1,3.11.85A7.09,7.09,0,0,1,306.82,163.69Z"/><path class="cls-23" d="M304,162.71a3.73,3.73,0,0,1-7.45,0,3.64,3.64,0,0,1,1-2.49,19,19,0,0,1,5.63.13A3.76,3.76,0,0,1,304,162.71Z"/><circle cx="300.75" cy="162.56" r="1.13"/><path class="cls-24" d="M312.83,163.06c-6.92-5.41-14.41-7-23.13-3.37l-.25-.32c9.15-3.8,16.81-2.91,24.08,2.79Z"/><path class="cls-25" d="M335.83,164.86c2.26.6,4.51,1.1,6.73,1.48a33.79,33.79,0,0,0,13.42-.06h0a18.73,18.73,0,0,0,5.59-2.34,25.3,25.3,0,0,0-5.61-2.89,20.76,20.76,0,0,0-4.62-1.12,19.37,19.37,0,0,0-5.63.14,20.61,20.61,0,0,0-3.11.85A23.29,23.29,0,0,0,335.83,164.86Z"/><path class="cls-22" d="M342.06,163.69a7,7,0,0,0,.5,2.65,33.79,33.79,0,0,0,13.42-.06h0a7.14,7.14,0,0,0,.48-2.59,7,7,0,0,0-.5-2.64,20.76,20.76,0,0,0-4.62-1.12,19.37,19.37,0,0,0-5.63.14,20.61,20.61,0,0,0-3.11.85A7.09,7.09,0,0,0,342.06,163.69Z"/><path class="cls-23" d="M344.87,162.71a3.73,3.73,0,0,0,7.45,0,3.64,3.64,0,0,0-1-2.49,19,19,0,0,0-5.63.13A3.7,3.7,0,0,0,344.87,162.71Z"/><circle cx="348.13" cy="162.56" r="1.13"/><path class="cls-24" d="M335.91,162.79c6.92-5.42,14.4-7,23.13-3.38l.24-.32c-9.15-3.79-16.8-2.91-24.08,2.79Z"/><path class="cls-17" d="M280.44,155.24c6.75-8.5,16.75-11.42,32.09-5.14C309.76,132.85,277.68,138,280.44,155.24Z"/><path class="cls-17" d="M335.63,149.07c13.33-5.62,25.91-6.91,36,6.17C374.89,136.24,338.88,130.07,335.63,149.07Z"/></g></g></g></g></svg>