<svg xmlns="http://www.w3.org/2000/svg" xmlns:xlink="http://www.w3.org/1999/xlink" viewBox="0 0 282.61 277.41"><defs><style>.cls-1{isolation:isolate;}.cls-2{fill:#f3e9d2;}.cls-3{fill:url(#radial-gradient);}.cls-4{fill:#ebb000;opacity:0.39;}.cls-5{fill:#fcfcfc;opacity:0.3;}.cls-6{fill:#c6dabf;}.cls-7{fill:#a62121;}.cls-8{fill:url(#linear-gradient);}.cls-9{fill:#88d498;}.cls-10{fill:url(#linear-gradient-2);}.cls-11{fill:#1a936f;}.cls-12{fill:url(#linear-gradient-3);}.cls-13{fill:#114b5f;}.cls-14{fill:#4f2d1e;}.cls-15,.cls-21{fill:#fff;}.cls-16{fill:#ffd2bc;}.cls-17{fill:#172028;}.cls-18{fill:#ad595f;}.cls-19{fill:#a05153;}.cls-20,.cls-23{stroke:#000;stroke-miterlimit:10;stroke-width:0.5px;}.cls-20{fill:url(#radial-gradient-2);}.cls-21{mix-blend-mode:color-dodge;}.cls-22{fill:#155603;}.cls-23{fill:url(#radial-gradient-3);}.cls-24{fill:#ddb09e;}</style><radialGradient id="radial-gradient" cx="153.59" cy="28.93" r="116.39" gradientUnits="userSpaceOnUse"><stop offset="0" stop-color="#f5e2ab" stop-opacity="0.5"/><stop offset="1" stop-color="#ebb000" stop-opacity="0"/></radialGradient><linearGradient id="linear-gradient" x1="142.52" y1="151.43" x2="142.52" y2="54.21" gradientUnits="userSpaceOnUse"><stop offset="0" stop-color="#fff" stop-opacity="0.4"/><stop offset="1" stop-color="#fff" stop-opacity="0"/></linearGradient><linearGradient id="linear-gradient-2" x1="141.48" y1="205.66" x2="141.48" y2="108.44" xlink:href="#linear-gradient"/><linearGradient id="linear-gradient-3" x1="141.48" y1="238.77" x2="141.48" y2="113.35" xlink:href="#linear-gradient"/><radialGradient id="radial-gradient-2" cx="119.27" cy="114.2" r="11.67" gradientUnits="userSpaceOnUse"><stop offset="0" stop-color="#dbd2cd"/><stop offset="0.41" stop-color="#dbd1cb"/><stop offset="0.55" stop-color="#dccdc4"/><stop offset="0.66" stop-color="#dec6b9"/><stop offset="0.74" stop-color="#e0bca8"/><stop offset="0.81" stop-color="#e3af92"/><stop offset="0.88" stop-color="#e79f76"/><stop offset="0.94" stop-color="#eb8c56"/><stop offset="0.99" stop-color="#f17732"/><stop offset="1" stop-color="#f27127"/><stop offset="1" stop-color="#ef8d7a" stop-opacity="0"/></radialGradient><radialGradient id="radial-gradient-3" cx="1505.38" cy="114.2" r="11.67" gradientTransform="matrix(-1, 0, 0, 1, 1667.67, 0)" xlink:href="#radial-gradient-2"/></defs><title>Józef - Avatar</title><g class="cls-1"><g id="BACKGROUND"><path class="cls-2" d="M275.75,138.08a133.55,133.55,0,0,1-14.94,61.59c-.09.19-.19.38-.29.57q-1.42,2.74-3,5.42c-1.11,1.91-2.28,3.79-3.49,5.64h0A131.45,131.45,0,0,1,245.46,223q-3,3.6-6.15,7-3.41,3.65-7.09,7l-.82.74-1.1,1c-.74.67-1.49,1.31-2.25,1.95q-2,1.71-4.11,3.33-2.87,2.25-5.87,4.32-2,1.38-4,2.68c-3.33,2.14-6.77,4.14-10.29,6-.66.36-1.32.7-2,1l-.26.13a131.49,131.49,0,0,1-15.87,6.71l-.47.16a133.06,133.06,0,0,1-28.24,6.4q-5.49.65-11.12.81c-1.45.06-2.91.08-4.37.08q-3.31,0-6.59-.16-5.75-.27-11.35-1-3.83-.5-7.57-1.22c-2.83-.55-5.64-1.18-8.41-1.91q-5-1.29-9.81-3l-.47-.16a132,132,0,0,1-16.13-6.84c-1.43-.72-2.85-1.46-4.25-2.24l-1.65-.92c-2-1.1-3.87-2.26-5.75-3.45-.2-.14-.41-.27-.62-.4q-5.09-3.28-9.85-7-3.27-2.53-6.36-5.28l-1.1-1c-.28-.24-.55-.49-.82-.74q-1.6-1.47-3.17-3-2-1.95-3.93-4-3.19-3.39-6.15-7c-.4-.48-.79-1-1.17-1.46l-.51-.64a132.57,132.57,0,0,1-9.51-13.81l-.87-1.47A133.6,133.6,0,0,1,7.22,138.08c0-.91,0-1.83,0-2.74a134.57,134.57,0,0,1,1.07-14.43c.32-2.54.72-5.06,1.18-7.56.3-1.65.64-3.29,1-4.91.19-.85.39-1.7.59-2.55.53-2.15,1.12-4.28,1.75-6.39a130.81,130.81,0,0,1,7.52-19.41A133.32,133.32,0,0,1,36.65,54.21c.37-.48.75-1,1.14-1.42A134.31,134.31,0,0,1,80.33,18.54a132.84,132.84,0,0,1,34.24-12,134,134,0,0,1,118,32.91q.45.41.9.84a131.14,131.14,0,0,1,10.29,10.79c.88,1,1.75,2.09,2.59,3.15,1.75,2.17,3.42,4.4,5,6.69a133.37,133.37,0,0,1,19.25,40.3q1,3.58,1.84,7.24c.37,1.62.71,3.26,1,4.91.17.9.33,1.8.48,2.71.09.51.17,1,.25,1.53v0c.17,1.09.32,2.18.46,3.28q.68,5.28.94,10.68Q275.75,134.82,275.75,138.08Z"/><path class="cls-3" d="M270.61,101.2H20.37V80.09A133.32,133.32,0,0,1,36.65,54.21c.37-.48.75-1,1.14-1.42A134.31,134.31,0,0,1,80.33,18.54a132.84,132.84,0,0,1,34.24-12,134,134,0,0,1,118,32.91q.45.41.9.84a131.14,131.14,0,0,1,10.29,10.79c.88,1,1.75,2.09,2.59,3.15,1.75,2.17,3.42,4.4,5,6.69a133.37,133.37,0,0,1,19.25,40.3Z"/><path id="SUN" class="cls-4" d="M210.7,23a60.17,60.17,0,0,1-42,17,60.38,60.38,0,0,1-54.1-33.51A134.71,134.71,0,0,1,210.7,23Z"/><path class="cls-5" d="M232.55,39.43l-96.83-5,41.53-4.08L92.68,25.52l26.49-5.21L80.33,18.54A134.16,134.16,0,0,0,58.38,32.62l51,2.67L88.41,43.43l145-3.16Z"/><path class="cls-6" d="M275.75,138.08a133.55,133.55,0,0,1-14.94,61.59L91.94,228.08h0l-2.22.37-27.85-3.89-.17,0-25.86-3.6A134,134,0,0,1,7.22,138.08c0-.91,0-1.83,0-2.74A133.7,133.7,0,0,1,37.79,52.79l24.85-3.22L75.76,32l24.56,10.72,14.51,30.58L119.29,92l9.91,6.14,23,63.35,21.21-75.91,42.5-41.22,27.81,6.71a133.73,133.73,0,0,1,30.45,66.53v0a136.32,136.32,0,0,1,1.4,14Q275.75,134.82,275.75,138.08Z"/><path class="cls-5" d="M227.25,77.78l30.54,1.78L140,91.67,194,81.54l-73.82,1.39L210.7,72l-33.53-2.85,74.19-8.27a132.65,132.65,0,0,1,7.16,11.33Z"/><path class="cls-7" d="M56.64,86.05l.21-6.85L70,76.83l-.35-2-22.38,4-20.82-4-.38,2,12.3,2.38L38,86.3l-7.84.11,0,2,7.71-.11-.66,12.34,2,.1.66-12.46,14.71-.21-.41,13.26,2,.06.41-13.34,9.23-.13,0-2Zm-10.4.14L40,86.27l.36-6.68,5.91,1.15Zm2,0V80.75l6.59-1.19-.2,6.51Z"/><path class="cls-8" d="M273.94,116.06a133.37,133.37,0,0,1-11.05,29.38c-.09.19-.19.38-.29.57q-1.43,2.75-3,5.42H27.53A133.41,133.41,0,0,1,11.1,105.89c.53-2.15,1.12-4.28,1.75-6.39a133.59,133.59,0,0,1,23.8-45.29H246.33c1.75,2.17,3.42,4.4,5,6.69a133.3,133.3,0,0,1,21.09,47.54c.37,1.62.71,3.26,1,4.91C273.63,114.25,273.79,115.15,273.94,116.06Z"/><path class="cls-9" d="M275.75,138.08a133.55,133.55,0,0,1-14.94,61.59c-.09.19-.19.38-.29.57q-3,5.7-6.48,11.06h0A131.45,131.45,0,0,1,245.46,223q-3,3.6-6.15,7-3.41,3.65-7.09,7c-1.36,1.25-2.76,2.48-4.17,3.67L47.59,234q-2-1.95-3.93-4-3.19-3.39-6.15-7c-.4-.48-.79-1-1.17-1.46l-.51-.64A134,134,0,0,1,7.22,138.08c0-.91,0-1.83,0-2.74a134.22,134.22,0,0,1,5.6-35.84L60,101.36l40.9,25.39,50,47.72,37.3-28.74,46.27-8.93,38.27-28,1.42,8.77v0a136.32,136.32,0,0,1,1.4,14Q275.75,134.82,275.75,138.08Z"/><path class="cls-10" d="M275.75,138.08a133.55,133.55,0,0,1-14.94,61.59c-.09.19-.19.38-.29.57q-1.42,2.74-3,5.42H25.45A133.6,133.6,0,0,1,7.22,138.08c0-.91,0-1.83,0-2.74a134.57,134.57,0,0,1,1.07-14.43c.32-2.54.72-5.06,1.18-7.56.3-1.65.64-3.29,1-4.91H272.45c.37,1.62.71,3.26,1,4.91.27,1.4.51,2.82.73,4.24v0c.17,1.09.32,2.18.46,3.28q.68,5.28.94,10.68Q275.75,134.82,275.75,138.08Z"/><path class="cls-11" d="M254,211.31A131.45,131.45,0,0,1,245.46,223q-3,3.6-6.15,7-3.41,3.65-7.09,7c-1.36,1.25-2.76,2.48-4.17,3.67s-2.72,2.25-4.11,3.33q-2.87,2.25-5.87,4.32-2,1.38-4,2.68c-3.33,2.14-6.77,4.14-10.29,6L75.26,254.9c-2-1.1-3.87-2.26-5.75-3.45-.2-.14-.41-.27-.62-.4q-5.09-3.28-9.85-7-4.29-3.33-8.28-7-1.6-1.47-3.17-3-2-1.95-3.93-4-3.19-3.39-6.15-7c-.4-.48-.79-1-1.17-1.46l-.51-.64A134,134,0,0,1,7.22,138.08c0-.91,0-1.83,0-2.74l6-19.29,46.36,52.56,88.19,38.79L227,176.15l17-7.26,31.56-37.3q.15,3.22.15,6.49a133.55,133.55,0,0,1-14.94,61.59c-.09.19-.19.38-.29.57q-3,5.7-6.48,11.06Z"/><path class="cls-12" d="M275.75,138.08a133.55,133.55,0,0,1-14.94,61.59c-.09.19-.19.38-.29.57q-3,5.7-6.48,11.06h0A131.45,131.45,0,0,1,245.46,223q-3,3.6-6.15,7-3.41,3.65-7.09,7l-.82.74-1.1,1H52.68l-1.1-1c-.28-.24-.55-.49-.82-.74q-1.6-1.47-3.17-3-2-1.95-3.93-4-3.19-3.39-6.15-7c-.4-.48-.79-1-1.17-1.46l-.51-.64A134,134,0,0,1,7.22,138.08c0-.91,0-1.83,0-2.74a134.88,134.88,0,0,1,2.25-22h264c.27,1.4.51,2.82.73,4.24v0a136.32,136.32,0,0,1,1.4,14Q275.75,134.82,275.75,138.08Z"/><path class="cls-13" d="M254,211.31A131.45,131.45,0,0,1,245.46,223q-3,3.6-6.15,7-3.41,3.65-7.09,7c-1.36,1.25-2.76,2.48-4.17,3.67s-2.72,2.25-4.11,3.33q-2.56,2-5.24,3.88l-.63.44q-2,1.38-4,2.68c-3.33,2.14-6.77,4.14-10.29,6-.66.36-1.32.7-2,1l-.26.13a131.49,131.49,0,0,1-15.87,6.71l-.47.16c-1.92.66-3.86,1.29-5.82,1.86q-5.16,1.51-10.49,2.63Q163,270.77,157,271.46q-5.49.65-11.12.81c-1.45.06-2.91.08-4.37.08q-3.31,0-6.59-.16-5.75-.27-11.35-1-3.83-.5-7.57-1.22c-2.83-.55-5.64-1.18-8.41-1.91q-5-1.29-9.81-3l-.47-.16a132,132,0,0,1-16.13-6.84c-1.43-.72-2.85-1.46-4.25-2.24l-1.65-.92c-2-1.1-3.87-2.26-5.75-3.45-.2-.14-.41-.27-.62-.4q-2.82-1.81-5.53-3.77-2.19-1.56-4.32-3.23-4.29-3.33-8.28-7-1.6-1.47-3.17-3-2-1.95-3.93-4-3.19-3.39-6.15-7c-.4-.48-.79-1-1.17-1.46l25.35,3,.17,0,8.81,1,21.26,2.49h0l11.73,1.37,28.94,2.73,14.16,1.33,25,2.36,36.44-7.54,4-.83Z"/></g><g id="GIUSEPPE"><path class="cls-14" d="M218.7,247.93l-.63.44q-2,1.38-4,2.68c-3.33,2.14-6.77,4.14-10.29,6-.66.36-1.32.7-2,1l-.26.13a131.49,131.49,0,0,1-15.87,6.71l-.47.16c-1.92.66-3.86,1.29-5.82,1.86q-5.16,1.51-10.49,2.63Q163,270.77,157,271.46q-5.49.65-11.12.81c-1.45.06-2.91.08-4.37.08q-3.31,0-6.59-.16-5.75-.27-11.35-1-3.83-.5-7.57-1.22c-2.83-.55-5.64-1.18-8.41-1.91q-5-1.29-9.81-3l-.47-.16a132,132,0,0,1-16.13-6.84c-1.43-.72-2.85-1.46-4.25-2.24l-1.65-.92c-2-1.1-3.87-2.26-5.75-3.45-.2-.14-.41-.27-.62-.4q-2.82-1.81-5.53-3.77a98,98,0,0,1,5.34-20c.64-.57,1.29-1.12,2-1.66,9.9-7.84,24.23-12.39,40.48-15.5l1.17-.23c2.56-.47,5.16-.92,7.79-1.33l0-.14.9-3.83H157v4.53a1.62,1.62,0,0,1,.2,0q5.37.42,10.49,1.3a99.24,99.24,0,0,1,36.19,13.42,16.09,16.09,0,0,1,4.35,4.49A96.77,96.77,0,0,1,218.7,247.93Z"/><path class="cls-15" d="M179.4,266.92q-5.16,1.51-10.49,2.63l-36.3-37.37-21.46-22.09,1.17-.23,7.83-1.47.75-.14,18.63,18.49,17.64-17.62.45-.45,10,1.73v0l-21.74,22.22.85.87Z"/><path class="cls-16" d="M188.59,128.81c0,38.37-19.88,67.59-45.8,67.59s-46.06-29.22-46.06-67.59c0-12.42-.76-26.87,3.1-37,.39-1,.8-2,1.24-3,8.5-19.32,25.05-31.37,41.72-31.37,16.15,0,34.83,13.08,43.3,31.47l.06.13C191.22,100.17,188.59,114.41,188.59,128.81Z"/><path class="cls-17" d="M187.63,129.73c-1.84,11-9.33,29.84-18.54,36.8l-2-11.64a4.13,4.13,0,0,0-2.65-3.18l-11-4.06a5.84,5.84,0,0,1-2.73-1.93h0A4.57,4.57,0,0,0,147,144H135.24a4.78,4.78,0,0,0-3.34,1.36l-1.75,1.7a5.61,5.61,0,0,1-3,1.52l-6.4.82a3.92,3.92,0,0,0-3,2l-6.86,12.56c-6.56-7.61-13.13-25.4-15.37-34.2-4.89,39.34,5.44,88.3,46.36,88.2C176.92,217.84,192.58,161.75,187.63,129.73Zm-22.78,42.83-3.66,6.35c-9.11,8.11-25.43,4.53-32.09,5.21-3.67-.34-11.37-13.33-13.27-15.47l7.9-11.8c13.11-5.73,33.93-6.36,41.12,8.71Z"/><path class="cls-17" d="M133.69,166.75,139.45,177a.58.58,0,0,0,1,0l6.47-10.25a.58.58,0,0,0-.49-.89H134.2A.58.58,0,0,0,133.69,166.75Z"/><path class="cls-18" d="M124.32,160.18s9.65-5.82,10.91-6.16a5.51,5.51,0,0,1,3.16,0c.57.24,1.18.83,1.75.83s1.52-.62,3.3-.83,12.51,5,15.21,6.16Z"/><path class="cls-19" d="M124.32,160.18l8,4.54a3.37,3.37,0,0,0,1.69.45h11.92a3.43,3.43,0,0,0,1.3-.26l11.47-4.73-10.28-2.37a2.81,2.81,0,0,0-1.29,0l-3.57.91a3.31,3.31,0,0,1-.77.09h-5a2.79,2.79,0,0,1-.85-.13l-2.66-.83a2.3,2.3,0,0,0-1.3,0Z"/><path class="cls-17" d="M102.48,107.09c5.87-7.4,14.57-9.94,27.93-4.48C128,87.6,100.07,92.08,102.48,107.09Z"/><path class="cls-17" d="M150.52,101.72c11.61-4.9,22.57-6,31.35,5.37C184.71,90.55,153.36,85.17,150.52,101.72Z"/><path d="M191.11,107.08c-15.73-2.53-30.75-2.35-44.16,1.6H135.29c-14.82-3.89-29.25-4.16-42.61-.78v4.34c2.93.83,2.41,3.24,3.62,8.25,1.35,4.42,1.89,8.64,6.44,10.9a8.38,8.38,0,0,0,1,.37c10.27,3.2,18.84,2.32,23.1-.56a6.69,6.69,0,0,0,1.55-1.5,35.89,35.89,0,0,0,4.49-8.79,54.58,54.58,0,0,0,2.6-7.56c.06-2.21,10.6-2.2,10.53,0a44.6,44.6,0,0,0,7.11,16.38c5.9,7.43,28.95,3.93,31.08-.72a54.13,54.13,0,0,0,4.6-14.84,3.27,3.27,0,0,1,2.39-2.56ZM132,120.68c-2.27,6.12-3.66,9.16-6.38,10.44-5.35,2.16-13.72,2.47-21.11.07a9.68,9.68,0,0,1-3.58-2,8.69,8.69,0,0,1-2.46-4.38c-1.67-5.51-2.94-10.59-2-13.41.55-1.68.84-2.79,4.89-3.74,4.84-1.42,26.61-.88,31,2.49C134.1,111.52,133.88,115.33,132,120.68ZM187,116.94a35.74,35.74,0,0,1-3.84,12,2.08,2.08,0,0,1-.36.48c-2.19,2.09-10.21,4.11-19.49,3.48-4.85-.33-8.37-1.28-10.55-5a54.23,54.23,0,0,1-4.6-12.25c-1-3.5-.14-6.22,3.8-7.06,6.83-2.13,27-2.82,32.6-.62C186.41,108.54,188.17,110.2,187,116.94Z"/><path class="cls-20" d="M130.86,115.46c-2,.52-3.92,1-5.86,1.29a29.37,29.37,0,0,1-11.68,0h0a16.45,16.45,0,0,1-4.87-2,22.24,22.24,0,0,1,4.89-2.52,18.13,18.13,0,0,1,4-1,16.81,16.81,0,0,1,4.9.12A17.36,17.36,0,0,1,125,112,20.21,20.21,0,0,1,130.86,115.46Z"/><path class="cls-21" d="M125.44,114.44a6.09,6.09,0,0,1-.44,2.31,29.37,29.37,0,0,1-11.68,0h0a6.26,6.26,0,0,1-.42-2.26,6.08,6.08,0,0,1,.44-2.3,18.13,18.13,0,0,1,4-1,16.81,16.81,0,0,1,4.9.12A17.36,17.36,0,0,1,125,112,6.24,6.24,0,0,1,125.44,114.44Z"/><path class="cls-22" d="M123,113.59a3.24,3.24,0,0,1-6.48,0,3.18,3.18,0,0,1,.84-2.17,16.8,16.8,0,0,1,4.9.11A3.24,3.24,0,0,1,123,113.59Z"/><circle cx="120.16" cy="113.46" r="0.99"/><path class="cls-23" d="M150.7,115.46c2,.52,3.92,1,5.86,1.29a29.37,29.37,0,0,0,11.68,0h0a16.45,16.45,0,0,0,4.87-2,22.24,22.24,0,0,0-4.89-2.52,18.13,18.13,0,0,0-4-1,16.81,16.81,0,0,0-4.9.12,17.36,17.36,0,0,0-2.71.74A20.21,20.21,0,0,0,150.7,115.46Z"/><path class="cls-21" d="M156.12,114.44a6.09,6.09,0,0,0,.44,2.31,29.37,29.37,0,0,0,11.68,0h0a6.26,6.26,0,0,0,.42-2.26,6.08,6.08,0,0,0-.44-2.3,18.13,18.13,0,0,0-4-1,16.81,16.81,0,0,0-4.9.12,17.36,17.36,0,0,0-2.71.74A6.24,6.24,0,0,0,156.12,114.44Z"/><path class="cls-22" d="M158.57,113.59a3.24,3.24,0,1,0,6.48,0,3.18,3.18,0,0,0-.84-2.17,16.81,16.81,0,0,0-4.9.11A3.24,3.24,0,0,0,158.57,113.59Z"/><circle cx="161.41" cy="113.46" r="0.99"/><path class="cls-14" d="M186.07,88.93c-29.49-3.48-57.93-3.82-85-.1a61.39,61.39,0,0,1,6.27-11,55.15,55.15,0,0,1,6.08-7.17c8.42-8.37,18.87-13.15,29.37-13.15C158.92,57.46,177.6,70.54,186.07,88.93Z"/><path class="cls-14" d="M113.4,70.61a55.15,55.15,0,0,0-6.08,7.17,4.72,4.72,0,1,1,6.08-7.17Z"/><path class="cls-14" d="M106.18,75.16c-13-10.26-28.65-2.57-31.7,8.73L70.63,63.74Q87.19,59.12,106.18,73Z"/><path class="cls-14" d="M108.32,70.64c-1.26-12.94-3.8-24.72-10.39-32.86L113.08,39c.75,12.85,0,23.73-3.42,31.33Z"/><path class="cls-24" d="M135.24,119.15c-.75,6.24-1.64,10.71-4.22,15a40,40,0,0,0-2,3.56c-.71,2.17,1,2.71,3.63,3.36-1.77.32-3.84.49-4.49-.87a4.46,4.46,0,0,1,.15-2.89,13.86,13.86,0,0,1,1.91-3.45,15.13,15.13,0,0,0,2.45-5.57Z"/><path class="cls-24" d="M145.55,119.08c.93,6.22,1.6,10,4,14.25.68,1.22,1.31,2.33,1.85,3.52.7,2.16-1,3-3.17,3.65,1.51.31,3.54.19,4-1.17a5.29,5.29,0,0,0-.27-2.88,14.84,14.84,0,0,0-1.78-3.41,17.54,17.54,0,0,1-2.34-5.53Z"/><path class="cls-24" d="M130.86,139.15c1.8-.44,2.36-1.23,6.42,2a5.44,5.44,0,0,0,5.72.14c2.45-2,3.6-3.09,6.2-2-.92-1-2.61-1.79-4.59,0q-4.58,4.26-9.16,0C133.54,137.77,131.8,138.2,130.86,139.15Z"/><path class="cls-24" d="M130.67,113.9c-6-4.72-12.54-6.09-20.14-2.94l-.21-.28c8-3.3,14.63-2.53,21,2.43Z"/><path class="cls-24" d="M150.77,113.66c6-4.72,12.54-6.09,20.14-2.94l.21-.28c-8-3.3-14.63-2.53-21,2.43Z"/></g></g></svg>