<svg xmlns="http://www.w3.org/2000/svg" xmlns:xlink="http://www.w3.org/1999/xlink" viewBox="0 0 349.75 349.87"><defs><style>.cls-1{mask:url(#mask);}.cls-2{fill:#ec6408;}.cls-3{fill:#fcbf42;}.cls-4{fill:#a78e3e;}.cls-5{fill:#af8783;}.cls-6{fill:#855453;}.cls-7{fill:#d7c951;}.cls-8{fill:#fdf0e2;}.cls-9{opacity:0.1;}.cls-10{fill:#f2a76a;}.cls-11{fill:#f2b544;}.cls-12{fill:#fff;}.cls-12,.cls-13,.cls-32,.cls-39{stroke:#000;stroke-miterlimit:10;}.cls-13,.cls-27{fill:#fabf8f;}.cls-14{fill:#fccb9e;}.cls-15{fill:#efac7f;}.cls-16{fill:#3f2b14;}.cls-17{fill:#a5a5a5;}.cls-18{fill:#ededed;}.cls-19{fill:#311a15;}.cls-20{fill:url(#linear-gradient);}.cls-21{fill:#fefef2;}.cls-22{fill:#3e1e1a;}.cls-23{fill:url(#linear-gradient-2);}.cls-24{fill:#ffc197;}.cls-25{fill:url(#linear-gradient-3);}.cls-26{fill:#7e491b;}.cls-28{fill:#eab488;}.cls-29{fill:#391924;}.cls-30,.cls-32{fill:#fdeedc;}.cls-31{fill:#e2c19e;}.cls-32{stroke-width:2.08px;}.cls-33{fill:#1d1d1b;}.cls-34{fill:#ea673a;}.cls-35{fill:#cd423c;}.cls-36,.cls-39{fill:#f7c845;}.cls-37{fill:#8a272f;}.cls-38{fill:#f2cd45;}.cls-39{stroke-width:1.19px;}.cls-40{fill:#8e272d;}.cls-41{fill:#8b2530;}.cls-42{fill:#8d262e;}.cls-43{fill:#ba923f;}</style><mask id="mask" x="-316.72" y="-28.51" width="282.74" height="282.74" maskUnits="userSpaceOnUse"/><linearGradient id="linear-gradient" x1="186.16" y1="161.3" x2="186" y2="156.13" gradientUnits="userSpaceOnUse"><stop offset="0" stop-color="#702824"/><stop offset="1" stop-color="#311a15" stop-opacity="0.81"/></linearGradient><linearGradient id="linear-gradient-2" x1="239.33" y1="159.44" x2="239.13" y2="152.86" xlink:href="#linear-gradient"/><linearGradient id="linear-gradient-3" x1="212.28" y1="194.82" x2="211.19" y2="159.19" gradientUnits="userSpaceOnUse"><stop offset="0" stop-color="#fabf8f"/><stop offset="1" stop-color="#fccb9e"/></linearGradient></defs><title>08 - Kaziu</title><g id="Layer_21" data-name="Layer 21"><path class="cls-2" d="M173.82,345c-3,0-5.73-.07-8.39-.2-4.85-.23-9.71-.68-14.46-1.33l-1.77-.24-.35-.05c-2.69-.39-5.15-.8-7.51-1.26-3.89-.76-7.4-1.56-10.71-2.43-4.16-1.08-8.37-2.35-12.49-3.76l-.18-.07a3.75,3.75,0,0,1-.47-.17A166.82,166.82,0,0,1,97,326.8c-1.56-.78-2.75-1.41-3.87-2l-.58-.31-.15-.08-.78-.43c-3.32-1.82-6.46-3.67-9.36-5.51l-.59-.39-.31-.2c-4.35-2.81-8.57-5.81-12.53-8.89-1.78-1.39-3.41-2.71-5-4-1.92-1.62-3.8-3.26-5.57-4.88-3.13-2.87-6.17-5.87-9-8.93-2.57-2.72-5.21-5.72-7.82-8.91A171.36,171.36,0,0,1,27.2,262a169.28,169.28,0,0,1-19.83-48.9A170.88,170.88,0,0,1,168.12,3.25c1.81-.07,3.68-.1,5.7-.1a170.93,170.93,0,0,1,170.37,157.3c.35,4.47.54,9,.54,13.61s-.18,9-.54,13.47c-.27,3.55-.65,7.11-1.14,10.57-.7,5-1.63,10-2.74,14.74l-.05.22a171,171,0,0,1-28.15,61.47c-1.87,2.57-3.87,5.16-5.94,7.69-2.57,3.13-5.21,6.13-7.83,8.92-2.84,3-5.88,6-9,8.92-3.45,3.16-7,6.16-10.54,8.91-2.5,2-5,3.81-7.48,5.5-1.75,1.24-3.54,2.41-5.05,3.4-3.78,2.43-7.81,4.8-12,7.05-1.21.64-2.42,1.27-3.63,1.88l-.37.18c-3.57,1.8-7.27,3.49-11,5-2.93,1.23-6,2.42-9.2,3.52l-.41.14-.18.06a169.27,169.27,0,0,1-30.7,7.46c-1.58.23-3.3.46-5.26.68-4.6.55-9.36.9-14.15,1C177.34,345,175.34,345,173.82,345Z"/><path d="M173.82,4.15A169.9,169.9,0,0,1,343.19,160.53c.36,4.46.54,9,.54,13.53s-.18,9-.53,13.39c-.27,3.53-.65,7-1.14,10.51q-1.05,7.47-2.74,14.72h0l0,.14a169.6,169.6,0,0,1-28,61.11q-2.83,3.92-5.9,7.65c-2.49,3-5.09,6-7.79,8.86-2.87,3.07-5.87,6-9,8.87-3.36,3.08-6.86,6.05-10.48,8.86-2.41,1.89-4.89,3.72-7.43,5.46-1.65,1.17-3.34,2.29-5,3.39q-5.81,3.74-11.92,7c-1.2.63-2.4,1.26-3.61,1.87l-.33.16q-5.37,2.7-10.94,5-4.5,1.89-9.14,3.49c-.19.08-.4.14-.6.21a168,168,0,0,1-30.51,7.41c-1.74.26-3.48.48-5.23.68-4.63.55-9.33.89-14.07,1-1.84.08-3.68.1-5.53.1-2.8,0-5.58-.06-8.34-.2-4.85-.23-9.63-.67-14.37-1.32l-2.12-.29c-2.5-.36-5-.77-7.46-1.25-3.58-.7-7.13-1.49-10.64-2.42q-6.3-1.63-12.42-3.74c-.2-.07-.4-.13-.59-.21a167.23,167.23,0,0,1-20.41-8.65c-1.29-.65-2.57-1.31-3.84-2l-.73-.39-.81-.44c-3.17-1.74-6.29-3.57-9.32-5.5l0,0-.34-.23-.44-.28c-4.29-2.77-8.46-5.72-12.47-8.85q-2.5-1.95-4.94-4-2.82-2.37-5.54-4.86-4.65-4.26-9-8.87c-2.7-2.86-5.29-5.83-7.78-8.86a170.38,170.38,0,0,1-14.17-20.14A169.89,169.89,0,0,1,168.15,4.25c1.88-.07,3.77-.1,5.67-.1m0-2c-2,0-3.91,0-5.75.1A171.84,171.84,0,0,0,40.68,282.85c2.64,3.22,5.28,6.23,7.87,9,2.88,3.07,5.94,6.09,9.09,9,1.78,1.64,3.67,3.3,5.6,4.92,1.56,1.32,3.2,2.65,5,4.05,4,3.1,8.22,6.11,12.61,8.95l.3.19.15.09.07.05.17.12.13.09.07,0c2.92,1.86,6.08,3.72,9.39,5.53.28.16.56.32.85.47l.13.07.59.31c1.11.61,2.3,1.24,3.87,2a170.3,170.3,0,0,0,20.6,8.73l.48.18.16.05c4.16,1.43,8.39,2.7,12.58,3.79,3.32.88,6.84,1.68,10.75,2.44,2.39.47,4.86.88,7.56,1.27l.24,0,1.92.26c4.76.66,9.65,1.11,14.52,1.34,2.68.13,5.44.2,8.44.2,2.26,0,4,0,5.61-.1,4.8-.14,9.6-.49,14.22-1,2-.23,3.7-.45,5.29-.69a170.31,170.31,0,0,0,30.87-7.5l.17-.06c.17-.05.33-.11.48-.17,3.17-1.09,6.26-2.28,9.21-3.52,3.7-1.52,7.42-3.22,11-5l.19-.09.1,0,0,0h0c1.23-.62,2.45-1.27,3.64-1.89,4.22-2.27,8.27-4.65,12.07-7.1,1.53-1,3.32-2.17,5.1-3.44,2.47-1.69,5-3.55,7.51-5.52,3.57-2.76,7.13-5.78,10.6-9,3.17-2.9,6.22-5.92,9.08-9,2.63-2.79,5.28-5.81,7.87-9,2.09-2.55,4.1-5.15,6-7.75a171.6,171.6,0,0,0,28.32-61.83v-.06l0-.14v0c1.12-4.8,2-9.78,2.75-14.8.49-3.49.88-7.07,1.15-10.64.36-4.48.54-9,.54-13.54s-.19-9.2-.55-13.69A171.9,171.9,0,0,0,173.82,2.15Z"/><path class="cls-3" d="M173.14,35.2A98.15,98.15,0,0,1,75,133.35,97.65,97.65,0,0,1,15.19,113a170,170,0,0,1,153-108.77A97.81,97.81,0,0,1,173.14,35.2Z"/><path class="cls-4" d="M339.29,212.83a169.71,169.71,0,0,1-33.89,68.76c-2.49,3-5.09,6-7.79,8.86-2.87,3.07-5.87,6-9,8.87-3.36,3.08-6.86,6.05-10.48,8.86-2.41,1.89-4.89,3.72-7.43,5.46-1.65,1.17-3.34,2.29-5,3.39a172.13,172.13,0,0,1-15.53,8.88l-.33.16a166.2,166.2,0,0,1-20.08,8.49c-.19.08-.4.14-.6.21a168,168,0,0,1-30.51,7.41H149c-2.5-.36-5-.77-7.46-1.25-3.58-.7-7.13-1.49-10.64-2.42q-6.3-1.63-12.42-3.74c-.2-.07-.4-.13-.59-.21a167.23,167.23,0,0,1-20.41-8.65c-1.81-.91-3.61-1.85-5.38-2.84q-4.78-2.62-9.37-5.53c-.25-.18-.52-.34-.78-.51-4.29-2.77-8.46-5.72-12.47-8.85-3.62-2.81-7.11-5.78-10.48-8.86q-4.65-4.26-9-8.87c-2.7-2.86-5.29-5.83-7.78-8.86a170.38,170.38,0,0,1-14.17-20.14A168.43,168.43,0,0,1,8.35,212.83Z"/><path class="cls-5" d="M343.19,160.53c.36,4.46.54,9,.54,13.53s-.18,9-.53,13.39c-.27,3.53-.65,7-1.14,10.51q-1.05,7.47-2.74,14.72h0l-196.17,2.64h0l7.64-15,.22-.2.12-.12.15-.15.29-.28a.19.19,0,0,1,.07-.06l.22-.22,2.83-2.76,3.18-3.16c.36-.36.73-.75,1.14-1.14a.6.6,0,0,1,.13-.14c.36-.35.72-.71,1.08-1.09,1.76-1.77,3.72-3.74,5.83-5.92l1.08-1.11c1.11-1.12,2.23-2.28,3.39-3.49a1.57,1.57,0,0,1,.18-.19c.81-.83,1.64-1.71,2.48-2.59l3.88-4.09c.77-.82,1.56-1.63,2.34-2.48.11-.12.24-.25.36-.39.91-1,1.84-2,2.76-3,2.8-3,5.7-6.18,8.65-9.46,14.88-16.6,31.18-36.09,43.57-54.6,10.4-15.47,18.11-30.24,20-42.08a73.77,73.77,0,0,1,11.88-1.57c3.49-.11,6.87.22,8.62,1.57,0,0,14.54,25.26,34.51,54.36,9.36,13.69,19.9,28.22,30.71,41.33C341.4,158.39,342.29,159.47,343.19,160.53Z"/><path class="cls-6" d="M343.19,160.53c.36,4.46.54,9,.54,13.53s-.18,9-.53,13.39c-.27,3.53-.65,7-1.14,10.51q-1.05,7.47-2.74,14.72h0l-196.17,2.64h0l7.64-15,.22-.2.12-.12.15-.15.29-.28a.19.19,0,0,1,.07-.06l.22-.22,2.83-2.76,3.18-3.16c.36-.36.73-.75,1.14-1.14a.6.6,0,0,1,.13-.14c.36-.35.72-.71,1.08-1.09,1.76-1.77,3.72-3.74,5.83-5.92l1.08-1.11c1.09-1.12,2.22-2.27,3.39-3.49a1.57,1.57,0,0,1,.18-.19c.81-.83,1.64-1.71,2.48-2.59l3.88-4.09,2.34-2.48c.11-.12.24-.25.36-.39.91-1,1.84-2,2.76-3,2.8-3,5.7-6.18,8.65-9.46l34.14-7.41,30,23.47,33-17.47,18.32-.8L334,171.9l6.54-14.59C341.4,158.39,342.29,159.47,343.19,160.53Z"/><path class="cls-7" d="M335.63,191.44l7.57-4c-.27,3.53-.65,7-1.14,10.51q-1.05,7.47-2.74,14.72l-196.16,2.64h0l7.66-15,.22-.2.12-.12.15-.15.29-.28a.19.19,0,0,1,.07-.06l.22-.22,2.83-2.76c14.88-5.47,30.92-8.94,54.25.22L219,179l5.47,14.72,9.53-8.18,6.85,15.56s31.93-8.72,36-6.81,7.66-11.19,7.66-11.19l18,15.56,12.56-4.94,9.56-16.09Z"/><path class="cls-8" d="M282.66,85.75l11,43.83L280.39,105l-3.28,20.28-8.8-26.42L262,124.48l-3.48-22.54-5.94,14.13V97.22l-17.62,30.32L244.36,95l-9.61,8.72c10.4-15.47,18.11-30.24,20-42.08a73.76,73.76,0,0,1,11.87-1.57c3.5-.11,6.87.22,8.63,1.57,0,0,14.54,25.26,34.51,54.36C299.18,111.35,282.66,85.75,282.66,85.75Z"/><path class="cls-9" d="M343.19,160.53c.36,4.46.54,9,.54,13.53s-.18,9-.53,13.39c-.27,3.53-.65,7-1.14,10.51l-6.43-6.52-10.94-13.8-18-21.55-13-26.51-27-69.53c3.49-.11,6.87.22,8.62,1.57,0,0,14.54,25.26,34.51,54.36,9.36,13.69,19.9,28.22,30.71,41.33C341.4,158.39,342.29,159.47,343.19,160.53Z"/><path class="cls-5" d="M4.43,160.71c-.36,4.46-.54,9-.54,13.53s.18,9,.53,13.39c.27,3.53.65,7,1.14,10.51q1,7.47,2.74,14.72h0l196.17,2.64h0l-7.64-15-.22-.2a.68.68,0,0,0-.12-.12l-.15-.15-.29-.28a.19.19,0,0,0-.07-.06l-.22-.22-2.83-2.76-3.18-3.16c-.36-.36-.73-.75-1.14-1.14a.6.6,0,0,0-.13-.14c-.36-.35-.72-.71-1.08-1.09-1.76-1.77-3.72-3.74-5.83-5.92l-1.08-1.11c-1.11-1.12-2.23-2.28-3.39-3.49a1.57,1.57,0,0,0-.18-.19c-.81-.83-1.64-1.71-2.48-2.59l-3.88-4.09c-.77-.82-1.56-1.63-2.34-2.48l-.36-.39c-.91-1-1.84-2-2.76-3-2.8-3-5.7-6.18-8.65-9.46-14.88-16.6-31.18-36.09-43.57-54.6-10.4-15.47-18.11-30.24-20-42.08A73.77,73.77,0,0,0,81,60.23c-3.49-.11-6.87.22-8.62,1.57,0,0-14.54,25.26-34.51,54.36-9.36,13.69-19.9,28.22-30.71,41.33C6.22,158.57,5.33,159.65,4.43,160.71Z"/><path class="cls-6" d="M4.43,160.71c-.36,4.46-.54,9-.54,13.53s.18,9,.53,13.39c.27,3.53.65,7,1.14,10.51q1,7.47,2.74,14.72h0l196.17,2.64h0l-7.64-15-.22-.2a.68.68,0,0,0-.12-.12l-.15-.15-.29-.28a.19.19,0,0,0-.07-.06l-.22-.22-2.83-2.76-3.18-3.16c-.36-.36-.73-.75-1.14-1.14a.6.6,0,0,0-.13-.14c-.36-.35-.72-.71-1.08-1.09-1.76-1.77-3.72-3.74-5.83-5.92l-1.08-1.11c-1.09-1.12-2.22-2.27-3.39-3.49a1.57,1.57,0,0,0-.18-.19c-.81-.83-1.64-1.71-2.48-2.59l-3.88-4.09-2.34-2.48-.36-.39c-.91-1-1.84-2-2.76-3-2.8-3-5.7-6.18-8.65-9.46l-34.14-7.41-30,23.47-33-17.47-18.32-.8L13.65,172.08,7.11,157.49C6.22,158.57,5.33,159.65,4.43,160.71Z"/><path class="cls-7" d="M12,191.62l-7.57-4c.27,3.53.65,7,1.14,10.51q1,7.47,2.74,14.72l196.16,2.64h0l-7.66-15-.22-.2a.68.68,0,0,0-.12-.12l-.15-.15-.29-.28a.19.19,0,0,0-.07-.06l-.22-.22-2.83-2.76c-14.88-5.47-30.92-8.94-54.25.22l-10.09-17.72-5.47,14.72-9.53-8.18-6.85,15.56s-31.93-8.72-36-6.81-7.66-11.19-7.66-11.19l-18,15.56-12.56-4.94-9.56-16.09Z"/><path class="cls-8" d="M65,85.94l-11,43.82L67.23,105.2l3.27,20.28,8.8-26.41,6.34,25.59,3.48-22.54,5.95,14.14V97.4l17.61,30.32-9.43-32.56,9.62,8.72C102.47,88.42,94.75,73.64,92.82,61.8A73.55,73.55,0,0,0,81,60.23c-3.5-.11-6.87.22-8.63,1.57,0,0-14.54,25.27-34.5,54.36C48.44,111.54,65,85.94,65,85.94Z"/><path class="cls-9" d="M4.43,160.71c-.36,4.46-.54,9-.54,13.53s.18,9,.53,13.39c.27,3.53.65,7,1.14,10.51L12,191.62l10.94-13.8,18-21.55,13-26.51L81,60.23c-3.49-.11-6.87.22-8.62,1.57,0,0-14.54,25.26-34.51,54.36-9.36,13.69-19.9,28.22-30.71,41.33C6.22,158.57,5.33,159.65,4.43,160.71Z"/><path class="cls-10" d="M159.22,182.74c-1.48-3.4-3.64-10.05-5.94-17.38a37.76,37.76,0,0,0-3.22-8.51c-.17-2.17.08-4,3.41-3.42,0,0,4.87,1.35,5,4.13S159.22,182.74,159.22,182.74Z"/><path class="cls-11" d="M173.82,344.32c-3,0-5.7-.07-8.36-.2-4.83-.23-9.67-.68-14.4-1.33l-1.77-.24-.35-.05c-2.67-.38-5.12-.79-7.47-1.25-3.88-.76-7.37-1.55-10.67-2.42-4.15-1.08-8.33-2.34-12.44-3.75l-.19-.07a3.52,3.52,0,0,1-.42-.15,167.28,167.28,0,0,1-20.43-8.66c-1.5-.75-3-1.56-4.58-2.4-1.94-1.3-3.9-2.67-5.86-4.07l-.17-.12,0-.2a165.29,165.29,0,0,1,9-33.62l0-.07.06-.06c1.23-1.08,2.28-2,3.31-2.79,14.8-11.71,36.39-20,68-26l1.95-.39c4.83-.88,8.75-1.55,12.37-2.11l.48-.08,1.58-6.69h60.75v7.63l2.62.22c1.44.14,2.88.29,4.31.45,3.65.41,7.25.92,10.7,1.52a169.54,169.54,0,0,1,49.63,16.25l.34.17-.23.31c-1.86,2.57-3.84,5.15-5.91,7.67-2.56,3.12-5.19,6.1-7.8,8.87-2.83,3-5.85,6-9,8.89-3.44,3.15-7,6.14-10.5,8.88-2.49,1.95-5,3.79-7.45,5.47-1.75,1.24-3.53,2.41-5,3.39-3.77,2.43-7.79,4.79-11.95,7-1.2.63-2.4,1.26-3.62,1.87l-.34.17c-3.58,1.8-7.27,3.48-10.95,5-2.92,1.23-6,2.41-9.16,3.5a2.93,2.93,0,0,1-.39.14l-.2.07a168.75,168.75,0,0,1-30.58,7.42c-1.57.24-3.28.46-5.24.68-4.58.55-9.32.9-14.09,1C177.33,344.31,175.33,344.32,173.82,344.32Z"/><path d="M243.86,247.91v7.58c.12,0,.2,0,.34,0h.05l.33,0,2.2.19c1.44.14,2.88.29,4.31.45q5.41.6,10.68,1.51a168.67,168.67,0,0,1,49.53,16.22q-2.83,3.92-5.9,7.65c-2.49,3-5.09,6-7.79,8.86-2.87,3.07-5.87,6-9,8.87-3.36,3.08-6.86,6.05-10.48,8.86-2.41,1.89-4.89,3.72-7.43,5.46-1.65,1.17-3.34,2.29-5,3.39q-5.81,3.74-11.92,7c-1.2.63-2.4,1.26-3.61,1.87l-.33.16q-5.37,2.7-10.94,5-4.5,1.89-9.14,3.49c-.19.08-.4.14-.6.21a168,168,0,0,1-30.51,7.41c-1.74.26-3.48.48-5.23.68-4.63.55-9.33.89-14.07,1-1.84.08-3.68.1-5.53.1-2.8,0-5.58-.06-8.34-.2-4.85-.23-9.63-.67-14.37-1.32l-2.12-.29c-2.5-.36-5-.77-7.46-1.25-3.58-.7-7.13-1.49-10.64-2.42q-6.3-1.63-12.42-3.74c-.2-.07-.4-.13-.59-.21a167.23,167.23,0,0,1-20.41-8.65q-2.31-1.16-4.57-2.4-3-2-5.83-4.05a164.06,164.06,0,0,1,9-33.55c1.07-1,2.16-1.88,3.3-2.78,16.58-13.13,40.58-20.75,67.8-26l2-.39c4.06-.74,8.18-1.46,12.35-2.11l.17,0,.52-.08v0l.06-.2,1.46-6.19,0-.22h60.16m.65-.65H183.17l-.11.5L183,248l-1.41,6-.12,0-.17,0c-3.64.56-7.57,1.23-12.35,2.11l-2,.39c-31.61,6.05-53.24,14.34-68.08,26.09-1,.81-2.12,1.73-3.33,2.8l-.11.1-.06.15a165.41,165.41,0,0,0-9,33.68l-.06.4.33.24c2,1.41,3.92,2.78,5.84,4.06l0,0h0c1.55.85,3.09,1.66,4.59,2.42a168.47,168.47,0,0,0,20.49,8.68,3.92,3.92,0,0,0,.42.15l.17.06c4.12,1.41,8.32,2.67,12.47,3.75,3.31.88,6.8,1.67,10.68,2.43,2.36.46,4.81.87,7.49,1.26l.22,0,1.92.26c4.73.65,9.59,1.09,14.42,1.32,2.66.14,5.4.2,8.37.2,2.24,0,4,0,5.56-.1,4.77-.14,9.53-.49,14.11-1,1.95-.22,3.67-.45,5.25-.68a169.32,169.32,0,0,0,30.63-7.44l.19-.07a4.72,4.72,0,0,0,.45-.16c3.11-1.07,6.2-2.25,9.14-3.49,3.69-1.52,7.38-3.21,11-5l.16-.07.15-.07c1.24-.63,2.46-1.27,3.64-1.89,4.18-2.25,8.2-4.61,12-7,1.51-1,3.29-2.15,5.06-3.41,2.45-1.68,5-3.52,7.45-5.48,3.54-2.74,7.08-5.74,10.52-8.89,3.15-2.88,6.18-5.88,9-8.9,2.61-2.77,5.24-5.77,7.81-8.89,2.07-2.53,4.06-5.11,5.93-7.69l.45-.61-.68-.35a170.46,170.46,0,0,0-49.72-16.29c-3.45-.6-7.06-1.11-10.72-1.51-1.43-.16-2.88-.31-4.32-.45l-1.1-.1-1.11-.09h-.12v-7.65Z"/><path class="cls-12" d="M226.78,296.39l27,27.65c-1.2.63-2.4,1.26-3.61,1.87l-.33.16q-5.37,2.7-10.94,5l-35.84-36.9-35.94-37,2-.39,12.35-2.11.17,0,.07-.55.46.43,32.52,30.54,29.55-29.52h.05l.33,0,2.2.19c1.44.14,2.88.29,4.31.45q5.39.63,10.68,1.51l-36.42,37.22Z"/><polygon class="cls-13" points="214.57 286.32 181.66 254.09 184.36 244.95 217.16 245.42 243.59 241.33 244.25 247.01 244.25 257.01 214.57 286.32"/><path class="cls-10" d="M267.49,184.64c1.51-2.36,3-4.52,4.31-13.22a20.4,20.4,0,0,0,.73-10.1c1.93-2.15,3.26-4.28,1-6.3-2.05-.86-3.61-.73-4.23,1.28l-.69,15Z"/><path class="cls-14" d="M270.42,170.22c-1.06,5.82-1.14,11-2,18.92-.2,1.86-.44,3.86-.74,6.06-1.61,11.58-7.26,27.65-11.15,35.25a72,72,0,0,1-6.29,10.36,73,73,0,0,1-5.17,6.2c-1.9,2-4.1,4.21-6.7,6.61-10.32,9.49-20.89,8.57-30.38,8.28-6.31-.2-14.84-5.74-21-10.8-1.08-.88-2.08-1.75-3-2.58a40.82,40.82,0,0,1-3.86-4c-3.75-4.63-10.47-19.48-13-25.08s-5.21-21-7.35-31.55c-.27-1.32-.5-2.87-.69-4.57-.65-5.61-.94-12.87-1.07-19v0c-.15-6.93-.09-12.42-.09-12.42l.73-14.42,1.65-17.57,5.94-19.77s22.7-7.86,22.7-7.88c.59.07,43.42-2.59,43.42-2.59l18.18,1.56,1.19.1,1.19,1.9,12,19.08,4.77,23.86s-.88,19.72.29,24.15c.2.75.37,1.36.5,1.88C271.32,164.77,271.28,165.25,270.42,170.22Z"/><path class="cls-15" d="M228.86,159.57a1.25,1.25,0,0,0,.56.62,1.61,1.61,0,0,0,1,.15,3.89,3.89,0,0,0,.47-.09,3,3,0,0,1,.43-.06,8.21,8.21,0,0,1,2.21.12,15.72,15.72,0,0,1,1.64.41l1.26.35c.48.13.95.26,1.44.37s.81.2,1.22.27a2.3,2.3,0,0,0,.45,0c1,0,4.57.35,5.62-.35a17.92,17.92,0,0,1,2.28-1.24s2.18-.37,2.44-1.35a6.2,6.2,0,0,0,.23-1.56s1.59,1.86,2.37,1.18-.79-1.76-.79-1.76a.51.51,0,0,1,.52,0A1.31,1.31,0,0,0,251,156l-1-.64a1.87,1.87,0,0,1,.59,0,1.3,1.3,0,0,0-.87-.54c0-.13,0-.28.31-.47a1.59,1.59,0,0,1-.63-.14,6.82,6.82,0,0,0-1-.44c-.14,0-.94-.87-1.26-.87s-.86-.41-.86-.55a1.82,1.82,0,0,1-1.12-.07,10,10,0,0,0-1.74-.73c-.2,0-2.69.16-2.95-.26a1.41,1.41,0,0,1-1,.24c-.66-.05-.32-.38-.32-.38a2.2,2.2,0,0,1-.68.34,3.08,3.08,0,0,1-1.13.15c-.15-.08-.16-.35-.05-.4a17,17,0,0,1-2,1A16.81,16.81,0,0,0,233,153.4s-2,1.54-2.1,1.67-.21.22-.31.32a4.53,4.53,0,0,1-.57.5,2,2,0,0,1-.67.35,2.54,2.54,0,0,0-.84.29.8.8,0,0,0-.32.72c0,.18.07.35.1.52s.08.4.13.6a4.84,4.84,0,0,0,.22.6,3.42,3.42,0,0,1,.13.34A2.5,2.5,0,0,0,228.86,159.57Z"/><path class="cls-16" d="M270.65,144.22c0,.85,0,1.71,0,2.57-.09,3.66-.24,7.43-.41,11.31,0,.71-.06,1.42-.09,2.14l-.07-.44v0l-.22-1.36h0L267.06,141a11.14,11.14,0,0,1-.69-1.09c-.22-.38-.43-.78-.62-1.2a18.86,18.86,0,0,1-.78-1.95c-.08-.23-.16-.46-.23-.69a37.2,37.2,0,0,1-1.27-6.16q-.11-.8-.18-1.62c-.11-1-.19-2.08-.26-3.16,0-.09,0-.17,0-.26q-.09-1.62-.15-3.3c-.05-1.81-.08-3.65-.1-5.5,0-.39,0-.78-.09-1.16s-.07-.69-.11-1-.07-.56-.12-.83-.07-.44-.1-.65l-.06-.3-.15-.73c-.06-.29-.13-.57-.2-.84a20.52,20.52,0,0,0-.74-2.37c-.09-.25-.19-.49-.29-.73s-.21-.48-.32-.71-.22-.46-.34-.68a17.05,17.05,0,0,0-1.55-2.48c-.19-.25-.39-.5-.59-.74a16.21,16.21,0,0,0-1.26-1.35c-.25-.25-.51-.48-.77-.71l-.62-.5-.74-.56c-.25-.18-.51-.35-.77-.52l-.79-.49c-.74-.43-1.5-.82-2.29-1.18l-.63-.28-.5-.21-.82-.31c-.33-.13-.66-.24-1-.35l-.59-.19c-.15-.06-.31-.1-.47-.15l-.84-.25c-10.44,2.14-20.89,1.59-31.34.24-5-1-10.41,1.61-15.78,4.08-8.42-2.9-17.11-2.64-25.9-1.16a13.74,13.74,0,0,0-1.43,1.08l-.55.49a16,16,0,0,0-1.74,1.85l-.51.65s0,0,0,0l-.49.69c-.23.33-.45.67-.67,1s-.29.47-.43.72-.22.37-.32.56c-.44.78-.84,1.58-1.21,2.42q-.24.5-.45,1c-.21.48-.41,1-.6,1.46s-.3.76-.44,1.15-.32.87-.48,1.31a58.63,58.63,0,0,1,.19,6.59c0,.39,0,.78-.05,1.17s0,.48,0,.73c0,.84-.1,1.69-.17,2.55,0,.41-.06.83-.1,1.24s-.09.93-.14,1.4-.12,1.15-.19,1.73c-.15,1.25-.32,2.52-.5,3.81s-.42,2.77-.65,4.17c-.16,1-.33,1.93-.5,2.9a15.36,15.36,0,0,0-.56,1.46c-.25.76-.47,1.59-.67,2.49-.07.32-.14.66-.21,1-.12.61-.23,1.24-.33,1.9a.5.5,0,0,0,0,.12q-.21,1.4-.39,2.91a1.36,1.36,0,0,0,0,.2q-.19,1.69-.36,3.51c-.08.81-.15,1.63-.22,2.47h0q-.07.87-.15,1.77c-.15,1.8-.3,3.66-.47,5.54v0s0,.09,0,.14c-.28-3-.56-5.91-.81-8.78-.69-7.78-1.23-15.1-1.33-21.94q0-3.63.09-7.06a94.32,94.32,0,0,1,6.39-21.55,73.23,73.23,0,0,1,3.35-6.69c-4.55-8.22-2.42-14.57,3.51-19.86,7.25-7.2,18.16-10.13,30.77-11.1,11.29-7.45,23.27-10.72,37.39-1,5.66-.42,11,1.39,16.06,6.42,5.21,3.08,9,8.13,11.78,14.41,6.16,5.43,4.93,10.74-.77,16l.53,1.33.13.32,1.67,4.19a56,56,0,0,1,1.9,7.09c.21,1,.4,2,.56,3.11a4.5,4.5,0,0,1,.08.51c.28,1.74.49,3.54.67,5.39s.3,3.6.4,5.48C270.71,134.08,270.74,139,270.65,144.22Z"/><path class="cls-16" d="M162.85,154.93c.89-3.06,2-6,6.3-7.05l6.18-.81-5.52,1.12,11-.95,4.45-.07-5.43.44s7.61.46,10.81.95,8.41,2.74,8-1a3.62,3.62,0,0,0-1.32-2.76,5.79,5.79,0,0,0-2.52-.66,17.11,17.11,0,0,1-2.63-.56,64.35,64.35,0,0,0-6.76-1.41l-.81-.14c-1.22-.24,4.84.71,4.84.71s-5.08-2-8.5-1.31-4.8-.76-9.37,1S159.85,149.09,162.85,154.93Z"/><path class="cls-15" d="M171.79,163.14s2-3.53,4.17-4.88,3.45-2,4.59-2.84l1.93-.71s.72-1,1.39-1c-.21.22-.35.43-.28.61,0,0,.48-.7,1-.64-.18.24-.33.45-.16.46a4.66,4.66,0,0,0,1.05-.49s.06.3.59.2a2.7,2.7,0,0,0,1-.27s0,.23.55.23a8.3,8.3,0,0,1,1.83.15l1.61.64,1.82.66c.23.09,2.38,1.15,2.56,1.27a7.87,7.87,0,0,1,1.68,1.6,2,2,0,0,1-.13,1.46c-.26.3-.65.85-1.1,1s-1.71.87-2.14,1-2.09.7-2.55.78c-2,.31-4,.84-6.09,1.1-1,.12-2,.14-3,.24a11.73,11.73,0,0,1-4.3-.34c-.88-.27-2.86-1.36-2.4-2.54a11.74,11.74,0,0,1-1.11.61c-.36.27-.69.57-1.07.81Z"/><path class="cls-16" d="M226.89,148.12c.25-3.3,1.1-6.3,5.21-7.74a6.86,6.86,0,0,0-2.12,2.29l4.48-3c-1.56,1.24-1.1,1.06-2.8,3.07a20.77,20.77,0,0,1,4.51-3.66c-.87,1.24-1.63,1.84-2.08,3.17,1.62-3.31,6.24-4.38,9.58-4l-3.1,1a71,71,0,0,1,9.57-1.07,7.63,7.63,0,0,0-2.9.9c5-.4,9.79-.48,12.13,3,3.46,4.72,5.35,8.51.46,8.35,0,0-7.08-5.44-14.6-5l4.62-.89c-3.22.4-6.55.72-8.62,1.49l2.14-1L235,146.9C231.17,149.18,227.84,148.74,226.89,148.12Z"/><path d="M170.93,158.73a23.78,23.78,0,0,1,5.59-4.14,16.56,16.56,0,0,1,6.74-2.06l3.44-.3c.57,0,1.16-.1,1.77-.1a5.62,5.62,0,0,1,1.82.32,21.06,21.06,0,0,1,3.18,1.51,9.8,9.8,0,0,1,1.41,1.06A3.79,3.79,0,0,1,196,156.4a6.74,6.74,0,0,0-2.71-2,19.39,19.39,0,0,0-3.18-1.2,8,8,0,0,0-3.27,0c-1.14.13-2.3.26-3.45.36a18.54,18.54,0,0,0-6.48,1.75,29,29,0,0,0-3,1.58C172.83,157.43,171.88,158.07,170.93,158.73Z"/><path d="M228.71,154.06a12.27,12.27,0,0,1,5.87-4,9,9,0,0,1,3.68-.34l3.52.48c1.17.19,2.35.38,3.52.66a16.24,16.24,0,0,1,3.41,1.2,26,26,0,0,1,3.17,1.68,7.72,7.72,0,0,1,2.57,2.48,8.62,8.62,0,0,0-2.81-2.06,28.67,28.67,0,0,0-3.22-1.39,29.19,29.19,0,0,0-6.79-1.58l-3.5-.53a8.8,8.8,0,0,0-3.35.14,11.88,11.88,0,0,0-3.2,1.27A16.22,16.22,0,0,0,228.71,154.06Z"/><path class="cls-17" d="M194.24,159.43l-.78,1.26-2.25,1.16-1.2.25a53.32,53.32,0,0,1-7.66,1.08,8.35,8.35,0,0,1-1.14,0,6.27,6.27,0,0,1-3-.8l-1.53-1.49v-1.32l1.53-1.84,3.52-2.17,4.13-.95,2.63.11,2.61.56,2.74,1.66Z"/><path class="cls-17" d="M248.92,157.07l-.18,1.57-1,1.12-.52.07c-.56.08-1.52.21-2.72.33h-.05l-7.52.2h0c-.49,0-1-.07-1.44-.12s-.7-.09-1-.15c-4.35-.88-4.51-1.7-4.31-2.27l.86-2.19,1.68-1.46,2.34-1.45,2.59-.62h3l2.56.35,3.54,1.37,1.75,1.7Z"/><path d="M196.26,159.36a3.24,3.24,0,0,1-1.42,1.14c-1.16.57-2.43.88-3.63,1.35.37-.28.79-.51,1.16-.78a2.32,2.32,0,0,0,1-1.62,3.57,3.57,0,0,0-2-3.83,6.19,6.19,0,0,0-.81-.32,10.19,10.19,0,0,0-2.85-.37c-.77,0-1.53-.08-2.3,0a8.23,8.23,0,0,0-2.18.51c-.69.25-1.39.46-2.07.73l-.18.07a9.4,9.4,0,0,0-3.12,2.05,3,3,0,0,0-.94,1.34,1.89,1.89,0,0,0,.45,1.55,5,5,0,0,0,1.66,1.42,5.14,5.14,0,0,0,.9.33,3.68,3.68,0,0,0,1.21.25,6.5,6.5,0,0,1-2.87-.31,5.24,5.24,0,0,1-2.08-1.41,1.55,1.55,0,0,1,0-2,8.66,8.66,0,0,1,1.52-1.68,16.26,16.26,0,0,1,3.38-2.18,11.28,11.28,0,0,1,1.5-.68,1.87,1.87,0,0,1,.8-.86c-.08.11-.53.75,0,.52a1.39,1.39,0,0,1,.77-.62s-.47.45,0,.38a2.72,2.72,0,0,0,1-.43.26.26,0,0,0,.3.21,3.38,3.38,0,0,0,1.23-.29s0,.15.24.16a13.9,13.9,0,0,1,1.68.1,9.05,9.05,0,0,1,1.56.55l.35.14.95.38a18.88,18.88,0,0,1,2.75,1.34c.69.43,1.93,1.18,2.05,2.07a1.17,1.17,0,0,1-.15.73Z"/><path d="M252.24,158.11a2.9,2.9,0,0,1-1.46-.64,4.56,4.56,0,0,0-1.21-1c.11,0,.12.84.12.93a2.36,2.36,0,0,1-1.92,2.32c.08,0,.27-.47.32-.55a6.14,6.14,0,0,0,.32-.69,3.11,3.11,0,0,0,.24-1.44,3.47,3.47,0,0,0-1.47-2.26,11.17,11.17,0,0,0-3.73-1.86,16.69,16.69,0,0,0-3.38-.66,9.74,9.74,0,0,0-4.48.49l-.68.29a11.42,11.42,0,0,0-2.33,1.46l-.32.28a3,3,0,0,0-.93,1.31,2.65,2.65,0,0,0,.74,2.55,6.81,6.81,0,0,0,2.37,1.43,10.8,10.8,0,0,0-4-.2,1.07,1.07,0,0,1-.64,0,.85.85,0,0,1-.31-.34,5.19,5.19,0,0,1-1.08-2.24.84.84,0,0,1,.41-.8c.28-.14.62-.09.91-.22a2.93,2.93,0,0,0,.88-.64,19.09,19.09,0,0,1,3-2.36,10.48,10.48,0,0,1,1.74-.95,7.9,7.9,0,0,0,1.78-.86s-.19.39.15.33a5,5,0,0,0,1.71-.44c0,.06-.12.31.3.27s.88.07,1.16-.19c0,0,0,.21.5.26.3,0,1,0,1.56,0a4.22,4.22,0,0,1,.91.07c.46.13,2.42,1.08,2.76.72a1.15,1.15,0,0,0,.82.58c.61.11,1,.83,1.45,1s.53.4,1.29.36c0,0-.76.14-.47.54a.8.8,0,0,1,.76.22s-.64-.12-.58,0a9.17,9.17,0,0,0,1.16,1s.68-.1.94.25c0,0-.71-.07-.47.17s.71.67.94.85S252.48,158,252.24,158.11Z"/><path class="cls-18" d="M192.51,159.84a3.66,3.66,0,0,1-1.07,1.24l-.63.47-.41.28c-.1.07-.27.25-.39.27a53.32,53.32,0,0,1-7.66,1.08,1.72,1.72,0,0,0-.63-.36c-.27-.07-.56-.08-.83-.14a5.17,5.17,0,0,1-1.39-.41,5.87,5.87,0,0,1-2-2.32,1.81,1.81,0,0,1,.77-1.62,10.43,10.43,0,0,1,2.14-1.47c.33-.17.67-.31,1-.45s.94-.34,1.41-.48a11.94,11.94,0,0,1,3.18-.67c.69,0,1.4.06,2.09.11a17,17,0,0,1,2.13.26,3.8,3.8,0,0,1,.6.18,2.72,2.72,0,0,1,1,.62,3.57,3.57,0,0,1,.95,1.35A3,3,0,0,1,192.51,159.84Z"/><path class="cls-18" d="M248.1,157.58a3.11,3.11,0,0,1-.29,1.19,2.84,2.84,0,0,1-.57,1,.92.92,0,0,1-.23.09,8.5,8.5,0,0,0-1,.55,8.57,8.57,0,0,1-3.22,1.07,13.48,13.48,0,0,1-4.47-.45l-1.62-.44a3.3,3.3,0,0,1-1.53-.73,11.34,11.34,0,0,0-1.74-1.26c-.53-.33-1.22-.66-1.48-1.27a2.08,2.08,0,0,1,.66-2.21,8.82,8.82,0,0,1,3.25-2,9.75,9.75,0,0,1,3.84-.35,18.15,18.15,0,0,1,3.42.67,11.3,11.3,0,0,1,3.14,1.21,3.91,3.91,0,0,1,1.75,2.22A2.37,2.37,0,0,1,248.1,157.58Z"/><path class="cls-19" d="M190.92,156.94a4.88,4.88,0,0,1-9.76,0,4.07,4.07,0,0,1,.07-.79c.68-.27,1.38-.48,2.07-.73a8.23,8.23,0,0,1,2.18-.51c.77-.06,1.53,0,2.3,0a10.19,10.19,0,0,1,2.85.37A4.68,4.68,0,0,1,190.92,156.94Z"/><path class="cls-20" d="M190,157.22a3.93,3.93,0,0,1-7.85,0,3.31,3.31,0,0,1,.06-.64c.54-.21,1.11-.38,1.66-.58a6.28,6.28,0,0,1,1.75-.41c.62-.05,1.24,0,1.85,0a8.12,8.12,0,0,1,2.3.3A3.81,3.81,0,0,1,190,157.22Z"/><circle cx="186.18" cy="157.38" r="2.37"/><circle class="cls-21" cx="188.88" cy="157.17" r="0.54"/><circle class="cls-21" cx="185.77" cy="157.38" r="0.26"/><circle class="cls-21" cx="185.57" cy="156.57" r="0.11"/><path class="cls-22" d="M244,155.26a4.82,4.82,0,1,1-9.12-2.18l.68-.29a9.74,9.74,0,0,1,4.48-.49,16.69,16.69,0,0,1,3.38.66A4.82,4.82,0,0,1,244,155.26Z"/><path class="cls-23" d="M243.24,155.41a4,4,0,1,1-8.07,0,4.14,4.14,0,0,1,.43-1.83c.19-.08.38-.17.57-.24a8.14,8.14,0,0,1,3.76-.41,14.15,14.15,0,0,1,2.83.55A4,4,0,0,1,243.24,155.41Z"/><circle cx="239.21" cy="155.69" r="2.37"/><circle class="cls-21" cx="242.3" cy="155.48" r="0.91"/><circle class="cls-21" cx="239.56" cy="156.07" r="0.41"/><circle class="cls-21" cx="238.77" cy="154.64" r="0.25"/><path class="cls-24" d="M204.72,196.46a3.52,3.52,0,0,0-4.14-1.68c-1.38-.8-.87-.65.39-.95a3.5,3.5,0,0,1,3.14.54C204.77,195,206,195.44,204.72,196.46Z"/><path class="cls-25" d="M228.15,194.14c-2.52-1.35-5.14-2.57-10.7.23a35.6,35.6,0,0,1-10.51,0c-5.56-2.8-8.18-1.58-10.7-.23-1.13-3.27.26-6.14,2.37-8.48,2.58-2.88,8.23-22.6,8-25s5.55-.88,5.55-.88,5.75-1.55,5.55.88,5.46,22.15,8,25C227.89,188,229.28,190.87,228.15,194.14Z"/><path class="cls-10" d="M217.44,194.37a35.6,35.6,0,0,1-10.51,0c-5.55-2.8-8.17-1.58-10.69-.23h0a9,9,0,0,0,1.15,2.27,4.32,4.32,0,0,0,4.87,1.77,8.41,8.41,0,0,0,1.6-.62c.27-.13.52-.28.77-.43s.48-.52.83-.36a1.31,1.31,0,0,1,.28.2,5.74,5.74,0,0,0,2.35,1.15,6.92,6.92,0,0,0,2,.17c.65,0,1.31-.07,2-.08s1.41,0,2.11.08a7.74,7.74,0,0,0,2.62-.33,6.17,6.17,0,0,0,1.24-.53,6.61,6.61,0,0,0,.55-.37c.28-.22.35-.48.73-.22a7.77,7.77,0,0,0,4,1.52,4.15,4.15,0,0,0,3.68-2,9.39,9.39,0,0,0,1.16-2.27C225.62,192.79,223,191.57,217.44,194.37Zm-12.72,2.08h0a3,3,0,0,0-.53-.74,3.59,3.59,0,0,0-3.61-.94,3.57,3.57,0,0,1-.76-.51q-.1-.09,0-.15a5.87,5.87,0,0,1,1.18-.29,3.5,3.5,0,0,1,3.14.54c.28.27.67.5.92.76s.4.64-.05,1.1l-.12.11Zm19.1-1.68h0l-.2,0a.25.25,0,0,0-.12,0,3.73,3.73,0,0,0-1.83.11,3.42,3.42,0,0,0-1.43.9,3.38,3.38,0,0,0-.53.72h0a.74.74,0,0,1-.13-.12l-.12-.11c-.47-.46-.35-.8,0-1.1s.64-.49.92-.76a3.5,3.5,0,0,1,3.14-.54l.7.15a1.61,1.61,0,0,1,.31.07.39.39,0,0,1,.17.07s0,.11-.08.2a.22.22,0,0,1-.09.07,4.42,4.42,0,0,1-.41.26l-.19.12Z"/><path class="cls-24" d="M223.81,194.78a3.52,3.52,0,0,0-4.14,1.68c-1.29-1,0-1.46.61-2.09a3.5,3.5,0,0,1,3.14-.54C224.68,194.13,225.19,194,223.81,194.78Z"/><path class="cls-24" d="M223.81,194.78a3.52,3.52,0,0,0-4.14,1.68c-1.29-1,0-1.46.61-2.09a3.5,3.5,0,0,1,3.14-.54C224.68,194.13,225.19,194,223.81,194.78Z"/><path class="cls-16" d="M224,194.73c-1.77.38-3.46.08-4.51,2.17a1.21,1.21,0,0,1-.59-1c.08-1.15,1.24-1.79,2-2.11a4.11,4.11,0,0,1,3.56,0,.49.49,0,0,1,.26.27.44.44,0,0,1-.1.37.81.81,0,0,1-.31.18A2.3,2.3,0,0,1,224,194.73Z"/><path class="cls-16" d="M200.28,194.77c1.79.31,3.46-.05,4.59,2a1.23,1.23,0,0,0,.55-1c-.12-1.14-1.3-1.74-2.12-2a4.09,4.09,0,0,0-3.55.16.5.5,0,0,0-.25.28.4.4,0,0,0,.12.36.68.68,0,0,0,.31.17A2.25,2.25,0,0,0,200.28,194.77Z"/><path id="MOUTH" class="cls-26" d="M235.46,217.71a7.66,7.66,0,0,1-2,.41c-.7.13-1.4.25-2.11.36a27.22,27.22,0,0,1-4,.39,48.53,48.53,0,0,1-6.38-.48,14.73,14.73,0,0,0-6.06.13,3.42,3.42,0,0,0-1.64.94s-2.69-.85-3-.89a15.89,15.89,0,0,0-6.17,1,33,33,0,0,1-13,1.07,11,11,0,0,1,2.17.85c.67.23,1.35.44,2,.61a22.22,22.22,0,0,0,3.73.55c4.77.34,9.82-.27,14.37,1.51v.14l.16-.08.16.06v-.14c3.26-1.69,6.93-1.89,10.49-2.47a31.59,31.59,0,0,0,8.48-2.44C233.6,218.72,234.53,218.22,235.46,217.71Z"/><path class="cls-27" d="M187.05,251.1c-1.08-.88-2.08-1.75-3-2.58a40.82,40.82,0,0,1-3.86-4c-3.75-4.63-10.47-19.48-13-25.08s-5.21-21-7.35-31.55c-.27-1.32-.5-2.87-.69-4.57L168,204.25l5.94,17.53,7.23,14.31,2.91,8.18Z"/><path class="cls-27" d="M268.44,189.14c-.2,1.86-.44,3.86-.74,6.06-1.61,11.58-7.26,27.65-11.15,35.25a72,72,0,0,1-6.29,10.36,73,73,0,0,1-5.17,6.2l5.17-11.6,3.46-8.18,7.6-20.88Z"/><path class="cls-16" d="M250.26,240.81a90.54,90.54,0,0,1-11.87,12.81c-10.32,9.49-20.89,8.57-30.38,8.28-7.42-.23-17.91-7.85-23.94-13.38,5.28,1.74,11.77,4,11.77,4l12,4.67,19-.87,9.94-7Z"/><path class="cls-28" d="M270,159.76l-3-18.8c-3.86-5.47-4.19-15.05-4.29-24.93C262,103.41,255.1,98.29,246,95.74c-10.44,2.14-20.89,1.59-31.34.24-5-1-10.41,1.61-15.78,4.08-8.42-2.9-17.11-2.64-25.9-1.16-4.65,3.09-7.25,8.47-9.35,14.41.68,7.37-.39,16.48-2.14,26.29-2.14,4.8-2.54,13.73-3.4,23.42l0,1.32,1.9-8.27,1.51-10.34s.34-4.23,1.27-5.84,2.33-17.09,2.33-17.09,0-8.71-.29-9.64,5.79-12,8.52-13.14,20.89-.78,25.51,1.26c0,0,12.17-5.35,15.87-3.84s29.17,1.5,31-.27c0,0,13.05,2.41,15.19,15.36s-.68,10.17.92,15.82.25,8.13,2.1,10.86,3.31,9.93,3.31,9.93l2.84,11.1h0Z"/><path class="cls-11" d="M176.78,132.93q-6.37,0-12.67-.06h-1.45l-3.41,0-3,0h-.63v-.32c0-2.4,0-4.78.09-7.07a95,95,0,0,1,6.41-21.67l.09-.19,3.05-.09,1,0,2,0h.28l1.44,0c14.43-.32,30.79-.49,47.32-.49,13.63,0,26.9.11,39.42.33l2,0,1.73,0,4.76.1h.22l1.75,4.39a56.25,56.25,0,0,1,1.91,7.14c.22,1.07.41,2.12.57,3.13,0,.16.06.34.08.52.25,1.55.46,3.27.67,5.4.16,1.73.3,3.53.4,5.49l0,.33-1,.06-1.32.08c-1.67.12-3.36.22-5,.32l-1.13.06h-.11C233.15,132,204.39,132.93,176.78,132.93Z"/><path d="M217.28,103.16c13.43,0,26.86.11,39.41.33l2,0h.83l.9,0,4.76.1,1.67,4.19a56,56,0,0,1,1.9,7.09c.21,1,.4,2,.56,3.11a4.5,4.5,0,0,1,.08.51c.28,1.74.49,3.54.67,5.39s.3,3.6.4,5.48l-2,.12c-1.68.12-3.36.22-5,.32l-1.24.07q-44.12,2.69-85.47,2.66-6.36,0-12.65-.06h-2.46l-2.4,0-3.29-.05q0-3.63.09-7.06a94.32,94.32,0,0,1,6.39-21.55l2.85-.08c1,0,2,0,3-.06h.28l1.44,0h0c14.73-.33,31-.49,47.31-.49m0-.66v0c-16.53,0-32.89.17-47.32.5h-.86l-.59,0h-.29c-.68,0-1.32,0-2,0l-1,0-1.4,0-1.46.05H162l-.17.38a95.4,95.4,0,0,0-6.43,21.69v.09c-.09,2.29-.12,4.68-.09,7.1v.63H156l3.24,0,1.14,0h3.72c4.18.05,8.44.07,12.65.07,27.64,0,56.4-.9,85.51-2.67l1.25-.07h.14c1.62-.09,3.26-.19,4.89-.31l1.29-.07.67,0,.65,0,0-.65c-.11-2-.24-3.77-.41-5.5-.2-2.13-.42-3.86-.67-5.43,0-.16,0-.34-.08-.53-.16-1-.35-2.06-.57-3.12a53.81,53.81,0,0,0-1.92-7.17l-1.68-4.22-.16-.4h-.43l-4.77-.1H258.7l-2,0c-12.52-.23-25.79-.34-39.43-.34Z"/><path d="M233.4,116a7.88,7.88,0,0,0-1.25-3,12.83,12.83,0,0,0-3.44-3.37,21.75,21.75,0,0,0-5.08-2.54,31.29,31.29,0,0,0-5.94-1.48,38.76,38.76,0,0,0-8.66-.29c-1.11.12-2.22.24-3.32.41a26.09,26.09,0,0,0-3.48.78A25.43,25.43,0,0,0,198,108a16.28,16.28,0,0,0-5.08,3.66,8.52,8.52,0,0,0-2.22,4.35,7,7,0,0,0,.09,2.81,8.26,8.26,0,0,0,1.46,3.08,13.29,13.29,0,0,0,3.52,3.21,24.21,24.21,0,0,0,7.23,3.08,34,34,0,0,0,4.37.82,42.18,42.18,0,0,0,5,.3l2-.08a30.14,30.14,0,0,0,3.92-.44c1-.18,1.95-.38,2.92-.62a25,25,0,0,0,4-1.37,18.12,18.12,0,0,0,5.4-3.44A9.86,9.86,0,0,0,233,120,7.23,7.23,0,0,0,233.4,116ZM231,119.89a9,9,0,0,1-2.22,2.66,17.49,17.49,0,0,1-4.5,2.67,26.67,26.67,0,0,1-3.91,1.28,33,33,0,0,1-3.57.67,41.68,41.68,0,0,1-5.3.31c-.61,0-1.8-.08-3-.18a29.68,29.68,0,0,1-3.76-.58,25.88,25.88,0,0,1-6.34-2.19,14.83,14.83,0,0,1-3.39-2.31,8.23,8.23,0,0,1-2.16-3,5.35,5.35,0,0,1,.14-4.33A8.44,8.44,0,0,1,195.2,112a16.5,16.5,0,0,1,4.27-2.63,26.27,26.27,0,0,1,3.77-1.31,29.21,29.21,0,0,1,3.94-.78,35.57,35.57,0,0,1,6-.31,34.23,34.23,0,0,1,4.05.36,28.88,28.88,0,0,1,7.08,1.92,16.56,16.56,0,0,1,4.75,2.94,8,8,0,0,1,2.18,3A5.4,5.4,0,0,1,231,119.89Z"/><path d="M228,113.87c-.09.07-.13.12-.17.13l-.41.09-2.17.35a2.94,2.94,0,0,0-.58.16,1,1,0,0,0-.57.68c-.12.41-.25.81-.38,1.21a1,1,0,0,1-.06.16.81.81,0,0,1-.16.16c-.05-.06-.12-.11-.14-.18-.11-.32-.19-.65-.28-1,0-.14-.09-.27-.13-.41a1.06,1.06,0,0,0-1-.8l-2-.23a18.37,18.37,0,0,0-3.85.15c-1.06.11-2.12.22-3.17.35s-2,.26-3.07.41a2.35,2.35,0,0,0-2,1.69c-.21.67-.4,1.35-.59,2s-.33,1.26-.49,1.89a.34.34,0,0,1-.06.12c-.07.12-.18.12-.23,0a2.8,2.8,0,0,1-.13-.41c-.22-.89-.43-1.78-.66-2.67a6.89,6.89,0,0,0-.53-1.46,1.85,1.85,0,0,0-1.34-1.06c-.59-.13-1.19-.23-1.8-.32s-1.48-.21-2.23-.31l-2.25-.29-2.07-.27a.33.33,0,0,1-.13,0,.14.14,0,0,1-.07-.1.14.14,0,0,1,.07-.1,1.11,1.11,0,0,1,.26-.07l2.65-.34,2.94-.41c.56-.08,1.12-.14,1.68-.23a5.16,5.16,0,0,0,1.47-.43,1.72,1.72,0,0,0,.83-.81c.26-.61.5-1.23.73-1.85s.34-1,.5-1.51a.42.42,0,0,1,0-.1c.05,0,.11-.14.17-.13a.24.24,0,0,1,.16.14c.17.5.32,1,.49,1.49s.37,1.1.6,1.63a2.27,2.27,0,0,0,1.63,1.36,19.51,19.51,0,0,0,2.27.37c.67.09,1.34.16,2,.24l1.49.18c.7.08,1.4.17,2.1.24a12,12,0,0,0,3,0c.36-.06.73-.08,1.09-.13a6.06,6.06,0,0,0,.74-.15,1.24,1.24,0,0,0,.83-.76c.12-.3.22-.61.33-.91,0-.1.05-.25.18-.24s.14.14.17.22c.14.35.28.69.41,1a1,1,0,0,0,.82.68c.53.11,1.07.19,1.61.27.38.07.77.11,1.15.18A1.22,1.22,0,0,1,228,113.87Z"/><path d="M225.12,123.53c-.05,0-.08.09-.11.1a1.91,1.91,0,0,1-.33.06c-.84.12-1.68.23-2.51.36a1.09,1.09,0,0,0-1,.78c-.08.26-.18.51-.27.77a.84.84,0,0,1-.06.14,1,1,0,0,1-.15.14c-.05,0-.12-.09-.14-.16s-.16-.44-.23-.67a.3.3,0,0,1,0-.1,1.16,1.16,0,0,0-1.13-.91,14.9,14.9,0,0,0-2.41-.23c-.55,0-1.11.07-1.67.14s-1,.18-1.49.24a1.12,1.12,0,0,0-1,.91c-.11.42-.24.83-.37,1.25h0a1,1,0,0,1-.13.16s-.11-.1-.13-.16c-.08-.22-.15-.45-.22-.67l-.3-.93a.7.7,0,0,0-.51-.5,10.28,10.28,0,0,0-1.08-.21l-2.2-.33a.48.48,0,0,1-.2-.07.08.08,0,0,1,0-.16c.2,0,.4-.11.6-.14.51-.06,1-.1,1.52-.17a11.56,11.56,0,0,0,1.2-.22.92.92,0,0,0,.71-.6c.12-.32.23-.65.36-1a1.94,1.94,0,0,1,.13-.3s.08-.1.12-.1.09.06.1.11c.09.22.15.45.24.67s.18.44.29.65a1.17,1.17,0,0,0,.91.6,19.08,19.08,0,0,0,3.28.32,12,12,0,0,0,2.31-.28l.24,0a.91.91,0,0,0,.72-.62c.11-.3.2-.6.31-.9a.35.35,0,0,1,.05-.13s.09-.1.14-.1.12.06.14.11a4.41,4.41,0,0,1,.26.72,1.14,1.14,0,0,0,1.11.94c.82.1,1.64.22,2.45.33l.34.08S225.06,123.49,225.12,123.53Z"/><path d="M222.58,119.1c-.66.08-1.31.15-2,.24-.48.06-1,.16-1.45.24a.94.94,0,0,0-.77.66c-.13.41-.25.82-.37,1.23a1.88,1.88,0,0,1-.12.3s-.07.09-.1.09a.21.21,0,0,1-.11-.1c-.09-.25-.18-.51-.26-.77a6.91,6.91,0,0,1-.25-.77.89.89,0,0,0-.8-.68c-.51-.09-1-.15-1.54-.23l-1.66-.26a.7.7,0,0,1-.21-.14.61.61,0,0,1,.21-.11c.57-.09,1.14-.16,1.71-.24l1.53-.25a1.07,1.07,0,0,0,.84-.78c.11-.31.21-.61.32-.91a1,1,0,0,1,.09-.18.8.8,0,0,1,.13-.13.45.45,0,0,1,.11.13l.32.87c0,.11.1.22.15.33a1.25,1.25,0,0,0,1,.7,15.72,15.72,0,0,0,3.35.32,14.74,14.74,0,0,0,1.47-.18c.21,0,.43-.07.64-.12a1.07,1.07,0,0,0,.79-.71,6.31,6.31,0,0,1,.33-.75c.1-.2.18-.2.28,0a4.35,4.35,0,0,1,.25.59,1.13,1.13,0,0,0,.88.83c.71.12,1.41.26,2.12.4a1.17,1.17,0,0,1,.25.07.13.13,0,0,1,.09.1s-.06.09-.1.1l-.57.11-1.66.26a1.19,1.19,0,0,0-.95.84c-.09.3-.17.61-.27.91a1.5,1.5,0,0,1-.15.23.82.82,0,0,1-.16-.22c-.12-.3-.23-.6-.32-.91a1,1,0,0,0-.91-.83Z"/><path d="M175.94,160.25c-.7-.05-1.49.64-2,1a16.6,16.6,0,0,0-1.28,1.08,18.9,18.9,0,0,0,1.31-1.62,17.85,17.85,0,0,1,2.4-2.36,22.83,22.83,0,0,1,3.14-1.84Z"/><path class="cls-29" d="M70.32,240c21.27-2.68,42.08-3.93,60.47,2.19l-5.11-31.31-4.58-8-22.74,3-21.22-1.8Z"/><path class="cls-30" d="M93.4,324.35l-.59-.32-.15-.08-.78-.42c-3.33-1.83-6.48-3.69-9.38-5.54l-.21-.13h0l-.63-.41c-4.35-2.8-8.56-5.79-12.5-8.87-1.78-1.38-3.4-2.69-5-4a41.25,41.25,0,0,1-8-16.34c-.14-.56-.27-1.14-.39-1.71a66.8,66.8,0,0,1-1.43-13.95c0-.34,0-.66,0-1a92.26,92.26,0,0,1,2.82-21.74l.15-.54,17.8,7.52,19.13,4.86a26.29,26.29,0,0,1,9.78-1.91,21,21,0,0,1,10,2.42c3.06,1.63,4.89,4.91,5.44,9.75,0,.36.1.73.13,1.11A42.74,42.74,0,0,1,118,287c-.2.69-.4,1.32-.6,1.88a10.67,10.67,0,0,1-1.33,2.79c-2.11,2.55-6.22,11.55-5.45,14.28.58,2.08.46,9-2.42,13a6.13,6.13,0,0,1-4.72,2.79l-.69,0c-2,0-3.32-.54-4-1.6a3.24,3.24,0,0,1-.51-1.49,35.25,35.25,0,0,1-4.3,5.52l-.25.26Z"/><path d="M57.71,250,75,257.27l19.37,4.93a25.47,25.47,0,0,1,9.73-1.94,20.7,20.7,0,0,1,9.79,2.36c3.22,1.72,4.71,5.29,5.18,9.37,0,.36.09.72.12,1.09a42.26,42.26,0,0,1-1.64,13.8c-.19.67-.39,1.3-.59,1.85a10,10,0,0,1-1.25,2.64c-2.13,2.58-6.38,11.77-5.54,14.74s0,14.81-6.69,15.19l-.66,0c-5.54,0-3.84-4.44-3.64-4.92a41.35,41.35,0,0,1-5.54,7.5l-.73-.39-.81-.44c-3.17-1.74-6.29-3.57-9.32-5.5a11.54,11.54,0,0,0-.38-2.27,6.78,6.78,0,0,1,0,2l-.44-.28c-4.29-2.77-8.46-5.72-12.47-8.85q-2.5-1.95-4.94-4a40.71,40.71,0,0,1-7.82-16.08c-.14-.56-.27-1.13-.39-1.69a66.75,66.75,0,0,1-1.42-13.85c0-.33,0-.65,0-1A90.91,90.91,0,0,1,57.71,250m-.66-1.36-.3,1.09a90.52,90.52,0,0,0-2.84,21.87c0,.32,0,.65,0,1a67.93,67.93,0,0,0,1.44,14.06c.12.57.25,1.15.4,1.72a41.64,41.64,0,0,0,8,16.48l.05.07.07.05c1.56,1.32,3.18,2.64,5,4,4,3.08,8.17,6.08,12.55,8.9l.28.18.12.08h0l.43.27.9.57h0c2.66,1.67,5.5,3.33,8.47,5l.83.45.15.08.59.31.65.33.51-.52a34,34,0,0,0,3.73-4.66,3.37,3.37,0,0,0,.3.56c.8,1.21,2.3,1.82,4.44,1.82l.71,0a6.61,6.61,0,0,0,5.11-3c2.79-3.91,3.2-10.94,2.49-13.46s3.13-11.14,5.35-13.83a11.54,11.54,0,0,0,1.42-2.95c.2-.55.41-1.2.61-1.91A43.15,43.15,0,0,0,120.18,273c0-.4-.08-.78-.13-1.16-.58-5-2.5-8.4-5.7-10.11a21.52,21.52,0,0,0-10.26-2.48,26.88,26.88,0,0,0-9.82,1.89l-19-4.83L58.1,249.05l-1.05-.44Z"/><path class="cls-31" d="M76.11,282.2c-2.23-.7-4.38-1.55-6.52-2.44s-4.24-1.86-6.33-2.84-4.15-2-6.18-3.15c-.73-.39-1.46-.79-2.18-1.21,0-.33,0-.65,0-1,.9.35,1.8.72,2.69,1.09,2.14.89,4.24,1.86,6.33,2.84s4.15,2,6.19,3.15S74.16,280.91,76.11,282.2Z"/><path class="cls-31" d="M76.11,296c-2.52-.77-5-1.68-7.43-2.64s-4.85-2-7.25-3c-1.58-.71-3.16-1.44-4.72-2.18-.14-.56-.27-1.13-.39-1.69,1.93.78,3.84,1.61,5.74,2.44,2.39,1.08,4.77,2.17,7.12,3.35S73.85,294.59,76.11,296Z"/><path class="cls-31" d="M119.18,273.08l-1.25.69c-2,1.11-4.11,2.14-6.19,3.15s-4.19,1.95-6.33,2.84-4.29,1.74-6.51,2.44c1.94-1.29,3.95-2.44,6-3.54s4.1-2.14,6.18-3.15,4.19-1.95,6.33-2.84l1.66-.68C119.11,272.35,119.15,272.71,119.18,273.08Z"/><path class="cls-31" d="M117.54,286.88c-.19.67-.39,1.3-.59,1.85l-3.38,1.55c-2.4,1.05-4.8,2.08-7.25,3s-4.9,1.87-7.42,2.64c2.26-1.36,4.58-2.58,6.93-3.75s4.72-2.27,7.11-3.35Q115.24,287.85,117.54,286.88Z"/><path class="cls-32" d="M130.28,233.45a33.72,33.72,0,0,1-7.53,21.13A40.38,40.38,0,0,1,91.09,269.3c-13.81,0-25.94-6.53-32.92-16.39a33.53,33.53,0,0,1-6.27-19.46c0-19.8,17.54-35.86,39.19-35.86S130.28,213.65,130.28,233.45Z"/><path class="cls-33" d="M66.48,232.05a13.38,13.38,0,0,1,2.74-4.73l.5-.53c.18-.16.39-.3.58-.45a6.73,6.73,0,0,1,1.33-.78,5.1,5.1,0,0,1,3.18-.24,8.89,8.89,0,0,1,4.68,3.38,16.92,16.92,0,0,1,2.64,4.75c-1.36-1.22-2.54-2.52-3.82-3.64a9.82,9.82,0,0,0-4-2.46l-.5-.12h-.51a1.07,1.07,0,0,0-.5,0,4.64,4.64,0,0,0-.51.11,7,7,0,0,0-2,1.11A51.28,51.28,0,0,0,66.48,232.05Z"/><path class="cls-33" d="M103.09,234.18a19,19,0,0,1,1.27-5.69,9.31,9.31,0,0,1,.62-1.37,11.3,11.3,0,0,1,.81-1.31,8.59,8.59,0,0,1,1.06-1.21c.21-.18.44-.34.67-.51a2.81,2.81,0,0,1,.73-.43l.81-.34.86-.16a2.77,2.77,0,0,1,.86,0l.85.07a14.62,14.62,0,0,1,1.54.51,11.85,11.85,0,0,1,1.36.75,14.87,14.87,0,0,1,4,4.25,52.61,52.61,0,0,0-4.84-2.83c-.41-.18-.82-.29-1.22-.47s-.8-.17-1.19-.26h-.58a1.14,1.14,0,0,0-.55,0c-.18,0-.35.07-.53.09l-.51.24a1.44,1.44,0,0,0-.48.27l-.48.34a10.49,10.49,0,0,0-.87.89,14,14,0,0,0-1.52,2.17C104.87,230.77,104.05,232.48,103.09,234.18Z"/><path class="cls-34" d="M92.48,247.26l-5.62-5.53q5.39-5.49,10.78,0Z"/><path class="cls-33" d="M71.67,248.86c4.06.63,7.9,1.93,11.71,2.54a21.05,21.05,0,0,0,2.81.28c.47,0,.91-.05,1.36-.07l.64-.15a1.9,1.9,0,0,0,.63-.17l.61-.24c.19-.1.35-.25.54-.36a4.25,4.25,0,0,0,1-.89c.31-.35.54-.78.83-1.18s.42-.9.67-1.36c0,.51-.07,1-.13,1.56a10.17,10.17,0,0,1-.51,1.53,5.6,5.6,0,0,1-1,1.37,5.86,5.86,0,0,1-.63.59l-.74.45a7.06,7.06,0,0,1-1.59.64c-.54.08-1.1.21-1.65.24a14.87,14.87,0,0,1-3.21-.18,26.87,26.87,0,0,1-5.94-1.79A34.15,34.15,0,0,1,71.67,248.86Z"/><path class="cls-33" d="M113.29,248.86a34.15,34.15,0,0,1-5.44,2.81,27,27,0,0,1-5.94,1.79,14.87,14.87,0,0,1-3.21.18c-.55,0-1.11-.16-1.65-.24a7.06,7.06,0,0,1-1.59-.64l-.74-.45a5.86,5.86,0,0,1-.63-.59,5.6,5.6,0,0,1-1-1.37,11.5,11.5,0,0,1-.52-1.53c0-.53-.1-1-.12-1.56.24.46.46.92.67,1.36s.52.83.83,1.18a4.41,4.41,0,0,0,1,.89c.2.11.36.26.55.36l.61.24a1.83,1.83,0,0,0,.63.17l.64.15c.45,0,.89.09,1.35.07a21,21,0,0,0,2.82-.28C105.39,250.79,109.22,249.49,113.29,248.86Z"/><path class="cls-31" d="M75,240.66a14.22,14.22,0,0,1-2.85.46,23.34,23.34,0,0,1-5.62-.3,14.19,14.19,0,0,1-2.78-.76,12.92,12.92,0,0,1,2.85-.46,22.11,22.11,0,0,1,2.82,0,20.55,20.55,0,0,1,2.8.33A13.49,13.49,0,0,1,75,240.66Z"/><path class="cls-31" d="M75,244a13.52,13.52,0,0,1-2.85.45,22.05,22.05,0,0,1-5.62-.3,12.92,12.92,0,0,1-2.78-.76,13.52,13.52,0,0,1,2.85-.45,20.42,20.42,0,0,1,2.82,0,22.23,22.23,0,0,1,2.8.32A14.19,14.19,0,0,1,75,244Z"/><path class="cls-31" d="M108.55,239.29a13.53,13.53,0,0,1,2.78-.76,24,24,0,0,1,5.62-.31,14.12,14.12,0,0,1,2.84.46,12.84,12.84,0,0,1-2.77.76,23.45,23.45,0,0,1-5.63.3A13.53,13.53,0,0,1,108.55,239.29Z"/><path class="cls-31" d="M108.55,242.65a12.92,12.92,0,0,1,2.78-.76,22.68,22.68,0,0,1,5.62-.31,13.45,13.45,0,0,1,2.84.46,14.1,14.1,0,0,1-2.77.76,23.45,23.45,0,0,1-5.63.3A13.53,13.53,0,0,1,108.55,242.65Z"/><path class="cls-31" d="M70.62,221a11.15,11.15,0,0,1-1.69-3.62,12.82,12.82,0,0,1-.39-1.94,8.07,8.07,0,0,1-.05-2,8,8,0,0,1,1,1.76,13.75,13.75,0,0,1,.67,1.86A10.91,10.91,0,0,1,70.62,221Z"/><path class="cls-31" d="M74.57,221a10.81,10.81,0,0,1-1.46-3.66,12.29,12.29,0,0,1-.27-1.93,8,8,0,0,1,.08-2,7.75,7.75,0,0,1,.91,1.79,13.38,13.38,0,0,1,.55,1.87A10.74,10.74,0,0,1,74.57,221Z"/><path class="cls-31" d="M112.36,220.11a10.69,10.69,0,0,1,0-4,13.87,13.87,0,0,1,.47-1.9,8.54,8.54,0,0,1,.83-1.83,7.63,7.63,0,0,1,.17,2,14.15,14.15,0,0,1-.19,1.95A10.79,10.79,0,0,1,112.36,220.11Z"/><path class="cls-31" d="M108.42,220.31a10.55,10.55,0,0,1-.22-3.9,13.79,13.79,0,0,1,.35-1.9,7.6,7.6,0,0,1,.72-1.86,8.53,8.53,0,0,1,.29,2,13.78,13.78,0,0,1-.07,1.93A10.59,10.59,0,0,1,108.42,220.31Z"/><path class="cls-35" d="M87.67,158c.16-2.33,1.63-3.39,2.93-3.39s2.72,1,2.92,3.28l.07.71-.71-.07c-.81-.07-1.62-.1-2.47-.1-.68,0-1.38.12-2.07.21l-.72.1Z"/><path d="M90.6,155.24c1.08,0,2.16.91,2.33,2.73-.82-.07-1.66-.11-2.52-.11s-1.44.12-2.15.22c.13-1.9,1.24-2.84,2.34-2.84m0-1.2h0c-1.57,0-3.34,1.24-3.53,4l-.1,1.47,1.45-.2c.66-.09,1.35-.16,2-.21s1.59,0,2.38.11l1.42.12-.13-1.42c-.24-2.62-2-3.82-3.52-3.82Z"/><path class="cls-35" d="M126.93,257.62l-.71-7.17-1-.54v-.35l-.77-6-1-1.06v-2.73l-7.38-31.7a72.49,72.49,0,0,1-25,4.66A78.22,78.22,0,0,1,67,208.49l-5.66,26.3-1.2,5.54,0,.1-.23,1.1-.89.68-.43,6.17-.16,2.36H57V257l-.53.06a65,65,0,0,1-7.09.36,121.67,121.67,0,0,1-13.26-.83l-.79-.08,3.4-8.31-1.4-.7.75-1.72,1.71-3.87-.22,0-.52-.05-.79,0,2.49-7.14-5.16-3.18V193.79l17,6,2.11-2.09a2.29,2.29,0,0,1,.07-.28c4.9-24.72,15.86-37.8,33.48-40,.7-.09,1.44-.17,2.18-.21h0c.9,0,1.75,0,2.56.1,16.24,1.21,27.72,14,35.08,39.23l0,.1,1.72,2.37c4.62-.64,10.29-2.36,17.74-5.39l.84-.34-.4,38.44-5.55,3.06,2.44,6.06-1.41.39,2.18,5.05,1,2.25-1.33.4,2.91,7.29-6.7,1.34Z"/><path d="M90.41,157.86c.86,0,1.7,0,2.52.11,17.4,1.29,27.94,16.17,34.56,38.79a1.66,1.66,0,0,0,.06.21l2,2.73h0c5.35-.69,11.58-2.77,18.22-5.47l-.06,5.72-.28,26.8,0,4.68-5.71,3.14,0,.07,1.79,4.44.57,1.42-1.43.39v0l2.45,5.65.71,1.63-1.3.4,2.22,5.58.66,1.65L141.46,257h-14l-.15-1.53-.54-5.4-.92-.53h0l-.26-2.08-.51-4.06v-.13l-1-1v-2.56l-1.18-5.08-6.38-27.34a72.33,72.33,0,0,1-25.37,4.86c-9,0-17-1.91-24.61-4.4l-5.8,26.94-1.19,5.53,0,.08-.2.92-.85.66-.08.05L58,248.34l-.12,1.81H56.35v6.27a63.52,63.52,0,0,1-7,.36,122.65,122.65,0,0,1-13.2-.82l.74-1.82,2.57-6.26s0,0-.06,0l-1.32-.67.52-1.2,2-4.61-1-.12-.55-.06.65-1.85,1.74-5-.08-.05h0l-5.18-3.2V194.64l16.56,5.87.16-.15L55.2,198a3,3,0,0,1,.08-.41c4.48-22.54,14.41-37.25,33-39.53.71-.1,1.42-.17,2.15-.22m0-1.19h-.08c-.75.05-1.5.12-2.23.22-17.88,2.2-29,15.43-34,40.45a.29.29,0,0,0,0,.09l-1.72,1.71-15.85-5.63L34.94,193v38.8l.57.35L40,234.86,38.55,239l-.64,1.85-.52,1.48,1.47.1-1.37,3.12L37,246.71l-.45,1,1,.51.4.2-2.15,5.24L35,255.51l-.6,1.46,1.57.18a125,125,0,0,0,13.33.82,66,66,0,0,0,7.15-.36l1.07-.12v-6.15H59l.07-1.12.12-1.8.42-5.89.5-.39.35-.27.09-.43.19-.88v-.12L62,234.92l5.52-25.66a78,78,0,0,0,23.72,4.05,73,73,0,0,0,24.52-4.47l6.07,26,1.15,4.94v2.9l.31.34.69.75.49,3.82.25,2v.62l.6.36.39.22.47,4.79.16,1.53.11,1.07h15.18l.12,0,5.93-1.18,1.41-.28-.53-1.33-.66-1.65-1.74-4.38.06,0,1.28-.39-.54-1.23-.71-1.63-1.92-4.42.12,0,1.29-.35-.5-1.25-.58-1.42-1.42-3.52,4.78-2.64.61-.33v-.7l0-4.68.27-26.8.06-5.71,0-1.8-1.66.68c-7.2,2.92-12.71,4.62-17.25,5.29l-1.45-2v0C121.19,171,109.54,158,93,156.78c-.84-.07-1.72-.11-2.61-.11Z"/><path class="cls-36" d="M62.11,206c-8.69-.26-17.33-2.78-26-5.87v-5.47l16.56,5.87.16-.15A44.19,44.19,0,0,0,62.11,206Z"/><path class="cls-36" d="M60.78,234.66l-1.19,5.53a100.13,100.13,0,0,1-18.25-5.9h0l-5.18-3.2V227C44.5,230.59,52.8,233.67,60.78,234.66Z"/><circle class="cls-37" cx="49.72" cy="218.21" r="6.62"/><circle class="cls-37" cx="133.02" cy="217.38" r="6.62"/><path class="cls-38" d="M147.4,231.43l-5.71,3.14,0,.07a69.17,69.17,0,0,1-17.6,5l-1.18-5.08c8-1.5,16.05-3.34,24.5-7.85Z"/><path class="cls-36" d="M147.78,194.23l-.06,5.72a79.12,79.12,0,0,1-28.42,6.32c4.32-2.26,8.21-4.49,10.26-6.57C134.91,199,141.14,196.93,147.78,194.23Z"/><path class="cls-39" d="M56.82,151.23c1.26-4.23,2.58-8.41,10-6.62-2.53-5.27-6.16-7.27-11.68-3.67-3.6-7.7-8.56-8.83-14.56-5,2.66,1.29,5.18,2.88,4.18,11.5-.67,11.1-1.61,22.63,1,28.51,2.21,5.4,5.36,10.51,13.6,14,9.13,3,19.61,6,23.28,9.16l17.43-.44A150.08,150.08,0,0,1,124.93,189c4.8-3.28,10-4.58,12.62-19.26a132.11,132.11,0,0,0-2.1-19c-.07-4.14.33-8.09,4.71-10.38-5.53-3.21-10.6-2.89-14.64,5.23-4.49-2.93-8.61-2.26-12.19,3.58,5.35-.82,9.88.09,10.7,8.72,1.38,9.1.42,16-4.52,19.18-13.69,8.21-23.23,8.9-28.34,1.56-6.17,7.73-15.74,6.79-28.57-2.46C58.3,172.18,55.18,166.05,56.82,151.23Z"/><path class="cls-40" d="M142.65,240.89v0a122.42,122.42,0,0,1-17.57,2.48v-.13l-1-1v-.92a86,86,0,0,0,19.39-2.24l.57,1.42Z"/><path class="cls-41" d="M145.82,248.21c-5.61,1.67-12.41,1.95-20,1.34l-.26-2.08c7,.28,13.78.26,19.51-.89Z"/><path class="cls-41" d="M147.4,255.84,141.46,257h-14l-.15-1.53c7.3.18,14.36.17,19.42-1.3Z"/><path class="cls-42" d="M129.56,199.7c-32.63,18.51-62,7.73-76.71.66L55.2,198a3,3,0,0,1,.08-.41c21.58,3.28,43.9,5.53,72.21-.85a1.66,1.66,0,0,0,.06.21l2,2.73Z"/><path class="cls-42" d="M59.57,240.27l-.2.92-.85.66a120.2,120.2,0,0,1-18.94-.6l-.55-.06.65-1.85A85.31,85.31,0,0,0,59.57,240.27Z"/><path class="cls-42" d="M58,248.34l-.12,1.81H56.35a76.19,76.19,0,0,1-16.91-2.28s0,0-.06,0l-1.32-.67.52-1.2A91.94,91.94,0,0,0,58,248.34Z"/><path class="cls-42" d="M56.35,255.15v1.27A95.18,95.18,0,0,1,36.13,256l.74-1.82C40.36,255.18,45.38,255.85,56.35,255.15Z"/><circle class="cls-43" cx="91.65" cy="197.19" r="10"/><path d="M91.65,187.78a9.41,9.41,0,1,1-9.41,9.41,9.41,9.41,0,0,1,9.41-9.41m0-1.2a10.61,10.61,0,1,0,10.6,10.61,10.62,10.62,0,0,0-10.6-10.61Z"/><circle class="cls-36" cx="91.65" cy="197.19" r="6.75"/><path d="M92,199.77a9.82,9.82,0,0,1-1.14-.07,6.78,6.78,0,0,1-1-.19,5.58,5.58,0,0,1-1.65-.7,3.1,3.1,0,0,1-.8-.73,1.94,1.94,0,0,1-.34-.71,1.72,1.72,0,0,1,0-.64,2,2,0,0,1,.51-1,3.83,3.83,0,0,1,1.16-.84,6.8,6.8,0,0,1,1-.37,7,7,0,0,1,.79-.18l.76-.09a9.91,9.91,0,0,1,1.09,0,6.71,6.71,0,0,1,.89.09,7,7,0,0,1,1.35.34,4.5,4.5,0,0,1,1.16.58,2.9,2.9,0,0,1,.79.77,1.91,1.91,0,0,1,.29.69,1.65,1.65,0,0,1-.11.93,2.19,2.19,0,0,1-.54.77,4.31,4.31,0,0,1-1.23.79,6.22,6.22,0,0,1-.92.31l-.67.14a5.27,5.27,0,0,1-.89.1Zm-.2-.43a8.3,8.3,0,0,0,1.21-.07,7.4,7.4,0,0,0,.82-.15,7.11,7.11,0,0,0,.89-.29,4.12,4.12,0,0,0,1-.61,2.3,2.3,0,0,0,.51-.61,1.25,1.25,0,0,0,.07-1.07,1.88,1.88,0,0,0-.5-.68,3.42,3.42,0,0,0-1.09-.67,6,6,0,0,0-1.61-.44,7.32,7.32,0,0,0-.93-.09,8.92,8.92,0,0,0-1.37.07,6.52,6.52,0,0,0-.9.18,6.24,6.24,0,0,0-.86.3,4.09,4.09,0,0,0-1,.6,2.06,2.06,0,0,0-.51.66,1.22,1.22,0,0,0,0,1,1.75,1.75,0,0,0,.49.68,3.11,3.11,0,0,0,.77.53,6.22,6.22,0,0,0,1.45.5,6.15,6.15,0,0,0,.86.13Z"/><path d="M95.59,196.24l0,0-.09,0-.49.07-.14,0a.26.26,0,0,0-.13.16c0,.09,0,.18-.08.27l0,0,0,0,0,0-.06-.23,0-.09a.23.23,0,0,0-.22-.18l-.47-.06a4.23,4.23,0,0,0-.87,0l-.73.08c-.23,0-.47,0-.7.09a.52.52,0,0,0-.45.39c0,.15-.1.31-.14.46s-.08.29-.11.43a0,0,0,0,0,0,0s0,0-.06,0l0-.1-.15-.61a2.19,2.19,0,0,0-.12-.33.41.41,0,0,0-.3-.24l-.42-.08-.51-.07-.51-.06-.47-.06h0l0,0,0,0h.06l.6-.08.67-.1.39-.05a1,1,0,0,0,.33-.1.37.37,0,0,0,.19-.18c.06-.14.12-.28.17-.42s.08-.23.11-.35v0l0,0,0,0c0,.11.07.23.11.34a2.35,2.35,0,0,0,.14.37.49.49,0,0,0,.37.31,4.34,4.34,0,0,0,.52.09l.46,0,.34,0,.48.06a3.1,3.1,0,0,0,.68,0l.25,0,.17,0a.31.31,0,0,0,.19-.18c0-.07.05-.14.07-.21s0-.05,0-.05,0,0,0,.05a2.34,2.34,0,0,1,.09.24.24.24,0,0,0,.19.15l.37.07.26,0Z"/><path d="M94.94,198.44s0,0,0,0l-.08,0-.57.08a.25.25,0,0,0-.22.18l-.06.17s0,0,0,0,0,0,0,0,0,0,0,0l-.06-.15v0a.27.27,0,0,0-.26-.21,3.43,3.43,0,0,0-.55-.06l-.38,0-.34.05a.26.26,0,0,0-.23.21l-.09.28h0l0,0,0,0c0-.05,0-.11,0-.16a1.72,1.72,0,0,0-.07-.21.13.13,0,0,0-.11-.11l-.25-.05-.5-.08h0s0,0,0,0v0l.14,0,.35,0,.27-.05a.21.21,0,0,0,.16-.14,2,2,0,0,0,.08-.22.25.25,0,0,1,0-.07l0,0,0,0a1,1,0,0,0,0,.16.61.61,0,0,0,.07.14.23.23,0,0,0,.2.14,4.78,4.78,0,0,0,.75.08,4.51,4.51,0,0,0,.53-.07h.05a.22.22,0,0,0,.17-.14c0-.07.05-.14.07-.21a0,0,0,0,1,0,0l0,0,0,0a1.09,1.09,0,0,1,0,.17.25.25,0,0,0,.26.21l.56.08.08,0Z"/><path d="M94.36,197.43l-.44,0-.33.06a.22.22,0,0,0-.18.15c0,.09,0,.19-.08.28l0,.07a0,0,0,0,1,0,0l0,0-.06-.18a1.21,1.21,0,0,1,0-.18.21.21,0,0,0-.19-.15l-.35-.05-.38-.06,0,0,0,0,.39-.05.35-.06a.24.24,0,0,0,.19-.18l.08-.21a.08.08,0,0,1,0,0l0,0,0,0,.08.2,0,.07a.29.29,0,0,0,.22.17,3.91,3.91,0,0,0,.76.07l.34,0,.15,0a.24.24,0,0,0,.18-.16.87.87,0,0,1,.07-.17c0-.05,0-.05.07,0a.69.69,0,0,1,0,.13.26.26,0,0,0,.2.19l.49.09,0,0,0,0a0,0,0,0,1,0,0l-.13,0-.38.06a.24.24,0,0,0-.21.19,1.72,1.72,0,0,1-.07.21s0,0,0,.05l0-.05-.07-.21a.24.24,0,0,0-.21-.19Z"/><path d="M187.05,179.13a31.17,31.17,0,0,1-4.93,0c-1.62-.13-3.23-.32-4.82-.6a48.62,48.62,0,0,1-4.76-1,30.1,30.1,0,0,1-4.66-1.58,31,31,0,0,1,4.92,0c1.62.13,3.23.32,4.83.6s3.18.62,4.75,1A30.93,30.93,0,0,1,187.05,179.13Z"/><path d="M187,184.37a31,31,0,0,1-4.92-.05c-1.62-.13-3.23-.32-4.83-.59s-3.18-.62-4.75-1a30.87,30.87,0,0,1-4.66-1.59,29.89,29.89,0,0,1,4.92,0c1.62.13,3.23.32,4.83.59s3.18.62,4.75,1A30.1,30.1,0,0,1,187,184.37Z"/><path d="M237.62,179.13a31.2,31.2,0,0,1,4.66-1.58c1.57-.41,3.15-.76,4.75-1s3.21-.47,4.83-.6a31,31,0,0,1,4.92,0,30.1,30.1,0,0,1-4.66,1.58c-1.57.42-3.16.77-4.75,1s-3.21.47-4.83.6A31,31,0,0,1,237.62,179.13Z"/><path d="M237.63,184.37a30.1,30.1,0,0,1,4.66-1.58c1.57-.42,3.16-.77,4.76-1s3.2-.46,4.82-.59a30,30,0,0,1,4.93,0,31,31,0,0,1-4.67,1.59c-1.57.41-3.15.76-4.75,1s-3.21.46-4.83.59A31,31,0,0,1,237.63,184.37Z"/></g></svg>