<svg xmlns="http://www.w3.org/2000/svg" xmlns:xlink="http://www.w3.org/1999/xlink" viewBox="0 0 650 350"><defs><style>.cls-1{mask:url(#mask);}.cls-2{fill:#ec6408;}.cls-3{fill:#a78e3e;}.cls-4{fill:#fcbf42;}.cls-5{fill:#af8783;}.cls-6{fill:#855453;}.cls-7{fill:#d7c951;}.cls-8{fill:#fdf0e2;}.cls-9{opacity:0.1;}.cls-10{fill:#f2b544;}.cls-11{fill:#f2a76a;}.cls-12{fill:#fff;}.cls-12,.cls-13,.cls-41{stroke:#000;}.cls-12,.cls-13,.cls-30,.cls-31,.cls-41{stroke-miterlimit:10;}.cls-13,.cls-27{fill:#fabf8f;}.cls-14{fill:#fccb9e;}.cls-15{fill:#efac7f;}.cls-16{fill:#3f2b14;}.cls-17{fill:#a5a5a5;}.cls-18{fill:#ededed;}.cls-19{fill:#311a15;}.cls-20{fill:url(#linear-gradient);}.cls-21{fill:#fefef2;}.cls-22{fill:#3e1e1a;}.cls-23{fill:url(#linear-gradient-2);}.cls-24{fill:#ffc197;}.cls-25{fill:url(#linear-gradient-3);}.cls-26{fill:#7e491b;}.cls-28{fill:#eab488;}.cls-29{fill:#391924;}.cls-30,.cls-31,.cls-35{fill:#fdeedc;}.cls-30,.cls-31{stroke:#f6c694;}.cls-30{stroke-width:2px;}.cls-31{stroke-width:3px;}.cls-32{fill:#1d1d1b;}.cls-33{fill:#ea673a;}.cls-34{fill:#e2c19e;}.cls-36{fill:#f6c694;}.cls-37{fill:#cd423c;}.cls-38,.cls-41{fill:#f7c845;}.cls-39{fill:#8a272f;}.cls-40{fill:#f2cd45;}.cls-41{stroke-width:1.19px;}.cls-42{fill:#8e272d;}.cls-43{fill:#8b2530;}.cls-44{fill:#8d262e;}.cls-45{fill:#ba923f;}</style><mask id="mask" x="-683.14" y="1506.94" width="282.74" height="282.74" maskUnits="userSpaceOnUse"/><linearGradient id="linear-gradient" x1="374.73" y1="161.36" x2="374.57" y2="156.19" gradientUnits="userSpaceOnUse"><stop offset="0" stop-color="#702824"/><stop offset="1" stop-color="#311a15" stop-opacity="0.81"/></linearGradient><linearGradient id="linear-gradient-2" x1="427.9" y1="159.51" x2="427.7" y2="152.92" xlink:href="#linear-gradient"/><linearGradient id="linear-gradient-3" x1="400.85" y1="194.89" x2="399.76" y2="159.25" gradientUnits="userSpaceOnUse"><stop offset="0" stop-color="#fabf8f"/><stop offset="1" stop-color="#fccb9e"/></linearGradient></defs><g id="KAZIU_-_LANDSCAPE" data-name="KAZIU - LANDSCAPE"><rect class="cls-2" width="650" height="350"/><rect class="cls-3" y="212.89" width="650" height="137.11"/><path class="cls-4" d="M119.77-1A105.3,105.3,0,1,0,321.71-1Z"/><path class="cls-5" d="M651.3,149.92c-8.69-11-17.1-22.73-24.72-33.88-20-29.1-34.51-54.36-34.51-54.36-1.75-1.35-5.13-1.68-8.62-1.57a73.77,73.77,0,0,0-11.88,1.57c-1.93,11.84-9.64,26.61-20,42.08-12.39,18.51-28.69,38-43.57,54.6-2.95,3.28-5.85,6.43-8.65,9.46-.92,1-1.85,2-2.76,3l-.36.39c-.78.85-1.57,1.66-2.34,2.48L490,177.74c-.84.88-1.67,1.76-2.48,2.59a1.57,1.57,0,0,0-.18.19c-1.16,1.21-2.28,2.37-3.39,3.49l-1.08,1.11c-2.11,2.18-4.07,4.15-5.83,5.92-.36.38-.72.74-1.08,1.09a.6.6,0,0,0-.13.14c-.41.39-.78.78-1.14,1.14l-3.18,3.16-2.83,2.76-.22.22a.19.19,0,0,0-.07.06l-.29.28c-.05.05-.11.1-.15.15a.68.68,0,0,0-.12.12l-.22.2-7.64,15h0l191.37-2.57Z"/><path class="cls-6" d="M651.3,170.73l-.55,1.23-27.27-15.81-18.32.8-33,17.47L542.1,151,508,158.36c-2.95,3.28-5.85,6.43-8.65,9.46-.92,1-1.85,2-2.76,3l-.36.39-2.34,2.48L490,177.74c-.84.88-1.67,1.76-2.48,2.59a1.57,1.57,0,0,0-.18.19c-1.17,1.22-2.3,2.37-3.39,3.49l-1.08,1.11c-2.11,2.18-4.07,4.15-5.83,5.92-.36.38-.72.74-1.08,1.09a.6.6,0,0,0-.13.14c-.41.39-.78.78-1.14,1.14l-3.18,3.16-2.83,2.76-.22.22a.19.19,0,0,0-.07.06l-.29.28c-.05.05-.11.1-.15.15a.68.68,0,0,0-.12.12l-.22.2-7.64,15h0l191.37-2.57Z"/><path class="cls-7" d="M651.3,190.11l-9.83-12.41-9.56,16.09-12.56,4.94-18-15.56s-3.56,13.09-7.66,11.19-36,6.81-36,6.81l-6.85-15.56-9.53,8.18-5.47-14.72-10.09,17.72c-23.33-9.16-39.37-5.69-54.25-.22l-2.83,2.76-.22.22a.19.19,0,0,0-.07.06l-.29.28c-.05.05-.11.1-.15.15a.68.68,0,0,0-.12.12l-.22.2-7.66,15h0l191.36-2.57Z"/><path class="cls-8" d="M599.45,85.82l11,43.82-13.32-24.56-3.28,20.28L585.1,99l-6.34,25.59L575.28,102l-5.95,14.14V97.28L551.72,127.6,561.14,95l-9.61,8.72c10.4-15.46,18.12-30.24,20-42.08a73.77,73.77,0,0,1,11.88-1.57c3.5-.11,6.87.22,8.63,1.57,0,0,14.53,25.27,34.5,54.36C616,111.42,599.45,85.82,599.45,85.82Z"/><path class="cls-9" d="M651.3,149.92c-8.69-11-17.1-22.73-24.72-33.88-20-29.1-34.51-54.36-34.51-54.36-1.75-1.35-5.13-1.68-8.62-1.57l27,69.53,13,26.51,18,21.55,9.83,12.41Z"/><path class="cls-5" d="M516.88,179c.25,3.08.37,6.21.37,9.35s-.12,6.21-.36,9.26c-.19,2.44-.45,4.87-.79,7.27q-.72,5.18-1.89,10.18h0l-135.67,1.82h0l5.28-10.39.15-.14.08-.08a.52.52,0,0,1,.11-.1,1.89,1.89,0,0,1,.2-.2.1.1,0,0,1,.05,0l.15-.15,2-1.91,2.2-2.19.78-.78a.47.47,0,0,1,.09-.1c.25-.24.5-.49.75-.76,1.22-1.22,2.57-2.58,4-4.09l.75-.77c.77-.77,1.54-1.57,2.34-2.41a1.59,1.59,0,0,1,.13-.13l1.71-1.79,2.69-2.83c.53-.57,1.08-1.13,1.62-1.72l.24-.27c.63-.67,1.28-1.35,1.91-2q2.91-3.15,6-6.55c10.3-11.48,21.57-24.95,30.14-37.76,7.19-10.69,12.52-20.91,13.86-29.1a51.13,51.13,0,0,1,8.21-1.08c2.42-.08,4.75.15,6,1.08,0,0,10.06,17.47,23.87,37.6,6.47,9.46,13.76,19.51,21.24,28.58C515.64,177.55,516.26,178.29,516.88,179Z"/><path class="cls-6" d="M516.88,179c.25,3.08.37,6.21.37,9.35s-.12,6.21-.36,9.26c-.19,2.44-.45,4.87-.79,7.27q-.72,5.18-1.89,10.18h0l-135.67,1.82h0l5.28-10.39.15-.14.08-.08a.52.52,0,0,1,.11-.1,1.89,1.89,0,0,1,.2-.2.1.1,0,0,1,.05,0l.15-.15,2-1.91,2.2-2.19.78-.78a.47.47,0,0,1,.09-.1c.25-.24.5-.49.75-.76,1.22-1.22,2.57-2.58,4-4.09l.75-.77,2.34-2.41a1.59,1.59,0,0,1,.13-.13l1.71-1.79,2.69-2.83,1.62-1.72.24-.27c.63-.67,1.28-1.35,1.91-2q2.91-3.15,6-6.55l23.62-5.12,20.77,16.23L479,176.51l12.67-.55,18.86,10.93L515,176.8C515.64,177.55,516.26,178.29,516.88,179Z"/><path class="cls-7" d="M511.65,200.4l5.24-2.76c-.19,2.44-.45,4.87-.79,7.27q-.72,5.18-1.89,10.18l-135.66,1.83h0l5.3-10.39.15-.14.08-.08a.52.52,0,0,1,.11-.1,1.89,1.89,0,0,1,.2-.2.1.1,0,0,1,.05,0l.15-.15,2-1.91c10.29-3.78,21.38-6.18,37.51.15l7-12.25L434.81,202l6.59-5.66,4.73,10.76s22.09-6,24.91-4.71,5.3-7.74,5.3-7.74l12.45,10.76,8.69-3.41,6.61-11.13Z"/><path class="cls-8" d="M475,127.31l7.64,30.31-9.21-17-2.27,14-6.08-18.27-4.38,17.71-2.41-15.59-4.11,9.77v-13l-12.18,21,6.52-22.52-6.65,6c7.19-10.69,12.52-20.91,13.86-29.1a51.83,51.83,0,0,1,8.21-1.09c2.42-.07,4.75.16,6,1.09,0,0,10.05,17.47,23.86,37.6C486.45,145,475,127.31,475,127.31Z"/><path class="cls-9" d="M516.88,179c.25,3.08.37,6.21.37,9.35s-.12,6.21-.36,9.26c-.19,2.44-.45,4.87-.79,7.27l-4.45-4.51-7.56-9.54L491.65,176l-9-18.34L464,109.54c2.42-.08,4.75.15,6,1.08,0,0,10.06,17.47,23.87,37.6,6.47,9.46,13.76,19.51,21.24,28.58C515.64,177.55,516.26,178.29,516.88,179Z"/><path class="cls-5" d="M246,183.08c.22,2.63.32,5.29.32,8s-.1,5.29-.31,7.89q-.24,3.12-.67,6.2c-.42,2.94-.95,5.83-1.62,8.68h0l-115.67,1.55h0l4.51-8.86.13-.12.07-.07a.76.76,0,0,1,.09-.09l.17-.16s0,0,0,0l.13-.13,1.67-1.62c.54-.55,1.16-1.16,1.87-1.87l.67-.67a.3.3,0,0,1,.08-.08l.64-.65c1-1,2.19-2.2,3.43-3.49.22-.21.42-.43.64-.65.66-.66,1.32-1.35,2-2.06l.11-.11,1.46-1.53,2.29-2.41c.45-.48.92-1,1.38-1.46l.21-.23,1.63-1.75c1.65-1.78,3.36-3.64,5.1-5.58,8.77-9.78,18.38-21.28,25.69-32.19,6.13-9.12,10.68-17.83,11.82-24.82a43.6,43.6,0,0,1,7-.92c2.06-.07,4.05.13,5.08.92,0,0,8.58,14.9,20.35,32.06,5.52,8.07,11.74,16.64,18.11,24.37Z"/><path class="cls-6" d="M246,183.08c.22,2.63.32,5.29.32,8s-.1,5.29-.31,7.89q-.24,3.12-.67,6.2c-.42,2.94-.95,5.83-1.62,8.68h0l-115.67,1.55h0l4.51-8.86.13-.12.07-.07a.76.76,0,0,1,.09-.09l.17-.16s0,0,0,0l.13-.13,1.67-1.62c.54-.55,1.16-1.16,1.87-1.87l.67-.67a.3.3,0,0,1,.08-.08l.64-.65c1-1,2.19-2.2,3.43-3.49.22-.21.42-.43.64-.65l2-2.06.11-.11,1.46-1.53,2.29-2.41,1.38-1.46.21-.23,1.63-1.75c1.65-1.78,3.36-3.64,5.1-5.58l20.13-4.37,17.71,13.84,19.47-10.3,10.81-.47,16.08,9.32,3.85-8.6Z"/><path class="cls-7" d="M241.59,201.31l4.46-2.36q-.24,3.12-.67,6.2c-.42,2.94-.95,5.83-1.62,8.68l-115.67,1.56h0l4.52-8.86.13-.12.07-.07a.76.76,0,0,1,.09-.09l.17-.16s0,0,0,0l.13-.13,1.67-1.62c8.77-3.23,18.23-5.28,32,.13l6-10.45,3.22,8.68,5.62-4.83,4,9.18s18.83-5.14,21.24-4,4.52-6.6,4.52-6.6l10.61,9.18,7.41-2.91,5.63-9.49Z"/><path class="cls-8" d="M210.35,139l6.52,25.84L209,150.34l-1.93,12-5.19-15.57-3.74,15.09-2.05-13.29-3.5,8.33V145.75l-10.39,17.88,5.56-19.21-5.67,5.15c6.13-9.12,10.68-17.84,11.82-24.82a43.6,43.6,0,0,1,7-.92c2.06-.07,4.05.13,5.09.92,0,0,8.57,14.9,20.34,32.06C220.09,154.08,210.35,139,210.35,139Z"/><path class="cls-9" d="M246,183.08c.22,2.63.32,5.29.32,8s-.1,5.29-.31,7.89q-.24,3.12-.67,6.2l-3.79-3.84-6.46-8.14-10.6-12.71-7.66-15.63-16-41c2.06-.07,4.05.13,5.08.92,0,0,8.58,14.9,20.35,32.06,5.52,8.07,11.74,16.64,18.11,24.37Z"/><path class="cls-5" d="M237.84,194.2c-.14,1.72-.21,3.47-.21,5.23s.07,3.47.21,5.18c.1,1.36.25,2.72.44,4.06q.41,2.9,1.06,5.7h0l75.87,1h0l-2.95-5.81-.09-.08-.05,0-.05-.06-.12-.11,0,0-.09-.09-1.09-1.07c-.36-.35-.77-.75-1.23-1.22-.14-.14-.28-.29-.44-.44s0,0-.05,0l-.42-.43c-.68-.68-1.44-1.44-2.26-2.28l-.41-.43-1.32-1.35s0,0-.06-.08c-.32-.32-.64-.66-1-1l-1.5-1.58c-.3-.32-.61-.63-.91-1l-.14-.15L300,197c-1.08-1.17-2.2-2.39-3.34-3.66a199.6,199.6,0,0,1-16.85-21.11c-4-6-7-11.7-7.76-16.28a29.06,29.06,0,0,0-4.59-.61,5.77,5.77,0,0,0-3.34.61s-5.62,9.77-13.34,21c-3.62,5.29-7.7,10.91-11.88,16C238.53,193.37,238.19,193.79,237.84,194.2Z"/><path class="cls-6" d="M237.84,194.2c-.14,1.72-.21,3.47-.21,5.23s.07,3.47.21,5.18c.1,1.36.25,2.72.44,4.06q.41,2.9,1.06,5.7h0l75.87,1h0l-2.95-5.81-.09-.08-.05,0-.05-.06-.12-.11,0,0-.09-.09-1.09-1.07c-.36-.35-.77-.75-1.23-1.22-.14-.14-.28-.29-.44-.44s0,0-.05,0l-.42-.43c-.68-.68-1.44-1.44-2.26-2.28l-.41-.43-1.32-1.35s0,0-.06-.08c-.32-.32-.64-.66-1-1l-1.5-1.58-.91-1-.14-.15L300,197c-1.08-1.17-2.2-2.39-3.34-3.66l-13.21-2.86-11.62,9.08L259,192.79l-7.08-.31-10.55,6.12L238.88,193C238.53,193.37,238.19,193.79,237.84,194.2Z"/><path class="cls-7" d="M240.77,206.15l-2.93-1.54c.1,1.36.25,2.72.44,4.06q.41,2.9,1.06,5.7l75.87,1h0l-3-5.81-.09-.08-.05,0-.05-.06-.12-.11,0,0-.09-.09-1.09-1.07c-5.76-2.11-12-3.45-21,.09l-3.9-6.85L283.75,207l-3.69-3.17-2.65,6s-12.35-3.37-13.93-2.63-3-4.33-3-4.33l-7,6L248.7,207l-3.7-6.22Z"/><path class="cls-8" d="M261.25,165.28,257,182.23l5.15-9.5,1.27,7.84,3.4-10.22,2.45,9.9,1.35-8.71,2.3,5.46v-7.29l6.81,11.73-3.64-12.6,3.72,3.38c-4-6-7-11.7-7.76-16.28a27.79,27.79,0,0,0-4.59-.61,5.77,5.77,0,0,0-3.34.61s-5.62,9.77-13.34,21C254.86,175.18,261.25,165.28,261.25,165.28Z"/><path class="cls-9" d="M237.84,194.2c-.14,1.72-.21,3.47-.21,5.23s.07,3.47.21,5.18c.1,1.36.25,2.72.44,4.06l2.49-2.52,4.23-5.33,7-8.34,5-10.25,10.46-26.9a5.77,5.77,0,0,0-3.34.61s-5.62,9.77-13.34,21c-3.62,5.29-7.7,10.91-11.88,16C238.53,193.37,238.19,193.79,237.84,194.2Z"/><path class="cls-5" d="M0,213l191.48,2.58h0l-7.64-15-.22-.2-.12-.12-.15-.15-.29-.28a.19.19,0,0,0-.07-.06l-.22-.22-2.83-2.76-3.18-3.16c-.36-.36-.73-.75-1.14-1.14a.6.6,0,0,0-.13-.14c-.36-.35-.72-.71-1.08-1.09-1.76-1.77-3.72-3.74-5.83-5.92l-1.08-1.11c-1.11-1.12-2.23-2.28-3.39-3.49a1.57,1.57,0,0,0-.18-.19c-.81-.83-1.64-1.71-2.48-2.59l-3.88-4.09c-.77-.82-1.56-1.63-2.34-2.48-.11-.12-.24-.25-.36-.39-.91-1-1.84-2-2.76-3-2.8-3-5.7-6.18-8.65-9.46C128.57,142,112.27,122.46,99.88,104c-10.4-15.47-18.11-30.24-20-42.08A73.77,73.77,0,0,0,68,60.3c-3.49-.11-6.87.22-8.62,1.57,0,0-14.54,25.26-34.51,54.36-7.65,11.19-16.1,22.93-24.83,34Z"/><path class="cls-6" d="M0,213l191.48,2.58h0l-7.64-15-.22-.2-.12-.12-.15-.15-.29-.28a.19.19,0,0,0-.07-.06l-.22-.22-2.83-2.76-3.18-3.16c-.36-.36-.73-.75-1.14-1.14a.6.6,0,0,0-.13-.14c-.36-.35-.72-.71-1.08-1.09-1.76-1.77-3.72-3.74-5.83-5.92l-1.08-1.11c-1.09-1.12-2.22-2.27-3.39-3.49a1.57,1.57,0,0,0-.18-.19c-.81-.83-1.64-1.71-2.48-2.59l-3.88-4.09-2.34-2.48c-.11-.12-.24-.25-.36-.39-.91-1-1.84-2-2.76-3-2.8-3-5.7-6.18-8.65-9.46l-34.14-7.41-30,23.47-33-17.47-18.32-.8L.66,172.15,0,170.68Z"/><path class="cls-7" d="M488.35,215.56l-7.66-15-.22-.2-.12-.12-.15-.15-.29-.28a.19.19,0,0,0-.07-.06l-.22-.22-2.83-2.76c-14.88-5.47-30.92-8.94-54.25.22l-10.09-17.72L407,194l-9.53-8.18-6.85,15.56s-31.93-8.72-36-6.81-7.66-11.19-7.66-11.19l-10.1,8.73a62.9,62.9,0,0,0-21.4.31A83.75,83.75,0,0,0,299.66,197l-3.34-5.87-6.75-11.85L284.1,194l-9.53-8.18-6.85,15.56s-31.93-8.72-36-6.81S224,183.35,224,183.35l-18,15.56L193.48,194l-9.56-16.09L173,191.68l-7.57-4q.19,2.46.45,4.92c-11.24-2.27-23.94-2-40.18,4.36l-10.09-17.72L110.12,194l-9.53-8.18-6.85,15.56s-31.93-8.72-36-6.81-7.66-11.19-7.66-11.19l-18,15.56L19.5,194,9.94,177.88,0,190.42V213l191.47,2.57h0l-1.2-2.36,175.16,2.36h0l-.85-1.66,123.71,1.66Z"/><path class="cls-8" d="M52,86l-11,43.82,13.32-24.56,3.28,20.28,8.79-26.41,6.34,25.6,3.48-22.54,6,14.13V97.47l17.61,30.32L90.27,95.22l9.61,8.72c-10.4-15.46-18.12-30.24-20-42.08A73.77,73.77,0,0,0,68,60.29c-3.5-.11-6.87.22-8.62,1.57,0,0-14.54,25.27-34.51,54.37C35.45,111.6,52,86,52,86Z"/><path class="cls-9" d="M59.34,61.87S44.8,87.13,24.83,116.23c-7.65,11.19-16.1,22.93-24.83,34v40.18l9.94-12.53,18-21.55,13-26.51L68,60.3C64.47,60.19,61.09,60.52,59.34,61.87Z"/><path class="cls-10" d="M279.58,350.7v-1.16a.45.45,0,0,0-.38.19,1.07,1.07,0,0,0,.07-.27,1.24,1.24,0,0,1,.05-.19,24.84,24.84,0,0,0,.79-6.54c0-.85.05-1.69.11-2.48.25-3.44.47-6.88.7-10.33.11-1.8.23-3.6.35-5.4.36-5.41.76-11.18,1.3-17,.11-1.17.16-2.36.23-3.62a34.12,34.12,0,0,1,1.32-9.38c1.08-3.18,3.5-6.36,7.19-9.48,6.36-5.38,14.88-10.46,26-15.55,10.67-4.87,22.91-8.82,38.5-12.42v0c.34-.11.92-.25,1.93-.48,2.29-.52,4.58-1,6.91-1.48,1.87-.36,3.75-.73,5.63-1.08l1.55-7.9h60.48v9c1.58.15,3.27.34,5.16.57,4.26.56,8.2,1.21,12.05,2a151.67,151.67,0,0,1,37.09,12.52c3.51,1.73,6.9,3.74,10.18,5.69,2,1.21,4.14,2.47,6.24,3.63a32.43,32.43,0,0,1,14.49,16.19c2.62,6.58,3.54,13.89,4.44,21,.22,1.73.43,3.45.67,5.14l.49,3.5c1.14,8.11,2.32,16.49,3.92,24.66l.14.69Z"/><path d="M431.76,246.74v8.93c.11,0,.19,0,.33,0,1.79.17,3.58.38,5.34.59,4.08.53,8.07,1.18,12,2a151.05,151.05,0,0,1,36.94,12.46c5.67,2.79,10.91,6.28,16.4,9.31A31.89,31.89,0,0,1,517,296c3.23,8.1,3.86,17.39,5.07,26,1.34,9.42,2.59,18.85,4.42,28.19H279.58c.19,0,.25-.55.29-.67.91-2.77.72-6.28.93-9.15.38-5.25.7-10.49,1.05-15.74.38-5.66.77-11.33,1.3-17,.39-4.19.15-8.87,1.52-12.88,1.23-3.61,4.15-6.8,7-9.22,7.49-6.33,17-11.4,25.89-15.46,12.27-5.6,25.27-9.35,38.39-12.39l1.93-.44c2.28-.52,4.57-1,6.9-1.48,2-.38,4-.77,6-1.14l.07-.28,1.49-7.55h59.42m1.17-1.16H371.38l-.18.94-1.39,7-5.24,1c-2.22.46-4.59,1-6.92,1.48-1.2.28-1.7.39-1.94.46h0c-15.62,3.62-27.89,7.58-38.61,12.46-11.19,5.11-19.75,10.22-26.15,15.63-3.78,3.19-6.26,6.47-7.37,9.74a34.75,34.75,0,0,0-1.36,9.54c-.06,1.26-.12,2.44-.22,3.6-.54,5.77-.94,11.57-1.3,17-.12,1.8-.24,3.6-.35,5.39-.22,3.39-.45,6.9-.7,10.34-.06.81-.09,1.63-.12,2.51a23.83,23.83,0,0,1-.76,6.37c0,.05,0,.14-.06.25a1,1,0,0,1,0,.17,1,1,0,0,1,.92-.56v2.34H523.73c3.38,0,3.38,0,3.73-.5l.28-.41-.09-.48c-1.6-8.15-2.78-16.52-3.92-24.62l-.49-3.51c-.24-1.69-.46-3.44-.68-5.14-.89-7.11-1.82-14.46-4.47-21.1A33,33,0,0,0,503.34,279c-2.09-1.16-4.2-2.41-6.23-3.62-3.29-1.95-6.68-4-10.22-5.71a152.18,152.18,0,0,0-37.22-12.57c-3.87-.79-7.82-1.44-12.09-2-1.69-.21-3.22-.38-4.65-.53v-9Z"/><path class="cls-11" d="M347.79,182.8c-1.48-3.4-3.64-10.05-5.94-17.38a37.29,37.29,0,0,0-3.22-8.51c-.17-2.17.08-4,3.41-3.42,0,0,4.87,1.35,5,4.13S347.79,182.8,347.79,182.8Z"/><path class="cls-12" d="M445.8,350.12h21.68l-52.13-53.67L413.92,295l36.42-37.22q-5.29-.88-10.68-1.51c-1.43-.16-2.87-.31-4.31-.45l-2.2-.19-.33,0h-.05l-29.55,29.52L370.7,254.58l-.46-.43-.07.55-.17,0-12.35,2.11-2,.39,35.94,37Z"/><polygon class="cls-13" points="403.14 286.38 370.24 254.15 372.93 245.01 405.73 245.48 432.16 241.39 432.82 247.07 432.82 257.08 403.14 286.38"/><path class="cls-11" d="M456.06,184.7c1.51-2.36,3-4.52,4.31-13.21a20.44,20.44,0,0,0,.73-10.11c1.93-2.15,3.26-4.28,1-6.3-2.05-.86-3.61-.73-4.23,1.29l-.68,15Z"/><path class="cls-14" d="M459,170.29c-1.06,5.82-1.14,11-2,18.92-.2,1.86-.44,3.86-.74,6.06-1.61,11.58-7.26,27.65-11.15,35.25a72,72,0,0,1-6.29,10.36,73,73,0,0,1-5.17,6.2c-1.9,2-4.1,4.21-6.7,6.61-10.32,9.49-20.89,8.57-30.38,8.28-6.31-.2-14.84-5.74-21-10.8-1.08-.88-2.08-1.75-3-2.58a40.82,40.82,0,0,1-3.86-4c-3.75-4.63-10.47-19.48-12.95-25.08s-5.21-21-7.35-31.55c-.27-1.32-.5-2.87-.69-4.57-.65-5.61-.94-12.87-1.07-19v0c-.15-6.93-.09-12.42-.09-12.42l.73-14.42L349,120,355,100.23s22.7-7.86,22.7-7.88c.59.07,43.42-2.59,43.42-2.59l18.18,1.56,1.19.1,1.19,1.9,12,19.08,4.77,23.86s-.88,19.72.29,24.15c.2.75.37,1.36.5,1.88C459.89,164.84,459.85,165.32,459,170.29Z"/><path class="cls-15" d="M417.44,159.63a1.25,1.25,0,0,0,.55.63,1.78,1.78,0,0,0,1,.15c.16,0,.31-.07.47-.1l.43-.06a8.62,8.62,0,0,1,2.21.12c.56.1,1.09.26,1.64.41l1.26.35,1.44.38c.4.1.81.19,1.22.26a3.4,3.4,0,0,0,.46.06c1,0,4.56.34,5.61-.36a17.69,17.69,0,0,1,2.29-1.24s2.17-.36,2.43-1.35a5.62,5.62,0,0,0,.23-1.56s1.6,1.87,2.37,1.19-.79-1.77-.79-1.77a.51.51,0,0,1,.52,0,1.3,1.3,0,0,0-1.23-.69l-1-.64a1.85,1.85,0,0,1,.59,0,1.25,1.25,0,0,0-.87-.54c0-.13,0-.28.31-.47a1.47,1.47,0,0,1-.62-.15,7,7,0,0,0-1-.44c-.13,0-.94-.86-1.26-.87a1.23,1.23,0,0,1-.86-.54,1.78,1.78,0,0,1-1.12-.08,9.51,9.51,0,0,0-1.74-.72c-.19,0-2.69.15-3-.27a1.39,1.39,0,0,1-1,.24c-.66-.05-.32-.38-.32-.38a2,2,0,0,1-.68.34,2.7,2.7,0,0,1-1.13.15c-.15-.08-.15-.35-.05-.4a17,17,0,0,1-2.05,1,16.81,16.81,0,0,0-2.22,1.16s-1.95,1.55-2.1,1.68-.2.21-.31.31a3.93,3.93,0,0,1-.57.5,1.91,1.91,0,0,1-.66.35,2.22,2.22,0,0,0-.84.3.76.76,0,0,0-.33.72,4.82,4.82,0,0,0,.11.52c0,.2.08.39.13.59a4.39,4.39,0,0,0,.21.61c0,.11.1.22.13.33A1.12,1.12,0,0,0,417.44,159.63Z"/><path class="cls-16" d="M459.22,144.28c0,.85,0,1.71-.05,2.57-.09,3.66-.24,7.43-.41,11.31,0,.71-.06,1.42-.09,2.14l-.07-.44v0l-.22-1.36h0L455.63,141a11.14,11.14,0,0,1-.69-1.09c-.22-.38-.43-.78-.62-1.2a18.86,18.86,0,0,1-.78-1.95c-.08-.23-.16-.46-.23-.69a37.2,37.2,0,0,1-1.27-6.16q-.1-.8-.18-1.62c-.11-1-.19-2.08-.26-3.16,0-.09,0-.17,0-.26q-.09-1.62-.15-3.3c-.05-1.81-.08-3.65-.1-5.5,0-.39,0-.78-.09-1.16s-.07-.69-.11-1-.07-.56-.12-.83-.07-.44-.1-.65l-.06-.3-.15-.73c-.06-.29-.13-.57-.2-.84a20.52,20.52,0,0,0-.74-2.37c-.09-.25-.19-.49-.29-.73s-.21-.48-.32-.71-.22-.46-.34-.68a17.05,17.05,0,0,0-1.55-2.48c-.19-.25-.39-.5-.59-.74a16.21,16.21,0,0,0-1.26-1.35c-.25-.25-.51-.48-.77-.71l-.62-.5-.74-.56c-.25-.18-.51-.35-.77-.52l-.79-.49c-.74-.43-1.5-.82-2.29-1.18l-.63-.28-.5-.21-.82-.31c-.33-.13-.66-.24-1-.35l-.59-.19c-.15-.06-.31-.1-.47-.15l-.84-.25c-10.44,2.14-20.89,1.59-31.34.24-5-1.05-10.41,1.61-15.78,4.08-8.42-2.9-17.11-2.64-25.9-1.16a13.74,13.74,0,0,0-1.43,1.08l-.55.49a16,16,0,0,0-1.74,1.85l-.51.65s0,0,0,0l-.49.69c-.23.33-.45.67-.67,1s-.29.47-.43.72-.22.37-.32.56c-.44.78-.84,1.58-1.21,2.42q-.24.5-.45,1c-.21.48-.41,1-.6,1.46s-.3.76-.44,1.15-.32.87-.48,1.31a58.63,58.63,0,0,1,.19,6.59c0,.39,0,.78-.05,1.17s0,.48,0,.73c0,.84-.1,1.69-.17,2.55,0,.41-.06.83-.1,1.24s-.09.93-.14,1.4-.12,1.15-.19,1.73c-.15,1.25-.32,2.52-.5,3.81s-.42,2.77-.65,4.17c-.16,1-.33,1.93-.5,2.9a15.36,15.36,0,0,0-.56,1.46c-.25.76-.47,1.59-.67,2.49-.07.32-.14.66-.21,1-.12.61-.23,1.24-.33,1.9a.5.5,0,0,0,0,.12q-.21,1.4-.39,2.91a1.36,1.36,0,0,0,0,.2q-.19,1.69-.36,3.51c-.08.81-.15,1.63-.22,2.47h0l-.15,1.77c-.15,1.8-.3,3.66-.47,5.54v0s0,.09,0,.14c-.28-3-.56-5.91-.81-8.78-.69-7.78-1.23-15.1-1.33-21.94q0-3.63.09-7.06A94.32,94.32,0,0,1,351,103.89a73.23,73.23,0,0,1,3.35-6.69c-4.55-8.22-2.42-14.57,3.51-19.86,7.25-7.2,18.16-10.13,30.77-11.1,11.29-7.45,23.27-10.72,37.39-1,5.66-.42,11.05,1.39,16.06,6.42,5.21,3.08,9,8.13,11.78,14.41,6.16,5.43,4.93,10.74-.77,16l.53,1.33.13.32,1.67,4.19a56,56,0,0,1,1.9,7.09c.21,1,.4,2,.56,3.11a4.5,4.5,0,0,1,.08.51c.28,1.74.49,3.54.67,5.39s.3,3.6.4,5.48C459.28,134.14,459.31,139.09,459.22,144.28Z"/><path class="cls-16" d="M351.42,155c.89-3.07,2-6,6.3-7.06l6.19-.8-5.53,1.12,11-.95,4.45-.08-5.43.44s7.61.46,10.81,1,8.41,2.74,8-1a3.6,3.6,0,0,0-1.32-2.75,5.5,5.5,0,0,0-2.52-.66,17.14,17.14,0,0,1-2.63-.57,67,67,0,0,0-6.76-1.41l-.81-.13c-1.22-.25,4.84.7,4.84.7s-5.08-2-8.49-1.31-4.81-.76-9.38,1S348.42,149.15,351.42,155Z"/><path class="cls-15" d="M360.36,163.2s2-3.52,4.17-4.87,3.45-2,4.59-2.84l1.93-.72s.72-1,1.39-1c-.21.22-.35.42-.28.6,0,0,.48-.69,1-.63-.18.23-.33.45-.16.45a4.66,4.66,0,0,0,1-.49s.06.31.59.21a2.85,2.85,0,0,0,1-.28s0,.23.56.24a7.2,7.2,0,0,1,1.82.15c.33.14,1.35.54,1.61.63l1.82.66c.23.09,2.38,1.15,2.56,1.27a7.69,7.69,0,0,1,1.68,1.61,2,2,0,0,1-.13,1.45c-.26.3-.65.85-1.1,1s-1.71.87-2.14,1-2.09.71-2.55.78c-2,.32-4,.84-6.09,1.1-1,.13-2,.14-3,.24a11.54,11.54,0,0,1-4.3-.34c-.88-.27-2.85-1.35-2.4-2.54a11.8,11.8,0,0,1-1.11.62c-.36.26-.69.56-1.07.81Z"/><path class="cls-16" d="M415.46,148.18c.25-3.3,1.1-6.3,5.21-7.74a7,7,0,0,0-2.11,2.29l4.47-3c-1.56,1.24-1.1,1.07-2.8,3.07a20.46,20.46,0,0,1,4.51-3.65c-.87,1.23-1.63,1.84-2.08,3.16,1.62-3.31,6.24-4.38,9.58-4l-3.1,1a71.35,71.35,0,0,1,9.57-1.08,7.62,7.62,0,0,0-2.9.91c5-.4,9.79-.48,12.13,3,3.46,4.71,5.35,8.5.46,8.35,0,0-7.08-5.44-14.6-5l4.62-.89c-3.22.4-6.55.72-8.62,1.49l2.14-1-8.35,1.9C419.74,149.24,416.41,148.81,415.46,148.18Z"/><path d="M359.5,158.8a23.82,23.82,0,0,1,5.59-4.15,16.56,16.56,0,0,1,6.74-2.06l3.44-.3a17,17,0,0,1,1.77-.09,5.13,5.13,0,0,1,1.82.32A20.09,20.09,0,0,1,382,154a10.49,10.49,0,0,1,1.42,1.06,4,4,0,0,1,1.06,1.38,6.83,6.83,0,0,0-2.71-2,20.62,20.62,0,0,0-3.17-1.2,8.22,8.22,0,0,0-3.28,0c-1.14.13-2.29.26-3.45.36a18.54,18.54,0,0,0-6.48,1.75,29.22,29.22,0,0,0-3,1.59A33.22,33.22,0,0,0,359.5,158.8Z"/><path d="M417.28,154.12a12.25,12.25,0,0,1,5.87-4,9,9,0,0,1,3.68-.35l3.52.49c1.17.19,2.35.38,3.52.65a16.62,16.62,0,0,1,3.41,1.2,26.65,26.65,0,0,1,3.17,1.68,7.72,7.72,0,0,1,2.57,2.48,8.26,8.26,0,0,0-2.81-2.05,27,27,0,0,0-3.22-1.4,29.17,29.17,0,0,0-6.79-1.57l-3.5-.54a9,9,0,0,0-3.35.15,11.54,11.54,0,0,0-3.2,1.26A16.22,16.22,0,0,0,417.28,154.12Z"/><path class="cls-17" d="M382.81,159.5l-.78,1.26-2.25,1.16-1.2.25a53.32,53.32,0,0,1-7.66,1.08,8.35,8.35,0,0,1-1.14,0,6.27,6.27,0,0,1-3-.8l-1.53-1.49v-1.32l1.53-1.84,3.52-2.17,4.13-1,2.63.11,2.61.56,2.74,1.66Z"/><path class="cls-17" d="M437.49,157.14l-.18,1.57-1,1.12-.52.07c-.56.08-1.52.21-2.72.33h-.05l-7.52.2h0c-.49,0-1-.07-1.44-.12s-.7-.09-1-.15c-4.35-.88-4.51-1.7-4.31-2.27l.86-2.19,1.68-1.46,2.34-1.45,2.59-.62h3l2.56.35,3.54,1.37,1.75,1.7Z"/><path d="M384.83,159.43a3.31,3.31,0,0,1-1.42,1.14c-1.16.57-2.43.88-3.63,1.35.37-.28.79-.51,1.16-.78a2.36,2.36,0,0,0,1-1.62,3.56,3.56,0,0,0-2-3.83,6.19,6.19,0,0,0-.81-.32,10.19,10.19,0,0,0-2.85-.37c-.77,0-1.53-.08-2.3,0a8.23,8.23,0,0,0-2.18.51c-.69.25-1.39.46-2.07.73l-.18.07a9.22,9.22,0,0,0-3.12,2,3,3,0,0,0-.94,1.34,1.88,1.88,0,0,0,.45,1.55,5,5,0,0,0,1.67,1.42,4.64,4.64,0,0,0,.9.34,4.14,4.14,0,0,0,1.2.25,6.5,6.5,0,0,1-2.87-.31,5.26,5.26,0,0,1-2.08-1.42,1.55,1.55,0,0,1,0-2,8.08,8.08,0,0,1,1.53-1.67,16.65,16.65,0,0,1,3.37-2.19,10.57,10.57,0,0,1,1.5-.67,1.87,1.87,0,0,1,.8-.86c-.08.11-.53.75,0,.52a1.39,1.39,0,0,1,.77-.62s-.47.45,0,.38a2.72,2.72,0,0,0,1-.43.26.26,0,0,0,.3.21,3.38,3.38,0,0,0,1.23-.29s0,.15.24.16a13.9,13.9,0,0,1,1.68.1,9.05,9.05,0,0,1,1.56.55l.35.14.95.38a18.82,18.82,0,0,1,2.75,1.33c.69.43,1.93,1.19,2.05,2.08a1.14,1.14,0,0,1-.15.72Z"/><path d="M440.81,158.18a2.9,2.9,0,0,1-1.46-.64,4.56,4.56,0,0,0-1.21-1c.11,0,.12.84.12.93a2.36,2.36,0,0,1-1.92,2.32c.08,0,.27-.47.32-.55a6.14,6.14,0,0,0,.32-.69,3.11,3.11,0,0,0,.24-1.44,3.47,3.47,0,0,0-1.47-2.26A11.17,11.17,0,0,0,432,153a16.69,16.69,0,0,0-3.38-.66,9.74,9.74,0,0,0-4.48.49l-.68.29a11.42,11.42,0,0,0-2.33,1.46l-.32.28a3,3,0,0,0-.93,1.31,2.65,2.65,0,0,0,.74,2.55,6.81,6.81,0,0,0,2.37,1.43,10.8,10.8,0,0,0-4-.2,1.07,1.07,0,0,1-.64,0,.85.85,0,0,1-.31-.34A5.19,5.19,0,0,1,417,157.4a.84.84,0,0,1,.41-.8c.28-.14.62-.09.91-.22a2.93,2.93,0,0,0,.88-.64,19.09,19.09,0,0,1,3-2.36,10.48,10.48,0,0,1,1.74-.95,7.9,7.9,0,0,0,1.78-.86s-.19.39.15.33a5,5,0,0,0,1.71-.44c0,.06-.12.31.3.27s.88.07,1.16-.19c0,0,0,.21.5.26.3,0,1,0,1.56,0a4.22,4.22,0,0,1,.91.07c.46.13,2.42,1.08,2.76.72a1.15,1.15,0,0,0,.82.58c.61.11,1,.83,1.45,1s.53.4,1.29.36c0,0-.76.14-.47.54a.8.8,0,0,1,.76.22s-.64-.12-.58,0a9.17,9.17,0,0,0,1.16,1s.68-.1.94.25c0,0-.71-.07-.47.17s.71.67.94.85S441.05,158.1,440.81,158.18Z"/><path class="cls-18" d="M381.08,159.91a3.66,3.66,0,0,1-1.07,1.24l-.63.47-.41.28c-.1.07-.27.25-.39.27a53.32,53.32,0,0,1-7.66,1.08,1.72,1.72,0,0,0-.63-.36c-.27-.07-.56-.08-.83-.14a5.17,5.17,0,0,1-1.39-.41,5.87,5.87,0,0,1-2-2.32,1.81,1.81,0,0,1,.77-1.62,10.43,10.43,0,0,1,2.14-1.47c.33-.17.67-.31,1-.45s.94-.34,1.41-.48a11.94,11.94,0,0,1,3.18-.67c.69,0,1.4.06,2.09.11a17,17,0,0,1,2.13.26,3.8,3.8,0,0,1,.6.18,2.72,2.72,0,0,1,1,.62,3.57,3.57,0,0,1,.95,1.35A3,3,0,0,1,381.08,159.91Z"/><path class="cls-18" d="M436.67,157.64a3,3,0,0,1-.29,1.19c-.12.28-.31.87-.57,1a.94.94,0,0,1-.23.1,7.17,7.17,0,0,0-1,.54,8.4,8.4,0,0,1-3.22,1.07,13.22,13.22,0,0,1-4.47-.45c-.54-.13-1.08-.29-1.62-.43a3.32,3.32,0,0,1-1.53-.74A12.05,12.05,0,0,0,422,158.7c-.53-.33-1.22-.66-1.48-1.27a2.06,2.06,0,0,1,.66-2.2,8.71,8.71,0,0,1,3.25-2,9.57,9.57,0,0,1,3.84-.34,17.37,17.37,0,0,1,3.42.66,11.3,11.3,0,0,1,3.14,1.21A3.93,3.93,0,0,1,436.6,157,2.3,2.3,0,0,1,436.67,157.64Z"/><path class="cls-19" d="M379.49,157a4.88,4.88,0,0,1-9.76,0,4.07,4.07,0,0,1,.07-.79c.68-.27,1.38-.48,2.07-.73a8.23,8.23,0,0,1,2.18-.51c.77-.06,1.53,0,2.3,0a10.19,10.19,0,0,1,2.85.37A4.68,4.68,0,0,1,379.49,157Z"/><path class="cls-20" d="M378.53,157.28a3.93,3.93,0,1,1-7.85,0,3.21,3.21,0,0,1,.06-.63c.54-.22,1.11-.39,1.66-.59a6.72,6.72,0,0,1,1.76-.41c.62-.05,1.23,0,1.85,0a8.47,8.47,0,0,1,2.29.3A3.86,3.86,0,0,1,378.53,157.28Z"/><circle cx="374.76" cy="157.45" r="2.37"/><circle class="cls-21" cx="377.45" cy="157.23" r="0.54"/><circle class="cls-21" cx="374.35" cy="157.45" r="0.26"/><circle class="cls-21" cx="374.14" cy="156.63" r="0.11"/><path class="cls-22" d="M432.6,155.33a4.82,4.82,0,1,1-9.12-2.18l.68-.29a9.74,9.74,0,0,1,4.48-.49A16.69,16.69,0,0,1,432,153,4.82,4.82,0,0,1,432.6,155.33Z"/><path class="cls-23" d="M431.82,155.47a4,4,0,0,1-8.08,0,4.18,4.18,0,0,1,.43-1.83l.57-.24a8.14,8.14,0,0,1,3.76-.41,14,14,0,0,1,2.83.55A4.07,4.07,0,0,1,431.82,155.47Z"/><circle cx="427.78" cy="155.75" r="2.37"/><circle class="cls-21" cx="430.87" cy="155.55" r="0.91"/><circle class="cls-21" cx="428.13" cy="156.13" r="0.41"/><circle class="cls-21" cx="427.34" cy="154.71" r="0.25"/><path class="cls-24" d="M393.29,196.53a3.52,3.52,0,0,0-4.14-1.68c-1.38-.8-.87-.65.39-.95a3.5,3.5,0,0,1,3.14.54C393.34,195.07,394.58,195.51,393.29,196.53Z"/><path class="cls-25" d="M416.72,194.21c-2.52-1.35-5.14-2.57-10.7.23a35.6,35.6,0,0,1-10.51,0c-5.56-2.8-8.18-1.58-10.7-.23-1.13-3.27.26-6.14,2.37-8.48,2.58-2.88,8.23-22.6,8-25s5.55-.88,5.55-.88,5.75-1.55,5.55.88,5.46,22.15,8,25C416.46,188.07,417.85,190.94,416.72,194.21Z"/><path class="cls-11" d="M406,194.43a35.6,35.6,0,0,1-10.51,0c-5.55-2.8-8.17-1.58-10.69-.23h0a9,9,0,0,0,1.15,2.27,4.32,4.32,0,0,0,4.87,1.77,8.41,8.41,0,0,0,1.6-.62c.27-.13.52-.28.77-.43s.48-.52.83-.36a1.31,1.31,0,0,1,.28.2,5.74,5.74,0,0,0,2.35,1.15,6.92,6.92,0,0,0,2,.17c.65,0,1.31-.07,2-.08s1.41,0,2.11.08a7.74,7.74,0,0,0,2.62-.33,6.17,6.17,0,0,0,1.24-.53,6.61,6.61,0,0,0,.55-.37c.28-.22.35-.48.73-.22a7.77,7.77,0,0,0,4,1.52,4.15,4.15,0,0,0,3.68-1.95,9.39,9.39,0,0,0,1.16-2.27C414.19,192.85,411.57,191.63,406,194.43Zm-12.72,2.08h0a3,3,0,0,0-.53-.74,3.59,3.59,0,0,0-3.61-.94,3.57,3.57,0,0,1-.76-.51q-.11-.09,0-.15a5.87,5.87,0,0,1,1.18-.29,3.5,3.5,0,0,1,3.14.54c.28.27.67.5.92.76s.4.64,0,1.1l-.12.11Zm19.1-1.68h-.05l-.2,0a.25.25,0,0,0-.12,0,3.73,3.73,0,0,0-1.83.11,3.42,3.42,0,0,0-1.43.9,3.38,3.38,0,0,0-.53.72h0a.74.74,0,0,1-.13-.12l-.12-.11c-.47-.46-.35-.8-.05-1.1s.64-.49.92-.76a3.5,3.5,0,0,1,3.14-.54c.28.07.51.11.7.15a1.61,1.61,0,0,1,.31.07.39.39,0,0,1,.17.07s0,.11-.08.2a.22.22,0,0,1-.09.07,4.42,4.42,0,0,1-.41.26l-.19.12Z"/><path class="cls-24" d="M412.38,194.85a3.52,3.52,0,0,0-4.14,1.68c-1.29-1-.05-1.46.61-2.09a3.5,3.5,0,0,1,3.14-.54C413.25,194.2,413.76,194.05,412.38,194.85Z"/><path class="cls-24" d="M412.38,194.85a3.52,3.52,0,0,0-4.14,1.68c-1.29-1-.05-1.46.61-2.09a3.5,3.5,0,0,1,3.14-.54C413.25,194.2,413.76,194.05,412.38,194.85Z"/><path class="cls-16" d="M412.61,194.79c-1.78.38-3.47.08-4.52,2.17a1.2,1.2,0,0,1-.59-1c.08-1.14,1.24-1.79,2.05-2.11a4.13,4.13,0,0,1,3.55,0,.49.49,0,0,1,.26.27.44.44,0,0,1-.1.37.84.84,0,0,1-.31.19Z"/><path class="cls-16" d="M388.85,194.83c1.79.32,3.46,0,4.59,2a1.18,1.18,0,0,0,.55-1c-.12-1.14-1.3-1.75-2.12-2a4.13,4.13,0,0,0-3.55.16.57.57,0,0,0-.25.28.42.42,0,0,0,.12.37.79.79,0,0,0,.31.17Z"/><path id="MOUTH" class="cls-26" d="M424,217.77a7.66,7.66,0,0,1-2,.41c-.7.13-1.4.26-2.1.36a29,29,0,0,1-4,.4,48.54,48.54,0,0,1-6.38-.49,14.91,14.91,0,0,0-6.06.13,3.42,3.42,0,0,0-1.64.94s-2.68-.85-3-.88a16.09,16.09,0,0,0-6.18.94,32.6,32.6,0,0,1-13,1.07,12.35,12.35,0,0,1,2.17.85c.67.23,1.35.44,2,.61a22.24,22.24,0,0,0,3.73.56c4.77.33,9.83-.27,14.37,1.5v.14l.16-.08.16.07v-.15c3.26-1.68,6.93-1.89,10.49-2.47a31,31,0,0,0,8.49-2.44C422.17,218.79,423.11,218.29,424,217.77Z"/><path class="cls-27" d="M375.62,251.17c-1.08-.88-2.08-1.75-3-2.58a40.82,40.82,0,0,1-3.86-4c-3.75-4.63-10.47-19.48-12.95-25.08s-5.21-21-7.35-31.55c-.27-1.32-.5-2.87-.69-4.57l8.77,20.88,5.94,17.53,7.23,14.31,2.91,8.18Z"/><path class="cls-27" d="M457,189.21c-.2,1.86-.44,3.86-.74,6.06-1.61,11.58-7.26,27.65-11.15,35.25a72,72,0,0,1-6.29,10.36,73,73,0,0,1-5.17,6.2l5.17-11.6,3.46-8.18,7.6-20.88Z"/><path class="cls-16" d="M438.83,240.88A90.54,90.54,0,0,1,427,253.69c-10.32,9.49-20.89,8.57-30.38,8.28-7.42-.23-17.91-7.85-23.94-13.38,5.28,1.74,11.77,4,11.77,4l12,4.67,19-.87,9.94-7Z"/><path class="cls-28" d="M458.6,159.82l-3-18.79c-3.86-5.47-4.19-15-4.29-24.93-.75-12.62-7.68-17.74-16.75-20.29-10.44,2.14-20.89,1.59-31.34.24-5-1-10.41,1.61-15.78,4.08-8.42-2.9-17.11-2.64-25.9-1.16-4.65,3.09-7.25,8.47-9.35,14.41.68,7.37-.39,16.48-2.14,26.29-2.14,4.8-2.54,13.73-3.4,23.42l0,1.32,1.9-8.27,1.51-10.34s.34-4.23,1.27-5.84,2.33-17.09,2.33-17.09-.05-8.71-.29-9.64,5.79-12,8.52-13.14,20.89-.78,25.51,1.26c0,0,12.17-5.35,15.87-3.84s29.17,1.5,31-.27c0,0,13.05,2.41,15.19,15.36s-.68,10.17.92,15.82.25,8.13,2.1,10.86,3.31,9.93,3.31,9.93l2.84,11.09h0Z"/><path class="cls-10" d="M365.34,133c-4.25,0-8.46,0-12.66-.06h-1.45l-3.41,0-3.23,0h-.32l-.06-.32c0-2.43,0-4.81.09-7.08a95.12,95.12,0,0,1,6.41-21.67l.09-.19,3.05-.08,1,0c.65,0,1.31,0,2,0h.28l1.44,0c14.43-.33,30.79-.5,47.32-.5,13.64,0,26.9.12,39.42.34l2,0,1.73,0,4.76.1H454l1.75,4.39a56,56,0,0,1,1.91,7.15c.22,1,.41,2.1.57,3.12,0,.15,0,.33.08.5.25,1.58.46,3.3.67,5.42.16,1.73.3,3.52.4,5.5l0,.32-1,.06-1.31.08c-1.63.12-3.26.21-4.88.31h-.15l-1.24.07C421.72,132.1,393,133,365.34,133Z"/><path d="M405.85,103.22c13.43,0,26.86.11,39.41.33l2,0h.83l.9,0,4.76.1,1.67,4.19a56,56,0,0,1,1.9,7.09c.21,1,.4,2,.56,3.11a4.5,4.5,0,0,1,.08.51c.28,1.74.49,3.54.67,5.39s.3,3.6.4,5.48l-2,.12c-1.68.12-3.36.22-5,.32l-1.24.07q-44.12,2.69-85.47,2.67-6.36,0-12.65-.07h-2.46l-2.4,0-3.29-.05q0-3.63.09-7.06A94.32,94.32,0,0,1,351,103.89l2.85-.08c1,0,1.95,0,2.95-.06h.28l1.44,0h0c14.73-.33,31-.49,47.31-.49m0-.65v0c-16.53,0-32.89.17-47.32.49l-.82,0h-.92l-2,0-1,0-1.4,0-1.46,0h-.41l-.17.38a95.33,95.33,0,0,0-6.43,21.7v.09c-.09,2.29-.12,4.67-.09,7.09v.64h.69l3.24.05,2.4,0h2.46c4.18,0,8.44.06,12.65.06,27.64,0,56.41-.9,85.51-2.66l1.25-.07h.14l4.89-.31,1.29-.08.67,0,.65,0,0-.65c-.11-2-.24-3.77-.4-5.51-.21-2.13-.43-3.86-.68-5.43,0-.15,0-.33-.08-.53-.16-1-.35-2.06-.57-3.12a54.23,54.23,0,0,0-1.92-7.17l-1.68-4.22-.16-.4h-.43L449,103h-1.75l-2,0c-12.51-.22-25.78-.33-39.42-.33Z"/><path d="M422,116a7.88,7.88,0,0,0-1.25-3,12.83,12.83,0,0,0-3.44-3.37,21.75,21.75,0,0,0-5.08-2.54,31.29,31.29,0,0,0-5.94-1.48,38.76,38.76,0,0,0-8.66-.29c-1.11.12-2.22.24-3.32.41a26.09,26.09,0,0,0-3.48.78,25.43,25.43,0,0,0-4.28,1.62,16.28,16.28,0,0,0-5.08,3.66,8.52,8.52,0,0,0-2.22,4.35,7,7,0,0,0,.09,2.81,8.26,8.26,0,0,0,1.46,3.08,13.29,13.29,0,0,0,3.52,3.21,24.21,24.21,0,0,0,7.23,3.08,34,34,0,0,0,4.37.82,42.18,42.18,0,0,0,5,.3l2-.08a30.14,30.14,0,0,0,3.92-.44c1-.18,1.95-.38,2.92-.62a25,25,0,0,0,4-1.37,18.12,18.12,0,0,0,5.4-3.44,9.86,9.86,0,0,0,2.39-3.39A7.23,7.23,0,0,0,422,116ZM419.52,120a9,9,0,0,1-2.22,2.66,17.49,17.49,0,0,1-4.5,2.67,26.67,26.67,0,0,1-3.91,1.28,33,33,0,0,1-3.57.67,41.68,41.68,0,0,1-5.3.31c-.61,0-1.8-.08-3-.18a29.68,29.68,0,0,1-3.76-.58,25.88,25.88,0,0,1-6.34-2.19,14.83,14.83,0,0,1-3.39-2.31,8.23,8.23,0,0,1-2.16-3,5.35,5.35,0,0,1,.14-4.33,8.44,8.44,0,0,1,2.25-2.88,16.5,16.5,0,0,1,4.27-2.63,26.27,26.27,0,0,1,3.77-1.31,29.21,29.21,0,0,1,3.94-.78,35.57,35.57,0,0,1,6-.31,34.23,34.23,0,0,1,4.05.36,28.88,28.88,0,0,1,7.08,1.92,16.56,16.56,0,0,1,4.75,2.94,8,8,0,0,1,2.18,3A5.4,5.4,0,0,1,419.52,120Z"/><path d="M416.53,113.94a1,1,0,0,1-.17.13l-.41.09-2.17.34a4.18,4.18,0,0,0-.58.16,1,1,0,0,0-.57.69c-.12.4-.25.8-.38,1.21a.67.67,0,0,1-.06.15,1.14,1.14,0,0,1-.15.16.4.4,0,0,1-.15-.17c-.1-.33-.19-.66-.28-1,0-.14-.09-.27-.13-.4a1.05,1.05,0,0,0-1-.8l-2-.24a18.37,18.37,0,0,0-3.85.15c-1.06.11-2.11.22-3.17.35s-2,.26-3.07.42a2.32,2.32,0,0,0-2,1.69c-.21.67-.4,1.35-.59,2s-.33,1.25-.49,1.88a.69.69,0,0,1-.05.13c-.07.12-.19.12-.24,0a3.38,3.38,0,0,1-.13-.42c-.22-.89-.43-1.78-.66-2.67a7.1,7.1,0,0,0-.53-1.46,1.88,1.88,0,0,0-1.34-1.06c-.59-.12-1.19-.23-1.8-.32s-1.48-.2-2.23-.3l-2.25-.3-2.07-.26a.35.35,0,0,1-.13-.05s-.07-.06-.07-.09a.13.13,0,0,1,.07-.1.77.77,0,0,1,.26-.07l2.65-.35,2.94-.41c.56-.07,1.12-.14,1.68-.23a5.07,5.07,0,0,0,1.47-.43,1.6,1.6,0,0,0,.83-.81c.26-.61.51-1.23.74-1.85s.33-1,.49-1.51a.25.25,0,0,1,0-.09c0-.06.11-.14.17-.14a.24.24,0,0,1,.16.14c.17.5.32,1,.49,1.5s.37,1.09.6,1.62a2.27,2.27,0,0,0,1.63,1.36,19.55,19.55,0,0,0,2.27.38l2,.24,1.49.18,2.1.24a12,12,0,0,0,3-.05c.36-.06.73-.08,1.09-.13a4.62,4.62,0,0,0,.74-.15,1.24,1.24,0,0,0,.83-.76c.12-.3.22-.6.33-.91,0-.1.05-.25.18-.23s.14.13.17.21c.15.35.29.69.41,1.05a1,1,0,0,0,.82.68c.53.11,1.07.18,1.61.27.38.06.77.1,1.15.17A1.31,1.31,0,0,1,416.53,113.94Z"/><path d="M413.69,123.6c-.05,0-.08.08-.11.09l-.33.07c-.84.12-1.68.22-2.51.35a1.1,1.1,0,0,0-1,.78c-.08.26-.18.51-.27.77a.59.59,0,0,1-.06.14,1.06,1.06,0,0,1-.15.15c-.05-.06-.12-.1-.14-.16-.09-.22-.16-.45-.23-.67a1,1,0,0,0,0-.1,1.16,1.16,0,0,0-1.13-.92,14.89,14.89,0,0,0-2.4-.23c-.56,0-1.12.08-1.68.15s-1,.17-1.49.23a1.13,1.13,0,0,0-1,.92c-.11.42-.24.83-.37,1.24v0l-.12.16c-.05-.06-.12-.1-.14-.17-.08-.22-.15-.45-.22-.67l-.3-.92a.71.71,0,0,0-.51-.51q-.54-.12-1.08-.21c-.73-.12-1.47-.22-2.2-.32a.68.68,0,0,1-.2-.07s-.07-.06-.07-.09,0-.07.07-.07a4.39,4.39,0,0,1,.6-.15c.51-.06,1-.1,1.52-.17s.81-.13,1.21-.21a.92.92,0,0,0,.7-.61l.36-1a2.88,2.88,0,0,1,.13-.31s.08-.1.12-.1a.18.18,0,0,1,.1.11c.09.22.16.45.24.67s.18.44.29.65a1.22,1.22,0,0,0,.91.61,21.31,21.31,0,0,0,3.28.32,12.8,12.8,0,0,0,2.31-.29l.24,0a.94.94,0,0,0,.72-.63c.11-.29.2-.6.31-.9a.26.26,0,0,1,.05-.12s.1-.11.14-.11a.19.19,0,0,1,.14.11,5.2,5.2,0,0,1,.26.72,1.14,1.14,0,0,0,1.11.94l2.46.33.33.08A.58.58,0,0,1,413.69,123.6Z"/><path d="M411.15,119.17c-.66.08-1.31.14-1.95.23l-1.45.24a.94.94,0,0,0-.76.67c-.14.4-.26.81-.38,1.22a1.88,1.88,0,0,1-.12.3s-.07.09-.1.09a.13.13,0,0,1-.1-.09c-.1-.26-.19-.52-.27-.77s-.18-.52-.25-.78a.9.9,0,0,0-.8-.68c-.51-.09-1-.15-1.54-.22s-1.11-.17-1.66-.27c-.08,0-.14-.09-.21-.13s.14-.11.21-.12c.57-.09,1.14-.15,1.71-.24s1-.15,1.53-.24a1.09,1.09,0,0,0,.84-.79l.33-.91a.71.71,0,0,1,.08-.18s.09-.08.13-.13a.67.67,0,0,1,.11.14c.11.28.21.57.32.86,0,.11.1.22.15.33a1.26,1.26,0,0,0,1,.71,17.13,17.13,0,0,0,3.35.32c.49,0,1-.11,1.47-.18.21,0,.43-.08.64-.13a1,1,0,0,0,.79-.71,7.11,7.11,0,0,1,.33-.75c.1-.2.18-.2.28,0a4,4,0,0,1,.25.6,1.14,1.14,0,0,0,.88.82c.71.12,1.42.27,2.12.4l.25.07a.15.15,0,0,1,.09.1s-.06.09-.09.1l-.58.11c-.55.09-1.11.17-1.66.27a1.14,1.14,0,0,0-.94.83c-.1.3-.18.61-.28.91a1.5,1.5,0,0,1-.15.23.82.82,0,0,1-.16-.22c-.12-.3-.23-.6-.32-.91a1,1,0,0,0-.91-.83Z"/><path d="M364.52,160.31c-.71-.05-1.5.64-2,1s-.87.7-1.28,1.08a20.43,20.43,0,0,0,1.31-1.61,17.35,17.35,0,0,1,2.4-2.37,21.81,21.81,0,0,1,3.14-1.83Z"/><path class="cls-29" d="M205.67,259.35c-21.28-2.68-42.08-3.93-60.47,2.19l5.11-31.31,4.58-8,22.73,3,21.23-1.8Z"/><path class="cls-30" d="M216.33,269.66s9.72,34.51-7.08,54.34l-5.45,10.06s5.52,3.33,4.39,6c0,0-.45,1.67-.05,2.37s-1.72,2.17-3.63,1.67-1.31-1.52-1.31-1.52.8,1.93-3.44,1.62c0,0-2.22.5-1.51-1.31,0,0-1.66,3.83-3.93.4,0,0-3.18-5-2.58-8.58,0,0-1.71,5.65,1.77,8.18s-10,2.47-10,2.47-2.72,0-8.53-9.54c0,0,2.4,5.3-4.26,4.92s-7.49-12.18-6.66-15.13-3.4-12.11-5.52-14.68-7.64-23.61,1.82-28.64,19.44-.42,19.44-.42l19.3-4.92Z"/><path class="cls-31" d="M144,253.2a33.6,33.6,0,0,0,7.5,21.05,40.25,40.25,0,0,0,31.54,14.67c13.76,0,25.85-6.51,32.8-16.33a33.34,33.34,0,0,0,6.25-19.39c0-19.73-17.48-35.72-39.05-35.72S144,233.47,144,253.2Z"/><path class="cls-32" d="M207.58,251.81a49.27,49.27,0,0,0-3.79-3.55,7.22,7.22,0,0,0-2-1.12,4.64,4.64,0,0,0-.51-.11,1.2,1.2,0,0,0-.5-.05h-.51l-.51.12a9.75,9.75,0,0,0-4,2.47c-1.28,1.12-2.45,2.42-3.78,3.64a16.63,16.63,0,0,1,2.65-4.71,8.79,8.79,0,0,1,4.64-3.35,5.08,5.08,0,0,1,3.15.23,6.74,6.74,0,0,1,1.31.77,5.33,5.33,0,0,1,.58.46l.5.51A13.43,13.43,0,0,1,207.58,251.81Z"/><path class="cls-32" d="M171.11,253.93c-.94-1.7-1.75-3.4-2.68-5a14.55,14.55,0,0,0-1.52-2.18,12.22,12.22,0,0,0-.87-.89l-.48-.33a1.27,1.27,0,0,0-.49-.28l-.5-.24-.54-.1a1.32,1.32,0,0,0-.56,0h-.57c-.4.09-.8.14-1.2.27s-.81.29-1.21.47a51.23,51.23,0,0,0-4.82,2.84,15.14,15.14,0,0,1,4.05-4.21,14.74,14.74,0,0,1,1.36-.74,14.24,14.24,0,0,1,1.52-.5c.28,0,.56-.05.85-.07a2.44,2.44,0,0,1,.85,0l.85.15.8.34a2.81,2.81,0,0,1,.73.43c.22.17.45.32.66.5a9.81,9.81,0,0,1,1,1.2,11.19,11.19,0,0,1,.81,1.3,9.69,9.69,0,0,1,.62,1.36A19.22,19.22,0,0,1,171.11,253.93Z"/><path class="cls-33" d="M181.68,267l5.6-5.5q-5.37-5.49-10.75,0Z"/><path class="cls-32" d="M202.41,268.55a35.19,35.19,0,0,1-5.43,2.78,26.74,26.74,0,0,1-5.91,1.77,14.72,14.72,0,0,1-3.19.19c-.55,0-1.1-.16-1.64-.24a6.77,6.77,0,0,1-1.58-.63l-.74-.45a6.76,6.76,0,0,1-.62-.58,6,6,0,0,1-1-1.36,11.38,11.38,0,0,1-.52-1.52c-.06-.53-.1-1.05-.13-1.55.24.46.46.91.66,1.36s.51.83.82,1.18a4.72,4.72,0,0,0,1,.9c.19.11.35.25.54.36l.61.24a2.18,2.18,0,0,0,.63.18l.64.15c.46,0,.9.08,1.36.06a18.13,18.13,0,0,0,2.81-.26C194.56,270.51,198.37,269.21,202.41,268.55Z"/><path class="cls-32" d="M161,268.55c4,.66,7.85,2,11.66,2.58a18.13,18.13,0,0,0,2.81.26c.46,0,.9,0,1.36-.06l.64-.15a2.18,2.18,0,0,0,.63-.18l.61-.24c.19-.11.35-.25.54-.36a4.72,4.72,0,0,0,1-.9c.31-.35.53-.78.83-1.18s.41-.9.65-1.36c0,.5-.07,1-.13,1.55A11.38,11.38,0,0,1,181,270a6,6,0,0,1-1,1.36,6.76,6.76,0,0,1-.62.58l-.74.45a6.77,6.77,0,0,1-1.58.63c-.54.08-1.09.21-1.63.24a14.77,14.77,0,0,1-3.2-.19,26.74,26.74,0,0,1-5.91-1.77A35.19,35.19,0,0,1,161,268.55Z"/><path class="cls-34" d="M199.11,260.39a8.77,8.77,0,0,1,2.74-1.33,12.39,12.39,0,0,1,5.59-.3,8.63,8.63,0,0,1,2.87,1,8.45,8.45,0,0,1-2.74,1.33,11.64,11.64,0,0,1-2.78.47,12.22,12.22,0,0,1-2.82-.17A8.66,8.66,0,0,1,199.11,260.39Z"/><path class="cls-34" d="M199.11,263.73a8.52,8.52,0,0,1,2.74-1.32,12.65,12.65,0,0,1,2.78-.48,12.1,12.1,0,0,1,2.81.17,8.66,8.66,0,0,1,2.87,1,8.65,8.65,0,0,1-2.74,1.33,12.42,12.42,0,0,1-5.6.3A8.69,8.69,0,0,1,199.11,263.73Z"/><path class="cls-34" d="M165.67,259a8.66,8.66,0,0,1-2.86,1,12.22,12.22,0,0,1-2.82.17,11.56,11.56,0,0,1-2.78-.47,8.35,8.35,0,0,1-2.74-1.33,8.66,8.66,0,0,1,2.86-1,12.42,12.42,0,0,1,5.6.3A8.87,8.87,0,0,1,165.67,259Z"/><path class="cls-34" d="M165.67,262.36a8.69,8.69,0,0,1-2.86,1,12.22,12.22,0,0,1-2.82.17,12.07,12.07,0,0,1-2.78-.47,8.55,8.55,0,0,1-2.74-1.33,8.69,8.69,0,0,1,2.86-1,12.22,12.22,0,0,1,2.82-.17,12.75,12.75,0,0,1,2.78.48A8.62,8.62,0,0,1,165.67,262.36Z"/><path class="cls-34" d="M203.46,240.83a5.63,5.63,0,0,1-.42-2.16,7.29,7.29,0,0,1,1.06-3.78,5.47,5.47,0,0,1,1.48-1.63,5.64,5.64,0,0,1,.41,2.16,7.08,7.08,0,0,1-.27,2,7.49,7.49,0,0,1-.79,1.82A5.57,5.57,0,0,1,203.46,240.83Z"/><path class="cls-34" d="M199.52,240.83a5.4,5.4,0,0,1-.54-2.1,7,7,0,0,1,.14-1.95,7.33,7.33,0,0,1,.67-1.83,5.58,5.58,0,0,1,1.37-1.69,5.25,5.25,0,0,1,.55,2.1,6.66,6.66,0,0,1-.15,1.95,6.8,6.8,0,0,1-.67,1.84A5.4,5.4,0,0,1,199.52,240.83Z"/><path class="cls-34" d="M161.87,239.91a5.42,5.42,0,0,1-1.29-1.75,7,7,0,0,1-.66-3.82,5.29,5.29,0,0,1,.64-2.08,5.49,5.49,0,0,1,1.29,1.74,7,7,0,0,1,.66,3.83A5.46,5.46,0,0,1,161.87,239.91Z"/><path class="cls-34" d="M165.8,240.11a5.41,5.41,0,0,1-1.19-1.8,7,7,0,0,1-.47-1.88,6.59,6.59,0,0,1,.05-1.93,5.28,5.28,0,0,1,.77-2,5.47,5.47,0,0,1,1.18,1.8,6.67,6.67,0,0,1,.48,1.88,7,7,0,0,1-.06,1.94A5.44,5.44,0,0,1,165.8,240.11Z"/><path class="cls-35" d="M203.2,342.56a5.64,5.64,0,0,0-2.33-5.5"/><path class="cls-36" d="M203.2,342.56c-.74-.64-1.18-1-1.53-1.38a3.21,3.21,0,0,1-.69-.93,3.16,3.16,0,0,1-.18-1.12c0-.49,0-1.07.07-2.07a2.82,2.82,0,0,1,2.36.08,3.13,3.13,0,0,1,1.55,3.67A2.77,2.77,0,0,1,203.2,342.56Z"/><path class="cls-35" d="M197.24,343.31s2.52-3.22-.5-5.54"/><path class="cls-36" d="M197.24,343.31c-.37-.89-.59-1.45-.75-1.9a3.72,3.72,0,0,1-.27-.92,2.79,2.79,0,0,1,.2-.77,10.77,10.77,0,0,0,.32-2,2.4,2.4,0,0,1,2.39.36,2.86,2.86,0,0,1,1.08,2.19,3,3,0,0,1-.77,2.14A2.71,2.71,0,0,1,197.24,343.31Z"/><path class="cls-34" d="M197,301.51c2.23-.7,4.38-1.55,6.52-2.44s4.24-1.86,6.33-2.84,4.15-2,6.18-3.15c.73-.39,1.46-.79,2.18-1.21,0-.33,0-.65,0-1-.9.35-1.8.72-2.69,1.09-2.14.89-4.24,1.86-6.33,2.84s-4.15,2-6.19,3.15S198.93,300.22,197,301.51Z"/><path class="cls-34" d="M197,315.26c2.52-.77,5-1.68,7.43-2.64s4.85-2,7.25-3c1.58-.71,3.16-1.44,4.72-2.18.14-.56.27-1.13.39-1.69-1.93.78-3.84,1.61-5.74,2.44-2.39,1.08-4.77,2.17-7.12,3.35S199.24,313.9,197,315.26Z"/><path class="cls-34" d="M156.25,292.72l1.25.69c2,1.11,4.11,2.14,6.19,3.15s4.19,1.95,6.33,2.84,4.29,1.74,6.51,2.44c-1.94-1.29-3.95-2.44-6-3.54s-4.1-2.14-6.18-3.15-4.19-1.95-6.33-2.84l-1.66-.68C156.32,292,156.28,292.35,156.25,292.72Z"/><path class="cls-34" d="M157.89,306.52c.19.67.39,1.3.59,1.85l3.38,1.55c2.4,1.05,4.8,2.08,7.25,3s4.9,1.87,7.42,2.64c-2.26-1.36-4.58-2.58-6.93-3.75s-4.72-2.27-7.11-3.35Q160.2,307.49,157.89,306.52Z"/><path class="cls-37" d="M186.29,178.4c-.69-.09-1.4-.16-2.11-.21s-1.61,0-2.42.11l-.71.06.06-.71c.2-2.25,1.66-3.27,2.92-3.27s2.77,1.06,2.94,3.39l.05.73Z"/><path d="M184,175c1.11,0,2.21.95,2.34,2.84-.7-.09-1.42-.17-2.15-.21s-1.69,0-2.52.1c.17-1.82,1.25-2.73,2.33-2.73m0-1.19c-1.52,0-3.28,1.19-3.51,3.82l-.13,1.42,1.42-.13c.78-.07,1.56-.1,2.37-.1s1.37.11,2,.2l1.45.2-.1-1.46c-.19-2.72-2-3.95-3.53-3.95Z"/><path class="cls-37" d="M133.11,277.35,126.42,276l2.9-7.3-1.32-.4,1-2.25,2.19-5.05-1.42-.39,2.44-6.06-5.55-3-.39-38.44.83.33c7.44,3,13.09,4.74,17.75,5.39l1.71-2.37,0-.13c7.36-25.16,18.83-38,35.08-39.19.84-.08,1.68-.11,2.56-.11s1.52.12,2.23.22c17.61,2.16,28.57,15.25,33.49,40,0,.06,0,.14.05.23l2.11,2.1,17-6v37.62l-5.16,3.19,2.48,7.13-.78,0-.51.06-.23,0,1.7,3.86.75,1.73-1.39.7,3.39,8.3-.79.09a123.66,123.66,0,0,1-13.25.82,65.14,65.14,0,0,1-7.1-.36l-.53-.06v-6.21H216.2l-.15-2.36-.44-6.17-.89-.68-.24-1.14-1.21-5.61-5.67-26.29a78.21,78.21,0,0,1-24.15,4.22,72.47,72.47,0,0,1-24.95-4.67l-7.39,31.7v2.73l-1,1.06-.77,6.09v.34l-.29.11-.66.38-.71,7.16Z"/><path d="M184.22,177.6c.73,0,1.45.12,2.15.21,18.58,2.28,28.51,17,33,39.54,0,.13.06.27.09.4l2.35,2.34.15.16,16.56-5.88v36.45l-5.18,3.2h0l-.09.05,1.74,5,.65,1.85a5.14,5.14,0,0,0-.55.06l-1,.12,2,4.6.53,1.21-1.33.67-.06,0,2.57,6.27.74,1.81a122.65,122.65,0,0,1-13.2.82,66.11,66.11,0,0,1-7-.35v-6.28h-1.52l-.12-1.8-.45-6.45-.07-.05-.86-.65-.19-.92,0-.09-1.19-5.52-5.8-26.94c-7.65,2.49-15.62,4.39-24.6,4.39A72.38,72.38,0,0,1,158.07,227l-6.38,27.35-1.18,5.07V262l-.95,1v.13l-.52,4.06-.26,2.07v0l-.92.52-.54,5.41-.15,1.53h-14l-5.93-1.19.65-1.64,2.22-5.59-1.3-.39.72-1.64,2.44-5.65,0,0-1.44-.4.58-1.42,1.79-4.44,0-.07-5.7-3.14,0-4.68-.28-26.79-.06-5.72c6.64,2.7,12.87,4.77,18.22,5.46h0l2-2.73a1.52,1.52,0,0,1,.06-.2c6.61-22.62,17.15-37.51,34.55-38.8.83-.07,1.66-.1,2.52-.1m0-1.2h0c-.88,0-1.77,0-2.62.11-16.51,1.23-28.16,14.2-35.6,39.65h0l-1.44,2c-4.54-.68-10.05-2.37-17.26-5.3l-1.66-.67,0,1.79.06,5.72.27,26.8.05,4.68v.69l.61.34,4.78,2.63L130,258.37l-.57,1.42L129,261l1.29.36.11,0-1.92,4.42-.71,1.63-.54,1.23,1.29.39.05,0-1.74,4.38-.65,1.64-.53,1.33,1.4.28,5.94,1.19.11,0h15.19l.11-1.07.15-1.53.48-4.8.38-.22.6-.34v-.63l.26-2,.48-3.82.69-.75.32-.35v-2.89l1.15-4.94,6.07-26A72.62,72.62,0,0,0,183.45,233a78.23,78.23,0,0,0,23.71-4l5.52,25.65,1.2,5.53v.11l.18.88.09.44.35.27.51.38.41,5.9.12,1.8.08,1.11h1.43v6.16l1.07.12a66.1,66.1,0,0,0,7.15.36,122.71,122.71,0,0,0,13.33-.83l1.57-.17-.6-1.47-.74-1.81-2.14-5.24.4-.2,1-.51-.45-1-.52-1.2-1.38-3.13,1.47-.1-.51-1.48-.65-1.85-1.42-4.09,4.47-2.76.56-.35v-38.8l-1.59.57-15.85,5.62-1.71-1.71a.24.24,0,0,1,0-.08c-5-25-16.1-38.26-34-40.45-.72-.1-1.47-.18-2.22-.23Z"/><path class="cls-38" d="M212.52,225.71c8.69-.26,17.34-2.78,26-5.87v-5.47l-16.56,5.88-.15-.16A44.13,44.13,0,0,1,212.52,225.71Z"/><path class="cls-38" d="M213.85,254.4l1.19,5.52A99.47,99.47,0,0,0,233.3,254h0l5.18-3.2v-4.07C230.13,250.33,221.84,253.41,213.85,254.4Z"/><circle class="cls-39" cx="224.92" cy="237.95" r="6.62"/><circle class="cls-39" cx="141.62" cy="237.12" r="6.62"/><path class="cls-40" d="M127.24,251.16l5.7,3.14,0,.07a68.18,68.18,0,0,0,17.59,5l1.18-5.07c-8-1.51-16.05-3.34-24.5-7.86Z"/><path class="cls-38" d="M126.85,214l.06,5.72A78.9,78.9,0,0,0,155.34,226c-4.33-2.26-8.22-4.49-10.27-6.57C139.72,218.74,133.49,216.67,126.85,214Z"/><path class="cls-41" d="M217.81,171c-1.26-4.24-2.58-8.41-10-6.63,2.53-5.27,6.16-7.26,11.68-3.66,3.59-7.71,8.55-8.84,14.56-5-2.67,1.3-5.19,2.88-4.19,11.51.67,11.09,1.62,22.62-1,28.5-2.21,5.4-5.36,10.51-13.6,14-9.13,3-19.6,6-23.27,9.15l-17.44-.43a149.63,149.63,0,0,0-24.87-9.78c-4.8-3.27-10-4.58-12.61-19.25a132.26,132.26,0,0,1,2.09-19c.07-4.14-.33-8.08-4.71-10.37,5.54-3.21,10.61-2.9,14.65,5.23,4.49-2.93,8.6-2.27,12.19,3.57-5.36-.82-9.89.1-10.71,8.73-1.38,9.1-.41,16,4.52,19.17,13.69,8.22,23.23,8.9,28.34,1.57,6.17,7.73,15.74,6.78,28.58-2.47C216.34,191.92,219.45,185.79,217.81,171Z"/><path class="cls-42" d="M132,260.63l0,0a122.78,122.78,0,0,0,17.58,2.49V263l.95-1v-.92a85.9,85.9,0,0,1-19.38-2.25l-.58,1.42Z"/><path class="cls-43" d="M128.81,268c5.61,1.67,12.42,1.94,20,1.33l.26-2.07c-7,.27-13.77.26-19.5-.9Z"/><path class="cls-43" d="M127.24,275.57l5.93,1.19h14l.15-1.53c-7.3.18-14.36.16-19.42-1.3Z"/><path class="cls-44" d="M145.07,219.43c32.64,18.52,62,7.74,76.72.66l-2.35-2.34c0-.13-.05-.27-.09-.4-21.58,3.28-43.9,5.52-72.2-.85a1.52,1.52,0,0,0-.06.2l-2,2.73Z"/><path class="cls-44" d="M215.07,260l.19.92.86.65a120.1,120.1,0,0,0,18.93-.59,5.14,5.14,0,0,1,.55-.06l-.65-1.85A85.8,85.8,0,0,1,215.07,260Z"/><path class="cls-44" d="M216.64,268.08l.12,1.8h1.52a75.6,75.6,0,0,0,16.91-2.28l.06,0,1.33-.67-.53-1.21A91.17,91.17,0,0,1,216.64,268.08Z"/><path class="cls-44" d="M218.28,274.88v1.28a95.21,95.21,0,0,0,20.22-.47l-.74-1.81C234.27,274.92,229.25,275.59,218.28,274.88Z"/><circle class="cls-45" cx="182.98" cy="216.92" r="10"/><path d="M183,207.51a9.41,9.41,0,1,1-9.4,9.41,9.41,9.41,0,0,1,9.4-9.41m0-1.19a10.6,10.6,0,1,0,10.6,10.6,10.62,10.62,0,0,0-10.6-10.6Z"/><circle class="cls-38" cx="182.98" cy="216.92" r="6.75"/><path d="M182.15,219.49a6.56,6.56,0,0,1-.89-.11c-.22,0-.45-.08-.67-.14a4.88,4.88,0,0,1-.91-.31,4,4,0,0,1-1.24-.79,2.19,2.19,0,0,1-.54-.77,1.64,1.64,0,0,1-.1-.93,1.74,1.74,0,0,1,.28-.69,2.9,2.9,0,0,1,.79-.77,5,5,0,0,1,1.16-.58,6.94,6.94,0,0,1,1.36-.34,8.46,8.46,0,0,1,.88-.08,6.62,6.62,0,0,1,1.09,0c.26,0,.51.05.76.09a5.75,5.75,0,0,1,.8.18,5,5,0,0,1,1,.37,3.57,3.57,0,0,1,1.16.83,1.92,1.92,0,0,1,.51,1,1.54,1.54,0,0,1,0,.64,2,2,0,0,1-.33.7,3.16,3.16,0,0,1-.81.74,5.74,5.74,0,0,1-1.65.7c-.33.08-.66.14-1,.19a9.82,9.82,0,0,1-1.14.06Zm1.34-.45a6.17,6.17,0,0,0,.86-.14,5.79,5.79,0,0,0,1.45-.5,3.36,3.36,0,0,0,.77-.52,2,2,0,0,0,.5-.69,1.26,1.26,0,0,0,0-1,1.94,1.94,0,0,0-.52-.65,3.49,3.49,0,0,0-1-.6,5.48,5.48,0,0,0-.86-.3,7.17,7.17,0,0,0-.9-.18,8,8,0,0,0-1.38-.07,7,7,0,0,0-.92.08,6.48,6.48,0,0,0-1.62.44,3.81,3.81,0,0,0-1.09.67,1.86,1.86,0,0,0-.49.69,1.23,1.23,0,0,0,.07,1.06,2,2,0,0,0,.5.61,4.12,4.12,0,0,0,1,.61,5.78,5.78,0,0,0,.89.29,7.91,7.91,0,0,0,.82.16c.36,0,.72.06,1.21.07Z"/><path d="M179,216l0,0,.09,0,.5.08.13,0a.2.2,0,0,1,.13.15l.09.28a0,0,0,0,0,0,0,.08.08,0,0,0,0,0s0,0,0,0l.06-.22,0-.1a.24.24,0,0,1,.23-.18l.46,0a4.32,4.32,0,0,1,.88,0l.72.08.7.1a.52.52,0,0,1,.46.38c.05.15.09.31.13.47l.12.43s0,0,0,0,0,0,0,0a.32.32,0,0,0,0-.09l.15-.61a2,2,0,0,1,.12-.34.47.47,0,0,1,.31-.24l.41-.07.51-.07.51-.07.47-.06h0a0,0,0,0,0,0,0v0l-.06,0-.61-.08-.67-.09-.38-.05a1.33,1.33,0,0,1-.34-.1.39.39,0,0,1-.19-.19l-.17-.42c0-.11-.07-.23-.11-.34a0,0,0,0,0,0,0s0,0,0,0a0,0,0,0,0,0,0l-.12.34c0,.12-.08.25-.13.37a.55.55,0,0,1-.38.31,4.5,4.5,0,0,1-.51.08l-.46.06-.34,0-.48.05a2.21,2.21,0,0,1-.68,0,1.9,1.9,0,0,1-.25,0,.47.47,0,0,1-.17,0,.25.25,0,0,1-.19-.17l-.08-.21s0-.06,0-.06l0,.05-.09.24a.24.24,0,0,1-.19.16l-.37.06-.26,0Z"/><path d="M179.69,218.18l0,0h.08l.57.08a.25.25,0,0,1,.22.18,1.34,1.34,0,0,0,.07.18,0,0,0,0,0,0,0l0,0,0,0c0-.05,0-.11.05-.16a0,0,0,0,1,0,0,.26.26,0,0,1,.25-.21,3.51,3.51,0,0,1,.55,0l.39,0,.34.06a.27.27,0,0,1,.23.2c0,.1,0,.19.08.29h0l0,0s0,0,0,0a.88.88,0,0,0,.05-.15c0-.07,0-.14.07-.21a.18.18,0,0,1,.12-.12l.24-.05.51-.07,0,0,0,0h0l-.14,0-.34,0-.28,0a.23.23,0,0,1-.16-.14l-.08-.23,0-.06,0,0s0,0,0,0l-.06.15-.06.15a.31.31,0,0,1-.21.14,4.76,4.76,0,0,1-.75.07,3.19,3.19,0,0,1-.53-.06H181a.2.2,0,0,1-.16-.15l-.08-.2a0,0,0,0,0,0,0s0,0,0,0a0,0,0,0,0,0,0,1,1,0,0,0-.06.16.27.27,0,0,1-.25.22l-.57.07-.07,0Z"/><path d="M180.27,217.16l.44.06.33.05a.23.23,0,0,1,.18.15l.09.28a.14.14,0,0,0,0,.07l0,0,0,0,.06-.17.06-.18a.2.2,0,0,1,.18-.16l.35,0,.38-.06s0,0,.05,0l-.05,0L182,217l-.35-.06a.22.22,0,0,1-.19-.18c0-.06,0-.13-.08-.2s0,0,0,0l0,0,0,0a1.46,1.46,0,0,0-.07.19s0,.05,0,.08a.27.27,0,0,1-.22.16,3.21,3.21,0,0,1-.76.07,2,2,0,0,1-.34,0,.35.35,0,0,1-.14,0,.23.23,0,0,1-.18-.16,1.3,1.3,0,0,0-.08-.17s0,0-.06,0a.59.59,0,0,0-.06.14c0,.09-.09.17-.2.18l-.49.1h-.05l0,0,0,0,.13,0,.38.06a.28.28,0,0,1,.22.19l.06.21,0,0a.1.1,0,0,0,0,0,1.18,1.18,0,0,0,.07-.2.23.23,0,0,1,.21-.19Z"/><path d="M376.24,179.2a31,31,0,0,1-4.92,0c-1.62-.13-3.23-.32-4.83-.59s-3.18-.62-4.75-1a30.87,30.87,0,0,1-4.66-1.59A29.89,29.89,0,0,1,362,176c1.62.13,3.23.32,4.83.59s3.18.62,4.75,1A30.1,30.1,0,0,1,376.24,179.2Z"/><path d="M376.23,184.43a29.88,29.88,0,0,1-4.92-.05c-1.62-.12-3.23-.32-4.83-.59s-3.18-.62-4.76-1a31.2,31.2,0,0,1-4.66-1.58,30,30,0,0,1,4.93,0c1.62.13,3.23.32,4.82.6s3.18.61,4.76,1A31.2,31.2,0,0,1,376.23,184.43Z"/><path d="M426.81,179.2a30.1,30.1,0,0,1,4.66-1.58c1.58-.42,3.16-.77,4.76-1s3.2-.46,4.83-.59a29.88,29.88,0,0,1,4.92-.05,31.25,31.25,0,0,1-4.66,1.59c-1.58.41-3.16.76-4.76,1s-3.2.46-4.83.59A31,31,0,0,1,426.81,179.2Z"/><path d="M426.83,184.43a30.82,30.82,0,0,1,4.66-1.58c1.57-.42,3.15-.76,4.75-1s3.21-.47,4.83-.6a29.89,29.89,0,0,1,4.92,0,31.2,31.2,0,0,1-4.66,1.58c-1.57.41-3.16.76-4.75,1s-3.21.47-4.83.59A29.89,29.89,0,0,1,426.83,184.43Z"/></g></svg>