<svg xmlns="http://www.w3.org/2000/svg" xmlns:xlink="http://www.w3.org/1999/xlink" viewBox="0 0 650 350"><defs><style>.cls-1{mask:url(#mask);}.cls-2{fill:#ac8453;}.cls-3{fill:#8e6b44;}.cls-4,.cls-5{fill:#f2b544;}.cls-21,.cls-29,.cls-30,.cls-31,.cls-32,.cls-5{stroke:#000;}.cls-17,.cls-21,.cls-29,.cls-30,.cls-31,.cls-32,.cls-5{stroke-miterlimit:10;}.cls-5{stroke-width:3px;}.cls-6{fill:url(#linear-gradient);}.cls-7{fill:url(#linear-gradient-2);}.cls-8{fill:#f5a874;}.cls-9{fill:#f9c8a0;}.cls-10{fill:url(#linear-gradient-3);}.cls-11{fill:#f6a874;}.cls-12{fill:#d28556;}.cls-13{fill:url(#linear-gradient-4);}.cls-14{fill:#f5a877;}.cls-15{fill:url(#linear-gradient-5);}.cls-16{opacity:0.6;}.cls-17{fill:#3c2926;stroke:#3c2926;}.cls-18{fill:#fff;}.cls-19{fill:#3851ff;}.cls-20{fill:url(#linear-gradient-6);}.cls-22{fill:#fefef2;}.cls-23{fill:url(#linear-gradient-7);}.cls-24{fill:#d8644e;}.cls-25{opacity:0.07;}.cls-26{fill:#924335;}.cls-27{fill:#fed6b8;}.cls-28{fill:#99641d;}.cls-29,.cls-30,.cls-31{fill:none;}.cls-30{stroke-dasharray:0.01 0;}.cls-31{stroke-dasharray:4.06 2.02 0.01 0;}.cls-32{stroke-width:4px;}</style><mask id="mask" x="21.66" y="1134.02" width="282.74" height="282.74" maskUnits="userSpaceOnUse"/><linearGradient id="linear-gradient" x1="334.6" y1="219.6" x2="324.67" y2="306.06" gradientUnits="userSpaceOnUse"><stop offset="0" stop-color="#f8a875"/><stop offset="1" stop-color="#f9c8a0"/></linearGradient><linearGradient id="linear-gradient-2" x1="332.16" y1="228.6" x2="333.24" y2="280.13" gradientUnits="userSpaceOnUse"><stop offset="0" stop-color="#e8a577"/><stop offset="1" stop-color="#f9c8a0"/></linearGradient><linearGradient id="linear-gradient-3" x1="351.2" y1="146.2" x2="327.98" y2="188.99" xlink:href="#linear-gradient"/><linearGradient id="linear-gradient-4" x1="362.39" y1="197.73" x2="292.28" y2="207.86" gradientUnits="userSpaceOnUse"><stop offset="0" stop-color="#f5a877"/><stop offset="1" stop-color="#f9c8a0"/></linearGradient><linearGradient id="linear-gradient-5" x1="282.54" y1="162.45" x2="298.11" y2="193" xlink:href="#linear-gradient-4"/><linearGradient id="linear-gradient-6" x1="338.13" y1="172.52" x2="338.38" y2="167.14" gradientUnits="userSpaceOnUse"><stop offset="0" stop-color="#5193f4"/><stop offset="1" stop-color="#3851ff" stop-opacity="0.85"/></linearGradient><linearGradient id="linear-gradient-7" x1="287.95" y1="172.69" x2="288.2" y2="167.26" gradientUnits="userSpaceOnUse"><stop offset="0" stop-color="#5193f4"/><stop offset="1" stop-color="#3851ff" stop-opacity="0.88"/></linearGradient></defs><g id="PAWEŁ_WOJTKIEWICZ_-_LANDSCAPE" data-name="PAWEŁ WOJTKIEWICZ - LANDSCAPE"><rect width="650" height="352.65"/><polygon class="cls-2" points="-3.57 207.74 -3.57 179.8 652.7 176.27 652.7 207.74 -3.57 207.74"/><path d="M652.2,176.77v30.47H-3.07v-27l655.27-3.52m1-1h-1L-3.07,179.29h-1v28.94H653.2V175.77Z"/><path class="cls-3" d="M652.2,176.78-3.07,180.29v6.35l26.43,1.3,57.16.46s66.59.23,67.06,0,55.22-1.56,55.22-1.56l63.18-.12,40.54.6,44.14-2h72l64.15-1.45,61-1.91,36.83.9h35.82l31.72.18Z"/><path class="cls-3" d="M652.2,200.74l-28.39-1.4-57.18-.46s-66.61-.23-67.08,0-55.24,1.56-55.24,1.56l-63.21.12-40.55-.6-44.16,2h-72l-64.17,1.45-61.06,1.91-36.84-.9H26.48l-29.55-.17v3H604.1l48.1-.26Z"/><circle cx="27.96" cy="197.87" r="1.23"/><circle cx="468.73" cy="194.34" r="1.23"/><path d="M125,194.29c7.87-.83,15.75-1.4,23.63-1.93s15.77-.94,23.65-1.32c3.95-.22,7.9-.17,11.84-.13s7.9.07,11.85.2l11.85.32c3.95.19,7.89.3,11.84.57-4,.26-7.89.37-11.84.56l-11.83.32c-3.94.13-7.88.14-11.83.2s-7.88,0-11.82.26c-7.88.32-15.76.64-23.65.78S132.93,194.41,125,194.29Z"/><path d="M541.19,189.19c7.86.83,15.74,1.4,23.62,1.93s15.77.94,23.65,1.31c3.95.23,7.9.18,11.85.14s7.89-.07,11.84-.2l11.85-.32c4-.19,7.89-.31,11.84-.57-4-.26-7.89-.37-11.83-.56l-11.84-.32c-3.94-.13-7.88-.14-11.82-.21s-7.89,0-11.83-.26c-7.88-.31-15.76-.63-23.65-.77S549.09,189.07,541.19,189.19Z"/><path d="M140.21,188.51a18.06,18.06,0,0,1,9.08,0,16.44,16.44,0,0,1-4.54.57A16.82,16.82,0,0,1,140.21,188.51Z"/><path d="M342.41,192c13.55-.83,27.12-1.35,40.67-2,13.57-.48,27.13-1.12,40.7-1.45-13.55.83-27.11,1.34-40.67,2C369.54,191,356,191.66,342.41,192Z"/><polygon class="cls-2" points="-3.57 86.91 -3.57 58.83 652.7 55.49 652.7 86.91 -3.57 86.91"/><path d="M652.2,56V86.41H-3.07V59.33L652.2,56m1-1h-1L-3.07,58.33h-1V87.41H653.2V55Z"/><path class="cls-3" d="M652.2,56-3.07,59.33v7.73l1.09,0,60.19.46s70.12.23,70.62,0S187,66,187,66l66.53-.12,42.69.6,46.49-1.95h75.79L486,63.09l64.27-1.92,38.78.9h37.72l25.41.14Z"/><path class="cls-3" d="M652.2,79.46l-19.5-.95-57.86-.46s-67.41-.23-67.88,0-55.9,1.56-55.9,1.56l-64,.12-41-.6-44.69,2H228.52l-64.93,1.45L101.8,84.45l-37.28-.9H28.26l-31.33-.18v3H612.76l39.44-.21Z"/><circle cx="29.36" cy="77.04" r="1.23"/><path d="M126.43,73.46c7.86-.83,15.74-1.4,23.62-1.93s15.77-.94,23.66-1.32c3.94-.22,7.89-.17,11.84-.13s7.9.07,11.85.2l11.84.32c3.95.19,7.9.3,11.84.57-3.94.26-7.89.37-11.83.56l-11.83.32c-3.95.13-7.89.14-11.83.21s-7.89,0-11.83.25c-7.88.32-15.76.64-23.65.78S134.33,73.58,126.43,73.46Z"/><path d="M141.62,67.68a18,18,0,0,1,9.07,0,16.37,16.37,0,0,1-4.53.57A16.77,16.77,0,0,1,141.62,67.68Z"/><path d="M343.81,71.17c13.56-.83,27.12-1.35,40.68-2,13.56-.48,27.12-1.12,40.7-1.45-13.56.83-27.12,1.35-40.68,2C371,70.19,357.39,70.83,343.81,71.17Z"/><polygon class="cls-2" points="-3.57 56.43 -3.57 33.59 652.7 30.87 652.7 56.43 -3.57 56.43"/><path d="M652.2,31.37V55.93H-3.07V34.09L652.2,31.37m1-1h-1L-3.07,33.09h-1V56.93H653.2V30.37Z"/><path class="cls-3" d="M652.2,31.37-3.07,34.09v6l6,.23,59.75.37s69.61.19,70.1,0,57.72-1.26,57.72-1.26l66-.09,42.37.48L345,38.27h75.24l67.06-1.17,63.8-1.54,38.49.72h37.45l25.13.11Z"/><path class="cls-3" d="M652.2,50.34l-20.62-.79-59.88-.37s-69.75-.19-70.24,0-57.85,1.26-57.85,1.26l-66.18.1L335,50.05l-46.25,1.58H213.33l-67.2,1.17L82.19,54.35l-38.57-.73H6.09l-9.16,0v2.35h614l41.26-.18Z"/><ellipse cx="185.98" cy="43.62" rx="1.23" ry="1"/><ellipse cx="324.21" cy="44.97" rx="1.23" ry="1"/><path d="M64.11,47.8c7.87-.7,15.75-1.18,23.64-1.63s15.77-.72,23.65-1.09c3.95-.17,7.9-.1,11.84-.07s7.9,0,11.85.15c7.89.17,15.78.37,23.67.8-7.89.43-15.77.62-23.66.79s-15.78,0-23.66.4c-7.88.19-15.76.49-23.65.6S72,48,64.11,47.8Z"/><path d="M458.35,44.59C466.22,43.88,474.1,43.4,482,43s15.78-.72,23.66-1.08c3.95-.18,7.89-.1,11.84-.07s7.9,0,11.84.14c7.9.17,15.79.37,23.68.8-7.89.43-15.77.63-23.66.79s-15.78,0-23.66.4c-7.88.2-15.76.49-23.65.6S466.25,44.73,458.35,44.59Z"/><path d="M79.3,43.14a20.08,20.08,0,0,1,9.08,0,19.06,19.06,0,0,1-4.54.52A19.47,19.47,0,0,1,79.3,43.14Z"/><path d="M233.09,46c13.55-.69,27.12-1.11,40.68-1.67,13.56-.38,27.12-.9,40.69-1.15-13.55.69-27.12,1.11-40.68,1.67C260.22,45.25,246.66,45.78,233.09,46Z"/><polygon class="cls-2" points="-3.57 32.1 -3.57 -3.94 652.7 -0.07 652.7 32.1 -3.57 32.1"/><path d="M-3.07-3.44,652.2.42V31.6H-3.07v-35m-1-1v37H653.2V-.57h-1L-3.06-4.44Z"/><path class="cls-3" d="M652.2.43-3.07-3.44v7L7.65,3.5H45.27l38.67-1L148,4.67,215.4,6.34H291L337.35,8.6l42.57-.69,66.34.14s57.46,1.54,58,1.8,70.42,0,70.42,0l60-.53,17.5-1Z"/><path class="cls-3" d="M652.2,28.17l-21.07.14H593.45l-38.73,1-64.2-2.2-67.47-1.68h-75.7L300.92,23.2l-42.64.69-66.45-.13S134.28,22.22,133.75,22s-70.53,0-70.53,0L3.1,22.48l-6.17.34v8.62l26.89.16H652.2Z"/><ellipse cx="211.16" cy="14" rx="1.23" ry="1.42"/><path d="M333,20c-3.95.08-7.9,0-11.85,0l-11.83-.26c-7.89-.17-15.77-.55-23.65-.92-3.94-.3-7.88-.26-11.82-.29S266,18.43,262,18.29l-11.83-.35c-4-.2-7.89-.32-11.84-.6,3.95-.28,7.89-.4,11.84-.61l11.85-.34c3.95-.14,7.9-.15,11.85-.22s7.91-.1,11.85.16c7.89.44,15.77.87,23.65,1.5l11.82,1C325.16,19.18,329.1,19.5,333,20Z"/><path d="M624.65,18.11c-4-.08-7.9,0-11.85,0L601,18.37c-7.88.18-15.76.55-23.64.92-3.94.3-7.88.26-11.83.29s-7.88.08-11.83.22l-11.83.35c-3.94.2-7.89.32-11.83.6,3.94.28,7.89.4,11.84.61l11.85.34c3.95.14,7.9.15,11.85.22s7.9.1,11.85-.16c7.88-.43,15.77-.87,23.65-1.5l11.81-1C616.79,18.91,620.72,18.59,624.65,18.11Z"/><path d="M317.84,13.31a12.39,12.39,0,0,1-2.27.47,17.42,17.42,0,0,1-2.27.15,17.19,17.19,0,0,1-2.27-.15,10.66,10.66,0,0,1-2.27-.47,11.34,11.34,0,0,1,2.27-.48,17.19,17.19,0,0,1,2.27-.14,17.42,17.42,0,0,1,2.27.15A10.92,10.92,0,0,1,317.84,13.31Z"/><path d="M413,18.07a11.64,11.64,0,0,1-2.27.48,17.4,17.4,0,0,1-2.27.14,17.19,17.19,0,0,1-2.27-.14,11.34,11.34,0,0,1-2.27-.48,12.06,12.06,0,0,1,2.27-.47,17.19,17.19,0,0,1,2.27-.14,17.4,17.4,0,0,1,2.27.14A12.39,12.39,0,0,1,413,18.07Z"/><path d="M164.05,17.44c-13.58-.41-27.14-1.15-40.71-1.71-13.55-.78-27.12-1.38-40.67-2.32,13.58.41,27.14,1.14,40.7,1.71C136.93,15.9,150.5,16.5,164.05,17.44Z"/><polygon class="cls-2" points="-3.57 146.75 -3.57 115.28 652.7 118.79 652.7 146.75 -3.57 146.75"/><path d="M-3.07,115.79l655.27,3.5v27H-3.07V115.79m-1-1v32.47H653.2v-29h-1l-655.26-3.5Z"/><path class="cls-3" d="M652.2,119.29l-655.27-3.5v6.31l32.36-.19h36l37-.9,61.29,1.92,64.41,1.45h72.26l44.33,2,40.7-.6,63.44.12s54.94,1.33,55.44,1.56,67.34,0,67.34,0l57.39-.46,23.37-1.15Z"/><path class="cls-3" d="M652.2,143.23l-27.77.16h-36l-37,.9-61.29-1.91-64.41-1.45H353.52l-44.33-2-40.7.6-63.43-.12s-54.94-1.33-55.45-1.56-67.33,0-67.33,0l-57.39.46-28,1.38V146l47.74.26H652.2Z"/><circle cx="234.46" cy="131" r="1.23"/><path d="M356.32,136.19c-7.9.12-15.79,0-23.68-.17s-15.77-.46-23.65-.78c-3.94-.26-7.88-.22-11.83-.26s-7.88-.07-11.83-.2l-11.83-.32c-3.94-.19-7.88-.3-11.83-.57,3.95-.26,7.89-.37,11.84-.56l11.85-.32c3.95-.13,7.89-.14,11.84-.2s7.9-.1,11.85.13c7.88.38,15.77.76,23.65,1.32S348.46,135.36,356.32,136.19Z"/><path d="M341.14,130.41a16.87,16.87,0,0,1-4.54.57,16.39,16.39,0,0,1-4.54-.57,16,16,0,0,1,4.54-.58A16.5,16.5,0,0,1,341.14,130.41Z"/><path d="M479,132.77a16.79,16.79,0,0,1-4.54.58,16.5,16.5,0,0,1-4.54-.58,18.37,18.37,0,0,1,9.08,0Z"/><path d="M187.35,134c-13.58-.33-27.14-1-40.7-1.46-13.56-.68-27.13-1.2-40.68-2,13.58.34,27.14,1,40.7,1.46C160.23,132.64,173.79,133.15,187.35,134Z"/><path d="M618,138c-13.57-.33-27.13-1-40.7-1.46-13.56-.68-27.12-1.2-40.67-2,13.57.34,27.13,1,40.7,1.46C590.89,136.63,604.46,137.15,618,138Z"/><polygon class="cls-2" points="-3.57 177.23 -3.57 145.77 652.7 149.29 652.7 175.84 652.48 177.23 -3.57 177.23"/><path d="M-3.07,146.27l655.27,3.52v26.05l-.15.89H-3.07V146.27m-1-1v32.46h657l.14-.84.14-.89,0-.08V148.8h-1L-3.06,145.27Z"/><path class="cls-3" d="M652.2,149.8-3.07,146.27v6.3l30.75-.18H63.45l36.76-.9,61,1.92,64.05,1.45h71.86l44.09,1.95,40.47-.6,63.08.12s54.63,1.33,55.14,1.56,66.95,0,66.95,0l57.07-.46L652.2,156Z"/><path class="cls-3" d="M652.2,173.69l-31.72.18H584.66l-36.83.9-61-1.91-64.15-1.45h-72l-44.15-2-40.53.6-63.18-.11s-54.72-1.34-55.22-1.57-67.06,0-67.06,0l-57.16.46-26.43,1.31v6.34l46.13.25h609l.15-.89Z"/><circle cx="412.97" cy="167.36" r="1.23"/><path d="M315.9,163.78c-7.9.12-15.79,0-23.68-.17s-15.77-.46-23.65-.78c-3.94-.26-7.88-.22-11.83-.25s-7.88-.08-11.83-.21l-11.83-.32c-3.94-.19-7.89-.3-11.83-.56,3.94-.27,7.89-.38,11.84-.57l11.84-.32c3.95-.13,7.9-.14,11.85-.2s7.9-.09,11.84.13c7.89.38,15.78.76,23.66,1.32S308,163,315.9,163.78Z"/><path d="M645.89,170c-7.91.12-15.8,0-23.69-.17s-15.77-.45-23.65-.77c-3.93-.27-7.88-.23-11.82-.26s-7.89-.08-11.83-.21l-11.83-.32c-4-.19-7.89-.3-11.84-.56,3.95-.26,7.9-.38,11.84-.57l11.85-.32c4-.13,7.9-.13,11.85-.2s7.9-.09,11.84.14c7.89.37,15.77.75,23.65,1.31S638,169.13,645.89,170Z"/><path d="M300.71,158a16.75,16.75,0,0,1-4.53.57,16.39,16.39,0,0,1-4.54-.57,18,18,0,0,1,9.07,0Z"/><path d="M98.52,161.49c-13.58-.34-27.14-1-40.7-1.46-13.56-.69-27.12-1.2-40.68-2,13.58.33,27.14,1,40.7,1.45C71.4,160.14,85,160.66,98.52,161.49Z"/><path d="M489.8,165.57c-13.57-.33-27.13-1-40.7-1.46-13.56-.68-27.12-1.2-40.67-2,13.57.34,27.13,1,40.69,1.46C462.68,164.22,476.25,164.74,489.8,165.57Z"/><polygon class="cls-2" points="-3.57 116.27 -3.57 84.81 652.7 88.29 652.7 116.27 -3.57 116.27"/><path d="M-3.07,85.31,652.2,88.79v27H-3.07V85.31m-1-1v32.46H653.2v-29h-1L-3.06,84.31Z"/><path class="cls-3" d="M652.2,88.79-3.07,85.31v6.3l31.2-.18H64.34l37.22-.9,61.7,1.91,64.84,1.45h72.75l44.63,2,41-.6,63.87.12s55.31,1.33,55.81,1.56,67.79,0,67.79,0l57.77-.46,20.51-1Z"/><path class="cls-3" d="M652.2,112.77l-23.94.14H592l-37.28.9-61.79-1.91L428,110.45H355.11l-44.7-2-41,.6-64-.12s-55.39-1.33-55.9-1.56-67.89,0-67.89,0l-57.87.46-26.82,1.31v6.34l46.76.25H652.2Z"/><circle cx="412.97" cy="106.4" r="1.23"/><path d="M315.9,102.81c-7.9.13-15.79,0-23.68-.16s-15.77-.46-23.65-.78c-3.94-.26-7.88-.22-11.83-.26s-7.88-.07-11.83-.2l-11.83-.32c-3.94-.19-7.89-.3-11.83-.57,3.94-.26,7.89-.37,11.84-.56l11.84-.32c3.95-.13,7.9-.14,11.85-.21s7.9-.09,11.84.14c7.89.38,15.78.76,23.66,1.32S308,102,315.9,102.81Z"/><path d="M538,104.55c-7.91.12-15.8,0-23.68-.17s-15.77-.46-23.66-.78c-3.93-.26-7.88-.22-11.82-.25s-7.89-.08-11.83-.21l-11.83-.32c-3.95-.19-7.89-.3-11.84-.56,3.95-.26,7.9-.38,11.85-.57l11.84-.32c3.95-.13,7.9-.14,11.85-.2s7.9-.09,11.84.13c7.89.38,15.78.76,23.66,1.32S530.09,103.72,538,104.55Z"/><path d="M300.71,97a16.75,16.75,0,0,1-4.53.57,16.39,16.39,0,0,1-4.54-.57,16,16,0,0,1,4.54-.58A16.38,16.38,0,0,1,300.71,97Z"/><path d="M611.44,107.63a16.4,16.4,0,0,1-4.54.58,16.13,16.13,0,0,1-4.54-.58,16.48,16.48,0,0,1,4.54-.57A16.77,16.77,0,0,1,611.44,107.63Z"/><path d="M98.52,100.52c-13.58-.33-27.14-1-40.7-1.45-13.56-.69-27.12-1.21-40.68-2,13.58.33,27.14,1,40.7,1.45C71.4,99.18,85,99.7,98.52,100.52Z"/><polygon class="cls-2" points="-3.57 293.31 -3.57 265.24 652.7 261.89 652.7 293.31 -3.57 293.31"/><path d="M652.2,262.39v30.42H-3.07V265.73l655.27-3.34m1-1h-1L-3.07,264.73h-1v29.07H653.2V261.39Z"/><path class="cls-3" d="M652.2,262.39-3.07,265.73v7.74l1.09,0,60.19.46s70.12.23,70.62,0S187,272.41,187,272.41l66.53-.11,42.69.6,46.49-2h75.79L486,269.49l64.27-1.91,38.78.9h37.72l25.41.14Z"/><path class="cls-3" d="M652.2,285.87l-19.5-1-57.86-.46s-67.41-.23-67.88,0-55.9,1.57-55.9,1.57l-64,.11-41-.59-44.69,1.95H228.52l-64.93,1.45-61.79,1.91L64.52,290H28.26l-31.33-.18v3H612.76l39.44-.21Z"/><circle cx="29.36" cy="283.45" r="1.23"/><path d="M126.43,279.86c7.86-.82,15.74-1.39,23.62-1.93s15.77-.93,23.66-1.31c3.94-.23,7.89-.17,11.84-.14s7.9.07,11.85.21l11.84.32c3.95.19,7.9.3,11.84.56-3.94.26-7.89.37-11.83.56l-11.83.33c-3.95.13-7.89.13-11.83.2s-7.89,0-11.83.26c-7.88.32-15.76.64-23.65.78S134.33,280,126.43,279.86Z"/><path d="M141.62,274.08a18.33,18.33,0,0,1,9.07,0,16.38,16.38,0,0,1-4.53.58A16.79,16.79,0,0,1,141.62,274.08Z"/><path d="M343.81,277.57c13.56-.83,27.12-1.35,40.68-2,13.56-.48,27.12-1.13,40.7-1.46-13.56.83-27.12,1.35-40.68,2C371,276.59,357.39,277.24,343.81,277.57Z"/><polygon class="cls-2" points="-3.57 262.83 -3.57 240 652.7 237.28 652.7 262.83 -3.57 262.83"/><path d="M652.2,237.78v24.55H-3.07V240.49l655.27-2.71m1-1h-1L-3.07,239.49h-1v23.83H653.2V236.77Z"/><path class="cls-3" d="M652.2,237.78-3.07,240.49v6l6,.23,59.75.37s69.61.18,70.1,0,57.72-1.27,57.72-1.27l66-.09,42.37.49L345,244.68h75.24l67.06-1.18,63.8-1.54,38.49.73h37.45l25.13.11Z"/><path class="cls-3" d="M652.2,256.74,631.58,256l-59.88-.38s-69.75-.18-70.24,0-57.85,1.27-57.85,1.27l-66.18.09L335,256.46,288.72,258H213.33l-67.2,1.17-63.94,1.54L43.62,260H6.09l-9.16,0v2.34h614l41.26-.17Z"/><ellipse cx="185.98" cy="250.03" rx="1.23" ry="1"/><ellipse cx="324.21" cy="251.38" rx="1.23" ry="1"/><path d="M64.11,254.21c7.87-.71,15.75-1.19,23.64-1.64s15.77-.71,23.65-1.08c3.95-.18,7.9-.1,11.84-.07s7.9,0,11.85.14c7.89.17,15.78.37,23.67.8-7.89.43-15.77.63-23.66.8s-15.78,0-23.66.39c-7.88.2-15.76.5-23.65.61S72,254.35,64.11,254.21Z"/><path d="M458.35,251c7.87-.71,15.75-1.19,23.63-1.63s15.78-.72,23.66-1.09c3.95-.17,7.89-.1,11.84-.07s7.9,0,11.84.15c7.9.16,15.79.36,23.68.79-7.89.43-15.77.63-23.66.8s-15.78,0-23.66.4c-7.88.19-15.76.49-23.65.6S466.25,251.14,458.35,251Z"/><path d="M79.3,249.54a19.45,19.45,0,0,1,4.54-.51,19,19,0,0,1,4.54.51,20.08,20.08,0,0,1-9.08,0Z"/><path d="M233.09,252.43c13.55-.69,27.12-1.1,40.68-1.66,13.56-.38,27.12-.91,40.69-1.16-13.55.7-27.12,1.11-40.68,1.67C260.22,251.66,246.66,252.18,233.09,252.43Z"/><polygon class="cls-2" points="-3.57 238.51 -3.57 202.46 652.7 206.33 652.7 238.51 -3.57 238.51"/><path d="M-3.07,203l655.27,3.86V238H-3.07V203m-1-1v37H653.2V205.83h-1L-3.06,202Z"/><path class="cls-3" d="M652.2,206.83-3.07,203v7l10.72-.07H45.27l38.67-1,64.1,2.2,67.36,1.68H291L337.35,215l42.57-.69,66.34.13s57.46,1.54,58,1.81,70.42,0,70.42,0l60-.53,17.5-.95Z"/><path class="cls-3" d="M652.2,234.58l-21.07.13H593.45l-38.73,1-64.2-2.21-67.47-1.67h-75.7l-46.43-2.26-42.64.69-66.45-.14s-57.55-1.54-58.08-1.8-70.53,0-70.53,0l-60.12.53-6.17.33v8.63l26.89.16H652.2Z"/><ellipse cx="211.16" cy="220.41" rx="1.23" ry="1.42"/><path d="M333,226.39c-3.95.08-7.9,0-11.85,0l-11.83-.26c-7.89-.18-15.77-.55-23.65-.92-3.94-.31-7.88-.26-11.82-.3s-7.89-.08-11.83-.22l-11.83-.34c-4-.21-7.89-.33-11.84-.61,3.95-.28,7.89-.4,11.84-.6l11.85-.35c3.95-.14,7.9-.14,11.85-.22s7.91-.1,11.85.17c7.89.43,15.77.86,23.65,1.49l11.82,1C325.16,225.59,329.1,225.91,333,226.39Z"/><path d="M624.65,224.51c-4-.07-7.9,0-11.85,0l-11.84.26c-7.88.18-15.76.55-23.64.92-3.94.31-7.88.26-11.83.3s-7.88.08-11.83.22l-11.83.34c-3.94.21-7.89.33-11.83.61,3.94.28,7.89.4,11.84.6l11.85.35c3.95.14,7.9.15,11.85.22s7.9.1,11.85-.17c7.88-.43,15.77-.86,23.65-1.49l11.81-.95C616.79,225.31,620.72,225,624.65,224.51Z"/><path d="M317.84,219.71a11.64,11.64,0,0,1-2.27.48,17.4,17.4,0,0,1-2.27.14,17.19,17.19,0,0,1-2.27-.14,11.34,11.34,0,0,1-2.27-.48,12.06,12.06,0,0,1,2.27-.47,17.19,17.19,0,0,1,2.27-.14,17.4,17.4,0,0,1,2.27.14A12.39,12.39,0,0,1,317.84,219.71Z"/><path d="M413,224.48a12.39,12.39,0,0,1-2.27.47,17.42,17.42,0,0,1-2.27.15,19.08,19.08,0,0,1-2.27-.14,11.34,11.34,0,0,1-2.27-.48,11.34,11.34,0,0,1,2.27-.48,19.08,19.08,0,0,1,2.27-.14,17.42,17.42,0,0,1,2.27.15A10.92,10.92,0,0,1,413,224.48Z"/><path d="M164.05,223.84c-13.58-.4-27.14-1.14-40.71-1.7-13.55-.78-27.12-1.39-40.67-2.33,13.58.41,27.14,1.15,40.7,1.71C136.93,222.3,150.5,222.91,164.05,223.84Z"/><polygon class="cls-2" points="-3.57 353.15 -3.57 321.69 652.7 325.2 652.7 353.15 -3.57 353.15"/><path d="M-3.07,322.19l655.27,3.5v27H-3.07V322.19m-1-1v32.46H653.2V324.7h-1l-655.26-3.5Z"/><path class="cls-3" d="M652.2,325.69l-655.27-3.5v6.31l32.36-.18h36l37-.9,61.29,1.91,64.41,1.45h72.26l44.33,2,40.7-.6,63.44.11s54.94,1.34,55.44,1.57,67.34,0,67.34,0l57.39-.46,23.37-1.15Z"/><path class="cls-3" d="M652.2,349.64l-27.77.16h-36l-37,.89-61.29-1.91-64.41-1.45H353.52l-44.33-1.95-40.7.59-63.43-.11s-54.94-1.34-55.45-1.57-67.33,0-67.33,0l-57.39.46-28,1.38v6.27l47.74.25H652.2Z"/><circle cx="234.46" cy="337.41" r="1.23"/><path d="M356.32,342.59c-7.9.13-15.79,0-23.68-.17s-15.77-.45-23.65-.77c-3.94-.27-7.88-.23-11.83-.26s-7.88-.07-11.83-.21l-11.83-.32c-3.94-.19-7.88-.3-11.83-.56,3.95-.26,7.89-.37,11.84-.56l11.85-.33c3.95-.13,7.89-.13,11.84-.2s7.9-.09,11.85.14c7.88.38,15.77.75,23.65,1.31S348.46,341.77,356.32,342.59Z"/><path d="M341.14,336.81a18.06,18.06,0,0,1-9.08,0,18.37,18.37,0,0,1,9.08,0Z"/><path d="M479,339.18a18.37,18.37,0,0,1-9.08,0,16.5,16.5,0,0,1,4.54-.58A16.79,16.79,0,0,1,479,339.18Z"/><path d="M187.35,340.39c-13.58-.34-27.14-1-40.7-1.46-13.56-.68-27.13-1.2-40.68-2,13.58.33,27.14,1,40.7,1.46C160.23,339,173.79,339.56,187.35,340.39Z"/><path d="M618,344.39c-13.57-.34-27.13-1-40.7-1.46-13.56-.69-27.12-1.2-40.67-2,13.57.33,27.13,1,40.7,1.45C590.89,343,604.46,343.56,618,344.39Z"/><polygon class="cls-2" points="-3.57 322.67 -3.57 291.21 652.7 294.69 652.7 322.67 -3.57 322.67"/><path d="M-3.07,291.72l655.27,3.47v27H-3.07V291.72m-1-1v32.46H653.2v-29h-1L-3.06,290.72Z"/><path class="cls-3" d="M652.2,295.2-3.07,291.72V298l31.2-.17H64.34l37.22-.9,61.7,1.91,64.84,1.45h72.75l44.63,2,41-.6,63.87.11s55.31,1.34,55.81,1.57,67.79,0,67.79,0l57.77-.46,20.51-1Z"/><path class="cls-3" d="M652.2,319.18l-23.94.14H592l-37.28.89-61.79-1.91L428,316.85H355.11l-44.7-2-41,.59-64-.11S150,314,149.51,313.81s-67.89,0-67.89,0l-57.87.46-26.82,1.31v6.34l46.76.25H652.2Z"/><circle cx="412.97" cy="312.81" r="1.23"/><path d="M315.9,309.22c-7.9.13-15.79,0-23.68-.17s-15.77-.45-23.65-.77c-3.94-.27-7.88-.23-11.83-.26s-7.88-.08-11.83-.21l-11.83-.32c-3.94-.19-7.89-.3-11.83-.56,3.94-.26,7.89-.37,11.84-.57l11.84-.32c3.95-.13,7.9-.13,11.85-.2s7.9-.09,11.84.14c7.89.37,15.78.75,23.66,1.31S308,308.4,315.9,309.22Z"/><path d="M538,311c-7.91.13-15.8,0-23.68-.16s-15.77-.46-23.66-.78c-3.93-.27-7.88-.23-11.82-.26s-7.89-.07-11.83-.2l-11.83-.33c-3.95-.19-7.89-.3-11.84-.56,3.95-.26,7.9-.37,11.85-.56l11.84-.32c3.95-.14,7.9-.14,11.85-.21s7.9-.09,11.84.14c7.89.38,15.78.75,23.66,1.31S530.09,310.13,538,311Z"/><path d="M300.71,303.44a18,18,0,0,1-9.07,0,18,18,0,0,1,9.07,0Z"/><path d="M611.44,314a18.37,18.37,0,0,1-9.08,0,16.5,16.5,0,0,1,4.54-.58A16.79,16.79,0,0,1,611.44,314Z"/><path d="M98.52,306.93c-13.58-.34-27.14-1-40.7-1.46-13.56-.68-27.12-1.2-40.68-2,13.58.33,27.14,1,40.7,1.46C71.4,305.58,85,306.1,98.52,306.93Z"/><path class="cls-4" d="M323.7,268.15a53.57,53.57,0,0,1-8,.55Z"/><path d="M323.7,268.15l-8,.55H316a53.46,53.46,0,0,0,7.75-.55Z"/><path class="cls-2" d="M410.08,322.75l-1.69.93-.14.07c-.25.15-.51.28-.76.42l-1,.51c-.87.46-1.75.92-2.63,1.36l-.1,0-.23.11c-2.79,1.4-5.63,2.73-8.5,4l-1.78.76-.66.28c-1.47.62-3,1.21-4.46,1.79s-3.11,1.16-4.68,1.7c-.19.08-.4.14-.6.21A167.83,167.83,0,0,1,363,340.42q-5.24,1.11-10.59,1.89c-1.74.26-3.48.48-5.23.68-4.63.55-9.33.89-14.07,1-1.84.08-3.68.1-5.53.1-2.8,0-5.58-.06-8.34-.2-4.85-.23-9.63-.67-14.37-1.32l-2.12-.29c-2.5-.36-5-.77-7.46-1.25-3.18-.62-6.34-1.31-9.46-2.12-.4-.09-.79-.2-1.18-.3-1.09-.28-2.18-.58-3.27-.89-1.37-.38-2.74-.78-4.1-1.21-1.69-.52-3.38-1.07-5.05-1.64-.2-.07-.4-.13-.59-.21-2.39-.83-4.77-1.72-7.11-2.66l-.74-.3c-.66-.26-1.32-.53-2-.81q-5.4-2.25-10.59-4.88l-2-1-.59-.32-.93-.5-.28-.15,0,0,42.75-.33Z"/><path d="M289.57,322.69,245.5,323l.3.17.81.44.07,0c.21.11.42.23.63.33l0,0,.28.15.93.5.59.32,40.44-.32,118.67-.93.14-.07,1.69-.93.1-.06c.57-.31,1.13-.63,1.69-.95Z"/><path class="cls-3" d="M408.25,323.75c-.25.15-.51.28-.76.42l-1,.51c-.87.46-1.75.92-2.63,1.36l-.1,0-.23.11c-2.79,1.4-5.63,2.73-8.5,4H359.87l-26.29,1.69-24.14-.51-37.62.09-8.08.3c-.66-.26-1.32-.53-2-.81q-5.4-2.25-10.59-4.88l-2-1,40.44-.32Z"/><path d="M343.38,335.9c-3.42.22-6.83.32-10.24.48l-10.24.28c-3.41.12-6.82.12-10.23.18s-6.82,0-10.23.22c-6.82.28-13.64.56-20.46.68h-.65c-1.37-.38-2.74-.78-4.1-1.21,1.56-.12,3.13-.22,4.69-.33,6.82-.48,13.65-.81,20.47-1.14,3.41-.19,6.83-.15,10.25-.12s6.83.07,10.25.18l10.24.28C336.55,335.57,340,335.67,343.38,335.9Z"/><path d="M274.63,332.88a15.66,15.66,0,0,1,7.85,0,13.91,13.91,0,0,1-3.92.49A14.7,14.7,0,0,1,274.63,332.88Z"/><path class="cls-2" d="M444.29,297.64l-.72.67c-.11.11-.22.22-.34.32l-.44.41-.44.41c-1.13,1-2.27,2.06-3.43,3.05-.95.84-1.9,1.65-2.87,2.44l-1,.8c-1.06.87-2.13,1.73-3.21,2.57q-2.64,2.07-5.38,4c-.68.49-1.36,1-2.05,1.44-1.65,1.17-3.34,2.29-5,3.39l-2.2,1.4-1.52.93h0c-1.26.77-2.53,1.51-3.81,2.25-.56.32-1.12.64-1.69.95l-.1.06-1.69.93H246.68l-.07,0-.81-.44-.3-.17-.62-.34c-2.85-1.59-5.66-3.25-8.4-5l0,0-.34-.23-.44-.28-1-.67L233,315.38c-3-2-6-4.12-8.82-6.34l-.32-.25-.12-.09c-.17-.12-.35-.25-.52-.39q-2.51-1.95-4.94-4L217,303.23l-.85-.73L214.44,301l-1.74-1.57c-.41-.37-.82-.75-1.22-1.14s-.71-.65-1.06-1l-.53-.5c-.17-.16-.34-.32-.51-.5s-.34-.32-.51-.5l64.61.5,128.44,1Z"/><path d="M244.88,322.69l.62.34.3.17.81.44.07,0c.21.11.42.23.63.33l0,0,.28.15.93.5h158l1-.51c.25-.14.51-.27.76-.42l.14-.07,1.69-.93.1-.06Zm156.23-26.38L207.85,294.8c.34.35.68.69,1,1,.17.18.34.35.51.5s.34.34.51.5l64.31.5,128.17,1,40.86.32c.12-.1.23-.21.34-.32l.72-.67.35-.33c.23-.21.45-.43.68-.66Z"/><path class="cls-3" d="M443.23,298.63l-.44.41-.44.41c-1.13,1-2.27,2.06-3.43,3.05-.95.84-1.9,1.65-2.87,2.44l-1,.8c-8.92-.35-18.78-.7-18.78-.7l-37.62-.1-24.15.52-26.29-1.7H285.38l-38.2-1.25L214.44,301l-1.74-1.57c-.41-.37-.82-.75-1.22-1.14s-.71-.65-1.06-1l-.53-.5,64.31.5,128.17,1Z"/><path class="cls-3" d="M417.21,318.56l-1.52.93h0c-1.26.77-2.53,1.51-3.81,2.25-.56.32-1.12.64-1.69.95H244.88c-2.85-1.59-5.66-3.25-8.4-5l0,0-.34-.23-.44-.28-1-.67L233,315.38c3.54,0,5.9,0,6,.08.3.19,32.89,1.35,32.89,1.35l37.62.1,24.14-.52,26.29,1.69h42.87Z"/><path d="M426.63,311.48c-6.84.11-13.66,0-20.49-.14s-13.64-.4-20.46-.68c-3.41-.22-6.82-.19-10.23-.22s-6.83-.06-10.24-.18L355,310c-3.41-.17-6.83-.27-10.24-.49,3.41-.23,6.83-.32,10.24-.49l10.25-.28c3.42-.11,6.84-.12,10.25-.17s6.84-.08,10.25.11c6.82.33,13.65.66,20.46,1.14S419.83,310.77,426.63,311.48Z"/><path d="M413.49,306.48a15.66,15.66,0,0,1-7.85,0,15.66,15.66,0,0,1,7.85,0Z"/><path d="M238.55,309.5q-7.22-.18-14.41-.46l-.32-.25-.12-.09Q231.13,309.06,238.55,309.5Z"/><path class="cls-5" d="M182.55,352.65c.5,0,2.24-4.21,2.52-4.8.85-1.77,1.63-3.57,2.38-5.38,2.26-5.48,4.23-11.08,6.84-16.4,2.51-5.16,5.41-10.31,8.18-15.4,1.7-3.12,3.2-6.39,5-9.44,2.5-4.19,6.19-6,10.69-7.44,12.75-4.17,25.76-7.67,38.62-11.47l32-9.47.19-.05c23.67,21.62,49.85,23.08,79.86-6.15l25.57,11,23.8,10.25c3.89,1.67,7.75,3.7,11.71,5.15,5.14,1.88,9.38,2.63,12.39,7.72s4.46,11.12,6.68,16.46c4.31,10.4,9.27,20.5,13.68,30.85l2,4.56Z"/><path class="cls-6" d="M369.88,260.41a12.37,12.37,0,0,1-1.75,4.68c-6.42,10.89-28.54,22.65-44.51,23.07-18.3.49-34.66-17.62-34.66-17.62,1.21-1,1.91-13.47,2.23-21A65.74,65.74,0,0,0,299.08,260c6.35,6.42,6.72,8.54,16.06,8.69h.6a53.57,53.57,0,0,0,8-.55,41.89,41.89,0,0,0,4.89-1h0a25.79,25.79,0,0,0,10.72-5.53c5.55-5.11,13.36-10.81,17.6-17.52a85.54,85.54,0,0,0,11.61-28c.25-1.18.46-2.19.65-3.05-2.65,15.67-2.13,36.28-.89,38.47C369.83,254.23,369.88,260.41,369.88,260.41Z"/><path class="cls-7" d="M371.8,202.59a.88.88,0,0,1-.05.15c0,.1-.07.19-.1.29a56.73,56.73,0,0,0-2.3,9.07c-.05.27-.1.55-.14.82l0,.14c-.19.86-.4,1.87-.65,3.05a85.54,85.54,0,0,1-11.61,28c-4.24,6.71-12.05,12.41-17.6,17.52a25.79,25.79,0,0,1-10.72,5.53h0a41.89,41.89,0,0,1-4.89,1,53.57,53.57,0,0,1-8,.55h-.6c-9.34-.15-9.71-2.27-16.06-8.69a65.74,65.74,0,0,1-7.89-10.49v-.1c0-.31,0-.6,0-.89s0-.4,0-.57h0c.1-2.51.14-4.18.14-4.18l17.39,12.51,25-7.52,30-50.54a26.83,26.83,0,0,1,3.48-2.18,9.49,9.49,0,0,1,3.32-1.11,1.94,1.94,0,0,1,2,.93C373.15,196.9,373.06,199,371.8,202.59Z"/><path class="cls-8" d="M390,168.5c-.15,5.69-.25,12.36-1.56,17.52s-3,12.56-7.69,16.41c-3.86,3.15-7.39,1.87-9,.15a4,4,0,0,1-.39-.46,3,3,0,0,1-.4-.71c-.55-1.39-1-15.4,1.27-25.72,1.17-5.27,3-9.58,5.94-10.75a3.39,3.39,0,0,0,1.12,1.6c.75.49,1.92.46,3.6-1.6C386.34,160.75,390.18,162.8,390,168.5Z"/><path class="cls-9" d="M381.87,158.63c-.43,3.17-1.17,6.05-2.41,7.9a6.71,6.71,0,0,1-.43.58c-4.52,5.4-4.89,22.71-7.08,31.84s-1.17,3.28-3.65,15.12a85.54,85.54,0,0,1-11.61,28,38.25,38.25,0,0,1-4.56,5.72c-4.12,4.32-9.14,8.21-13,11.8a25.79,25.79,0,0,1-10.72,5.53s0,0,0,0a49.17,49.17,0,0,1-13.45,1.55c-9.34-.15-9.71-2.27-16.06-8.69a64.93,64.93,0,0,1-7.5-9.86c-4-6.23-7.77-13.16-10-17.09-3.65-6.36-8-24.15-9.2-28.82-.28-1.12-.68-2.79-1.1-4.82-1.37-6.51-3-16.76-1.82-24.4a39.16,39.16,0,0,0,.31-6.82c-.08-2.84-.35-5.9-.7-8.85-.1-.93-.22-1.84-.34-2.74-.92-6.78-2.1-12.36-2.1-12.36-1.82-10.45,7.14-30.45,7.14-30.45l1.72-3,3.39-6L318,97.15l26.88,1,31,6.64s2.19,7.49,3.36,12.5c.25,1.07.46,2,.59,2.77.37,2.09.92,6.66,1.4,11.06s.89,8.75.93,10.12C382.23,143.06,382.82,151.57,381.87,158.63Z"/><path class="cls-10" d="M359.74,174.44a9.9,9.9,0,0,0-.17-4c-1.2-5-4.19-11.82-10.14-12.21s-24.24.94-26.09,2.71-8,3.91-7.79,6.49a17.16,17.16,0,0,0,2.68,8.26,15.6,15.6,0,0,0,1.17,1.51c2.79,3.1,6.94,4.3,10.79,5.51a33.68,33.68,0,0,0,16.42,1.32,28.33,28.33,0,0,0,7.67-2.53A9.92,9.92,0,0,0,359.74,174.44Z"/><path class="cls-11" d="M382.93,164.94c-1.68,2.06-2.85,2.09-3.6,1.6-1.46,0-2.66,1.42-3.11,2.88s-.54,2.92-1,4.35a16.89,16.89,0,0,1-.65,1.58,1.42,1.42,0,0,1-.08.18,3.51,3.51,0,0,1-.8,1.29c-.64.44-1.09-.44-1.38-1.13-.1-.24-.18-.47-.24-.6a14.07,14.07,0,0,1-.76-2,35.31,35.31,0,0,1-.87-4,85.37,85.37,0,0,1-.95-9.83c-.13-2.91-.18-5.83-.17-8.74,0-.78,0-1.55.11-2.33,0-.36.11-1-.14-1.35s-.63-.17-.93-.21a7.27,7.27,0,0,1-1.23-.26,5.19,5.19,0,0,1-1.61-.85,5,5,0,0,1-1.58-2.31c-.67,3.82-.45,8.65,1.31,10.83,2,2.49,2.05,6.55,2.37,9.58.51,4.78,1.45,9.68,1.74,14.55.29,5.12-.65,9.94-1.52,14.95-.55,3.18-1.47,6.68-1.34,9.94a26.18,26.18,0,0,1-.49,4.23c-2.34,7.8-4.91,15.69-7.29,21.5-5.14,12.57-23.57,30.16-30.31,36.32a25.79,25.79,0,0,0,10.72-5.53c5.55-5.11,13.36-10.81,17.6-17.52a85.54,85.54,0,0,0,11.61-28c.11-.53.21-1,.31-1.48l.27-.18.51-.33c1.29-6,1-3.7,2.4-9.5,1.61,1.72,5.14,3,9-.15,4.72-3.85,6.37-11.25,7.69-16.41s1.41-11.83,1.56-17.52S386.34,160.75,382.93,164.94Z"/><path class="cls-12" d="M371.79,202.58s0,.11,0,.16c-1.38,5.6-1.08,3.43-2.36,9.34q-.09.39-.18.84l0,.14c-.19.86-.4,1.87-.65,3.05a85.54,85.54,0,0,1-11.61,28c-4.24,6.71-12.05,12.41-17.6,17.52a25.79,25.79,0,0,1-10.72,5.53h0a41.89,41.89,0,0,1-4.89,1,53.57,53.57,0,0,1-8,.55h-.6c-9.34-.15-9.71-2.27-16.06-8.69a65.74,65.74,0,0,1-7.89-10.49h0s0-.06,0-.09a8.2,8.2,0,0,0,0-.89c0-.2,0-.4,0-.57l.05.07.08.11.07.09.37.35.18.16,0,0a61.64,61.64,0,0,0,7.06,9.2c6.35,6.42,6.72,8.54,16.06,8.69.76,0,1.51,0,2.27,0a47,47,0,0,0,11.18-1.54s0,0,0,0a25.79,25.79,0,0,0,10.72-5.53c5.55-5.11,13.36-10.81,17.6-17.52a85.54,85.54,0,0,0,11.61-28c.13-.6.24-1.15.35-1.66,1.72-8.12,1.4-5.95,2.52-10.29,0,0,0,0,0-.05a0,0,0,0,1,0,0l0,0Z"/><path class="cls-13" d="M324.92,204c-.18,2.74-2,5.21-7.55,5.62-.38,0-.79,0-1.21.06a13.09,13.09,0,0,1-2.48-1c-2.25-1.28-8.46-.68-10.81-.39s.36,2.24.36,2.24c-1.41.24-6.57-.14-8.92-2.14s.37-2.84,2.74-4.14,3.4.2,11.39-3.65C314.74,197.54,322.1,202,324.92,204Z"/><path class="cls-14" d="M375.89,104.81s2.19,7.49,3.36,12.5l-8-3.25-8.52,4.29s-.31,6.22-.19,11.21a8.8,8.8,0,0,1-3.7-5.61c-2.05-10.52-8.18-10.08-10.37-8.77s-22.35,5.12-37.25,9.06-33.59-3.51-33.59-3.51c-4.53.88-3.51,10.08-3.21,13.59s1.75,14.6-1.32,19.71a9,9,0,0,1-4.33,3.27c-.1-.93-.22-1.84-.34-2.74.82-1.22,1.74-3.87,1.61-9.65-.23-10.15.29-17,1.67-19.58s2-11.31,5.33-13.87c1.4-1.06.12-2-1.85-2.73l3.39-6L318,97.15l26.88,1Z"/><path class="cls-15" d="M300.17,191.65a7.58,7.58,0,0,0-.22-4q-.27-1.32-.51-2.64c-.09-.46-.16-.91-.24-1.36a8.1,8.1,0,0,1-.27-1.16c-.15-.53-.65-2.79-1.33-2.67a5.81,5.81,0,0,0-1.21.63,9.09,9.09,0,0,1-3.9.89,6.64,6.64,0,0,0-2.77.67,6.32,6.32,0,0,0-2.64,2.43,3.41,3.41,0,0,0-.17.33c-1.74-2,4.17-6.29,4.5-6.53-1.84.59-4.87,2.29-7.55,1.49s-4-5.14-7.29-5.11c-4.63,0-1.46-5.54-1.46-5.54,3.88-2.79,8.51-4.68,13.35-4.39a16.69,16.69,0,0,1,9.13,3.37c2.67,2,5,4.83,5.23,8.28a32.43,32.43,0,0,1-1.22,11.38,30.7,30.7,0,0,1-1,3C300.44,191,300.27,191.34,300.17,191.65Z"/><path class="cls-16" d="M277.08,111.46c-3.36,2.56-3.94,11.32-5.33,13.87s-1.9,9.43-1.67,19.58c.13,5.78-.79,8.43-1.61,9.65-.92-6.78-2.1-12.36-2.1-12.36-1.82-10.45,7.14-30.45,7.14-30.45l1.72-3C277.2,109.46,278.48,110.4,277.08,111.46Z"/><path class="cls-16" d="M381.87,158.63c0,.05,0,.1,0,.14A29.79,29.79,0,0,1,381,163a12.5,12.5,0,0,1-1.52,3.51h-.13c-1.46,0-2.66,1.42-3.11,2.88s-.54,2.92-1,4.35a16.89,16.89,0,0,1-.65,1.58,1.42,1.42,0,0,1-.08.18,3.51,3.51,0,0,1-.8,1.29c-.64.44-1.09-.44-1.38-1.13-.1-.24-.18-.47-.24-.6a14.07,14.07,0,0,1-.76-2,35.31,35.31,0,0,1-.87-4,85.37,85.37,0,0,1-.95-9.83c-.13-2.91-.18-5.83-.17-8.74,0-.78,0-1.55.11-2.33,0-.36.11-1-.14-1.35s-.63-.17-.93-.21a7.27,7.27,0,0,1-1.23-.26,5.19,5.19,0,0,1-1.61-.85,5,5,0,0,1-1.58-2.31c0-.14-.1-.29-.14-.44-.77-2.65-.13-5.44-.74-8.09a29.14,29.14,0,0,1-.44-5.1c-.12-5,.19-11.21.19-11.21l8.52-4.29,8,3.25c.25,1.07.46,2,.59,2.77.16.93.36,2.33.57,4,0,.38.1.78.15,1.18s.09.71.13,1.08c.19,1.54.37,3.19.55,4.82.49,4.46.89,8.75.93,10.12,0,.86.18,3.25.23,6.28A78.87,78.87,0,0,1,381.87,158.63Z"/><path class="cls-16" d="M381.85,158.77q-.15,1.11-.36,2.16Q381.7,159.88,381.85,158.77Z"/><path class="cls-16" d="M381.47,161l0-.08Z"/><path class="cls-16" d="M381,163c.19-.64.35-1.31.49-2C381.33,161.71,381.17,162.38,381,163Z"/><path d="M285.84,118.89c7.22,2.26,15.09,1,22.5.31q11.82-1.14,23.49-3.43c4.84-1,9.45-2.91,14.12-4.52a65.92,65.92,0,0,1,7.17-2.46c1.75-.38,4.86-.84,6.17.76.88,1.06.46,2.43.51,3.67a12.9,12.9,0,0,0,2,6,5.54,5.54,0,0,0,4.77,2.72c2.26-.18,4.69-1.53,6.59-2.71,1.09-.68,3.16-1.95,4.51-1.06,2.27,1.5,2.11,1.19,2.09,3.29a17.75,17.75,0,0,0,1.81-7.7c-.11-4-2.22-8.74-2.95-10.07-1.65-3-2.86-6.22-5-9-5-6.45-13.13-8.82-18.68-14.63-3-3.1-8.4-4.4-12.65-4.45a27.27,27.27,0,0,1-6.17-1.26c-2.76-.69-5.5-1.48-8.29-2a43.83,43.83,0,0,0-14-.53c-4.69.58-9.19,2-13.93,2.37-7.82.56-15.19,4.33-21.64,8.56a48.7,48.7,0,0,0-5.1,3.7c-1.24,1.06-2.6,2.15-2.92,3.85a12.13,12.13,0,0,0-.1,2.76c.16,3.8.1,7.57.19,11.33a9,9,0,0,0,4,7.7c3.13,2,5.85,4.49,9.31,6A22.32,22.32,0,0,0,285.84,118.89Z"/><path d="M323.06,164.25c-2.75,1.21-5.41,1.39-5.56-.58a4.17,4.17,0,0,1,1.9-3.8s-1.53,3.31-.18,2.57c0,0,.37-3,1.9-3.48a36.89,36.89,0,0,1,3.65-1.24c1.1-.22,3.07-.95,4.31-1.1a13.31,13.31,0,0,0,4-1.17s-.33.74.58.66c0,0,.29-.76,2-.91s4.2-1.72,7.67-1a24.41,24.41,0,0,1,7.52,2.78c1.68,1,3.54,2.63-.29,2.88s-6.47-1-9.28-.36-4.31.55-7.23,1.2A111.59,111.59,0,0,0,323.06,164.25Z"/><path class="cls-17" d="M348.65,172.58c-.86,0-3,.26-5.24.46a24.8,24.8,0,0,1-5.4.08c-1.32-.23-4.19-.65-6.88-1q-1.5-.19-3-.33c-.54,0-1.07-.1-1.61-.1a7.56,7.56,0,0,0-.83,0,1.73,1.73,0,0,1-.75,0c-.3-.11-.17-.45,0-.66a3.19,3.19,0,0,1,1.14-1,8.66,8.66,0,0,1,1.28-.58c.43-.15.87-.23,1.28-.41a8.66,8.66,0,0,0,1.83-1.21,8.25,8.25,0,0,1,3.86-2.15c2.39-.34,5.5-.54,7.74.29a9.14,9.14,0,0,1,2.64,2c1.73,1.7,3.55,3.79,4.91,3.82C351.67,172,350.31,172.61,348.65,172.58Z"/><path class="cls-18" d="M344.72,168.91a7.12,7.12,0,0,1-1.31,4.13c-1.22.11-2.48.2-3.56.2a10.9,10.9,0,0,1-1.84-.12c-.52-.09-1.29-.21-2.2-.34h0c-1.37-.2-3.05-.44-4.67-.64a7,7,0,0,1-.77-3.22,5.86,5.86,0,0,1,.07-.94,8.25,8.25,0,0,1,3.86-2.15l1.16-.14a16.91,16.91,0,0,1,5.91.22,6.56,6.56,0,0,1,.67.21,9.14,9.14,0,0,1,2.64,2A5,5,0,0,1,344.72,168.91Z"/><path class="cls-19" d="M342.72,169.1a4.41,4.41,0,0,1-2.87,4.14,10.9,10.9,0,0,1-1.84-.12c-.52-.09-1.29-.21-2.2-.34h0a4.4,4.4,0,0,1-1.95-3.67,4.45,4.45,0,0,1,1.6-3.42,16.91,16.91,0,0,1,5.91.22A4.44,4.44,0,0,1,342.72,169.1Z"/><path class="cls-20" d="M341.94,169.15a3.64,3.64,0,0,1-2.37,3.41,9.37,9.37,0,0,1-1.51-.1c-.43-.08-1.07-.18-1.82-.28h0a3.6,3.6,0,0,1-1.61-3,3.65,3.65,0,0,1,1.32-2.82,13.67,13.67,0,0,1,4.87.18A3.68,3.68,0,0,1,341.94,169.15Z"/><circle cx="338.12" cy="168.95" r="1.93"/><circle class="cls-18" cx="338.72" cy="167.94" r="0.23"/><circle class="cls-18" cx="339.88" cy="167.47" r="0.25"/><circle class="cls-18" cx="338.16" cy="168.36" r="0.12"/><path d="M325.43,167.22c2.13-.75,4.15-1.73,6.28-2.54a16.42,16.42,0,0,1,6.78-1.22,15.88,15.88,0,0,1,6.62,1.94,27,27,0,0,1,5.53,4c-1-.56-1.89-1.24-2.89-1.75l-1.46-.83c-.5-.25-1-.47-1.52-.7a17.93,17.93,0,0,0-6.33-1.65,18.77,18.77,0,0,0-6.48,1l-3.22,1A27,27,0,0,1,325.43,167.22Z"/><path class="cls-21" d="M294.47,172.76l-.42-.15a6.31,6.31,0,0,0-3.08-.1,17.47,17.47,0,0,0-2.06.53,6.59,6.59,0,0,1-1.16.3c-.21,0-.59,0-1.08,0-1.73.07-4.8.07-6-.56l-.25-.12-.13-.06-.05,0-.22-.09a2.13,2.13,0,0,0-.75-.1c-.54,0-1,.29-1.67.32s-.07-.85.08-1.07a15.4,15.4,0,0,1,1.38-1.93,6.85,6.85,0,0,1,1.89-1.32,20.58,20.58,0,0,1,1.92-.87l.32-.13,1-.39.48-.17.3-.11.35-.11a2.66,2.66,0,0,1,.49-.1c2-.34,4.31.53,6.1,1.09l.53.16A6.86,6.86,0,0,1,294.7,169h0a11.26,11.26,0,0,1,2.78,3.31C298.63,174.31,297,173.88,294.47,172.76Z"/><path d="M276,170.54a14.68,14.68,0,0,1,4.93-4,14.24,14.24,0,0,1,6.25-1.53,14.71,14.71,0,0,1,1.62.12c.26,0,.54,0,.8.08l.79.19a13.72,13.72,0,0,1,1.56.4c.51.19,1,.39,1.5.59a9.11,9.11,0,0,1,1.43.72l1.4.78c.86.63,1.71,1.28,2.53,1.93l-2.72-1.61-1.42-.68a9.15,9.15,0,0,0-1.44-.61,16.76,16.76,0,0,0-6.05-1.16,14.53,14.53,0,0,0-6,1.3c-.48.2-.93.46-1.4.69s-.9.53-1.33.82A17.26,17.26,0,0,0,276,170.54Z"/><path class="cls-22" d="M294.05,172.61a6.31,6.31,0,0,0-3.08-.1,17.47,17.47,0,0,0-2.06.53,6.59,6.59,0,0,1-1.16.3c-.21,0-.59,0-1.08,0-1.73.07-4.8.07-6-.56l-.25-.12-.13-.06-.05,0-.22-.09c-.63-.76-.11-1.79.37-2.48a10.52,10.52,0,0,1,1.16-1.34l.68-.62a4.69,4.69,0,0,1,1-.66l.12-.06c.29-.13.59-.23.89-.33l.48-.17.3-.11.35-.11a1,1,0,0,0,.49-.1c2-.34,4.31.53,6.1,1.09l.53.16A6.86,6.86,0,0,1,294.7,169h0A5.64,5.64,0,0,1,294.05,172.61Z"/><path class="cls-19" d="M292.33,169.41a4.18,4.18,0,0,1-1.36,3.1c-1.44.26-2.69.79-3.22.83-.21,0-.59,0-1.08,0a4.23,4.23,0,0,1-2-6.51l.3-.11c2.19-.81,4.89.24,6.94.88A4.13,4.13,0,0,1,292.33,169.41Z"/><path class="cls-23" d="M291.42,169.52a3.28,3.28,0,0,1-1.07,2.43c-1.13.2-2.11.62-2.53.65-.16,0-.46,0-.84,0a3.31,3.31,0,0,1-1.55-5.11l.24-.08c1.71-.64,3.83.18,5.44.69A3.14,3.14,0,0,1,291.42,169.52Z"/><circle cx="288.14" cy="169.65" r="1.7"/><circle class="cls-18" cx="287.42" cy="169.12" r="0.26"/><circle class="cls-18" cx="286.44" cy="168.61" r="0.17"/><circle class="cls-18" cx="285.71" cy="168.2" r="0.1"/><path d="M312.58,207.05a5.29,5.29,0,0,1,4.52-2.36c3,.1.42,2.07-.61,1.85A4.18,4.18,0,0,0,312.58,207.05Z"/><path d="M303.59,207.37s0-2.2-3.64-2-2.24,1.92-1.57,2S302.6,206.66,303.59,207.37Z"/><path class="cls-8" d="M298.92,233.12S301,243.93,306,244.73s7.79-1.41,12.27-.34,12.56-8.91,9.5-11.59S298.92,233.12,298.92,233.12Z"/><path class="cls-12" d="M297.86,196.83a23,23,0,0,0-2.08,3.33,8.07,8.07,0,0,0-1,3.57,4.57,4.57,0,0,0,1.38,3.23,13.33,13.33,0,0,0,3.14,2.28,8.47,8.47,0,0,1-3.67-1.71,5.4,5.4,0,0,1-1.35-1.67,5.19,5.19,0,0,1-.5-2.12,7.52,7.52,0,0,1,1.29-4A11.1,11.1,0,0,1,297.86,196.83Z"/><path class="cls-24" d="M329.3,230.25A5.84,5.84,0,0,1,329,232c-.87,2.92-3.77,5.28-6.22,6.77a14,14,0,0,1-6.08,2,46,46,0,0,1-7,.31c-2.07-.08-4.47-.12-6.2-1.38a7.21,7.21,0,0,1-1.76-2.33,17.94,17.94,0,0,0-3-3.48,35.64,35.64,0,0,0-3-2.57l.44-.45,1.07-1.11,3.8-1.07,10.37-.1s17.33-4,17.82,1.12C329.29,229.91,329.3,230.08,329.3,230.25Z"/><path class="cls-25" d="M329.3,229.56a3.6,3.6,0,0,1-.27,1.37c-1.93-.35-4.06-1.34-6.08-1.44-2.41-.11-7.2,1.26-8.37,1.57s-6.17,1.05-8.47.28c-1.46-.48-6.47-.7-9.89-1.28l1.07-.86,3.8-.84,10.37-.07s17.33-3.11,17.82.87C329.29,229.29,329.3,229.42,329.3,229.56Z"/><path class="cls-12" d="M316.13,209.68A20.16,20.16,0,0,0,321,208.5a5.32,5.32,0,0,0,3.19-3.17,6.36,6.36,0,0,0,.28-2.32,11.71,11.71,0,0,0-.36-2.4,26.06,26.06,0,0,0-1.72-4.7,15,15,0,0,1,2.47,4.48,8.53,8.53,0,0,1,.28,5.25,5.34,5.34,0,0,1-1.52,2.29,6.65,6.65,0,0,1-2.35,1.3A12.87,12.87,0,0,1,316.13,209.68Z"/><path class="cls-26" d="M295.78,231.34a1.64,1.64,0,0,0,.24-.43c.22-.39.46-.78.71-1.15a14.37,14.37,0,0,1,4.84-4.72,6.22,6.22,0,0,1,5.27-.45c1.5.6,3.17,1.75,4.82,1a7.32,7.32,0,0,0,1.3-1,4.94,4.94,0,0,1,3.44-.87,18,18,0,0,1,4.51,1.52c1.13.44,2.3.8,3.45,1.16,1.38.43,3.36.74,4.38,1.87a2.11,2.11,0,0,1,.53,1.46c0-.12-1.07-.43-1.17-.46a13.24,13.24,0,0,0-4.84-.77,19.83,19.83,0,0,0-4.85,1.16,12.38,12.38,0,0,1-3.26.39c-2.26,0-4.49-.32-6.75-.33-1.36,0-2.73.13-4.08.13-1.53,0-3.14.15-4.66.3A7.62,7.62,0,0,0,295.78,231.34Z"/><path d="M275.91,164c2.63-.39,5.9.59,6.87.78a24.32,24.32,0,0,0,5.06,0c1.46-.15,6.09.63,7.4,0s2.68-1.68,1.61-2.55q-.42-.36-.81-.75a.65.65,0,0,0-.18-.15,3.06,3.06,0,0,0-1-.27,3.57,3.57,0,0,1,.82,1.26c-.88-.87-.91-1.41-1.77-1.44,0,0,.75,1,.54,1.1,0,0-.21-.44-.22-.47a2.14,2.14,0,0,0-1.07-.75,6.14,6.14,0,0,0-1-.19l-.83-.14-1.82-.25a27.34,27.34,0,0,0-3-.24h0c-1.15,0-4.22-1.29-6.36-1.41s-3.41-.52-5.5.17-4.16,1.63-4.65,1.82-2.46,1-1.92,2.46,1.29,2,2.68,1.75S275.91,164,275.91,164Z"/><path d="M352.13,247.76c-4.12,4.32-9.14,8.21-13,11.8a25.79,25.79,0,0,1-10.72,5.53s0,0,0,0a49.17,49.17,0,0,1-13.45,1.55c-9.34-.15-9.71-2.27-16.06-8.69a64.93,64.93,0,0,1-7.5-9.86l3.92,3.86,7.88,7.23,11,3.95,14.42-1.54,9.46-3.43Z"/><path class="cls-27" d="M306.81,169a3.87,3.87,0,0,0-.3,1.87c0,.88-.08,1.75-.13,2.63-.1,1.75-.23,3.5-.4,5.25q-.32,3.43-.81,6.85c-.16,1.11-.31,2.24-.51,3.34-.24,1.27-.57,2.51-.87,3.76a4.68,4.68,0,0,0-.14,2.81,1.78,1.78,0,0,0,1.07.8,1.07,1.07,0,0,0,.95-.11,2,2,0,0,0,.69-1,16.43,16.43,0,0,0,.51-4.34c.23-3,.7-5.9,1.07-8.84a96,96,0,0,0,.67-11.11,4.92,4.92,0,0,0-.07-1.09,1.54,1.54,0,0,0-.91-1.07.65.65,0,0,0-.69.11A.93.93,0,0,0,306.81,169Z"/><path class="cls-11" d="M271,197.37c-1.82-1.84-4.43-5.77-4.89-13.39-.11-1.87,0-4.51-1.07-6.18-.26-.43-.78-.61-1-1.08a3.83,3.83,0,0,1-.08-1.51,31.44,31.44,0,0,0,.32-3.34c-.07-1.3-.43-2.59-.48-3.91a2.5,2.5,0,0,1,1.48-2.76,3.43,3.43,0,0,1,4.19,1,39.16,39.16,0,0,1-.31,6.82C268,180.61,269.65,190.86,271,197.37Z"/><path class="cls-28" d="M322.71,350.52s1.87-26.86,1-34.06.19-25.34.19-25.34l1.69-.22s-.08,1.38-.16,3.2c-.16,3.91-.3,7.83-.37,11.75-.06,3.67-.12,7.42.14,11.07a17.77,17.77,0,0,0,.4,2.69,21.57,21.57,0,0,1,.44,2.89,72.55,72.55,0,0,1,.12,8.85q-.09,3.15-.27,6.29l-.18,2.91c-.06,1-.2,2-.2,3-.12,1.68-.18,3.43-.36,5.09,0,.62-.09,1.25-.15,1.88Z"/><line class="cls-29" x1="324.28" y1="289.91" x2="324.21" y2="291.91"/><line class="cls-30" x1="324.14" y1="293.93" x2="324.14" y2="293.94"/><path class="cls-31" d="M324.14,293.94l-.44,12.63s1.67,31.9-.7,42.05"/><path class="cls-29" d="M323,348.62a10.39,10.39,0,0,1-.61,1.9"/><circle cx="324.01" cy="301.27" r="3.53"/><circle cx="324.01" cy="317.91" r="3.53"/><circle cx="324.01" cy="333.37" r="3.53"/><circle cx="324.01" cy="347.95" r="3.53"/><polygon class="cls-4" points="90.62 174.95 90.62 -8.09 160.48 -8.09 160.48 174.95 125.54 236.26 90.62 174.95"/><path d="M155.48-3.09V173.63l-29.94,52.53L95.62,173.63V-3.09h59.86m10-10H85.62V176.28l1.31,2.3,29.92,52.53,8.69,15.25,8.69-15.25,29.94-52.53,1.31-2.3V-13.09Z"/><circle class="cls-32" cx="125.55" cy="147.41" r="18.17"/><path class="cls-22" d="M135.31,139.7a3.91,3.91,0,0,0-4.11-1.33,5.64,5.64,0,0,0-3.89,3.1.16.16,0,0,1-.2.1,10.77,10.77,0,0,0-2.27-.12,6.86,6.86,0,0,0-.9.09.17.17,0,0,1-.2-.11,5.25,5.25,0,0,0-1.79-2.09,5,5,0,0,0-3.75-1,3.83,3.83,0,0,0-3.29,3.82.45.45,0,0,0,.07.18,1.36,1.36,0,0,0,.21-.1,1.25,1.25,0,0,0,.08-.12,4.06,4.06,0,0,1,2.49-1.85,2.06,2.06,0,0,1,2.58,1.51c.1.35.16.71.23,1.08a.26.26,0,0,1-.07.16.6.6,0,0,1-.08.08c-.23.25-.47.49-.72.74a.44.44,0,0,1-.2.08c-.22,0-.45,0-.67.06a5.55,5.55,0,0,0-3,2c-.1.12-.06.23.08.29a3.94,3.94,0,0,0,2.11.38l.4-.08c-.06.47-.12.92-.17,1.37a5.87,5.87,0,0,0,1,3.92,9.86,9.86,0,0,0,3.25,3,.72.72,0,0,1,.23.26c.13.26.22.53.35.78a2.92,2.92,0,0,1,.32,1.23c0,.14,0,.31.15.37s.28-.06.39-.18.15-.19.23-.29l.1-.12,0,.15c.08.52.14,1,.24,1.55a9.77,9.77,0,0,0,.25,1.07.34.34,0,0,0,.23.21c.13,0,.18-.11.2-.22s.07-.35.11-.52c.08-.4.17-.8.26-1.2,0-.07.07-.14.09-.2l.79,1.16a.88.88,0,0,0,.26.25.24.24,0,0,0,.23,0A.29.29,0,0,0,127,159a1,1,0,0,0-.06-.23c-.1-.31-.21-.62-.29-.93a1.83,1.83,0,0,1,0-1.11l.23.25c.13.12.25.25.39.37a.27.27,0,0,0,.34.08c.14-.08.13-.21.09-.34a2.09,2.09,0,0,1,0-1.11,2.13,2.13,0,0,1,.92-1.28,9.4,9.4,0,0,0,3.11-3.13,5.39,5.39,0,0,0,.83-2.73,9.89,9.89,0,0,0-.19-2.1.74.74,0,0,1,0-.15,3.6,3.6,0,0,0,2.42-.25c.25-.1.28-.22.1-.4a13.64,13.64,0,0,0-1.1-1,4,4,0,0,0-2-.93,2.71,2.71,0,0,1-.71-.09c-.2-.1-.32-.37-.5-.53a.24.24,0,0,1-.09-.08.45.45,0,0,1-.08-.49c.11-.4.15-.82.29-1.21a1.93,1.93,0,0,1,1.72-1.35,2.93,2.93,0,0,1,1.82.47,4.28,4.28,0,0,1,1.51,1.51c.05.09.13.19.24.13a.28.28,0,0,0,.11-.22A4.19,4.19,0,0,0,135.31,139.7Z"/><polygon class="cls-4" points="495.07 174.95 495.07 -8.09 564.93 -8.09 564.93 174.95 529.99 236.26 495.07 174.95"/><path d="M559.93-3.09V173.63L530,226.16l-29.92-52.53V-3.09h59.86m10-10H490.07V176.28l1.31,2.3,29.92,52.53L530,246.36l8.69-15.25,29.94-52.53,1.32-2.3V-13.09Z"/><circle class="cls-32" cx="530" cy="147.41" r="18.17"/><path class="cls-22" d="M539.75,139.7a3.91,3.91,0,0,0-4.11-1.33,5.64,5.64,0,0,0-3.89,3.1.15.15,0,0,1-.19.1,10.85,10.85,0,0,0-2.27-.12,7.19,7.19,0,0,0-.91.09.16.16,0,0,1-.19-.11,5.33,5.33,0,0,0-1.79-2.09,5,5,0,0,0-3.76-1,3.84,3.84,0,0,0-3.29,3.82c0,.06,0,.12.07.18a1.36,1.36,0,0,0,.21-.1.32.32,0,0,0,.08-.12,4.08,4.08,0,0,1,2.5-1.85,2.07,2.07,0,0,1,2.58,1.51c.1.35.15.71.22,1.08a.21.21,0,0,1-.07.16l-.07.08-.73.74a.4.4,0,0,1-.2.08c-.22,0-.44,0-.66.06a5.54,5.54,0,0,0-3,2c-.09.12-.06.23.09.29a3.94,3.94,0,0,0,2.11.38l.39-.08c-.05.47-.11.92-.16,1.37a5.87,5.87,0,0,0,1,3.92,10,10,0,0,0,3.25,3,.64.64,0,0,1,.23.26c.13.26.22.53.35.78a2.78,2.78,0,0,1,.32,1.23c0,.14,0,.31.15.37s.29-.06.39-.18a3.36,3.36,0,0,0,.24-.29.48.48,0,0,1,.1-.12c0,.07,0,.11,0,.15.08.52.15,1,.24,1.55a7.94,7.94,0,0,0,.26,1.07.33.33,0,0,0,.22.21c.14,0,.18-.11.21-.22s.07-.35.1-.52L530,158a.72.72,0,0,1,.09-.2c.26.4.52.78.78,1.16a.88.88,0,0,0,.26.25.24.24,0,0,0,.23,0c.06,0,.08-.14.08-.21s0-.15-.06-.23c-.1-.31-.2-.62-.28-.93a1.76,1.76,0,0,1,0-1.11l.22.25.39.37c.1.09.22.16.35.08a.27.27,0,0,0,.09-.34,2.09,2.09,0,0,1,0-1.11,2.06,2.06,0,0,1,.92-1.28,9.4,9.4,0,0,0,3.11-3.13,5.48,5.48,0,0,0,.82-2.73,9.28,9.28,0,0,0-.19-2.1.74.74,0,0,1,0-.15,3.63,3.63,0,0,0,2.43-.25c.24-.1.28-.22.09-.4a13.51,13.51,0,0,0-1.09-1,4,4,0,0,0-2-.93,2.65,2.65,0,0,1-.71-.09c-.21-.1-.32-.37-.51-.53a.34.34,0,0,1-.09-.08.47.47,0,0,1-.08-.49c.11-.4.15-.82.29-1.21a1.93,1.93,0,0,1,1.72-1.35,3,3,0,0,1,1.83.47,4.34,4.34,0,0,1,1.5,1.51c.06.09.13.19.24.13a.25.25,0,0,0,.11-.22A4.06,4.06,0,0,0,539.75,139.7Z"/></g></svg>