<svg xmlns="http://www.w3.org/2000/svg" xmlns:xlink="http://www.w3.org/1999/xlink" viewBox="0 0 650 350.53"><defs><style>.cls-1{mask:url(#mask);}.cls-2{fill:url(#linear-gradient);}.cls-3{fill:url(#linear-gradient-2);}.cls-4{fill:url(#linear-gradient-3);}.cls-5{fill:#352821;}.cls-6{fill:#2b201b;}.cls-10,.cls-7{fill:#fff;}.cls-8{opacity:0.1;}.cls-9{fill:#085147;}.cls-10{stroke:#000;stroke-width:10px;}.cls-11{fill:#ed9920;}.cls-12{fill:#f96310;}.cls-13{fill:#e8c325;}.cls-14{fill:#fcfff5;}.cls-15{fill:#222c2c;}.cls-16{fill:#ef7c1d;}</style><mask id="mask" x="708.5" y="1923.26" width="282.74" height="282.74" maskUnits="userSpaceOnUse"/><linearGradient id="linear-gradient" x1="325.05" y1="-65.2" x2="324.95" y2="276.11" gradientUnits="userSpaceOnUse"><stop offset="0.07" stop-color="#16c8f2"/><stop offset="0.18" stop-color="#42bdd1"/><stop offset="0.35" stop-color="#7fafa3"/><stop offset="0.5" stop-color="#afa37f"/><stop offset="0.64" stop-color="#d29b66"/><stop offset="0.75" stop-color="#e79656"/><stop offset="0.82" stop-color="#ef9450"/></linearGradient><linearGradient id="linear-gradient-2" x1="326.74" y1="172.56" x2="325.9" y2="-7.89" gradientUnits="userSpaceOnUse"><stop offset="0" stop-color="#dd6912"/><stop offset="0.71" stop-color="#e6b972"/><stop offset="0.84" stop-color="#e8c985"/></linearGradient><linearGradient id="linear-gradient-3" x1="325.03" y1="193.13" x2="324.96" y2="399.87" gradientUnits="userSpaceOnUse"><stop offset="0.07" stop-color="#16c8f2"/><stop offset="0.18" stop-color="#25ceda"/><stop offset="0.33" stop-color="#36d5c0"/><stop offset="0.48" stop-color="#42d9ae"/><stop offset="0.65" stop-color="#49dca3"/><stop offset="0.82" stop-color="#4bdd9f"/></linearGradient></defs><g id="BIAŁY_PAS_-_LANDSCAPE" data-name="BIAŁY PAS - LANDSCAPE"><rect class="cls-2" width="650" height="218.35"/><path class="cls-3" d="M327,38.73A179.61,179.61,0,0,0,147.34,218.35H506.57A179.62,179.62,0,0,0,327,38.73Z"/><rect class="cls-4" y="218.35" width="650" height="132.18"/><path class="cls-5" d="M17.17,218.59l15.32-25.27a385.89,385.89,0,0,0,59.75-59.75c16-20.11,24.23-34.79,27.57-52.85A96,96,0,0,0,121.34,60,30.6,30.6,0,0,1,151.21,57C181.29,129.92,198,157.51,207.9,168.81a230.2,230.2,0,0,1,25.27,34.47c4,6.58,6.81,12.08,8.43,15.31Z"/><path class="cls-6" d="M17.17,218.59l15.32-25.27,32.28-29,30.53-7,22.21,19.15,29.11-19.92L177.26,155l21.44,17.62,5.82-8a252.18,252.18,0,0,1,37.08,54Z"/><path class="cls-7" d="M121.34,60a91.91,91.91,0,0,1-16.18,55.85l-8.82,12.42A43.25,43.25,0,0,0,112.53,119c7.47-6.91,10.29-14.84,12.26-14.17s.19,7.27,1.53,16.08a47.89,47.89,0,0,0,7.28,18.77,54.88,54.88,0,0,0,8-18.77c2.85-13.15-.24-23.82,1.15-24.12,1.56-.34,3.77,13.68,13,27.57a73.61,73.61,0,0,0,16.09,17.24A160.1,160.1,0,0,1,159.64,93a87.61,87.61,0,0,0,14.17,29.1,86.18,86.18,0,0,0,13.61,14.45c-2.91-5.59-6.69-13-10.93-21.92-4.73-9.88-8-17.35-11.46-25.14C161.28,81,156.54,70,151.21,57A30.6,30.6,0,0,0,121.34,60Z"/><path class="cls-8" d="M135.13,54.68a227.32,227.32,0,0,1-13,75.83,229.23,229.23,0,0,1-57,88.08h-48l15.32-25.27a420.58,420.58,0,0,0,41.68-38.78,273.08,273.08,0,0,0,21.39-25.31c9.87-13.45,17.74-24.37,22.3-40.31A93.19,93.19,0,0,0,121.34,60a30.86,30.86,0,0,1,13.79-5.36Z"/><path class="cls-5" d="M141.88,218.59l12.13-20a305.48,305.48,0,0,0,47.3-47.3c12.7-15.92,19.19-27.55,21.83-41.85a76,76,0,0,0,1.22-16.37A24.2,24.2,0,0,1,248,90.63c23.81,57.76,37.08,79.6,44.88,88.55a182.41,182.41,0,0,1,20,27.29c3.13,5.21,5.39,9.57,6.67,12.12Z"/><path class="cls-6" d="M141.88,218.59l12.13-20,25.55-23,24.18-5.54,17.58,15.16,23.05-15.77,24.26-1.21,17,14c1.53-2.12,3.07-4.23,4.6-6.34a199.56,199.56,0,0,1,29.36,42.72Z"/><path class="cls-7" d="M224.36,93.06a72.84,72.84,0,0,1-12.82,44.22l-7,9.83a34.28,34.28,0,0,0,12.82-7.35c5.91-5.47,8.15-11.76,9.71-11.22s.15,5.75,1.21,12.73a37.93,37.93,0,0,0,5.76,14.86,43.73,43.73,0,0,0,6.37-14.86c2.25-10.41-.19-18.86.91-19.1s3,10.83,10.31,21.83a58.39,58.39,0,0,0,12.73,13.65,126.75,126.75,0,0,1-9.7-38.51,69.37,69.37,0,0,0,11.22,23,68.35,68.35,0,0,0,10.77,11.44c-2.3-4.43-5.29-10.33-8.65-17.36-3.74-7.82-6.36-13.73-9.07-19.9-3-6.73-6.72-15.43-10.94-25.73a24.2,24.2,0,0,0-23.65,2.43Z"/><path class="cls-8" d="M235.27,88.81a179.79,179.79,0,0,1-10.31,60,181.33,181.33,0,0,1-45.11,69.74h-38l12.13-20a330.29,330.29,0,0,0,33-30.7,214.13,214.13,0,0,0,16.94-20c7.82-10.65,14.05-19.3,17.66-31.91a73.93,73.93,0,0,0,2.76-22.87,24.3,24.3,0,0,1,4.84-2.65A24.62,24.62,0,0,1,235.27,88.81Z"/><path class="cls-5" d="M627.76,218.59l-15.32-25.27a385.89,385.89,0,0,1-59.75-59.75c-16-20.11-24.23-34.79-27.57-52.85A95.36,95.36,0,0,1,523.59,60,30.62,30.62,0,0,0,493.71,57C463.63,129.92,446.88,157.51,437,168.81a230.2,230.2,0,0,0-25.27,34.47c-4,6.58-6.81,12.08-8.43,15.31Z"/><path class="cls-6" d="M627.76,218.59l-15.32-25.27-32.28-29-30.53-7-22.21,19.15-29.11-19.92L467.67,155l-21.45,17.62-5.81-8a252.18,252.18,0,0,0-37.08,54Z"/><path class="cls-7" d="M523.59,60a91.91,91.91,0,0,0,16.18,55.85l8.81,12.42A43.4,43.4,0,0,1,532.39,119c-7.46-6.91-10.29-14.84-12.25-14.17s-.19,7.27-1.53,16.08a47.89,47.89,0,0,1-7.28,18.77,54.88,54.88,0,0,1-8-18.77c-2.85-13.15.23-23.82-1.15-24.12-1.57-.34-3.77,13.68-13,27.57A73.82,73.82,0,0,1,473,141.62,160.1,160.1,0,0,0,485.29,93a87.61,87.61,0,0,1-14.17,29.1,86.18,86.18,0,0,1-13.61,14.45c2.91-5.59,6.69-13,10.93-21.92,4.73-9.88,8-17.35,11.46-25.14C483.65,81,488.38,70,493.71,57A30.62,30.62,0,0,1,523.59,60Z"/><path class="cls-8" d="M509.8,54.68a227.07,227.07,0,0,0,13,75.83,229.23,229.23,0,0,0,57,88.08h48l-15.32-25.27a420.58,420.58,0,0,1-41.68-38.78,271.34,271.34,0,0,1-21.39-25.31c-9.87-13.45-17.74-24.37-22.3-40.31A92.89,92.89,0,0,1,523.59,60a30.86,30.86,0,0,0-13.79-5.36Z"/><polygon class="cls-9" points="0 229.07 650 229.07 650 196.37 619.46 212.72 557.23 193.43 472.39 191.91 432.56 206.09 347.69 193.43 254.14 191.91 204.56 203.03 141.88 193.43 96.34 202.27 49.59 191.91 0 203.8 0 229.07"/><polygon class="cls-10" points="227.78 -7.75 227.78 250.42 319.57 317.79 411.36 250.42 411.36 -7.75 227.78 -7.75"/><path class="cls-11" d="M379.51,173.83c-.13.34-.27.68-.41,1h-3.28c.33-.71.65-1.43.95-2.16a57.27,57.27,0,0,0,3.29-10.82,57.77,57.77,0,0,0-3.24-33.36c-2.63-6.36-5.74-12.25-10.43-17.29a80.33,80.33,0,0,1,6.6,7.87,48.92,48.92,0,0,1,5.23,8.84,60.07,60.07,0,0,1,1.29,45.9Z"/><path class="cls-12" d="M384.55,174.85h-3.42A65,65,0,0,0,384,164.78a66.43,66.43,0,0,0,1.25-12.59A65.69,65.69,0,0,0,384,139.6a63.88,63.88,0,0,0-3.65-12.12c-2.94-7.12-6.42-13.7-11.66-19.34a91.83,91.83,0,0,1,7.38,8.8,55.09,55.09,0,0,1,5.85,9.88,67.09,67.09,0,0,1,5.81,25.37A67.51,67.51,0,0,1,384.55,174.85Z"/><path class="cls-11" d="M259.79,173.83c.13.34.27.68.41,1h3.28c-.33-.71-.65-1.43-1-2.16a56.55,56.55,0,0,1-3.29-10.82,57.77,57.77,0,0,1,3.24-33.36c2.63-6.36,5.74-12.25,10.43-17.29a81.84,81.84,0,0,0-6.61,7.87,48.87,48.87,0,0,0-5.22,8.84,59.32,59.32,0,0,0-3.71,11,60,60,0,0,0,2.42,34.85Z"/><path class="cls-12" d="M254.75,174.85h3.42a64.52,64.52,0,0,1-2.9-35.25,63.88,63.88,0,0,1,3.65-12.12c2.94-7.12,6.42-13.7,11.66-19.34a91.83,91.83,0,0,0-7.38,8.8,54.51,54.51,0,0,0-5.85,9.88,67.62,67.62,0,0,0-4.15,12.37,68.34,68.34,0,0,0-1.67,13A67.52,67.52,0,0,0,254.75,174.85Z"/><path class="cls-12" d="M388.47,173.93v3.69c-.41,1.31-.87,2.61-1.36,3.9a72.29,72.29,0,0,1-7.26,14.06H259.29A72.09,72.09,0,0,1,252,181.51c-.49-1.29-.95-2.59-1.37-3.91v-3.67Z"/><path class="cls-13" d="M275.42,189.82a5.51,5.51,0,0,1-1.93.33,5.57,5.57,0,0,1-2.91-.73,4.92,4.92,0,0,1-1.89-1.95,5.69,5.69,0,0,1-.65-2.69,6.26,6.26,0,0,1,.65-2.88,4.88,4.88,0,0,1,1.83-2,5.2,5.2,0,0,1,2.72-.71,6.07,6.07,0,0,1,1.8.26,6.69,6.69,0,0,1,1.45.66l-.83,2a3.85,3.85,0,0,0-2.35-.87,2.78,2.78,0,0,0-1.52.45,3.19,3.19,0,0,0-1.14,1.22,3.56,3.56,0,0,0-.42,1.72,3.86,3.86,0,0,0,.4,1.81,2.89,2.89,0,0,0,1.11,1.21,3.26,3.26,0,0,0,1.7.44,3.73,3.73,0,0,0,1.41-.26,3.21,3.21,0,0,0,1-.6l.87,1.89A5,5,0,0,1,275.42,189.82Z"/><path class="cls-13" d="M278.89,182a5.56,5.56,0,0,1,2-2,5.33,5.33,0,0,1,5.45,0,5.75,5.75,0,0,1,2,2,5.31,5.31,0,0,1,0,5.44,5.61,5.61,0,0,1-2,2,5.47,5.47,0,0,1-5.46,0,5.48,5.48,0,0,1-2-2,5.43,5.43,0,0,1,0-5.44Zm1.89,4.43a3.28,3.28,0,0,0,2.9,1.7,3.12,3.12,0,0,0,1.64-.46,3.27,3.27,0,0,0,1.16-1.23,3.72,3.72,0,0,0,0-3.47,3.35,3.35,0,0,0-1.18-1.24,3.29,3.29,0,0,0-3.32,0,3.37,3.37,0,0,0-1.19,1.24,3.57,3.57,0,0,0-.43,1.75A3.35,3.35,0,0,0,280.78,186.42Z"/><path class="cls-13" d="M291.18,179.35h3.19a6.44,6.44,0,0,1,3.37.79,4.86,4.86,0,0,1,1.93,2.05,6.13,6.13,0,0,1,.6,2.69,5,5,0,0,1-.73,2.71,4.79,4.79,0,0,1-2,1.81,5.79,5.79,0,0,1-2.69.63h-3.72Zm3.35,8.65a3.8,3.8,0,0,0,2.6-.84,3.06,3.06,0,0,0,1-2.43,3.51,3.51,0,0,0-.53-2,2.8,2.8,0,0,0-1.23-1,3.37,3.37,0,0,0-1.33-.29h-1.71V188Z"/><path class="cls-13" d="M304.48,179.35V190h-2.11V179.35Z"/><path class="cls-13" d="M316.86,179.35v11.12h-.06l-7.47-6.75,0,6.31h-2.13v-11.1h.08l7.47,6.85-.05-6.43Z"/><path class="cls-13" d="M327.41,189.5a7.66,7.66,0,0,1-1.4.47,6,6,0,0,1-1.38.18,6.42,6.42,0,0,1-3-.66,4.83,4.83,0,0,1-2-1.83A5.15,5.15,0,0,1,319,185a6.29,6.29,0,0,1,.74-3.18,4.76,4.76,0,0,1,2-1.94,5.9,5.9,0,0,1,2.75-.65,7.65,7.65,0,0,1,1.83.22,6.51,6.51,0,0,1,1.51.57l-.68,2a4.9,4.9,0,0,0-1.15-.43,5,5,0,0,0-1.23-.2,3.72,3.72,0,0,0-2.66.87,3.39,3.39,0,0,0-.93,2.59,3.22,3.22,0,0,0,.45,1.72,2.92,2.92,0,0,0,1.26,1.12,4.18,4.18,0,0,0,1.84.39,3.08,3.08,0,0,0,1.46-.27v-1.29h-1.84v-2h4V189A3.07,3.07,0,0,1,327.41,189.5Z"/><path class="cls-14" d="M341.87,179.35v2h-2.59V190h-2.11v-8.65h-2.5v-2Z"/><path class="cls-14" d="M349.67,190l-2.25-3.39H346V190h-2.1V179.35h3.23a4.54,4.54,0,0,1,3.09,1,3.36,3.36,0,0,1,1.1,2.64,4.18,4.18,0,0,1-.42,1.85,3,3,0,0,1-1.27,1.36l2.48,3.87ZM346,184.6h1.5a1.49,1.49,0,0,0,1.25-.5,1.71,1.71,0,0,0,.39-1.08,2,2,0,0,0-.34-1.11,1.41,1.41,0,0,0-1.29-.53H346Z"/><path class="cls-14" d="M361.15,179.35v2H356v2.28h4.59v2H356V188h5.39v2h-7.49V179.35Z"/><path class="cls-14" d="M370.82,179.35v2h-5.18v2.28h4.59v2h-4.59V188H371v2h-7.49V179.35Z"/><path class="cls-15" d="M388.47,177.62c-.41,1.31-.87,2.61-1.36,3.9a72.29,72.29,0,0,1-7.26,14.06,70.92,70.92,0,0,1-6,7.83c-.69.78-1.4,1.55-2.12,2.3-1.61,1.67-3.31,3.27-5.07,4.78a71.77,71.77,0,0,1-6,4.6,72.66,72.66,0,0,1-12.73,7l-1.69.68c-.57.22-1.12.47-1.7.66l-1.72.59c-.58.2-1.15.42-1.73.58l-1.75.51-.88.25-.44.13-.44.11-1.78.42-.89.2-.44.1-.45.09a72.39,72.39,0,0,1-29,0,72,72,0,0,1-32.38-15.74h0q-2.76-2.35-5.28-5c-.72-.74-1.42-1.51-2.1-2.28a73.25,73.25,0,0,1-6-7.83A72.09,72.09,0,0,1,252,181.51c-.49-1.29-.95-2.59-1.37-3.91a71.58,71.58,0,0,1,9.9-63.54c2-2.83,4.9-5.49,7.26-8a55.44,55.44,0,0,0-7.21,9.82,88.39,88.39,0,0,0-5.36,11A69.21,69.21,0,0,0,251.31,140a69.69,69.69,0,0,0,0,27.15,69.42,69.42,0,0,0,1.72,6.82c.65,2.11,1.4,4.19,2.25,6.22a69.92,69.92,0,0,0,15.1,22.54l.73.72A69.57,69.57,0,0,0,293,217.73a68.8,68.8,0,0,0,13,3.94A70,70,0,0,0,319.56,223a70.88,70.88,0,0,0,13.55-1.32A69.49,69.49,0,0,0,368,203.41l.73-.72a71.2,71.2,0,0,0,6.21-7.11,69.07,69.07,0,0,0,8.89-15.43,64.88,64.88,0,0,0,2.24-6.22,69.47,69.47,0,0,0,1.73-6.82,69.69,69.69,0,0,0,0-27.15,69.21,69.21,0,0,0-3.94-13.06c-3.17-7.67-6.92-14.76-12.57-20.84a99.48,99.48,0,0,1,8,9.48,59.12,59.12,0,0,1,6.3,10.66A72.17,72.17,0,0,1,390,139.52a72.44,72.44,0,0,1-1.56,38.1Z"/><rect class="cls-15" x="262.28" y="194.76" width="114.58" height="1.64"/><rect class="cls-15" x="251.51" y="174.03" width="136.13" height="1.64"/><polygon class="cls-15" points="296.43 210.31 294.93 210.31 294.93 203.32 309.48 198.02 309.48 195.58 310.99 195.58 310.99 199.08 296.43 204.38 296.43 210.31"/><rect class="cls-15" x="318.82" y="195.58" width="1.5" height="20.38"/><rect class="cls-15" x="309.48" y="195.2" width="1.5" height="14.37"/><circle class="cls-16" cx="310.23" cy="209.57" r="1.98"/><path class="cls-15" d="M310.23,212.37a2.8,2.8,0,1,1,2.8-2.8A2.8,2.8,0,0,1,310.23,212.37Zm0-4a1.17,1.17,0,1,0,1.17,1.17A1.16,1.16,0,0,0,310.23,208.4Z"/><circle class="cls-16" cx="319.57" cy="215.96" r="1.98"/><path class="cls-15" d="M319.57,218.76a2.8,2.8,0,1,1,2.8-2.8A2.8,2.8,0,0,1,319.57,218.76Zm0-4a1.17,1.17,0,1,0,1.17,1.16A1.17,1.17,0,0,0,319.57,214.8Z"/><circle class="cls-16" cx="295.68" cy="210.31" r="1.98"/><path class="cls-15" d="M295.68,213.1a2.8,2.8,0,1,1,2.8-2.79A2.8,2.8,0,0,1,295.68,213.1Zm0-4a1.17,1.17,0,1,0,1.16,1.17A1.17,1.17,0,0,0,295.68,209.14Z"/><polygon class="cls-15" points="344.21 210.31 342.71 210.31 342.71 204.38 328.15 199.08 328.15 195.58 329.66 195.58 329.66 198.02 344.21 203.32 344.21 210.31"/><rect class="cls-15" x="328.15" y="195.2" width="1.5" height="14.37"/><circle class="cls-16" cx="328.91" cy="209.57" r="1.98"/><path class="cls-15" d="M328.91,212.37a2.8,2.8,0,1,1,2.79-2.8A2.8,2.8,0,0,1,328.91,212.37Zm0-4a1.17,1.17,0,1,0,1.16,1.17A1.17,1.17,0,0,0,328.91,208.4Z"/><circle class="cls-16" cx="343.46" cy="210.31" r="1.98"/><path class="cls-15" d="M343.46,213.1a2.8,2.8,0,1,1,2.8-2.79A2.8,2.8,0,0,1,343.46,213.1Zm0-4a1.17,1.17,0,1,0,1.17,1.17A1.17,1.17,0,0,0,343.46,209.14Z"/><path class="cls-11" d="M326.82,112.94c-1.35,1.86-3.68,3.39-7.25,4.48-3.57-1.09-5.9-2.62-7.25-4.48a8.89,8.89,0,0,1-1.21-7.35c1-4.67,4.35-10.16,8.46-15.91,4.11,5.75,7.49,11.24,8.46,15.91A8.93,8.93,0,0,1,326.82,112.94Z"/><path class="cls-16" d="M326.82,112.94c-1.35,1.86-3.68,3.39-7.25,4.48-3.57-1.09-5.9-2.62-7.25-4.48a8.89,8.89,0,0,1-1.21-7.35,14.88,14.88,0,0,1,16.92,0A8.93,8.93,0,0,1,326.82,112.94Z"/><path class="cls-12" d="M326.82,112.94c-1.35,1.86-3.68,3.39-7.25,4.48-3.57-1.09-5.9-2.62-7.25-4.48a8.63,8.63,0,0,1,14.5,0Z"/><path class="cls-11" d="M312.93,125.32c.17,2.62-.79,5.64-3.16,9.17-4,1.57-7.19,1.88-9.76,1.19-2.86-.78-4.94-2.8-6.48-5.69-2.56-4.85-3.58-12.16-4.14-20.21,7.87,2.18,14.92,4.66,19.21,8.13C311.17,120,312.75,122.4,312.93,125.32Z"/><path class="cls-16" d="M312.93,125.32c.17,2.62-.79,5.64-3.16,9.17-4,1.57-7.19,1.88-9.76,1.19-2.86-.78-4.94-2.8-6.48-5.69a16.55,16.55,0,0,1,5.6-8.4,16.91,16.91,0,0,1,9.47-3.68C311.17,120,312.75,122.4,312.93,125.32Z"/><path class="cls-12" d="M312.93,125.32c.17,2.62-.79,5.64-3.16,9.17-4,1.57-7.19,1.88-9.76,1.19a9.61,9.61,0,0,1,3.56-8.7A9.89,9.89,0,0,1,312.93,125.32Z"/><path class="cls-11" d="M310.1,147.66c.74,3.63,0,8-2.64,13.39-5.26,2.95-9.66,4-13.38,3.49-4.14-.54-7.44-3-10.13-6.72-4.52-6.28-7.36-16.28-9.69-27.4,11.41,1.56,21.72,3.69,28.37,7.72C306.61,140.54,309.28,143.62,310.1,147.66Z"/><path class="cls-16" d="M310.1,147.66c.74,3.63,0,8-2.64,13.39-5.26,2.95-9.66,4-13.38,3.49-4.14-.54-7.44-3-10.13-6.72a23.17,23.17,0,0,1,6.18-12.76,23.72,23.72,0,0,1,12.5-6.92C306.61,140.54,309.28,143.62,310.1,147.66Z"/><path class="cls-12" d="M310.1,147.66c.74,3.63,0,8-2.64,13.39-5.26,2.95-9.66,4-13.38,3.49a13.49,13.49,0,0,1,3.28-12.81A14,14,0,0,1,310.1,147.66Z"/><rect class="cls-15" x="304.72" y="144.67" width="1.84" height="28.58" transform="translate(-22.14 265) rotate(-45.41)"/><ellipse class="cls-15" cx="301.17" cy="125.84" rx="1.57" ry="1.55"/><ellipse class="cls-15" cx="319.58" cy="108.47" rx="1.75" ry="1.73"/><ellipse class="cls-15" cx="295.63" cy="148.93" rx="2.27" ry="2.24"/><polygon class="cls-15" points="316.74 174.85 314.9 174.85 314.9 140.66 300.52 126.49 301.81 125.18 316.74 139.9 316.74 174.85"/><path class="cls-11" d="M326.21,125.32c-.17,2.62.79,5.64,3.16,9.17,4,1.57,7.19,1.88,9.76,1.19,2.86-.78,4.94-2.8,6.47-5.69,2.57-4.85,3.59-12.16,4.15-20.21-7.88,2.18-14.92,4.66-19.21,8.13C328,120,326.39,122.4,326.21,125.32Z"/><path class="cls-16" d="M326.21,125.32c-.17,2.62.79,5.64,3.16,9.17,4,1.57,7.19,1.88,9.76,1.19,2.86-.78,4.94-2.8,6.47-5.69a16.47,16.47,0,0,0-5.59-8.4,16.94,16.94,0,0,0-9.47-3.68C328,120,326.39,122.4,326.21,125.32Z"/><path class="cls-12" d="M326.21,125.32c-.17,2.62.79,5.64,3.16,9.17,4,1.57,7.19,1.88,9.76,1.19a9.63,9.63,0,0,0-3.56-8.7A9.89,9.89,0,0,0,326.21,125.32Z"/><path class="cls-11" d="M329,147.66c-.74,3.63,0,8,2.64,13.39,5.26,2.95,9.66,4,13.38,3.49,4.14-.54,7.43-3,10.13-6.72,4.52-6.28,7.36-16.28,9.69-27.4-11.41,1.56-21.72,3.69-28.37,7.72C332.53,140.54,329.86,143.62,329,147.66Z"/><path class="cls-16" d="M329,147.66c-.74,3.63,0,8,2.64,13.39,5.26,2.95,9.66,4,13.38,3.49,4.14-.54,7.43-3,10.13-6.72A23.17,23.17,0,0,0,349,145.06a23.72,23.72,0,0,0-12.5-6.92C332.53,140.54,329.86,143.62,329,147.66Z"/><path class="cls-12" d="M329,147.66c-.74,3.63,0,8,2.64,13.39,5.26,2.95,9.66,4,13.38,3.49a13.52,13.52,0,0,0-3.28-12.81A14,14,0,0,0,329,147.66Z"/><rect class="cls-15" x="319.21" y="158.04" width="28.58" height="1.84" transform="translate(-15.58 279.92) rotate(-44.6)"/><ellipse class="cls-15" cx="337.97" cy="125.84" rx="1.57" ry="1.55"/><ellipse class="cls-15" cx="343.5" cy="148.93" rx="2.27" ry="2.24"/><polygon class="cls-15" points="324.24 174.85 322.4 174.85 322.4 139.9 337.32 125.18 338.62 126.49 324.24 140.66 324.24 174.85"/><rect class="cls-15" x="318.65" y="108.99" width="1.84" height="65.86"/></g></svg>