<svg xmlns="http://www.w3.org/2000/svg" xmlns:xlink="http://www.w3.org/1999/xlink" viewBox="0 0 650 350"><defs><style>.cls-1{fill:#f3e9d2;}.cls-2{fill:#27170d;}.cls-3{fill:#d94432;}.cls-4{fill:#9ed2c0;}.cls-10,.cls-5,.cls-6,.cls-7,.cls-8,.cls-9{fill:#edc396;}.cls-5{opacity:0.65;}.cls-6{opacity:0.4;}.cls-17,.cls-7{opacity:0.2;}.cls-8{opacity:0.1;}.cls-9{opacity:0.05;}.cls-10{opacity:0.02;}.cls-11{fill:#f7d3b2;}.cls-11,.cls-12{opacity:0.8;}.cls-12{fill:#fce6c8;}.cls-13{fill:#fff8ee;}.cls-14{fill:#f2b544;}.cls-15,.cls-16,.cls-24,.cls-49{stroke:#000;stroke-miterlimit:10;}.cls-15,.cls-16{stroke-width:0.29px;}.cls-16{fill:none;}.cls-18{fill:#51a66f;}.cls-19{fill:#367350;}.cls-20{fill:url(#linear-gradient);}.cls-21,.cls-25,.cls-42{opacity:0.3;}.cls-22{fill:#261303;}.cls-23{fill:#462816;}.cls-24{fill:#c5c5c5;}.cls-25,.cls-29,.cls-30,.cls-31,.cls-32,.cls-33,.cls-35{fill:#fff;}.cls-26{fill:url(#linear-gradient-2);}.cls-27{fill:#bf5d24;}.cls-28{opacity:0.49;}.cls-29{opacity:0.42;}.cls-30,.cls-39{opacity:0.56;}.cls-31{opacity:0.33;}.cls-32{opacity:0.69;}.cls-33{opacity:0.36;}.cls-34,.cls-49{fill:#4f2d1e;}.cls-36,.cls-39{fill:#fccb9e;}.cls-37{fill:#fabf8f;}.cls-38{fill:url(#linear-gradient-3);}.cls-40{opacity:0.13;}.cls-41{fill:#3f2b14;}.cls-42,.cls-45{fill:#fefef2;}.cls-43{opacity:0.25;}.cls-44{fill:#1f4e8c;}.Graphic-Style-7{opacity:0.07;fill:url(#linear-gradient-4);}.cls-46{fill:#7e491b;}.cls-47{fill:#f2a76a;}.cls-47,.cls-48{opacity:0.26;}.cls-50{mask:url(#mask);}</style><linearGradient id="linear-gradient" x1="-0.14" y1="268.42" x2="650" y2="268.42" gradientUnits="userSpaceOnUse"><stop offset="0" stop-color="#3851ff"/><stop offset="1" stop-color="#44beff"/></linearGradient><linearGradient id="linear-gradient-2" x1="324.6" y1="186.15" x2="324.6" gradientUnits="userSpaceOnUse"><stop offset="0" stop-color="#fff" stop-opacity="0.85"/><stop offset="0.07" stop-color="#fff" stop-opacity="0.84"/><stop offset="0.13" stop-color="#fff" stop-opacity="0.79"/><stop offset="0.2" stop-color="#fff" stop-opacity="0.72"/><stop offset="0.26" stop-color="#fff" stop-opacity="0.61"/><stop offset="0.32" stop-color="#fff" stop-opacity="0.47"/><stop offset="0.32" stop-color="#fff" stop-opacity="0.47"/><stop offset="0.47" stop-color="#fff" stop-opacity="0.6"/><stop offset="0.6" stop-color="#fff" stop-opacity="0.33"/><stop offset="1" stop-color="#fff" stop-opacity="0.42"/></linearGradient><linearGradient id="linear-gradient-3" x1="320.71" y1="194.49" x2="320.71" y2="163.1" gradientUnits="userSpaceOnUse"><stop offset="0" stop-color="#f2a76a" stop-opacity="0.35"/><stop offset="0.38" stop-color="#f3ac71" stop-opacity="0.36"/><stop offset="0.73" stop-color="#f7ba85" stop-opacity="0.39"/><stop offset="1" stop-color="#fccb9e" stop-opacity="0.42"/></linearGradient><linearGradient id="linear-gradient-4" x1="299.66" y1="149.29" x2="299.66" y2="159.53" gradientUnits="userSpaceOnUse"><stop offset="0" stop-opacity="0.56"/><stop offset="0.97" stop-opacity="0.11"/><stop offset="1" stop-opacity="0.08"/></linearGradient><mask id="mask" x="708.5" y="1134.02" width="282.74" height="282.74" maskUnits="userSpaceOnUse"/></defs><g id="ŁUKASZ_STROBEJKO_-_LANDSCAPE" data-name="ŁUKASZ STROBEJKO - LANDSCAPE"><rect class="cls-1" x="-1.8" y="-1" width="653.96" height="352.69"/><path d="M651.16,0V350.69H-.8V0h652m2-2H-2.8V352.69h656V-2Z"/><polygon class="cls-2" points="593.17 154.02 591.4 151 592.86 150.57 595.26 154.57 593.17 154.02"/><polygon class="cls-2" points="612.22 153.15 613.66 149.96 612.16 149.69 610.2 153.91 612.22 153.15"/><circle class="cls-3" cx="420.19" cy="86.55" r="42.72"/><path class="cls-4" d="M350.16,141.62c6.54-5.32,13.72-9.44,24.95-5.92,14.35,3.79,33.29,19.77,57.95,51l-74.48,1.69Z"/><circle class="cls-5" cx="250.68" cy="66.15" r="7.69"/><circle class="cls-6" cx="250.75" cy="66.15" r="11.59"/><circle class="cls-7" cx="250.75" cy="66.15" r="16.38"/><circle class="cls-8" cx="250.68" cy="66.15" r="22.44"/><circle class="cls-9" cx="250.83" cy="66.15" r="29.78"/><circle class="cls-10" cx="250.62" cy="66.15" r="39.31"/><circle class="cls-11" cx="250.75" cy="66.27" r="4.81"/><circle class="cls-12" cx="250.67" cy="66.15" r="2.38"/><circle class="cls-13" cx="250.68" cy="66.15" r="0.66"/><rect class="cls-14" x="243.12" y="110.93" width="15.09" height="3.38"/><path d="M258.07,111.08v3.09h-14.8v-3.09h14.8m.29-.29H243v3.67h15.38v-3.67Z"/><polygon class="cls-14" points="244.01 110.94 245.9 73.09 255.6 73.09 257.32 110.94 244.01 110.94"/><path d="M255.46,73.23l0,.35.08,1.63,1.61,35.58h-13l1.78-35.58.09-2h9.43m.28-.29h-10l0,.28-.1,2-1.77,35.59v.31h13.62l0-.31L255.85,75.2l-.08-1.63v-.35l0-.28Z"/><path d="M246,74.72a1.74,1.74,0,0,0-.58-1c-.53,0-.85-.27-.87-.71h12.34a.91.91,0,0,1-.82.67,1.12,1.12,0,0,0-.77,1.06H255V73.66l-1.49,0a1.16,1.16,0,0,0-.73,1.26h-.59l0-1.26h-3.33v1.26h-.49a2,2,0,0,0-.79-1.28h-1.28v1.08Z"/><path class="cls-14" d="M256.84,72.83s0,.11-.08.16H244.52a.88.88,0,0,1,0-.16Z"/><path class="cls-15" d="M246.68,72.72l.17-4c-.3,0-.6-.25-.9-.7h9.43c-.16.39-.39.68-.84.67l.17,4Z"/><line class="cls-16" x1="247.82" y1="68.06" x2="247.82" y2="64.49"/><line class="cls-16" x1="249.59" y1="68.06" x2="249.59" y2="64.49"/><line class="cls-16" x1="251.87" y1="68.06" x2="251.87" y2="64.49"/><line class="cls-16" x1="253.57" y1="68.06" x2="253.57" y2="64.49"/><path d="M246.34,64.39h8.55c0-.35-.06-.62-.63-.59l-3.35-3,0-2.34a.26.26,0,0,0-.37,0v2.35l-3.39,3.05C246.47,63.81,246.32,64,246.34,64.39Z"/><path class="cls-14" d="M246.34,64.39h8.56v.1h-8.56Z"/><path class="cls-14" d="M245.69,67.81h9.91v.1h-9.92A.31.31,0,0,1,245.69,67.81Z"/><polygon class="cls-17" points="255.56 75.21 245.94 75.21 246.03 73.23 255.47 73.23 255.56 75.21"/><polygon class="cls-17" points="248.9 73.23 246.67 110.79 244.16 110.79 245.94 75.21 246.03 73.23 248.9 73.23"/><polygon class="cls-17" points="257.17 110.79 254.88 110.79 252.7 73.58 255.48 73.58 255.56 75.21 257.17 110.79"/><path d="M249.27,82.53H252V80.05c0-1.64-2.77-1.64-2.77,0Z"/><path d="M248.7,111.08H253v-4.64a2.14,2.14,0,1,0-4.26,0Z"/><path class="cls-18" d="M236.25,114c28.18-3,56.32-.41,84.38,14.3,11.17-5.53,22.49-5.65,34.3,12.38l30.81,46.06-151.19,4.13Z"/><path class="cls-19" d="M319.36,188.42H-.13V75.21c16.24-7,29.29-16.55,68.47-4.83,22.34-1,44.43-1.91,55.27,6.23,29.41,2.07,58.09,4.44,73,12.57a22.76,22.76,0,0,1,8.64,5.23c14.07,3.25,27.21,8,36.56,19.06,6.68,7.88,11.43,18.95,13.2,34.93l5.93,5.93c2-2.46,3.38-1.44,4,3.18,12.51,6.61,22.8,13.17,23.72,19.48l15,5.59,11.14,4.15Z"/><rect class="cls-20" x="-0.14" y="186.15" width="650.14" height="164.54"/><path class="cls-21" d="M-.14,250.57V238l6,.12,16.85.33,25.84.51,33,.64,38.27.75,41.72.82,43.33.85,43.09.84,41,.8,37.09.73c21.18.41,42.36.9,63.54,1.36a35.2,35.2,0,0,1,9.28,1,14.77,14.77,0,0,1,5.61,2.88c2.74,2.52.35,3.48-2.5,3.22-7.25-.66-14.51-.48-21.77-.51l-25.87-.12-32.25-.15-37-.17c-27,0-53.93-.25-80.89-.37-14.3,0-28.61-.14-42.92-.2l-40.18-.19-81.52-.37c-4.46,0-8.93,0-13.4-.06L8.4,250.61l-8.18,0Z"/><path class="cls-21" d="M90,202.35l-102,.74,26-1.45,48.58-2.71c27.13-1.51,54.25-1.3,81.41-1.06l11.93.1,42.06.36,46.79.4,48.34.42,46.69.4c26.95.23,53.89.38,80.83.64,5.64,0,11.32.31,16.95.16,4.81-.12,11.43-.41,15.56,2.51-1.93,1.34-6.63.21-9,.21l-19.59,0L396.45,203l-34.55-.07-39-.08-41.49-.08-41.95-.09-40.4-.08-36.85-.07-31.28-.06-23.71-.05-14.13,0Z"/><path class="cls-22" d="M619.87,176.36l-41,3.77.39,3.22c0,.54.45.93,1.41,1.19,1.13.15,1.7.54.46,1.61l32-.05C617.67,184.72,620,181.49,619.87,176.36Z"/><path class="cls-23" d="M599.92,185c10.75,1,19.11,0,19.54-7.78l-27.06,2.27,16.14-.66-14,2,12.05-.8-16.85,2.79,23.44-1.87C612,183,608.47,184.58,599.92,185Z"/><polygon class="cls-22" points="605.4 177.97 607.19 172.82 605.75 172.67 604.37 177.39 602.27 173.36 600.54 173.5 603.04 178.17 605.4 177.97"/><path class="cls-24" d="M619.15,173.41c-8.84-.41-17.83-.31-27.72,3.1,1.18-6.55,2.7-13,.43-20.33-1-2.46-.66-3.44,1.2-2.73a94.41,94.41,0,0,1,19.86-1.27C617.46,156.7,621.81,161.41,619.15,173.41Z"/><polygon class="cls-25" points="650 334.4 35.53 317.23 650 325.82 650 334.4"/><rect class="cls-26" x="-0.8" width="650.8" height="186.15"/><path class="cls-27" d="M258.37,186.73c0-6.5,58.44-6.5,58.44,0Z"/><path class="cls-27" d="M183.62,186.73c0-6.5,58.44-6.5,58.44,0Z"/><path class="cls-27" d="M-5,186.73c0-12,107.88-12,107.88,0Z"/><path class="cls-28" d="M650,208.87l-.12.21-.68,1.16c-2.16,0-4.45,0-6.82,0-13.53,0-24.51-.32-24.51-.71s11-.72,24.51-.72C645,208.84,647.6,208.85,650,208.87Z"/><ellipse class="cls-29" cx="511.01" cy="220.13" rx="24.51" ry="1.01"/><ellipse class="cls-30" cx="473.75" cy="215.58" rx="24.51" ry="1.01"/><ellipse class="cls-30" cx="29.2" cy="224.9" rx="24.51" ry="1.01"/><ellipse class="cls-30" cx="42.41" cy="219.12" rx="24.51" ry="1.01"/><ellipse class="cls-30" cx="65.44" cy="231.79" rx="24.51" ry="1.01"/><ellipse class="cls-31" cx="472" cy="196.74" rx="16.19" ry="0.66"/><ellipse class="cls-32" cx="432.45" cy="196.74" rx="16.19" ry="0.66"/><ellipse class="cls-29" cx="443.04" cy="220.13" rx="24.51" ry="1.01"/><ellipse class="cls-29" cx="35.53" cy="267.78" rx="24.51" ry="1.01"/><ellipse class="cls-29" cx="406.83" cy="215.58" rx="24.51" ry="1.01"/><ellipse class="cls-33" cx="444.51" cy="210.31" rx="45.77" ry="1.88"/><ellipse class="cls-33" cx="164.72" cy="226.78" rx="45.77" ry="1.88"/><path class="cls-25" d="M650.17,235.92l-168.77.66c.9.79,1.8,1.57,2.72,2.34l165.7,4.88.35-.27Z"/><path class="cls-25" d="M642.7,203.42l7.3,0a2.44,2.44,0,0,1-.1.24Z"/><path class="cls-34" d="M198,350.81v-1.16a.42.42,0,0,0-.36.18s0-.15.06-.21,0-.16.05-.19a18.69,18.69,0,0,0,.79-5.75c0-.76.06-1.5.12-2.2.27-3.25.51-6.51.75-9.77l.3-4.16c.35-4.55.76-9.84,1.32-15.06.1-1,.16-2.08.23-3.18a27.15,27.15,0,0,1,1.34-8.37c1.1-2.82,3.56-5.65,7.3-8.43,6.42-4.74,15-9.24,26.3-13.76,10.78-4.31,23.14-7.8,38.92-11l2-.4c2-.39,4-.76,6-1.13l.94-.17c1-.17,4.28-.92,7.47-1.65l4.1-.94.31-.07c1.33-.3,2.38-.53,3-.65l1.58-7,39.48.47v8c.83.09,2.44.3,3.39.44l1.11.15,4.4.61c3.44.49,7,1,8.35,1.15l.38.05c4.41.51,8.39,1.08,12.19,1.77a167.69,167.69,0,0,1,37.48,11.08c3.55,1.53,7,3.32,10.3,5,2.06,1.07,4.18,2.18,6.3,3.21A30.37,30.37,0,0,1,438.61,302c2.66,5.85,3.6,12.34,4.5,18.62.22,1.52.44,3,.68,4.53l.54,3.33c1.14,7.11,2.31,14.45,3.91,21.6l.16.71Z"/><path d="M301,256.32l38.43.45v7.91a2.26,2.26,0,0,1,.33,0c.48,0,1.82.21,3.57.45l1.11.15c4.52.63,10.82,1.53,12.75,1.77l.4.05c4.12.47,8.16,1,12.14,1.76a167.46,167.46,0,0,1,37.35,11c5.74,2.47,11,5.55,16.58,8.24a29.83,29.83,0,0,1,14.38,14.08c3.27,7.18,3.91,15.4,5.14,23,1.35,8.34,2.61,16.7,4.46,25H198c.2,0,.26-.49.3-.59.92-2.46.73-5.56.94-8.11.39-4.64.71-9.29,1.06-13.94.38-5,.78-10,1.31-15,.39-3.71.16-7.85,1.54-11.4,1.25-3.2,4.2-6,7.1-8.17,7.58-5.6,17.18-10.09,26.17-13.69,12.41-5,25.55-8.28,38.82-11l2-.4c2-.39,4-.76,6-1.13l.94-.17c1.42-.24,7.46-1.66,11.59-2.59l.3-.07c1.57-.35,2.81-.62,3.37-.71l.08-.25,1.51-6.68m-.93-1.17-.21.92-1.4,6.17-2.68.58-.33.08-4.05.93c-3.19.73-6.49,1.48-7.45,1.64l-.44.08-.53.1c-1.77.32-3.88.71-6,1.13l-2,.4c-15.81,3.21-28.21,6.71-39,11-11.32,4.53-20,9.06-26.43,13.84-3.83,2.84-6.35,5.76-7.49,8.68a27.57,27.57,0,0,0-1.39,8.54c-.06,1.1-.12,2.14-.22,3.16-.56,5.23-1,10.52-1.32,15.07l-.3,4.16c-.24,3.2-.48,6.52-.76,9.77,0,.72-.08,1.45-.11,2.23a18.26,18.26,0,0,1-.76,5.57s0,.13-.07.26l0,.12a1,1,0,0,1,.9-.54v2.33h251.1l-.32-1.42c-1.59-7.13-2.77-14.46-3.91-21.56l-.53-3.34c-.24-1.49-.47-3-.68-4.52-.91-6.32-1.86-12.86-4.55-18.78a31,31,0,0,0-14.94-14.65c-2.11-1-4.23-2.12-6.28-3.19-3.33-1.74-6.77-3.53-10.34-5.07A169,169,0,0,0,370,267.75c-3.8-.68-7.79-1.26-12.21-1.77l-.17,0-.23,0c-1.33-.16-4.87-.66-8.3-1.14l-4.42-.62-1.11-.15c-.79-.11-2-.28-2.9-.38v-8h-1.15l-38.43-.45Z"/><path class="cls-35" d="M368.63,350.23H351.4l-3.15-3.72-37-45.39-28-34.33.94-.17c1.42-.24,7.46-1.66,11.59-2.59l.3-.07,4.89,5.78,6,7.12,13.32,15.76,14-16.67,4.13-4.92,4.92-5.86,1.11.15c4.52.63,10.82,1.53,12.75,1.77v0L328.7,301.83l1.11,1.35Z"/><path class="cls-36" d="M369.65,138.91l-.5,25.87c-2.28,17.45-4.73,36.54-8.31,45-4.2,9.83-9.74,18.27-19.22,22.62-6.42,1.82-12.92,3.45-20.91,1.6-8,1.85-14.49.22-20.91-1.6-9.48-4.35-15-12.79-19.22-22.62-3.58-8.45-6-27.54-8.32-45l-.49-25.87,7-21,7.81-14,34.12-19,34.12,19,7.81,14Z"/><path class="cls-37" d="M275.5,185.6l.9,8.89c0,2.45-1.33,2.76-3.38.92-1.56-2.4-2.63-4.76-2.35-7l-.4-7.76c-1.38-5.69-2.18-10.94-1.65-15.16-.58-3,3.06-3.73,3.64-.7l1.61,10.51.6,4.42Z"/><path class="cls-38" d="M333.51,191.09a4.36,4.36,0,0,1-2.6,1.6,14.48,14.48,0,0,0-5.51-.47,6,6,0,0,1-9.39,0,14.44,14.44,0,0,0-5.5.47,4.36,4.36,0,0,1-2.6-1.6c-.75-1.08-.78-2.66.1-4.87l5.33-6.61,5.14-16.51h4.46l5.14,16.51,5.33,6.61C334.29,188.43,334.26,190,333.51,191.09Z"/><path class="cls-39" d="M320.71,190.35a3,3,0,1,1,0-6.07A3,3,0,1,1,320.71,190.35Z"/><path class="cls-40" d="M333.51,191.09a4.36,4.36,0,0,1-2.6,1.6,14.48,14.48,0,0,0-5.51-.47,6,6,0,0,1-9.39,0,14.44,14.44,0,0,0-5.5.47,4.36,4.36,0,0,1-2.6-1.6c3.43-1.26,6.57-1.6,9.11,0a6.27,6.27,0,0,0,7.38,0C326.94,189.49,330.08,189.83,333.51,191.09Z"/><path class="cls-41" d="M315.7,192.07a11.25,11.25,0,0,0-4.87,0C310.83,190.34,315.7,190.34,315.7,192.07Z"/><path class="cls-41" d="M370.72,158.09l-3.17,17.2v-22l-1.91-11-4-5.4-.85-1.14-2.61-3.52-.54-4.51-1.06-9c-3.73-6-8.45-11-14.71-14-5.66-2.67-12.57-3.69-21.15-2.34-8.57-1.35-15.47-.34-21.12,2.33-6.28,3-11,8-14.74,14l-1.6,13.48-1.84,2.48-5.14,6.91-.5.67-.46,2.69-1.44,8.32v22l-3.17-17.2A52.36,52.36,0,0,1,268.86,146c-.05-1.06-.07-2.13-.06-3.22,0-2,.1-4.1.29-6.21a122.51,122.51,0,0,1,5.76-27,44.34,44.34,0,0,1,1.69-4.17,47,47,0,0,1,11.37-15.05c5.55-4.92,13.31-10,20.77-11.23,5.78-.93,11.66-.18,17.48-.2,16.4,0,31.87,12,38.72,26.52.31.66.6,1.32.88,2s.57,1.42.81,2.14a139.8,139.8,0,0,1,4.52,17.72q.78,4.32,1.17,8.46c0,.28.06.57.08.85A60.6,60.6,0,0,1,370.72,158.09Z"/><path class="cls-42" d="M309.26,159.19l.47.31-1.32.94c-8.26,4.4-12.32,2.06-16.77.32l-1.76-1c1.9-2.3,4.4-3.12,7.32-3.52a16.49,16.49,0,0,1,6.66.61A26.25,26.25,0,0,1,309.26,159.19Z"/><path d="M310.2,159.91h0a31.65,31.65,0,0,0-6.34-2.95,14.36,14.36,0,0,0-6.66-.7A10.79,10.79,0,0,0,290,161c-.16.22-.32.45-.47.68l-.6-1.47c.32-.32.63-.62.95-.92a13.77,13.77,0,0,1,8.26-3.85,14,14,0,0,1,5.05.59,24.73,24.73,0,0,1,7.06,3.63c.77.54,1.53,1.13,2.3,1.75C311.74,160.86,311,160.37,310.2,159.91Z"/><path d="M314.08,159.53v1.73c-.61-.62-1.2-1.2-1.79-1.73-9.13-8.31-17.16-7.05-24.51,0q-.64.6-1.26,1.26v-1.26C295.83,150.38,305,152.12,314.08,159.53Z"/><path class="cls-21" d="M312.11,164.33c-6.33,2.84-13.5,3.76-21.32,3.2,4.91.38,6.5,2,21.75-1.52Z"/><path class="cls-43" d="M313.14,150.65c-1.09-.26-2.14-.47-3.18-.65-11-1.93-18.88.19-24.71,5l-2-2.4,3.8-4.15a10.3,10.3,0,0,1,7.12-3.32l.52,0a8.9,8.9,0,0,0,2.29-.42l6.44-2.12a5.58,5.58,0,0,1,2.81-.16l7.31,1.51A8,8,0,0,1,313.14,150.65Z"/><path class="cls-44" d="M300.27,162a3.58,3.58,0,0,1-3.58-3.58,3.54,3.54,0,0,1,.81-2.26,7.82,7.82,0,0,1,1.63-.16,13.85,13.85,0,0,1,4.25.73,3.14,3.14,0,0,1,.47,1.69A3.58,3.58,0,0,1,300.27,162Z"/><path d="M299.13,156.12a13.76,13.76,0,0,1,4.21.73,3.32,3.32,0,0,1,.39,1.57,3.46,3.46,0,1,1-6.91,0,3.42,3.42,0,0,1,.78-2.18,9.49,9.49,0,0,1,1.53-.12m0-.25h0a10.09,10.09,0,0,0-1.57.12l-.09,0-.07.07a3.71,3.71,0,1,0,6.58,2.34,3.64,3.64,0,0,0-.41-1.69l-.05-.09-.1,0a14.07,14.07,0,0,0-4.29-.74Z"/><circle cx="300.55" cy="158.77" r="1.14"/><circle class="cls-45" cx="298.35" cy="157.44" r="0.65"/><path d="M308.41,160.44c-8.26,5.05-12.32,2.32-16.77.32C300.79,164.69,304.06,162,308.41,160.44Z"/><path class="Graphic-Style-7" d="M314.08,159.53c-9.09-7.41-18.25-9.15-27.56,0L285.25,155c5.83-4.8,13.72-6.92,24.71-5l3.18.65Z"/><polygon class="cls-37" points="274.57 187.32 283.25 207.9 288.92 219.38 293.79 226.85 290.79 231.79 282.58 222.99 277.11 206.17 274.57 187.32"/><polygon class="cls-37" points="366.85 187.32 358.17 207.9 352.5 219.38 347.63 226.85 350.63 231.79 358.84 222.99 364.31 206.17 366.85 187.32"/><path class="cls-37" d="M365.92,185.6l-.9,8.89c0,2.45,1.32,2.76,3.38.92,1.56-2.4,2.63-4.76,2.35-7l.4-7.76c1.37-5.69,2.18-10.94,1.65-15.16.58-3-3.07-3.73-3.65-.7l-1.61,10.51-.6,4.42Z"/><path class="cls-41" d="M325.71,192.07a11.3,11.3,0,0,1,4.88,0C330.59,190.34,325.71,190.34,325.71,192.07Z"/><path class="cls-46" d="M339.75,206.17c-6.79,2.61-13.33,4.69-19,5-5.71-.32-12.25-2.4-19-5,7.12,1.34,13.73,2.13,19,1.5C326,208.3,332.63,207.51,339.75,206.17Z"/><path class="cls-42" d="M332.16,159.19l-.47.31,1.32.94c8.26,4.4,12.32,2.06,16.77.32l1.76-1c-1.91-2.3-4.4-3.12-7.32-3.52a16.49,16.49,0,0,0-6.66.61A25.79,25.79,0,0,0,332.16,159.19Z"/><path d="M331.22,159.91h0a31.4,31.4,0,0,1,6.34-2.95,14.36,14.36,0,0,1,6.66-.7,10.82,10.82,0,0,1,7.21,4.72c.16.22.32.45.47.68l.6-1.47c-.32-.32-.63-.62-.95-.92a13.77,13.77,0,0,0-8.27-3.85,14,14,0,0,0-5,.59,24.91,24.91,0,0,0-7.07,3.63c-.76.54-1.52,1.13-2.3,1.75C329.67,160.86,330.46,160.37,331.22,159.91Z"/><path d="M327.34,159.53v1.73c.6-.62,1.2-1.2,1.79-1.73,9.13-8.31,17.16-7.05,24.51,0q.63.6,1.26,1.26v-1.26C345.59,150.38,336.43,152.12,327.34,159.53Z"/><path class="cls-21" d="M329.31,164.33c6.32,2.84,13.5,3.76,21.32,3.2-4.92.38-6.51,2-21.76-1.52Z"/><path class="cls-43" d="M328.27,150.65c1.09-.26,2.15-.47,3.18-.65,11-1.93,18.88.19,24.72,5l2-2.4-3.8-4.15a10.3,10.3,0,0,0-7.12-3.32l-.52,0a8.9,8.9,0,0,1-2.29-.42L338,142.56a5.59,5.59,0,0,0-2.81-.16l-7.32,1.51A8,8,0,0,0,328.27,150.65Z"/><path class="cls-44" d="M341.14,162a3.57,3.57,0,0,1-3.57-3.58,3.5,3.5,0,0,1,.39-1.63,13.11,13.11,0,0,1,4.33-.79,9.83,9.83,0,0,1,1.55.12,3.42,3.42,0,0,1,.88,2.3A3.58,3.58,0,0,1,341.14,162Z"/><path d="M342.29,156.12a9.58,9.58,0,0,1,1.53.12,3.42,3.42,0,0,1,.78,2.18,3.46,3.46,0,1,1-6.91,0,3.32,3.32,0,0,1,.39-1.57,13.67,13.67,0,0,1,4.21-.73m0-.25a14.07,14.07,0,0,0-4.29.74l-.1,0,0,.09a3.64,3.64,0,0,0-.41,1.69,3.71,3.71,0,1,0,7.41,0,3.65,3.65,0,0,0-.84-2.34L344,156l-.09,0a10.18,10.18,0,0,0-1.57-.12Z"/><circle cx="340.87" cy="158.77" r="1.14"/><circle class="cls-45" cx="339.2" cy="157.44" r="0.65"/><path d="M333,160.44c8.26,5.05,12.32,2.32,16.77.32C340.63,164.69,337.35,162,333,160.44Z"/><path class="Graphic-Style-7" d="M327.34,159.53c9.09-7.41,18.25-9.15,27.56,0l1.27-4.54c-5.84-4.8-13.72-6.92-24.72-5l-3.18.65Z"/><path class="cls-41" d="M366.18,196.59l-.4-1.34-.54-1.89.41-3.17v0l.22-1.79,0-.21,1.21-9.5.07-.54,0-.28-3.4,16.71-2.35,11.61A48,48,0,0,1,356.74,218h0c-.16.29-.34.56-.52.86l0,.09c-.12.2-.25.41-.38.6l-.15.23-.41.61a34.43,34.43,0,0,1-4.59,5.42l-.53-2.72-2.58-13.29,2.26-9.61-7.84-3.5-5.62.6-5.41-1.7-5.9.5-4.3,1.6-4.29-1.6-5.91-.5-5.4,1.7-5.62-.6-7.85,3.5,2.26,9.61-2.58,13.29-.53,2.72a34.43,34.43,0,0,1-4.59-5.42l-.41-.61-.15-.23c-.13-.19-.25-.4-.38-.6a.41.41,0,0,0-.05-.09c-.18-.28-.35-.57-.52-.86h0a47.62,47.62,0,0,1-4.7-11.79l-2.37-11.64v0l-3.38-16.66.06.44,0,.36,1.14,9.16,0,.14.28,2.2h0l.41,3.21-.54,1.86-.38,1.37-1.38,4.78,1.6,11.21,7,16.71,6.91,20,2.27,10,0,.06v.07l4.09,4.61,4.89,5.5.3.21a25,25,0,0,0,7.61,3.66,35.23,35.23,0,0,0,12.13,1.13,32.92,32.92,0,0,0,15.2-2.21,24.22,24.22,0,0,0,2.54-1.29,22.65,22.65,0,0,0,2.3-1.5l3.73-4.21,4.81-5.41.37-.41.07-.08L352,249.3l6.91-20,7-16.71,1.61-11.21Zm-60.24,9.18,14.77.8,14.77-.8,5.27.39-.39,7.74-2.61,10.21-4.23,2.67h-4.17l-2.24-1.6,2-3.79-.53-3.41-7.9-.34-7.9.34-.53,3.41,2,3.79-2.22,1.6h-4.18l-4.24-2.67-2.59-10.21-.41-7.74Z"/><polygon class="cls-47" points="299.66 195.06 296.82 193.76 308.41 181.04 299.66 195.06"/><polygon class="cls-47" points="341.75 195.06 344.6 193.76 333.01 181.04 341.75 195.06"/><path class="cls-48" d="M372.34,136.57q-5.35.12-10.71.32A775.59,775.59,0,0,0,275.31,145l-6.45,1c-.05-1.06-.07-2.13-.06-3.22,0-2,.1-4.1.29-6.21q6.15-1,12.32-1.83,18.68-2.62,37.45-4.37l2.17-.2q18.27-1.63,36.6-2.42,6.74-.3,13.46-.46.78,4.32,1.17,8.46C372.29,136,372.32,136.29,372.34,136.57Z"/><path class="cls-49" d="M372.26,135.72c-3.86,0-7.69,0-11.48,0a635.11,635.11,0,0,0-84.51,5.87c-2.51.36-5,.74-7.47,1.13,0-2,.1-4.1.29-6.21a122.51,122.51,0,0,1,5.76-27,44.34,44.34,0,0,1,1.69-4.17q5.19-.2,10.39-.33,6.33-.18,12.66-.29,21.17-.39,42.27,0c3.56.06,7.12.15,10.67.24q6.18.16,12.35.41c.31.66.6,1.32.88,2s.57,1.42.81,2.14a139.8,139.8,0,0,1,4.52,17.72Q371.87,131.58,372.26,135.72Z"/><path class="cls-35" d="M326.6,123.05a11.23,11.23,0,0,1-2.33,3l1,.06a4.3,4.3,0,0,1-1.61,1.24c-1.84,1-2.79-.2-3.23-2.76L320,118l2-.11a.55.55,0,0,0,.51-.58l0-.7a.55.55,0,0,0-.57-.5l-2,.11,0-1a3,3,0,1,0-1.66.09l.06,1-2,.11a.54.54,0,0,0-.51.56l0,.72a.53.53,0,0,0,.56.49l2.06-.11v.1c.37,4.24.4,7.06.09,8.25-.62,2.24-2.31,1.83-4.5.25l.93-.14a14.61,14.61,0,0,1-2.63-2.64c-.3,2.72.33,3.58,1,4.36l.38-.81a6.08,6.08,0,0,0,2.68,1.93,11.08,11.08,0,0,1,2.53,1h0a2.58,2.58,0,0,1,1.07,1,2.2,2.2,0,0,1,1.09-1.18h0a8.77,8.77,0,0,1,1.48-.77,7.72,7.72,0,0,0,3.28-2.6l.41.72C327.47,125.14,327.16,124,326.6,123.05Zm-8.49-9.63v.12a1.18,1.18,0,0,1-.48-.93,1.24,1.24,0,0,1,1.18-1.31,1.26,1.26,0,0,1,.95,2.15l0-.11Z"/><path class="cls-28" d="M651.49,271.21c-13.85-5-32.26-3.61-45-3.35-14.08.28-28.16.88-42.22,1.88q-10.82.76-21.6,1.86c-6.2.63-14.88.36-20.36,2.68,27.2,4.67,55.45,1.33,82.88,1.77l46.31.74Z"/></g></svg>