<svg xmlns="http://www.w3.org/2000/svg" xmlns:xlink="http://www.w3.org/1999/xlink" viewBox="0 0 282.61 277.41"><defs><style>.cls-1{fill:#f3e9d2;}.cls-2{fill:#fcfcfc;}.cls-2,.cls-5{opacity:0.65;}.cls-3{fill:#d94432;}.cls-4{fill:#9ed2c0;}.cls-10,.cls-5,.cls-6,.cls-7,.cls-8,.cls-9{fill:#edc396;}.cls-6{opacity:0.4;}.cls-17,.cls-7{opacity:0.2;}.cls-8{opacity:0.1;}.cls-9{opacity:0.05;}.cls-10{opacity:0.02;}.cls-11{fill:#f7d3b2;}.cls-11,.cls-12{opacity:0.8;}.cls-12{fill:#fce6c8;}.cls-13{fill:#fff8ee;}.cls-14{fill:#f2b544;}.cls-15,.cls-16,.cls-46{stroke:#000;stroke-miterlimit:10;}.cls-15,.cls-16{stroke-width:0.29px;}.cls-16{fill:none;}.cls-18{fill:#51a66f;}.cls-19{fill:#367350;}.cls-20{fill:url(#linear-gradient);}.cls-21{fill:#bf5d24;}.cls-22{fill:url(#linear-gradient-2);}.cls-23,.cls-25,.cls-26,.cls-27,.cls-28,.cls-29,.cls-32{fill:#fff;}.cls-23{opacity:0.42;}.cls-24{opacity:0.49;}.cls-25,.cls-36{opacity:0.56;}.cls-26{opacity:0.33;}.cls-27{opacity:0.69;}.cls-28{opacity:0.36;}.cls-29,.cls-30,.cls-39{opacity:0.3;}.cls-31,.cls-46{fill:#4f2d1e;}.cls-33,.cls-36{fill:#fccb9e;}.cls-34{fill:#fabf8f;}.cls-35{fill:url(#linear-gradient-3);}.cls-37{opacity:0.13;}.cls-38{fill:#3f2b14;}.cls-39,.cls-42{fill:#fefef2;}.cls-40{opacity:0.25;}.cls-41{fill:#1f4e8c;}.Graphic-Style-8{opacity:0.07;fill:url(#linear-gradient-4);}.cls-43{fill:#7e491b;}.cls-44{fill:#f2a76a;}.cls-44,.cls-45{opacity:0.26;}.cls-46{stroke-width:0.48px;}.cls-47{mask:url(#mask);}</style><linearGradient id="linear-gradient" x1="141.48" y1="227.43" x2="141.48" y2="3.82" gradientUnits="userSpaceOnUse"><stop offset="0" stop-color="#fff" stop-opacity="0.85"/><stop offset="0.07" stop-color="#fff" stop-opacity="0.84"/><stop offset="0.13" stop-color="#fff" stop-opacity="0.79"/><stop offset="0.2" stop-color="#fff" stop-opacity="0.72"/><stop offset="0.26" stop-color="#fff" stop-opacity="0.61"/><stop offset="0.32" stop-color="#fff" stop-opacity="0.47"/><stop offset="0.32" stop-color="#fff" stop-opacity="0.47"/><stop offset="0.47" stop-color="#fff" stop-opacity="0.6"/><stop offset="0.6" stop-color="#fff" stop-opacity="0.33"/><stop offset="1" stop-color="#fff" stop-opacity="0.42"/></linearGradient><linearGradient id="linear-gradient-2" x1="14.03" y1="226.37" x2="268.94" y2="226.37" gradientUnits="userSpaceOnUse"><stop offset="0" stop-color="#3851ff"/><stop offset="1" stop-color="#44beff"/></linearGradient><linearGradient id="linear-gradient-3" x1="143.21" y1="147" x2="143.21" y2="121.45" gradientUnits="userSpaceOnUse"><stop offset="0" stop-color="#f2a76a" stop-opacity="0.35"/><stop offset="0.38" stop-color="#f3ac71" stop-opacity="0.36"/><stop offset="0.73" stop-color="#f7ba85" stop-opacity="0.39"/><stop offset="1" stop-color="#fccb9e" stop-opacity="0.42"/></linearGradient><linearGradient id="linear-gradient-4" x1="126.08" y1="110.21" x2="126.08" y2="118.54" gradientUnits="userSpaceOnUse"><stop offset="0" stop-opacity="0.56"/><stop offset="0.97" stop-opacity="0.11"/><stop offset="1" stop-opacity="0.08"/></linearGradient><mask id="mask" x="2.49" y="301.47" width="282.74" height="282.74" maskUnits="userSpaceOnUse"/></defs><g id="ÅUKASZ"><path class="cls-1" d="M141.49,273.35c-.75,0-1.49,0-2.24,0-1.36,0-2.85-.07-4.4-.14-3.8-.18-7.65-.53-11.44-1.05-2.49-.32-5.06-.74-7.62-1.23-3-.57-5.82-1.22-8.48-1.92-3.29-.85-6.61-1.86-9.88-3-.17-.06-.35-.11-.52-.18A131.41,131.41,0,0,1,80.71,259c-1.65-.82-3-1.54-4.29-2.26-.55-.29-1.1-.61-1.65-.92-1.87-1.05-3.77-2.19-5.8-3.47-.22-.16-.41-.27-.59-.39-2.06-1.33-3.86-2.56-5.54-3.77l-1-.71-.61-.46c-.84-.61-1.84-1.35-2.82-2.14C57.23,243.92,56,243,54.89,242c-.93-.78-1.84-1.56-2.74-2.36l-.18-.16-1.07-.95-.82-.75c-1.17-1.07-2.22-2.06-3.2-3-1.37-1.33-2.71-2.69-4-4-.82-.86-1.62-1.74-2.4-2.63-1.27-1.4-2.55-2.89-3.8-4.42-.4-.48-.8-1-1.18-1.48l-.52-.64a134,134,0,0,1-9.57-13.91l-.87-1.47c-1.56-2.67-2.91-5.16-4.12-7.62-1.15-2.27-2.26-4.65-3.29-7.05-1.29-3-2.47-6.05-3.53-9.09-.2-.56-.39-1.14-.58-1.72-.67-2-1.25-3.89-1.77-5.75a135.56,135.56,0,0,1-5.08-36.86c0-.92,0-1.85,0-2.76a138,138,0,0,1,1.07-14.54c.31-2.46.7-5,1.19-7.61.29-1.6.64-3.27,1-5,.19-.85.39-1.71.59-2.56.51-2.07,1.09-4.18,1.77-6.45a130.25,130.25,0,0,1,6.29-16.78c.38-.86.79-1.72,1.19-2.58v0l.09-.19A134.2,134.2,0,0,1,34.79,55c.32-.42.66-.85,1-1.28l.07-.08c.37-.48.76-1,1.16-1.44,1.56-1.9,3.23-3.82,5-5.7l.17-.18c.68-.73,1.4-1.5,2.13-2.25s1.61-1.64,2.42-2.44c.08-.09.2-.2.32-.31.67-.66,1.38-1.34,2.1-2,.14-.14.3-.3.48-.45.76-.72,1.56-1.44,2.37-2.14.22-.21.47-.42.71-.62.5-.45,1-.91,1.58-1.36l1.12-1c.78-.64,1.57-1.28,2.38-1.92A138.3,138.3,0,0,1,73.77,21c2-1.14,4-2.23,6.1-3.31a133.9,133.9,0,0,1,34.5-12.11A134.92,134.92,0,0,1,232.85,38.36a2.63,2.63,0,0,1,.29.26l.08.07c.3.27.61.56.92.86A133.89,133.89,0,0,1,244.5,50.41q1.33,1.58,2.61,3.18c1.7,2.11,3.41,4.38,5.06,6.73a134.65,134.65,0,0,1,7.22,11.42c.59,1.05,1.17,2.11,1.73,3.18a134.31,134.31,0,0,1,10.45,26c.66,2.34,1.29,4.79,1.85,7.29.13.59.27,1.17.39,1.76.23,1,.44,2.12.63,3.19q.26,1.35.48,2.73c.09.5.17,1,.25,1.53.19,1.14.34,2.24.48,3.35.45,3.5.76,7.12,1,10.76.1,2.17.15,4.37.15,6.54a135.08,135.08,0,0,1-6.86,42.63c-1.13,3.4-2.4,6.77-3.78,10,0,.07-.07.18-.13.3-1.28,3-2.73,6.09-4.29,9.1-.08.17-.18.37-.29.58-.9,1.74-1.88,3.51-2.89,5.25l-.8,1.37c-.89,1.47-1.79,2.91-2.69,4.29l-.14.23a131.63,131.63,0,0,1-8.65,11.82c-1.22,1.5-2.5,3-3.79,4.43-.79.88-1.59,1.76-2.41,2.63-2.25,2.41-4.66,4.79-7.14,7.06l-.83.75-.46.41-.65.58c-.73.66-1.49,1.31-2.26,1.95s-1.77,1.48-2.67,2.19c-.46.37-.94.76-1.41,1.12l-.06.05c-.89.7-1.81,1.4-2.73,2.08s-1.69,1.23-2.56,1.84l-.14.1-.5.34c-1.21.85-2.52,1.74-4,2.69-3.35,2.15-6.84,4.18-10.37,6-.65.35-1.33.7-2,1l-.3.15A130.87,130.87,0,0,1,186,265.84c-.13.06-.31.11-.49.17-2.07.71-4,1.33-5.93,1.89l-1.49.42-.52.14c-2.72.77-5.6,1.47-8.56,2.08-1,.21-2,.41-3,.58l-.22,0h0c-2.77.51-5.69.94-8.7,1.28-3.67.43-7.44.71-11.2.82-.73,0-1.46.05-2.2.06Z"/><path d="M141.49,3.82A133.71,133.71,0,0,1,232.18,39.1c.13.1.25.22.37.33q.45.41.9.84a131.14,131.14,0,0,1,10.29,10.79c.88,1,1.75,2.09,2.59,3.15,1.75,2.17,3.42,4.4,5,6.69a132.65,132.65,0,0,1,7.16,11.33c.59,1,1.16,2.1,1.72,3.16a132.86,132.86,0,0,1,10.37,25.81q1,3.58,1.84,7.24c.13.58.26,1.16.38,1.74.23,1,.44,2.11.63,3.17.17.9.33,1.8.48,2.71.09.51.17,1,.25,1.53v0c.17,1.09.32,2.18.46,3.28q.68,5.28.94,10.68.15,3.22.15,6.49a134,134,0,0,1-6.81,42.31q-1.68,5.07-3.75,10a2.44,2.44,0,0,1-.1.24q-2,4.63-4.28,9.09c-.09.19-.19.38-.29.57q-1.36,2.64-2.87,5.21l-.12.21-.68,1.16c-.91,1.51-1.85,3-2.81,4.48h0A131.45,131.45,0,0,1,245.46,223c-1.22,1.49-2.48,3-3.76,4.39-.79.88-1.58,1.75-2.39,2.61q-3.41,3.65-7.09,7l-.82.74-.45.4c-.21.2-.43.39-.65.58-.74.67-1.49,1.31-2.25,1.95s-1.76,1.46-2.65,2.17L224,244l0,0c-.89.7-1.8,1.39-2.71,2.06s-1.68,1.23-2.54,1.83l-.62.43q-2,1.38-4,2.68c-3.33,2.14-6.77,4.14-10.29,6-.66.36-1.32.7-2,1l-.26.13a131.49,131.49,0,0,1-15.87,6.71l-.47.16c-1.95.67-3.91,1.3-5.9,1.88l-1.46.41-.53.15c-2.8.79-5.63,1.47-8.5,2.06-1,.2-2,.4-3,.57l-.25.05h0c-2.85.53-5.73.95-8.64,1.28q-5.49.65-11.12.81c-.73,0-1.45.05-2.18.06l-2.19,0c-.74,0-1.47,0-2.21,0-1.46,0-2.93-.07-4.38-.14q-5.75-.27-11.35-1-3.83-.5-7.57-1.22c-2.83-.55-5.64-1.18-8.41-1.91q-5-1.29-9.81-3l-.47-.16a132,132,0,0,1-16.13-6.84c-1.43-.72-2.85-1.46-4.25-2.24l-1.65-.92c-2-1.1-3.87-2.26-5.75-3.45-.2-.14-.41-.27-.62-.4-1.85-1.2-3.67-2.43-5.46-3.72l-1-.71-.6-.45c-.94-.69-1.88-1.39-2.8-2.12q-1.78-1.38-3.51-2.82c-.92-.77-1.82-1.55-2.72-2.34l-.13-.12-1.1-1c-.28-.24-.55-.49-.82-.74q-1.6-1.47-3.17-3-2-1.95-3.93-4c-.81-.86-1.6-1.73-2.38-2.61C40,226,38.73,224.53,37.51,223c-.4-.48-.79-1-1.17-1.46l-.51-.64a132.57,132.57,0,0,1-9.51-13.81l-.87-1.47c-1.44-2.47-2.81-5-4.08-7.55q-1.74-3.45-3.27-7-1.91-4.42-3.5-9c-.2-.56-.39-1.12-.57-1.69-.63-1.89-1.22-3.79-1.76-5.72a134.27,134.27,0,0,1-5-36.59c0-.91,0-1.83,0-2.74a134.57,134.57,0,0,1,1.07-14.43c.32-2.54.72-5.06,1.18-7.56.3-1.65.64-3.29,1-4.91.19-.85.39-1.7.59-2.55.53-2.15,1.12-4.28,1.75-6.39a130,130,0,0,1,6.24-16.66q.6-1.32,1.23-2.64a.54.54,0,0,1,.05-.11A132.84,132.84,0,0,1,35.58,55.57c.35-.46.71-.91,1.07-1.36s.75-1,1.14-1.42C39.38,50.86,41,49,42.72,47.13l.14-.15c.7-.76,1.42-1.52,2.14-2.26s1.6-1.63,2.41-2.43a3.5,3.5,0,0,1,.28-.27c.7-.69,1.4-1.36,2.11-2l.46-.43c.78-.73,1.57-1.44,2.37-2.14q.34-.32.69-.6c.52-.47,1-.92,1.58-1.36L56,34.53c.78-.65,1.56-1.28,2.36-1.91a135.43,135.43,0,0,1,15.9-10.79c2-1.15,4-2.24,6-3.29a132.84,132.84,0,0,1,34.24-12,134.9,134.9,0,0,1,26.92-2.7m0-2a137.15,137.15,0,0,0-27.32,2.74,135,135,0,0,0-34.76,12.2c-2.14,1.1-4.15,2.19-6.13,3.34a137.52,137.52,0,0,0-16.14,11c-.85.66-1.63,1.3-2.4,1.94-.38.31-.77.63-1.15,1-.62.51-1.12.94-1.58,1.36-.25.2-.49.41-.73.63-.84.74-1.62,1.44-2.37,2.14l-.5.47c-.71.66-1.4,1.32-2.09,2-.11.1-.23.21-.35.34-1,1-1.73,1.72-2.41,2.43s-1.46,1.51-2.15,2.27l-.11.12,0,0,0,0c-1.74,1.9-3.42,3.83-5,5.74-.44.53-.83,1-1.18,1.47s-.72.9-1.08,1.37a135.09,135.09,0,0,0-15.4,24.83,1.69,1.69,0,0,0-.11.23c-.41.87-.81,1.73-1.2,2.59a132.42,132.42,0,0,0-6.34,16.92c-.68,2.29-1.26,4.41-1.78,6.48-.2.88-.4,1.74-.6,2.59-.38,1.69-.73,3.38-1,5-.49,2.64-.89,5.22-1.2,7.67A136.87,136.87,0,0,0,5.25,135.3c0,.92,0,1.86,0,2.78a136.38,136.38,0,0,0,5.12,37.13c.53,1.87,1.11,3.78,1.79,5.81.17.54.36,1.12.58,1.73,1.06,3.05,2.25,6.13,3.55,9.14,1,2.42,2.16,4.82,3.32,7.12,1.22,2.46,2.57,5,4.14,7.66l.69,1.16.19.32a134.28,134.28,0,0,0,9.65,14l.53.66c.41.53.81,1,1.19,1.48,1.25,1.53,2.54,3,3.82,4.45.84.95,1.64,1.82,2.41,2.64,1.26,1.35,2.6,2.72,4,4.07,1,1,2,2,3.22,3,.27.26.55.52.84.77l1.08,1,.08.07.05.05,0,0c1.08,1,1.93,1.69,2.75,2.37,1.17,1,2.37,1.94,3.57,2.87,1,.77,2,1.52,2.84,2.15l0,0,.55.41.53.38.48.35c1.7,1.22,3.51,2.46,5.55,3.78.21.13.39.24.56.36l0,0,0,0c2,1.29,4,2.44,5.83,3.5l1.68.94c1.26.7,2.68,1.45,4.31,2.27a135.55,135.55,0,0,0,16.33,6.93l.54.18c3.29,1.13,6.63,2.14,9.93,3,2.68.7,5.55,1.35,8.53,1.93,2.6.5,5.18.92,7.7,1.24,3.81.52,7.68.88,11.51,1.06,1.56.07,3.06.12,4.45.14.73,0,1.48,0,2.24,0l2.21,0c.75,0,1.49,0,2.24-.06,3.77-.11,7.57-.39,11.27-.82,3-.34,5.85-.77,8.59-1.27h0l.22-.05h.06l.13,0c1-.17,2-.37,3-.57,3-.61,5.88-1.32,8.64-2.1l.27-.07.25-.07,1.49-.42c1.92-.56,3.87-1.18,6-1.9l.54-.18a133.67,133.67,0,0,0,16-6.79l.2-.1,0,0,.05,0c.76-.38,1.43-.73,2-1.06,3.53-1.85,7-3.89,10.42-6.06,1.49-1,2.81-1.85,4.05-2.72l.48-.34.13-.09c.77-.54,1.59-1.13,2.58-1.86s1.89-1.41,2.76-2.1l.1-.07v0c.46-.35.93-.72,1.37-1.08.75-.6,1.73-1.39,2.69-2.21.72-.6,1.51-1.27,2.3-2,.2-.17.43-.37.65-.58l.22-.19.2-.18.87-.78c2.49-2.28,4.91-4.68,7.19-7.11.9-1,1.76-1.92,2.41-2.64,1.31-1.47,2.6-3,3.82-4.46a135,135,0,0,0,8.71-11.91l.33-.5h0c.85-1.31,1.69-2.67,2.52-4l.35-.6.34-.57.1-.19,0-.05c1-1.74,2-3.52,2.91-5.28l.31-.6c1.56-3,3-6.09,4.31-9.16a3.05,3.05,0,0,0,.13-.32c1.39-3.26,2.66-6.64,3.79-10.06a135.81,135.81,0,0,0,6.92-42.94c0-2.2-.05-4.41-.16-6.58-.18-3.69-.5-7.33-.95-10.84-.16-1.23-.31-2.32-.47-3.34v-.13l-.24-1.48c-.15-.9-.32-1.82-.49-2.73-.19-1.08-.41-2.17-.64-3.23-.12-.57-.25-1.16-.38-1.75-.57-2.51-1.2-5-1.87-7.35A135,135,0,0,0,262,74.45c-.69-1.3-1.23-2.29-1.74-3.21A133.86,133.86,0,0,0,253,59.75c-1.67-2.38-3.39-4.67-5.11-6.8-.76-1-1.59-2-2.62-3.18a132.89,132.89,0,0,0-10.45-11l-.93-.87-.06,0-.34-.31a135.76,135.76,0,0,0-92-35.76Z"/><path class="cls-2" d="M197.63,53.72l-86.55,1.89-8.23.18L95.28,56l-6.08.13-4.94.11L80,56.28l-3.55.08-.88,0-4.85.1-.85,0-3.68.08-4.12.09-4.93.11-4.56.1,5-2,6.84-2.66,9.07-3.53-3.11-.16-8.63-.45-7.51-.4-8-.41-3.57-.19.14-.15c.7-.76,1.42-1.52,2.14-2.26s1.6-1.63,2.41-2.43a3.5,3.5,0,0,1,.28-.27c.7-.69,1.4-1.36,2.11-2l.46-.43c.78-.73,1.57-1.44,2.37-2.14q.34-.32.69-.6c.52-.47,1-.92,1.58-1.36L56,34.53c.78-.65,1.56-1.28,2.36-1.91l2.53.12,22.44,1L56.86,39l7,.41,20.85,1.2,11.89.69,10.18.58,34.61,2L109.11,47l-8.49.84-.72.07.77,0,8.91.45,87.15,4.46Z"/><path class="cls-3" d="M272.83,110.18A42.47,42.47,0,1,1,232.18,39.1c.13.1.25.22.37.33q.45.41.9.84a131.14,131.14,0,0,1,10.29,10.79c.88,1,1.75,2.09,2.59,3.15,1.75,2.17,3.42,4.4,5,6.69a132.65,132.65,0,0,1,7.16,11.33c.59,1,1.16,2.1,1.72,3.16a132.86,132.86,0,0,1,10.37,25.81q1,3.58,1.84,7.24C272.58,109,272.71,109.6,272.83,110.18Z"/><path class="cls-4" d="M172.66,135.29c6.54-5.33,13.72-9.45,25-5.93,14.35,3.79,33.29,19.77,57.95,51l-74.48,1.69Z"/><circle class="cls-5" cx="73.18" cy="59.81" r="7.69"/><circle class="cls-6" cx="73.24" cy="59.81" r="11.59"/><circle class="cls-7" cx="73.24" cy="59.81" r="16.38"/><circle class="cls-8" cx="73.18" cy="59.81" r="22.44"/><circle class="cls-9" cx="73.33" cy="59.81" r="29.78"/><path class="cls-10" d="M111.32,59.81a37.87,37.87,0,0,1-1.24,9.65,1.82,1.82,0,0,1-.07.25,37.75,37.75,0,0,1-8.3,15.35,35.69,35.69,0,0,1-3.79,3.69,1.64,1.64,0,0,1-.25.21,37.63,37.63,0,0,1-18.31,8.36c-.79.13-1.58.23-2.38.3-1.2.12-2.42.18-3.65.18a35.66,35.66,0,0,1-3.75-.19q-1.29-.12-2.55-.33A38,38,0,0,1,35.34,59.81a37.14,37.14,0,0,1,.24-4.24c.35-.46.71-.91,1.07-1.36s.75-1,1.14-1.42C39.38,50.86,41,49,42.72,47.13l.14-.15c.7-.76,1.42-1.52,2.14-2.26s1.6-1.63,2.41-2.43a3.5,3.5,0,0,1,.28-.27c.7-.69,1.4-1.36,2.11-2l.46-.43c.78-.73,1.57-1.44,2.37-2.14q.34-.32.69-.6c.52-.47,1-.92,1.58-1.36L56,34.53c.78-.65,1.56-1.28,2.36-1.91a135.43,135.43,0,0,1,15.9-10.79,38,38,0,0,1,32.54,20A38.65,38.65,0,0,1,109.11,47c.17.46.33.93.47,1.4a38.91,38.91,0,0,1,1.74,11.39Z"/><circle class="cls-11" cx="73.24" cy="59.93" r="4.81"/><circle class="cls-12" cx="73.17" cy="59.81" r="2.38"/><circle class="cls-13" cx="73.18" cy="59.81" r="0.66"/><rect class="cls-14" x="65.62" y="104.59" width="15.09" height="3.38"/><path d="M80.57,104.74v3.09H65.77v-3.09h14.8m.29-.29H65.48v3.67H80.86v-3.67Z"/><polygon class="cls-14" points="66.51 104.6 68.39 66.75 78.1 66.75 79.82 104.6 66.51 104.6"/><path d="M78,66.89l0,.35.07,1.63,1.62,35.58h-13l1.77-35.58.1-2H78m.28-.29h-10l0,.28-.1,2-1.77,35.59v.31H80l0-.31L78.35,68.86l-.08-1.63v-.35l0-.28Z"/><path d="M68.46,68.38a1.74,1.74,0,0,0-.58-1c-.53,0-.85-.27-.87-.71H79.35a.91.91,0,0,1-.82.67,1.12,1.12,0,0,0-.77,1.06h-.22V67.32l-1.49,0a1.16,1.16,0,0,0-.73,1.26h-.59l0-1.26H71.42V68.6h-.49a2,2,0,0,0-.79-1.28H68.86V68.4Z"/><path class="cls-14" d="M79.34,66.49l-.08.16H67a.88.88,0,0,1,0-.16Z"/><path class="cls-15" d="M69.18,66.38l.17-4c-.3,0-.6-.25-.9-.7h9.43c-.16.39-.39.68-.84.67l.16,4Z"/><line class="cls-16" x1="70.32" y1="61.72" x2="70.32" y2="58.15"/><line class="cls-16" x1="72.09" y1="61.72" x2="72.09" y2="58.15"/><line class="cls-16" x1="74.37" y1="61.72" x2="74.37" y2="58.15"/><line class="cls-16" x1="76.07" y1="61.72" x2="76.07" y2="58.15"/><path d="M68.84,58.05h8.55c0-.35-.06-.62-.63-.59l-3.35-3.05,0-2.34a.26.26,0,0,0-.37,0v2.35l-3.39,3C69,57.47,68.82,57.62,68.84,58.05Z"/><path class="cls-14" d="M68.84,58.05H77.4v.1H68.84Z"/><path class="cls-14" d="M68.19,61.47H78.1v.1H68.18A.31.31,0,0,1,68.19,61.47Z"/><polygon class="cls-17" points="78.06 68.87 68.44 68.87 68.53 66.89 77.96 66.89 78.06 68.87"/><polygon class="cls-17" points="71.4 66.89 69.17 104.45 66.66 104.45 68.44 68.87 68.53 66.89 71.4 66.89"/><polygon class="cls-17" points="79.67 104.45 77.38 104.45 75.2 67.24 77.98 67.24 78.06 68.87 79.67 104.45"/><path d="M71.77,76.19h2.77V73.71c0-1.64-2.77-1.64-2.77,0Z"/><path d="M71.19,104.74h4.27V100.1a2.14,2.14,0,1,0-4.27,0Z"/><path class="cls-18" d="M58.75,107.65c28.18-3,56.32-.41,84.38,14.3,11.17-5.53,22.49-5.65,34.3,12.38l30.81,46.06L57.05,184.52Z"/><path class="cls-19" d="M141.86,182.08H14.6c-.2-.56-.39-1.12-.57-1.69-.63-1.89-1.22-3.79-1.76-5.72a134.27,134.27,0,0,1-5-36.59c0-.91,0-1.83,0-2.74a134.57,134.57,0,0,1,1.07-14.43c.32-2.54.72-5.06,1.18-7.56.3-1.65.64-3.29,1-4.91.19-.85.39-1.7.59-2.55.53-2.15,1.12-4.28,1.75-6.39a130,130,0,0,1,6.24-16.66,22.76,22.76,0,0,1,8.64,5.23c14.07,3.25,27.21,8,36.56,19.06,6.68,7.88,11.43,19,13.2,34.93L83.42,148c2-2.46,3.38-1.44,4,3.18,12.51,6.61,22.8,13.17,23.72,19.48l15,5.59,11.14,4.15Z"/><path class="cls-20" d="M275.75,138.08a134,134,0,0,1-6.81,42.31q-1.68,5.07-3.75,10a2.44,2.44,0,0,1-.1.24q-2,4.63-4.28,9.09c-.09.19-.19.38-.29.57q-1.36,2.64-2.87,5.21l-.12.21-.68,1.16c-.91,1.51-1.85,3-2.81,4.48h0A131.45,131.45,0,0,1,245.46,223c-1.22,1.49-2.48,3-3.76,4.39H41.28C40,226,38.73,224.53,37.51,223c-.4-.48-.79-1-1.17-1.46l-.51-.64a132.57,132.57,0,0,1-9.51-13.81l-.87-1.47c-1.44-2.47-2.81-5-4.08-7.55q-1.74-3.45-3.27-7-1.91-4.42-3.5-9c-.2-.56-.39-1.12-.57-1.69-.63-1.89-1.22-3.79-1.76-5.72a134.27,134.27,0,0,1-5-36.59c0-.91,0-1.83,0-2.74a134.57,134.57,0,0,1,1.07-14.43c.32-2.54.72-5.06,1.18-7.56.3-1.65.64-3.29,1-4.91.19-.85.39-1.7.59-2.55.53-2.15,1.12-4.28,1.75-6.39a130,130,0,0,1,6.24-16.66q.6-1.32,1.23-2.64a.54.54,0,0,1,.05-.11A133.32,133.32,0,0,1,36.65,54.21c.37-.48.75-1,1.14-1.42C39.38,50.86,41,49,42.72,47.13A134.19,134.19,0,0,1,80.33,18.54a132.84,132.84,0,0,1,34.24-12A133.94,133.94,0,0,1,232.18,39.1c.13.1.25.22.37.33q.45.41.9.84a131.14,131.14,0,0,1,10.29,10.79c.88,1,1.75,2.09,2.59,3.15,1.75,2.17,3.42,4.4,5,6.69a132.65,132.65,0,0,1,7.16,11.33c.59,1,1.16,2.1,1.72,3.16a132.86,132.86,0,0,1,10.37,25.81q1,3.58,1.84,7.24c.13.58.26,1.16.38,1.74.23,1,.44,2.11.63,3.17.17.9.33,1.8.48,2.71.09.51.17,1,.25,1.53v0c.17,1.09.32,2.18.46,3.28q.68,5.28.94,10.68Q275.75,134.82,275.75,138.08Z"/><path class="cls-21" d="M80.87,180.39c0-6.5,58.44-6.5,58.44,0Z"/><path class="cls-21" d="M54.62,180.39H14c-.63-1.89-1.22-3.79-1.76-5.72H22.65C35,174.54,46.22,175.79,54.62,180.39Z"/><path class="cls-22" d="M268.94,180.39q-1.68,5.07-3.75,10a2.44,2.44,0,0,1-.1.24q-2,4.63-4.28,9.09c-.09.19-.19.38-.29.57q-1.36,2.64-2.87,5.21l-.12.21-.68,1.16c-.91,1.51-1.85,3-2.81,4.48h0A131.45,131.45,0,0,1,245.46,223c-1.22,1.49-2.48,3-3.76,4.39-.79.88-1.58,1.75-2.39,2.61q-3.41,3.65-7.09,7l-.82.74-.45.4c-.21.2-.43.39-.65.58-.74.67-1.49,1.31-2.25,1.95q-2,1.71-4.11,3.33c-.89.7-1.8,1.39-2.71,2.06s-2.09,1.53-3.16,2.26q-2,1.38-4,2.68c-3.33,2.14-6.77,4.14-10.29,6-.66.36-1.32.7-2,1l-.26.13a131.49,131.49,0,0,1-15.87,6.71l-.47.16a133.06,133.06,0,0,1-28.24,6.4q-5.49.65-11.12.81c-1.45.06-2.91.08-4.37.08q-3.31,0-6.59-.16-5.75-.27-11.35-1-3.83-.5-7.57-1.22c-2.83-.55-5.64-1.18-8.41-1.91q-5-1.29-9.81-3l-.47-.16a132,132,0,0,1-16.13-6.84c-1.43-.72-2.85-1.46-4.25-2.24l-1.65-.92c-2-1.1-3.87-2.26-5.75-3.45-.2-.14-.41-.27-.62-.4q-5.09-3.28-9.85-7-1.78-1.38-3.51-2.82c-.92-.77-1.82-1.55-2.72-2.34l-.13-.12-1.1-1c-.28-.24-.55-.49-.82-.74q-1.6-1.47-3.17-3-2-1.95-3.93-4c-.81-.86-1.6-1.73-2.38-2.61C40,226,38.73,224.53,37.51,223c-.4-.48-.79-1-1.17-1.46l-.51-.64a132.57,132.57,0,0,1-9.51-13.81l-.87-1.47c-1.44-2.47-2.81-5-4.08-7.55q-1.74-3.45-3.27-7-1.91-4.42-3.5-9c-.2-.56-.39-1.12-.57-1.69Z"/><ellipse class="cls-23" cx="218.35" cy="213.79" rx="24.51" ry="1.01"/><path class="cls-24" d="M257.65,205.45l-.12.21-.68,1.16c-2.16,0-4.45,0-6.82,0-13.53,0-24.51-.32-24.51-.71s11-.72,24.51-.72C252.69,205.42,255.25,205.43,257.65,205.45Z"/><ellipse class="cls-25" cx="181.08" cy="209.24" rx="24.51" ry="1.01"/><ellipse class="cls-26" cx="179.33" cy="190.4" rx="16.19" ry="0.66"/><ellipse class="cls-27" cx="139.79" cy="190.4" rx="16.19" ry="0.66"/><ellipse class="cls-23" cx="150.38" cy="213.79" rx="24.51" ry="1.01"/><ellipse class="cls-23" cx="114.17" cy="209.24" rx="24.51" ry="1.01"/><ellipse class="cls-28" cx="151.84" cy="203.97" rx="45.77" ry="1.88"/><path class="cls-29" d="M52.81,238.89l178.14-.7c-.21.2-.43.39-.65.58-.74.67-1.49,1.31-2.25,1.95q-2,1.71-4.11,3.33c-.89.7-1.8,1.39-2.71,2.06l-165.7-4.88C54.61,240.46,53.71,239.68,52.81,238.89Z"/><path class="cls-30" d="M160.77,197.56l-139.4.55q-1.74-3.45-3.27-7l140,4.12C159,196,159.87,196.77,160.77,197.56Z"/><path class="cls-29" d="M257.89,190.37l7.3,0a2.44,2.44,0,0,1-.1.24Z"/><path class="cls-31" d="M141.49,272.93c-.75,0-1.48,0-2.23,0-1.36,0-2.84-.06-4.39-.14-3.79-.18-7.63-.53-11.4-1-2.49-.32-5-.74-7.6-1.23-3-.57-5.8-1.22-8.45-1.92-3.28-.85-6.59-1.85-9.85-3l-.5-.17a131.25,131.25,0,0,1-16.18-6.86c-1.63-.82-3-1.54-4.27-2.25L75,255.41c-1.86-1-3.75-2.19-5.78-3.47-.2-.14-.4-.26-.59-.38-2-1.33-3.84-2.55-5.51-3.76l-1.29-.92.06-.36a139.07,139.07,0,0,1,4.82-19.74l0-.13.09-.09c.57-.59,1.32-1.37,2.14-2.13,9.47-8.94,23.29-15.25,43.5-19.86l1.24-.29c1.48-.33,3-.64,4.47-.95l3.5-.67,1-5.13h39.42v5.82l3.15.35c2.75.36,5.3.78,7.79,1.29a97.16,97.16,0,0,1,38.88,17.16c1.24.77,2.87,2.76,4.79,5.88a113.74,113.74,0,0,1,7.8,15.78l.15.37-.29.27c-1,.76-1.87,1.46-2.79,2.13s-1.69,1.23-2.55,1.84l-.14.09-.49.34c-1.21.86-2.52,1.74-4,2.69-3.34,2.15-6.82,4.17-10.33,6-.66.35-1.33.7-2,1l-.29.14a131.74,131.74,0,0,1-15.91,6.73l-.47.16c-2.08.72-4,1.33-5.93,1.89l-1.47.41-.53.15c-2.71.77-5.59,1.46-8.54,2.07-1,.21-2,.41-3,.57l-.29.06h-.06c-2.67.51-5.59.94-8.59,1.28-3.65.43-7.41.7-11.17.81q-1.08,0-2.19.06Z"/><path d="M161.51,198.11v5.76l.21,0c1.16.11,2.31.24,3.45.38,2.63.34,5.21.76,7.75,1.28a96.2,96.2,0,0,1,38.65,17.06c1.23.77,2.85,2.82,4.64,5.72A113.58,113.58,0,0,1,224,244l0,0c-.89.7-1.8,1.39-2.71,2.06s-1.68,1.23-2.54,1.83l-.62.43q-2,1.38-4,2.68c-3.33,2.14-6.77,4.14-10.29,6-.66.36-1.32.7-2,1l-.26.13a131.49,131.49,0,0,1-15.87,6.71l-.47.16c-1.95.67-3.91,1.3-5.9,1.88l-1.46.41-.53.15c-2.8.79-5.63,1.47-8.5,2.06-1,.2-2,.4-3,.57l-.25.05h0c-2.85.53-5.73.95-8.64,1.28q-5.49.65-11.12.81c-.73,0-1.45.05-2.18.06l-2.19,0c-.74,0-1.47,0-2.21,0-1.46,0-2.93-.07-4.38-.14q-5.75-.27-11.35-1-3.83-.5-7.57-1.22c-2.83-.55-5.64-1.18-8.41-1.91q-5-1.29-9.81-3l-.47-.16a132,132,0,0,1-16.13-6.84c-1.43-.72-2.85-1.46-4.25-2.24l-1.65-.92c-2-1.1-3.87-2.26-5.75-3.45-.2-.14-.41-.27-.62-.4-1.85-1.2-3.67-2.43-5.46-3.72l-1-.71A137.36,137.36,0,0,1,67.24,227c.69-.72,1.38-1.42,2.11-2.1,10.57-10,25.87-15.76,43.23-19.72l1.25-.29c1.47-.33,3-.64,4.45-.95l3.86-.74,0-.18,1-4.87h38.36m1.16-1.17H122.19l-.19.94-.84,4.28c-1,.19-2.08.39-3.11.6-1.44.29-3,.62-4.48,1l-1.26.29C92,208.64,78.1,215,68.55,224c-.82.77-1.59,1.55-2.16,2.14l-.18.19-.08.26a138.51,138.51,0,0,0-4.84,19.82l-.12.72.58.42.51.36.48.35c1.69,1.22,3.49,2.44,5.51,3.76l.59.37,0,0h0c2,1.29,3.93,2.43,5.8,3.49l1.67.92c1.26.71,2.66,1.45,4.28,2.26A134.87,134.87,0,0,0,96.88,266a4.72,4.72,0,0,0,.53.18c3.24,1.12,6.57,2.12,9.86,3,2.67.7,5.52,1.35,8.48,1.92,2.58.5,5.15.91,7.65,1.24,3.78.51,7.64.87,11.44,1,1.55.08,3,.13,4.42.15.74,0,1.48,0,2.23,0l2.2,0c.74,0,1.47,0,2.21-.07,3.76-.11,7.54-.38,11.21-.81,3-.34,5.87-.77,8.61-1.27h0l.14,0,.09,0,.13,0c1-.17,2-.37,3-.57,3-.61,5.85-1.31,8.58-2.08l.27-.07.26-.08,1.47-.41c1.92-.56,3.87-1.18,6-1.9a4.11,4.11,0,0,0,.49-.17,132.46,132.46,0,0,0,16-6.75l.17-.08.06,0h0l0,0c.75-.37,1.41-.72,2-1.05,3.52-1.83,7-3.86,10.37-6,1.47-1,2.79-1.84,4-2.71l.48-.33.13-.1c.77-.53,1.58-1.11,2.57-1.84s1.87-1.4,2.74-2.08l.05-.05,0,0,.55-.55-.28-.73a113.28,113.28,0,0,0-7.83-15.86c-2-3.17-3.63-5.21-5-6.07a97.81,97.81,0,0,0-39.07-17.24c-2.51-.52-5.07-.94-7.83-1.3l-2.65-.3v-5.88Z"/><path class="cls-32" d="M177.33,267.5c-2.8.79-5.63,1.47-8.5,2.06-1,.2-2,.4-3,.57l-.25.05h0l-30.13-36.94-22.91-28.1,1.25-.29,4.44-1,3.92-.88.8-.18,9,10.7,10.84,12.82,11.4-13.56,7.44-8.86.48-.57,3.27.67,7.46,1.53v0l-23.21,28.26.9,1.1Z"/><path class="cls-33" d="M183,101.76l-.4,21.06c-1.85,14.2-3.85,29.73-6.77,36.62-3.41,8-7.92,14.86-15.64,18.41-5.22,1.47-10.51,2.8-17,1.3-6.51,1.5-11.8.17-17-1.3-7.71-3.55-12.22-10.42-15.64-18.41-2.92-6.89-4.92-22.42-6.77-36.62l-.4-21.06,5.7-17.1,6.36-11.41,27.77-15.48L171,73.25l6.35,11.41Z"/><path class="cls-34" d="M106.41,139.76l.73,7.24c0,2-1.07,2.25-2.74.75-1.28-2-2.15-3.87-1.92-5.71l-.32-6.31c-1.12-4.63-1.78-8.91-1.35-12.34-.47-2.46,2.5-3,3-.57l1.31,8.55.49,3.6Z"/><path class="cls-35" d="M153.62,144.23a3.47,3.47,0,0,1-2.11,1.3,11.89,11.89,0,0,0-4.48-.38,4.87,4.87,0,0,1-7.64,0,11.85,11.85,0,0,0-4.48.38,3.49,3.49,0,0,1-2.12-1.3c-.61-.88-.63-2.16.08-4l4.34-5.38,4.18-13.44H145l4.18,13.44,4.35,5.38C154.25,142.07,154.23,143.35,153.62,144.23Z"/><path class="cls-36" d="M143.21,143.63a2.47,2.47,0,1,1,0-4.94A2.47,2.47,0,1,1,143.21,143.63Z"/><path class="cls-37" d="M153.62,144.23a3.47,3.47,0,0,1-2.11,1.3,11.89,11.89,0,0,0-4.48-.38,4.87,4.87,0,0,1-7.64,0,11.85,11.85,0,0,0-4.48.38,3.49,3.49,0,0,1-2.12-1.3c2.79-1,5.35-1.3,7.41,0a5.1,5.1,0,0,0,6,0C148.28,142.93,150.83,143.21,153.62,144.23Z"/><path class="cls-38" d="M139.13,145a9.11,9.11,0,0,0-4,0C135.17,143.62,139.13,143.62,139.13,145Z"/><path class="cls-38" d="M183.9,117.37l-2.58,14V113.48l-1.54-9-3.27-4.39-.69-.94-2.13-2.86-.44-3.67-.86-7.3c-3-4.92-6.88-9-12-11.38-4.61-2.18-10.23-3-17.21-1.91-7-1.1-12.59-.27-17.19,1.9-5.11,2.4-9,6.46-12,11.39l-1.3,11-1.5,2L107,104l-.4.54-.38,2.19-1.17,6.77v17.89l-2.58-14a42.2,42.2,0,0,1-1.5-9.85c0-.87-.06-1.74-.05-2.62,0-1.65.09-3.34.23-5.06a99.63,99.63,0,0,1,4.7-22,33.52,33.52,0,0,1,1.37-3.4,38.26,38.26,0,0,1,9.25-12.24c4.52-4,10.83-8.17,16.9-9.15,4.71-.75,9.5-.14,14.23-.16,13.35,0,25.94,9.76,31.51,21.58q.38.81.72,1.62c.23.58.47,1.16.66,1.75a114,114,0,0,1,3.68,14.42c.42,2.34.74,4.64.95,6.88l.06.69A49,49,0,0,1,183.9,117.37Z"/><path class="cls-39" d="M133.89,118.27l.38.25-1.08.77c-6.71,3.58-10,1.68-13.64.26l-1.44-.81c1.56-1.88,3.59-2.55,6-2.87a13.44,13.44,0,0,1,5.42.5A20.64,20.64,0,0,1,133.89,118.27Z"/><path d="M134.65,118.86h0a25.07,25.07,0,0,0-5.16-2.4,11.59,11.59,0,0,0-5.42-.57,8.84,8.84,0,0,0-5.87,3.84l-.38.55-.48-1.19c.25-.26.51-.51.77-.75a11.2,11.2,0,0,1,6.72-3.13,11,11,0,0,1,4.11.48,20,20,0,0,1,5.75,3c.62.44,1.24.91,1.87,1.43C135.91,119.63,135.27,119.23,134.65,118.86Z"/><path d="M137.81,118.54V120c-.49-.5-1-1-1.46-1.41-7.43-6.76-14-5.73-19.95,0-.34.33-.68.68-1,1v-1C123,111.1,130.42,112.52,137.81,118.54Z"/><path class="cls-30" d="M136.21,122.45c-5.15,2.32-11,3.06-17.35,2.61,4,.31,5.29,1.64,17.7-1.24Z"/><path class="cls-40" d="M137.05,111.32c-.89-.21-1.75-.38-2.59-.53-9-1.57-15.36.16-20.11,4.06l-1.63-1.95,3.09-3.37a8.35,8.35,0,0,1,5.8-2.71l.42,0a6.94,6.94,0,0,0,1.86-.34l5.24-1.72a4.45,4.45,0,0,1,2.29-.13l6,1.23A6.49,6.49,0,0,1,137.05,111.32Z"/><path class="cls-41" d="M126.57,120.58a2.94,2.94,0,0,1-2.27-4.79,5.9,5.9,0,0,1,1.35-.14,11.53,11.53,0,0,1,3.46.59,2.61,2.61,0,0,1,.4,1.41A2.94,2.94,0,0,1,126.57,120.58Z"/><path d="M125.65,115.77a11.39,11.39,0,0,1,3.42.59,2.81,2.81,0,1,1-4.67-.49,8.44,8.44,0,0,1,1.25-.1m0-.25h0a9,9,0,0,0-1.29.1l-.1,0-.06.07a3,3,0,0,0-.69,1.94,3.07,3.07,0,1,0,5.79-1.4l-.05-.09-.1,0a11.8,11.8,0,0,0-3.5-.6Z"/><circle cx="126.8" cy="117.93" r="0.93"/><circle class="cls-42" cx="125.01" cy="116.84" r="0.53"/><path d="M133.19,119.29c-6.71,4.11-10,1.89-13.64.26C127,122.74,129.66,120.52,133.19,119.29Z"/><path class="Graphic-Style-8" d="M137.81,118.54c-7.39-6-14.85-7.44-22.43,0l-1-3.69c4.75-3.9,11.16-5.63,20.11-4.06l2.59.53Z"/><polygon class="cls-34" points="105.66 141.16 112.72 157.92 117.34 167.26 121.3 173.34 118.86 177.36 112.18 170.19 107.72 156.5 105.66 141.16"/><polygon class="cls-34" points="180.75 141.16 173.69 157.92 169.08 167.26 165.11 173.34 167.56 177.36 174.24 170.19 178.69 156.5 180.75 141.16"/><path class="cls-34" d="M180,139.76l-.73,7.24c0,2,1.07,2.25,2.74.75,1.28-2,2.15-3.87,1.92-5.71l.32-6.31c1.12-4.63,1.78-8.91,1.35-12.34.47-2.46-2.5-3-3-.57l-1.31,8.55-.49,3.6Z"/><path class="cls-38" d="M147.28,145a9.11,9.11,0,0,1,4,0C151.24,143.62,147.28,143.62,147.28,145Z"/><path class="cls-43" d="M158.7,156.5c-5.53,2.13-10.85,3.82-15.49,4.08-4.65-.26-10-2-15.5-4.08,5.8,1.1,11.18,1.74,15.5,1.23C147.52,158.24,152.91,157.6,158.7,156.5Z"/><path class="cls-39" d="M152.52,118.27l-.38.25,1.08.77c6.72,3.58,10,1.68,13.64.26l1.44-.81c-1.55-1.88-3.58-2.55-6-2.87a13.46,13.46,0,0,0-5.42.5A20.86,20.86,0,0,0,152.52,118.27Z"/><path d="M151.76,118.86h0a25.31,25.31,0,0,1,5.16-2.4,11.6,11.6,0,0,1,5.42-.57,8.79,8.79,0,0,1,5.87,3.84c.13.18.26.36.38.55l.49-1.19-.78-.75a11.2,11.2,0,0,0-6.72-3.13,11,11,0,0,0-4.11.48,20,20,0,0,0-5.75,3c-.62.44-1.24.91-1.87,1.43C150.5,119.63,151.14,119.23,151.76,118.86Z"/><path d="M148.6,118.54V120c.49-.5,1-1,1.46-1.41,7.43-6.76,14-5.73,19.95,0,.34.33.68.68,1,1v-1C163.45,111.1,156,112.52,148.6,118.54Z"/><path class="cls-30" d="M150.2,122.45c5.15,2.32,11,3.06,17.36,2.61-4,.31-5.3,1.64-17.71-1.24Z"/><path class="cls-40" d="M149.36,111.32c.89-.21,1.75-.38,2.59-.53,9-1.57,15.37.16,20.11,4.06l1.63-1.95-3.09-3.37a8.35,8.35,0,0,0-5.79-2.71l-.43,0a6.94,6.94,0,0,1-1.86-.34l-5.24-1.72a4.45,4.45,0,0,0-2.29-.13l-6,1.23A6.49,6.49,0,0,0,149.36,111.32Z"/><path class="cls-41" d="M159.84,120.58a2.94,2.94,0,0,1-2.94-2.93,2.8,2.8,0,0,1,.33-1.34,10.53,10.53,0,0,1,3.54-.66,7.48,7.48,0,0,1,1.26.1,2.77,2.77,0,0,1,.74,1.9A2.93,2.93,0,0,1,159.84,120.58Z"/><path d="M160.77,115.77a8.3,8.3,0,0,1,1.24.1,2.81,2.81,0,1,1-4.67.49,11.39,11.39,0,0,1,3.43-.59m0-.25a11.81,11.81,0,0,0-3.51.6l-.1,0,0,.09a2.94,2.94,0,0,0-.35,1.4,3.07,3.07,0,0,0,6.13,0,3,3,0,0,0-.69-1.94l-.06-.07-.1,0a8.85,8.85,0,0,0-1.28-.1Z"/><circle cx="159.61" cy="117.93" r="0.93"/><circle class="cls-42" cx="158.26" cy="116.84" r="0.53"/><path d="M153.22,119.29c6.72,4.11,10,1.89,13.64.26C159.41,122.74,156.75,120.52,153.22,119.29Z"/><path class="Graphic-Style-8" d="M148.6,118.54c7.4-6,14.85-7.44,22.43,0l1-3.69c-4.74-3.9-11.16-5.63-20.11-4.06l-2.59.53Z"/><path class="cls-38" d="M180.2,148.71l-.32-1.09-.44-1.54.33-2.58.2-1.65,1-7.73.08-.67-2.76,13.6-1.92,9.45a38.91,38.91,0,0,1-3.83,9.6l-.43.71c-.11.19-.23.38-.35.56a28.42,28.42,0,0,1-4.19,5.1l-.43-2.22L165,159.44l1.84-7.82-6.38-2.85-4.58.49-4.4-1.39-4.8.41-3.5,1.3-3.49-1.3-4.81-.41-4.4,1.39-4.57-.49-6.39,2.85,1.84,7.82-2.1,10.81-.43,2.22a28.42,28.42,0,0,1-4.19-5.1c-.12-.18-.24-.37-.35-.56l-.43-.71a38.91,38.91,0,0,1-3.83-9.6L108.12,147l-2.75-13.56,0,.36,1,7.86.23,1.79.33,2.62-.44,1.52-.31,1.11-1.12,3.89,1.3,9.12,5.7,13.6,5.62,16.29,1.85,8.13v.1l7.31,8.23a20.22,20.22,0,0,0,6.44,3.15,28.64,28.64,0,0,0,9.87.92,26.79,26.79,0,0,0,12.37-1.8,20.35,20.35,0,0,0,3.94-2.27l7-7.83.3-.33.06-.07,1.87-8.23,5.62-16.29,5.7-13.6,1.31-9.12Zm-49,7.47,12,.65,12-.65,4.29.32-.32,6.3-2.12,8.31-3.45,2.17h-3.39l-1.82-1.3,1.65-3.09-.43-2.77-6.43-.28-6.43.28-.43,2.77L138,172l-1.81,1.3h-3.4l-3.45-2.17-2.11-8.31-.33-6.3Z"/><polygon class="cls-44" points="126.08 147.46 123.76 146.4 133.19 136.06 126.08 147.46"/><polygon class="cls-44" points="160.33 147.46 162.65 146.4 153.22 136.06 160.33 147.46"/><path class="cls-45" d="M185.22,99.86c-2.9.07-5.81.16-8.71.27a628.64,628.64,0,0,0-70.25,6.58q-2.62.39-5.25.81c0-.87-.06-1.74-.05-2.62,0-1.65.09-3.34.23-5.06,3.34-.53,6.69-1,10-1.49q15.21-2.14,30.48-3.56l1.77-.16q14.86-1.34,29.78-2,5.48-.24,11-.37c.42,2.34.74,4.64.95,6.88Z"/><path class="cls-46" d="M185.16,99.17c-3.15,0-6.26,0-9.34,0A517.3,517.3,0,0,0,107,104c-2.05.29-4.07.59-6.08.92,0-1.65.09-3.34.23-5.06a99.63,99.63,0,0,1,4.7-22,33.52,33.52,0,0,1,1.37-3.4l8.45-.27c3.44-.1,6.87-.18,10.31-.23q17.22-.31,34.4,0c2.9,0,5.79.11,8.69.19,3.35.09,6.7.21,10,.33q.38.81.72,1.62c.23.58.47,1.16.66,1.75a114,114,0,0,1,3.68,14.42C184.63,94.63,185,96.93,185.16,99.17Z"/><path class="cls-32" d="M148,88.86a9.27,9.27,0,0,1-1.89,2.43l.78,0a3.56,3.56,0,0,1-1.31,1c-1.5.83-2.27-.17-2.63-2.25l-.31-5.37,1.62-.09a.45.45,0,0,0,.41-.47l0-.57a.44.44,0,0,0-.46-.41l-1.62.09,0-.77a2.41,2.41,0,1,0-1.35.07l.05.78-1.67.09a.44.44,0,0,0-.41.46l0,.58a.43.43,0,0,0,.46.4l1.67-.09v.08a26.81,26.81,0,0,1,.08,6.72c-.51,1.82-1.88,1.49-3.67.2l.76-.11a12.1,12.1,0,0,1-2.14-2.15c-.24,2.21.27,2.91.82,3.55l.31-.66A5,5,0,0,0,139.64,94a8.62,8.62,0,0,1,2.06.79h0a2.14,2.14,0,0,1,.87.8,1.82,1.82,0,0,1,.89-1h0a7,7,0,0,1,1.2-.62,6.24,6.24,0,0,0,2.67-2.12l.34.59C148.7,90.56,148.45,89.64,148,88.86ZM141.08,81v.09a1,1,0,0,1-.39-.75,1,1,0,0,1,1-1.07,1,1,0,0,1,1.07,1,1,1,0,0,1-.3.79V81Z"/></g></svg>