<svg xmlns="http://www.w3.org/2000/svg" width="601.965" height="2061.078" viewBox="0 0 601.965 2061.078"><defs><style>.a{fill:#4b101f;}.b{fill:#df8231;}.c{fill:#4b0f1f;}</style></defs><g transform="translate(-1 3.866)"><g transform="translate(0 -1)"><path class="a" d="M2046.188-540.577h-66.755V-1687.51h58.88s2.3,31.662,9.041,57.82-3.127,39.529,24,38.34c14.294-.627,51.96-.787,85.087-8.058,29.344-6.44,68.814-16.371,92.235-20.231,49.517-8.16,104.681-7.489,133.85-3.569,23.551,3.95,55.359,20.612,55.359,20.612s-46.292-10.013-76.154-10.013-59.2,2.106-103.051,10.013-100.124,25.646-100.124,25.646-62.969,23.224-84.542,59.3c-22.482,37.6-16.435,79.306-16.435,79.306v47.011l.943,59.075,1.073,64.969,50.467-22.65A166.744,166.744,0,0,1,2135.5-1301.6a223.756,223.756,0,0,1,29.594-7.714s.737,1.267-10.413,7.714c-4.369,2.525-7.285,3.086-24.217,11.665s-33.569,14.875-43.51,22.65c-18.712,17.054-29.964,31.858-32.9,40.5s-5.05,151.668-2.4,174.117,13.777,32.4,22.36,37.991,44.305,7.469,44.305,7.469l77.7-3.615,83.494-.261s44.12-4.363,78.293-6.527,58.4-2.128,58.4-2.128,46.253.5,73.194,2.142,34.57,4.419,34.57,4.419-29.364-1.21-54.834,0-59.045,3.812-59.045,3.812-28.616-.764-51.259,3.169-45.537,12.462-45.537,12.462a348.831,348.831,0,0,1,34.313,7.121c19.342,4.995,21.193,4.263,43.374,15.229s51.877,35.576,51.877,35.576-26.4-14.128-48.559-21.382-52.526-15.152-52.526-15.152A285.391,285.391,0,0,0,2298-977.016c-21.768-.354-28.737,1.094-62.127,6.5s-35.42,4.846-73.018,16.355c-14.926,4.569-43.894,14.844-43.894,14.844s-27.7,12.888-39.2,21.59c-5.346,4.046-13.323,16.879-19.459,30.2-6.794,14.744-5.17,19.368-7.435,32.928-.951,5.7-6.049,28.02-8.445,52.275-1.157,11.713-.567,23.58-1.156,34.639-1.02,19.142-.611,23.218,0,34.661C2043.576-727.3,2046.188-540.577,2046.188-540.577Z" transform="translate(-1978.433 1684.644)"/><path class="a" d="M2200.1-762.788H1981v-924.143h65.963s-6.284,31.129.461,57.323,13.479,40.754,34.409,56.724,37.218,8.938,64.37,7.747,44.239-12.51,44.239-12.51l51.04-35.609,45.347-37.329a300.614,300.614,0,0,1-27.852,34.978c-16.868,18.234-44.956,41.393-44.956,41.393s17.99,1.2,51.1-5.674,63.725-19.151,113.293-27.323,41.821-6.738,84.98-5.366,30,1.441,59.2,5.366c23.575,3.956,60.377,20.556,60.377,20.556l-51.789-6.011s-62.453,1.712-108.633,9.934-40.84,4.741-76.089,22.954-41.454,19.337-69.955,31.771-13.616,14.634-65.137,21.2-64.622,11.925-101.124,26.848-29.849,15.06-45.51,37.587c-6.28,9.034-2.639,15.567-2.938,19.452-.4,5.043-2.64,7.691-4.132,33.506-.917,15.859,1.386,37.978.944,57.669-.741,33.027,1.075,65.063,1.075,65.063l50.519-22.682a166.883,166.883,0,0,1,25.464-11.681,223.913,223.913,0,0,1,29.625-7.724s.738,1.269-10.423,7.724c-4.373,2.529-13.614,4.32-21.876,10.276-7.764,5.6-15.621,15.3-25.572,23.088-18.731,17.078-50.344,32.9-53.287,41.556s-5.055,101.886-2.4,124.367,13.791,32.443,22.384,38.046,44.351,7.48,44.351,7.48l77.778-3.62,83.581-.262s44.166-4.369,78.374-6.536,58.46-2.131,58.46-2.131,46.3.5,73.27,2.146,34.606,4.425,34.606,4.425-29.394-1.211-54.891,0-59.106,3.818-59.106,3.818-28.646-.765-51.312,3.174-45.584,12.48-45.584,12.48a349.057,349.057,0,0,1,34.349,7.131c19.362,5,21.215,4.269,43.419,15.251s51.932,35.627,51.932,35.627-26.432-14.148-48.61-21.412-52.581-15.174-52.581-15.174a285.569,285.569,0,0,0-43.81-4.674c-21.79-.354-28.767,1.1-62.192,6.51s-35.457,4.853-73.094,16.378c-14.942,4.575-43.94,14.866-43.94,14.866s-27.732,12.906-39.241,21.621c-5.352,4.052-13.337,16.9-19.479,30.239-6.8,14.765-5.176,19.4-7.443,32.975-.541,3.24,3.757,51.847,26.922,82.551,17.414,23.081,52.544,30.156,65.252,32.21,10.62,1.717,22.655,7.288,31.3,10.7A73.494,73.494,0,0,1,2200.1-762.788Z" transform="translate(-1980 2821)"/></g><g transform="translate(726.064 -680.586) rotate(90)"><path class="b" d="M30.61.054s-1.35,6.859-4.181,10.152-4.166,5-10.773,6.09S0,14.584,0,14.584,3.771,5.953,7.191,3.619A22.662,22.662,0,0,1,18.659.054C22.235-.068,30.61.054,30.61.054Z" transform="translate(1785.608 643.311)"/><path class="c" d="M3807.5,656.688l-10.779-31.925-20.933-15.307,28.105,11.279,12.343,35.953Z" transform="translate(-1980.169 19.081)"/><path class="b" d="M42.783.076S40.9,9.662,36.94,14.264s-5.823,6.982-15.058,8.512S0,20.384,0,20.384,5.271,8.32,10.052,5.059A31.673,31.673,0,0,1,26.08.076C31.078-.095,42.783.076,42.783.076Z" transform="translate(1780.518 594.732) rotate(60)"/><path class="b" d="M38.093.068S36.413,8.6,32.891,12.7s-5.184,6.217-13.406,7.579S0,18.149,0,18.149,4.691,7.408,8.948,4.5A28.207,28.207,0,0,1,23.221.068C27.671-.084,38.093.068,38.093.068Z" transform="matrix(-0.719, 0.695, -0.695, -0.719, 1841.422, 609.564)"/><path class="b" d="M26.967.048S25.777,6.09,23.284,8.991s-3.67,4.4-9.49,5.365S0,12.848,0,12.848s3.32-7.6,6.334-9.66A19.975,19.975,0,0,1,16.438.048C19.589-.06,26.967.048,26.967.048Z" transform="translate(1854.421 646.116) rotate(165)"/></g><g transform="translate(821.197 -1433.671) rotate(90)"><path class="b" d="M25.75.046s-1.135,5.77-3.517,8.54-3.5,4.2-9.063,5.123S0,12.268,0,12.268s3.172-7.26,6.05-9.224a19.064,19.064,0,0,1,9.647-3C18.7-.057,25.75.046,25.75.046Z" transform="translate(1781.619 635.598)"/><path class="c" d="M3802.464,649.188l-9.068-26.856-17.609-12.877,23.643,9.488,10.383,30.245Z" transform="translate(-1985.747 13.714)"/><path class="b" d="M35.99.064S34.4,8.128,31.075,12s-4.9,5.874-12.667,7.161S0,17.147,0,17.147,4.434,7,8.456,4.255A26.644,26.644,0,0,1,21.939.064C26.143-.08,35.99.064,35.99.064Z" transform="translate(1777.337 594.732) rotate(60)"/><path class="b" d="M32.044.057s-1.413,7.18-4.376,10.627-4.361,5.23-11.278,6.376S0,15.267,0,15.267,3.946,6.232,7.527,3.789A23.728,23.728,0,0,1,19.534.057C23.277-.071,32.044.057,32.044.057Z" transform="matrix(-0.719, 0.695, -0.695, -0.719, 1828.571, 607.209)"/><path class="b" d="M22.685.04s-1,5.083-3.1,7.523-3.087,3.7-7.983,4.513S0,10.808,0,10.808s2.793-6.4,5.328-8.126A16.8,16.8,0,0,1,13.828.04C16.479-.05,22.685.04,22.685.04Z" transform="translate(1839.506 637.957) rotate(165)"/></g><g transform="translate(559.579 -1200.251) rotate(80)"><path class="b" d="M16.007.028S15.3,3.615,13.821,5.337,11.643,7.949,8.187,8.522,0,7.627,0,7.627,1.972,3.113,3.761,1.893a11.851,11.851,0,0,1,6-1.864C11.628-.035,16.007.028,16.007.028Z" transform="translate(1773.624 620.136)"/><path class="c" d="M3792.371,634.155l-5.637-16.7-10.947-8,14.7,5.9,6.455,18.8Z" transform="translate(-1996.929 2.955)"/><path class="b" d="M22.373.04s-.987,5.013-3.055,7.42-3.045,3.651-7.874,4.451S0,10.659,0,10.659,2.756,4.351,5.256,2.645A16.563,16.563,0,0,1,13.638.04C16.252-.05,22.373.04,22.373.04Z" transform="translate(1770.962 594.732) rotate(60)"/><path class="b" d="M19.92.035S19.042,4.5,17.2,6.642s-2.711,3.251-7.011,3.963S0,9.491,0,9.491,2.453,3.874,4.679,2.355A14.751,14.751,0,0,1,12.143.035C14.47-.044,19.92.035,19.92.035Z" transform="matrix(-0.719, 0.695, -0.695, -0.719, 1802.811, 602.488)"/><path class="b" d="M14.1.025A12.639,12.639,0,0,1,12.176,4.7c-1.3,1.517-1.919,2.3-4.963,2.806S0,6.719,0,6.719,1.736,2.743,3.312,1.667A10.446,10.446,0,0,1,8.6.025C10.244-.031,14.1.025,14.1.025Z" transform="translate(1809.609 621.603) rotate(165)"/></g><g transform="translate(-598.527 -470.358) rotate(41)"><path class="b" d="M30.61.054s-1.35,6.859-4.181,10.152-4.166,5-10.773,6.09S0,14.584,0,14.584,3.771,5.953,7.191,3.619A22.662,22.662,0,0,1,18.659.054C22.235-.068,30.61.054,30.61.054Z" transform="translate(1785.608 643.311)"/><path class="c" d="M3807.5,656.688l-10.779-31.925-20.933-15.307,28.105,11.279,12.343,35.953Z" transform="translate(-1980.169 19.081)"/><path class="b" d="M42.783.076S40.9,9.662,36.94,14.264s-5.823,6.982-15.058,8.512S0,20.384,0,20.384,5.271,8.32,10.052,5.059A31.673,31.673,0,0,1,26.08.076C31.078-.095,42.783.076,42.783.076Z" transform="translate(1780.518 594.732) rotate(60)"/><path class="b" d="M38.093.068S36.413,8.6,32.891,12.7s-5.184,6.217-13.406,7.579S0,18.149,0,18.149,4.691,7.408,8.948,4.5A28.207,28.207,0,0,1,23.221.068C27.671-.084,38.093.068,38.093.068Z" transform="matrix(-0.719, 0.695, -0.695, -0.719, 1841.422, 609.564)"/><path class="b" d="M26.967.048S25.777,6.09,23.284,8.991s-3.67,4.4-9.49,5.365S0,12.848,0,12.848s3.32-7.6,6.334-9.66A19.975,19.975,0,0,1,16.438.048C19.589-.06,26.967.048,26.967.048Z" transform="translate(1854.421 646.116) rotate(165)"/></g><g transform="translate(-1674.661 1098.133) rotate(-15)"><path class="b" d="M16.04.028s-.707,3.594-2.191,5.319S11.666,7.966,8.2,8.539s-8.2-.9-8.2-.9S1.976,3.119,3.768,1.9A11.875,11.875,0,0,1,9.777.028C11.651-.036,16.04.028,16.04.028Z" transform="translate(1773.65 620.188)"/><path class="c" d="M3792.4,634.2l-5.648-16.729-10.969-8.021,14.727,5.91,6.468,18.839Z" transform="translate(-1996.892 2.99)"/><path class="b" d="M22.418.04s-.989,5.023-3.062,7.435-3.051,3.659-7.89,4.46S0,10.681,0,10.681,2.762,4.36,5.267,2.651A16.6,16.6,0,0,1,13.666.04C16.285-.05,22.418.04,22.418.04Z" transform="translate(1770.983 594.732) rotate(60)"/><path class="b" d="M19.961.035s-.88,4.473-2.726,6.62-2.716,3.258-7.025,3.971S0,9.51,0,9.51,2.458,3.882,4.689,2.36A14.781,14.781,0,0,1,12.168.035C14.5-.044,19.961.035,19.961.035Z" transform="matrix(-0.719, 0.695, -0.695, -0.719, 1802.897, 602.504)"/><path class="b" d="M14.131.025A12.665,12.665,0,0,1,12.2,4.711c-1.307,1.52-1.923,2.306-4.973,2.811S0,6.732,0,6.732,1.74,2.748,3.319,1.671A10.467,10.467,0,0,1,8.614.025C10.265-.031,14.131.025,14.131.025Z" transform="translate(1809.708 621.657) rotate(165)"/></g><g transform="translate(-245.078 -149.568) rotate(60)"><path class="b" d="M30.542.054S29.2,6.9,26.371,10.183s-4.157,4.985-10.749,6.077S0,14.551,0,14.551,3.762,5.94,7.175,3.611A22.611,22.611,0,0,1,18.618.054C22.186-.068,30.542.054,30.542.054Z" transform="translate(1785.552 643.203)"/><path class="c" d="M3807.429,656.582l-10.755-31.854-20.886-15.273,28.043,11.254,12.315,35.873Z" transform="translate(-1980.247 19.005)"/><path class="b" d="M42.688.076s-1.883,9.565-5.83,14.157-5.81,6.967-15.024,8.493S0,20.338,0,20.338,5.259,8.3,10.029,5.047A31.6,31.6,0,0,1,26.022.076C31.009-.095,42.688.076,42.688.076Z" transform="translate(1780.473 594.732) rotate(60)"/><path class="b" d="M38.008.067s-1.676,8.517-5.191,12.605-5.172,6.2-13.376,7.562S0,18.109,0,18.109,4.681,7.392,8.928,4.494A28.144,28.144,0,0,1,23.169.067C27.609-.084,38.008.067,38.008.067Z" transform="matrix(-0.719, 0.695, -0.695, -0.719, 1841.241, 609.531)"/><path class="b" d="M26.907.048S25.72,6.077,23.232,8.971s-3.662,4.391-9.469,5.353S0,12.819,0,12.819,3.313,5.233,6.32,3.181A19.931,19.931,0,0,1,16.4.048C19.545-.06,26.907.048,26.907.048Z" transform="translate(1854.212 646.001) rotate(165)"/></g><g transform="translate(997.692 -57.127) rotate(90)"><path class="b" d="M30.542.054S29.2,6.9,26.371,10.183s-4.157,4.985-10.749,6.077S0,14.551,0,14.551,3.762,5.94,7.175,3.611A22.611,22.611,0,0,1,18.618.054C22.186-.068,30.542.054,30.542.054Z" transform="translate(1785.552 643.203)"/><path class="c" d="M3807.429,656.582l-10.755-31.854-20.886-15.273,28.043,11.254,12.315,35.873Z" transform="translate(-1980.247 19.005)"/><path class="b" d="M42.688.076s-1.883,9.565-5.83,14.157-5.81,6.967-15.024,8.493S0,20.338,0,20.338,5.259,8.3,10.029,5.047A31.6,31.6,0,0,1,26.022.076C31.009-.095,42.688.076,42.688.076Z" transform="translate(1780.473 594.732) rotate(60)"/><path class="b" d="M38.008.067s-1.676,8.517-5.191,12.605-5.172,6.2-13.376,7.562S0,18.109,0,18.109,4.681,7.392,8.928,4.494A28.144,28.144,0,0,1,23.169.067C27.609-.084,38.008.067,38.008.067Z" transform="matrix(-0.719, 0.695, -0.695, -0.719, 1841.241, 609.531)"/><path class="b" d="M26.907.048S25.72,6.077,23.232,8.971s-3.662,4.391-9.469,5.353S0,12.819,0,12.819,3.313,5.233,6.32,3.181A19.931,19.931,0,0,1,16.4.048C19.545-.06,26.907.048,26.907.048Z" transform="translate(1854.212 646.001) rotate(165)"/></g></g></svg>