<svg xmlns="http://www.w3.org/2000/svg" width="602.772" height="2173.963" viewBox="0 0 602.772 2173.963"><defs><style>.a{fill:#df8231;}.b{fill:#4b101f;}.c{fill:#4b0f1f;}</style></defs><g transform="translate(-1317 63)"><path class="a" d="M4145.909,188.291s-1.057,5.372-3.274,7.95-3.263,3.912-8.437,4.77-12.261-1.341-12.261-1.341,2.953-6.759,5.632-8.587a17.748,17.748,0,0,1,8.981-2.792C4139.35,188.2,4145.909,188.291,4145.909,188.291Z" transform="translate(-2382.835 2123.986) rotate(-27)"/><g transform="translate(1317 -63)"><path class="b" d="M2516.209-1687.51h66.756V-657.548S2283.692-745.3,2291.1-748.33c36.5-14.924,191.665-57.067,207.326-79.595,6.28-9.034,7.079-32.053,9.153-54.016s2.079-53.287,2.079-53.287v-52.738l.551-81.555s3.874-86.536,1.22-109.017-13.791-32.443-22.384-38.046-44.351-7.48-44.351-7.48l-77.778,3.62-83.581.262s-44.166,4.369-78.374,6.536-58.46,2.131-58.46,2.131-46.3-.5-73.27-2.146-34.606-4.425-34.606-4.425,29.394,1.211,54.891,0,59.106-3.818,59.106-3.818,28.646.765,51.312-3.174,45.584-12.48,45.584-12.48a349.057,349.057,0,0,1-34.349-7.131c-19.362-5-21.215-4.269-43.419-15.251s-51.932-35.627-51.932-35.627,26.432,14.148,48.61,21.412,52.581,15.174,52.581,15.174a285.569,285.569,0,0,0,43.81,4.674c21.79.354,28.767-1.1,62.192-6.51s35.457-4.853,73.094-16.378c14.942-4.575,43.94-14.866,43.94-14.866s27.732-12.906,39.241-21.621c5.352-4.052,13.337-16.9,19.479-30.239,6.8-14.765,5.176-19.4,7.443-32.975.952-5.7,6.056-28.061,8.454-52.35,1.158-11.729.567-23.614,1.157-34.689,1.021-19.17.612-23.251,0-34.711C2519.515-1504.383,2516.209-1687.51,2516.209-1687.51Z" transform="translate(-1980.192 2831.51)"/><path class="b" d="M2363.061-1687.51h219.9V-543.368h-66.771s6.284-31.129-.461-57.323-13.479-40.754-34.409-56.724-37.218-8.938-64.37-7.747-44.239,12.51-44.239,12.51l-51.04,35.609-45.347,37.329a300.614,300.614,0,0,1,27.852-34.978c16.868-18.234,44.956-41.393,44.956-41.393s-17.99-1.2-51.1,5.674-63.725,19.151-113.293,27.323-41.821,6.738-84.98,5.366-30-1.441-59.2-5.366c-23.575-3.956-60.377-20.556-60.377-20.556l51.789,6.011s62.453-1.712,108.633-9.934,40.84-4.741,76.089-22.954,41.454-19.337,69.955-31.771,13.616-14.634,65.137-21.2,64.622-11.925,101.124-26.848,29.849-15.06,45.51-37.587c6.28-9.034,2.639-15.567,2.938-19.452.4-5.043,2.64-7.691,4.132-33.506.917-15.859-1.386-37.978-.944-57.669.741-33.027,11.834-45.223-1.075-65.063s-21.7-6.2-50.562-14.295-40.13-12.276-64.881-18.085-54.081-8.175-54.081-8.175,33.331-4.3,54.081-3.265,3.674,1.591,28.917,7.4,22.6,2.7,52.316,4.035,36.816.476,39.759-8.175,5.055-151.886,2.4-174.367-13.791-32.443-22.384-38.046-44.351-7.48-44.351-7.48l-77.778,3.62-83.581.262s-44.166,4.369-78.374,6.536-58.46,2.131-58.46,2.131-46.3-.5-73.27-2.146-34.606-4.425-34.606-4.425,29.394,1.211,54.891,0,59.106-3.818,59.106-3.818,28.646.765,51.312-3.174,45.584-12.48,45.584-12.48a349.057,349.057,0,0,1-34.349-7.131c-19.362-5-21.215-4.269-43.419-15.251s-51.932-35.627-51.932-35.627,26.432,14.148,48.61,21.412,52.581,15.174,52.581,15.174a285.569,285.569,0,0,0,43.81,4.674c21.79.354,28.767-1.1,62.192-6.51s35.457-4.853,73.094-16.378c14.942-4.575,43.94-14.866,43.94-14.866s27.732-12.906,39.241-21.621c5.352-4.052,13.337-16.9,19.479-30.239,6.8-14.765,5.176-19.4,7.443-32.975.952-5.7,6.056-28.061,8.454-52.35,1.158-11.729.567-23.614,1.157-34.689,1.021-19.17.612-23.251,0-34.711-.307-5.741-8.325-49.215-8.325-49.215s-6.476-23.029-8.717-34.874c-.879-4.643-4.8-18.312-12.3-28.406-11.24-15.124-27.517-27.156-27.517-27.156s-15.505-18.6-44.923-23.36c-10.62-1.717-22.655-7.288-31.3-10.7A73.494,73.494,0,0,1,2363.061-1687.51Z" transform="translate(-1980.192 1687.51)"/></g><path class="a" d="M4145.909,188.291s-1.057,5.372-3.274,7.95-3.263,3.912-8.437,4.77-12.261-1.341-12.261-1.341,2.953-6.759,5.632-8.587a17.748,17.748,0,0,1,8.981-2.792C4139.35,188.2,4145.909,188.291,4145.909,188.291Z" transform="translate(-2426 436)"/><path class="a" d="M4145.909,188.291s-1.057,5.372-3.274,7.95-3.263,3.912-8.437,4.77-12.261-1.341-12.261-1.341,2.953-6.759,5.632-8.587a17.748,17.748,0,0,1,8.981-2.792C4139.35,188.2,4145.909,188.291,4145.909,188.291Z" transform="matrix(0.656, 0.755, -0.755, 0.656, -895.211, -2630.936)"/><path class="a" d="M4135.269,188.273a11.944,11.944,0,0,1-1.821,4.421c-1.233,1.434-1.814,2.176-4.692,2.653s-6.819-.746-6.819-.746,1.642-3.759,3.132-4.776a9.869,9.869,0,0,1,4.995-1.553C4131.621,188.219,4135.269,188.273,4135.269,188.273Z" transform="translate(-2350.508 427.641)"/><path class="c" d="M3789.6,630.027l-4.695-13.9-9.117-6.667,12.241,4.913,5.376,15.659Z" transform="translate(-2000)"/><path class="a" d="M4140.57,188.282s-.822,4.175-2.545,6.18-2.536,3.041-6.558,3.707-9.531-1.042-9.531-1.042,2.3-5.254,4.378-6.675a13.8,13.8,0,0,1,6.981-2.17C4135.472,188.208,4140.57,188.282,4140.57,188.282Z" transform="translate(-128.729 -3069.094) rotate(60)"/><path class="a" d="M4138.527,188.278s-.731,3.718-2.266,5.5-2.258,2.708-5.839,3.3-8.486-.928-8.486-.928,2.043-4.678,3.9-5.943a12.285,12.285,0,0,1,6.216-1.932C4133.988,188.212,4138.527,188.278,4138.527,188.278Z" transform="matrix(-0.719, 0.695, -0.695, -0.719, 4891.579, -2126.731)"/><path class="a" d="M4133.682,188.27a10.526,10.526,0,0,1-1.6,3.9,5.381,5.381,0,0,1-4.133,2.337,16.066,16.066,0,0,1-6.008-.657s1.446-3.312,2.759-4.207a8.7,8.7,0,0,1,4.4-1.368C4130.468,188.223,4133.682,188.27,4133.682,188.27Z" transform="translate(5831.606 -267.889) rotate(165)"/><g transform="matrix(0.951, -0.309, 0.309, 0.951, -226.07, 323.313)"><path class="a" d="M4135.269,188.273a11.944,11.944,0,0,1-1.821,4.421c-1.233,1.434-1.814,2.176-4.692,2.653s-6.819-.746-6.819-.746,1.642-3.759,3.132-4.776a9.869,9.869,0,0,1,4.995-1.553C4131.621,188.219,4135.269,188.273,4135.269,188.273Z" transform="translate(-2350.508 427.641)"/><path class="c" d="M3789.6,630.027l-4.695-13.9-9.117-6.667,12.241,4.913,5.376,15.659Z" transform="translate(-2000)"/><path class="a" d="M4140.57,188.282s-.822,4.175-2.545,6.18-2.536,3.041-6.558,3.707-9.531-1.042-9.531-1.042,2.3-5.254,4.378-6.675a13.8,13.8,0,0,1,6.981-2.17C4135.472,188.208,4140.57,188.282,4140.57,188.282Z" transform="translate(-128.729 -3069.094) rotate(60)"/><path class="a" d="M4138.527,188.278s-.731,3.718-2.266,5.5-2.258,2.708-5.839,3.3-8.486-.928-8.486-.928,2.043-4.678,3.9-5.943a12.285,12.285,0,0,1,6.216-1.932C4133.988,188.212,4138.527,188.278,4138.527,188.278Z" transform="matrix(-0.719, 0.695, -0.695, -0.719, 4891.579, -2126.731)"/><path class="a" d="M4133.682,188.27a10.526,10.526,0,0,1-1.6,3.9,5.381,5.381,0,0,1-4.133,2.337,16.066,16.066,0,0,1-6.008-.657s1.446-3.312,2.759-4.207a8.7,8.7,0,0,1,4.4-1.368C4130.468,188.223,4133.682,188.27,4133.682,188.27Z" transform="translate(5831.606 -267.889) rotate(165)"/></g><g transform="matrix(-0.454, -0.891, 0.891, -0.454, 1744.84, 2293.225)"><path class="a" d="M4135.269,188.273a11.944,11.944,0,0,1-1.821,4.421c-1.233,1.434-1.814,2.176-4.692,2.653s-6.819-.746-6.819-.746,1.642-3.759,3.132-4.776a9.869,9.869,0,0,1,4.995-1.553C4131.621,188.219,4135.269,188.273,4135.269,188.273Z" transform="translate(-2350.508 427.641)"/><path class="c" d="M3789.6,630.027l-4.695-13.9-9.117-6.667,12.241,4.913,5.376,15.659Z" transform="translate(-2000)"/><path class="a" d="M4140.57,188.282s-.822,4.175-2.545,6.18-2.536,3.041-6.558,3.707-9.531-1.042-9.531-1.042,2.3-5.254,4.378-6.675a13.8,13.8,0,0,1,6.981-2.17C4135.472,188.208,4140.57,188.282,4140.57,188.282Z" transform="translate(-128.729 -3069.094) rotate(60)"/><path class="a" d="M4138.527,188.278s-.731,3.718-2.266,5.5-2.258,2.708-5.839,3.3-8.486-.928-8.486-.928,2.043-4.678,3.9-5.943a12.285,12.285,0,0,1,6.216-1.932C4133.988,188.212,4138.527,188.278,4138.527,188.278Z" transform="matrix(-0.719, 0.695, -0.695, -0.719, 4891.579, -2126.731)"/><path class="a" d="M4133.682,188.27a10.526,10.526,0,0,1-1.6,3.9,5.381,5.381,0,0,1-4.133,2.337,16.066,16.066,0,0,1-6.008-.657s1.446-3.312,2.759-4.207a8.7,8.7,0,0,1,4.4-1.368C4130.468,188.223,4133.682,188.27,4133.682,188.27Z" transform="translate(5831.606 -267.889) rotate(165)"/></g><path class="a" d="M4145.909,188.291s-1.057,5.372-3.274,7.95-3.263,3.912-8.437,4.77-12.261-1.341-12.261-1.341,2.953-6.759,5.632-8.587a17.748,17.748,0,0,1,8.981-2.792C4139.35,188.2,4145.909,188.291,4145.909,188.291Z" transform="translate(-1254.5 -2799.673) rotate(48)"/><path class="a" d="M4145.909,188.291s-1.057,5.372-3.274,7.95-3.263,3.912-8.437,4.77-12.261-1.341-12.261-1.341,2.953-6.759,5.632-8.587a17.748,17.748,0,0,1,8.981-2.792C4139.35,188.2,4145.909,188.291,4145.909,188.291Z" transform="translate(365.501 -3612.494) rotate(73)"/><g transform="translate(729.473 -794.358) rotate(41)"><path class="a" d="M30.61.054s-1.35,6.859-4.181,10.152-4.166,5-10.773,6.09S0,14.584,0,14.584,3.771,5.953,7.191,3.619A22.662,22.662,0,0,1,18.659.054C22.235-.068,30.61.054,30.61.054Z" transform="translate(1785.608 643.311)"/><path class="c" d="M3807.5,656.688l-10.779-31.925-20.933-15.307,28.105,11.279,12.343,35.953Z" transform="translate(-1980.169 19.081)"/><path class="a" d="M42.783.076S40.9,9.662,36.94,14.264s-5.823,6.982-15.058,8.512S0,20.384,0,20.384,5.271,8.32,10.052,5.059A31.673,31.673,0,0,1,26.08.076C31.078-.095,42.783.076,42.783.076Z" transform="translate(1780.518 594.732) rotate(60)"/><path class="a" d="M38.093.068S36.413,8.6,32.891,12.7s-5.184,6.217-13.406,7.579S0,18.149,0,18.149,4.691,7.408,8.948,4.5A28.207,28.207,0,0,1,23.221.068C27.671-.084,38.093.068,38.093.068Z" transform="matrix(-0.719, 0.695, -0.695, -0.719, 1841.422, 609.564)"/><path class="a" d="M26.967.048S25.777,6.09,23.284,8.991s-3.67,4.4-9.49,5.365S0,12.848,0,12.848s3.32-7.6,6.334-9.66A19.975,19.975,0,0,1,16.438.048C19.589-.06,26.967.048,26.967.048Z" transform="translate(1854.421 646.116) rotate(165)"/></g><g transform="translate(194.851 2248.011) rotate(-60)"><path class="a" d="M15.218.027s-.671,3.41-2.078,5.047S11.068,7.557,7.784,8.1,0,7.25,0,7.25,1.875,2.96,3.575,1.8A11.266,11.266,0,0,1,9.276.027C11.054-.034,15.218.027,15.218.027Z" transform="translate(1772.976 618.883)"/><path class="c" d="M3791.553,632.937l-5.359-15.872-10.407-7.61,13.973,5.608,6.136,17.874Z" transform="translate(-1997.835 2.083)"/><path class="a" d="M21.27.038s-.938,4.766-2.9,7.054-2.9,3.471-7.486,4.232S0,10.134,0,10.134s2.62-6,5-7.619A15.746,15.746,0,0,1,12.966.038C15.451-.047,21.27.038,21.27.038Z" transform="translate(1770.445 594.732) rotate(60)"/><path class="a" d="M18.938.034S18.1,4.277,16.352,6.314,13.775,9.4,9.687,10.082,0,9.023,0,9.023s2.332-5.34,4.449-6.784a14.023,14.023,0,0,1,7.1-2.206C13.757-.042,18.938.034,18.938.034Z" transform="matrix(-0.719, 0.695, -0.695, -0.719, 1800.724, 602.106)"/><path class="a" d="M13.407.024A12.016,12.016,0,0,1,11.576,4.47c-1.24,1.442-1.825,2.188-4.718,2.667S0,6.387,0,6.387s1.651-3.78,3.149-4.8A9.931,9.931,0,0,1,8.172.024C9.739-.03,13.407.024,13.407.024Z" transform="translate(1807.186 620.278) rotate(165)"/></g><g transform="translate(3389.414 174.022) rotate(135)"><path class="a" d="M15.218.027s-.671,3.41-2.078,5.047S11.068,7.557,7.784,8.1,0,7.25,0,7.25,1.875,2.96,3.575,1.8A11.266,11.266,0,0,1,9.276.027C11.054-.034,15.218.027,15.218.027Z" transform="translate(1772.976 618.883)"/><path class="c" d="M3791.553,632.937l-5.359-15.872-10.407-7.61,13.973,5.608,6.136,17.874Z" transform="translate(-1997.835 2.083)"/><path class="a" d="M21.27.038s-.938,4.766-2.9,7.054-2.9,3.471-7.486,4.232S0,10.134,0,10.134s2.62-6,5-7.619A15.746,15.746,0,0,1,12.966.038C15.451-.047,21.27.038,21.27.038Z" transform="translate(1770.445 594.732) rotate(60)"/><path class="a" d="M18.938.034S18.1,4.277,16.352,6.314,13.775,9.4,9.687,10.082,0,9.023,0,9.023s2.332-5.34,4.449-6.784a14.023,14.023,0,0,1,7.1-2.206C13.757-.042,18.938.034,18.938.034Z" transform="matrix(-0.719, 0.695, -0.695, -0.719, 1800.724, 602.106)"/><path class="a" d="M13.407.024A12.016,12.016,0,0,1,11.576,4.47c-1.24,1.442-1.825,2.188-4.718,2.667S0,6.387,0,6.387s1.651-3.78,3.149-4.8A9.931,9.931,0,0,1,8.172.024C9.739-.03,13.407.024,13.407.024Z" transform="translate(1807.186 620.278) rotate(165)"/></g><g transform="translate(315.858 66.185) rotate(30)"><path class="a" d="M15.218.027s-.671,3.41-2.078,5.047S11.068,7.557,7.784,8.1,0,7.25,0,7.25,1.875,2.96,3.575,1.8A11.266,11.266,0,0,1,9.276.027C11.054-.034,15.218.027,15.218.027Z" transform="translate(1772.976 618.883)"/><path class="c" d="M3791.553,632.937l-5.359-15.872-10.407-7.61,13.973,5.608,6.136,17.874Z" transform="translate(-1997.835 2.083)"/><path class="a" d="M21.27.038s-.938,4.766-2.9,7.054-2.9,3.471-7.486,4.232S0,10.134,0,10.134s2.62-6,5-7.619A15.746,15.746,0,0,1,12.966.038C15.451-.047,21.27.038,21.27.038Z" transform="translate(1770.445 594.732) rotate(60)"/><path class="a" d="M18.938.034S18.1,4.277,16.352,6.314,13.775,9.4,9.687,10.082,0,9.023,0,9.023s2.332-5.34,4.449-6.784a14.023,14.023,0,0,1,7.1-2.206C13.757-.042,18.938.034,18.938.034Z" transform="matrix(-0.719, 0.695, -0.695, -0.719, 1800.724, 602.106)"/><path class="a" d="M13.407.024A12.016,12.016,0,0,1,11.576,4.47c-1.24,1.442-1.825,2.188-4.718,2.667S0,6.387,0,6.387s1.651-3.78,3.149-4.8A9.931,9.931,0,0,1,8.172.024C9.739-.03,13.407.024,13.407.024Z" transform="translate(1807.186 620.278) rotate(165)"/></g><g transform="matrix(0.259, -0.966, 0.966, 0.259, 420.652, 3066.514)"><path class="a" d="M15.218.027s-.671,3.41-2.078,5.047S11.068,7.557,7.784,8.1,0,7.25,0,7.25,1.875,2.96,3.575,1.8A11.266,11.266,0,0,1,9.276.027C11.054-.034,15.218.027,15.218.027Z" transform="translate(1772.976 618.883)"/><path class="c" d="M3791.553,632.937l-5.359-15.872-10.407-7.61,13.973,5.608,6.136,17.874Z" transform="translate(-1997.835 2.083)"/><path class="a" d="M21.27.038s-.938,4.766-2.9,7.054-2.9,3.471-7.486,4.232S0,10.134,0,10.134s2.62-6,5-7.619A15.746,15.746,0,0,1,12.966.038C15.451-.047,21.27.038,21.27.038Z" transform="translate(1770.445 594.732) rotate(60)"/><path class="a" d="M18.938.034S18.1,4.277,16.352,6.314,13.775,9.4,9.687,10.082,0,9.023,0,9.023s2.332-5.34,4.449-6.784a14.023,14.023,0,0,1,7.1-2.206C13.757-.042,18.938.034,18.938.034Z" transform="matrix(-0.719, 0.695, -0.695, -0.719, 1800.724, 602.106)"/><path class="a" d="M13.407.024A12.016,12.016,0,0,1,11.576,4.47c-1.24,1.442-1.825,2.188-4.718,2.667S0,6.387,0,6.387s1.651-3.78,3.149-4.8A9.931,9.931,0,0,1,8.172.024C9.739-.03,13.407.024,13.407.024Z" transform="translate(1807.186 620.278) rotate(165)"/></g><g transform="translate(3463.947 2193.909) rotate(180)"><path class="a" d="M23.314.041S22.286,5.265,20.13,7.773s-3.173,3.8-8.205,4.638S0,11.108,0,11.108,2.872,4.534,5.477,2.757A17.26,17.26,0,0,1,14.211.041C16.935-.052,23.314.041,23.314.041Z" transform="translate(1779.62 631.731)"/><path class="c" d="M3799.94,645.429l-8.21-24.315-15.943-11.658,21.406,8.591,9.4,27.383Z" transform="translate(-1988.543 11.023)"/><path class="a" d="M32.585.058s-1.437,7.3-4.45,10.806S23.7,16.182,16.667,17.347,0,15.525,0,15.525,4.014,6.337,7.656,3.853A24.123,24.123,0,0,1,19.863.058C23.67-.072,32.585.058,32.585.058Z" transform="translate(1775.743 594.732) rotate(60)"/><path class="a" d="M29.012.051s-1.279,6.5-3.962,9.622S21.1,14.408,14.84,15.446,0,13.823,0,13.823,3.573,5.642,6.815,3.43A21.483,21.483,0,0,1,17.686.051C21.075-.064,29.012.051,29.012.051Z" transform="matrix(-0.719, 0.695, -0.695, -0.719, 1822.129, 606.028)"/><path class="a" d="M20.539.036s-.906,4.6-2.8,6.811-2.8,3.352-7.228,4.086S0,9.785,0,9.785,2.529,3.994,4.824,2.428A15.214,15.214,0,0,1,12.52.036C14.919-.046,20.539.036,20.539.036Z" transform="translate(1832.03 633.867) rotate(165)"/></g></g></svg>