<svg xmlns="http://www.w3.org/2000/svg" xmlns:xlink="http://www.w3.org/1999/xlink" viewBox="0 0 349.75 349.87"><defs><style>.cls-1{mask:url(#mask);}.cls-2{fill:#567987;}.cls-3{fill:#f2b544;}.cls-4{fill:#ac8453;}.cls-5{fill:#8e6b44;}.cls-6{fill:url(#linear-gradient);}.cls-7{fill:url(#linear-gradient-2);}.cls-8{fill:#f5a874;}.cls-9{fill:#f9c8a0;}.cls-10{fill:url(#linear-gradient-3);}.cls-11{fill:#f6a874;}.cls-12{fill:#d28556;}.cls-13{fill:url(#linear-gradient-4);}.cls-14{fill:#f5a877;}.cls-15{fill:url(#linear-gradient-5);}.cls-16{opacity:0.6;}.cls-17{fill:#3c2926;stroke:#3c2926;}.cls-17,.cls-21,.cls-29,.cls-30,.cls-31,.cls-33{stroke-miterlimit:10;}.cls-18{fill:#fff;}.cls-19{fill:#3851ff;}.cls-20{fill:url(#linear-gradient-6);}.cls-21,.cls-29,.cls-30,.cls-31,.cls-33{stroke:#000;}.cls-22{fill:#fefef2;}.cls-23{fill:url(#linear-gradient-7);}.cls-24{fill:#d8644e;}.cls-25{opacity:0.07;}.cls-26{fill:#924335;}.cls-27{fill:#fed6b8;}.cls-28{fill:#99641d;}.cls-29,.cls-30,.cls-31{fill:none;}.cls-30{stroke-dasharray:0 0;}.cls-31{stroke-dasharray:3.97 1.98 0 0;}.cls-32{opacity:0.32;}.cls-33{stroke-width:4px;}</style><mask id="mask" x="-803.97" y="274.31" width="282.74" height="282.74" maskUnits="userSpaceOnUse"/><linearGradient id="linear-gradient" x1="180.88" y1="219.47" x2="170.95" y2="305.94" gradientUnits="userSpaceOnUse"><stop offset="0" stop-color="#f8a875"/><stop offset="1" stop-color="#f9c8a0"/></linearGradient><linearGradient id="linear-gradient-2" x1="178.44" y1="228.47" x2="179.52" y2="280" gradientUnits="userSpaceOnUse"><stop offset="0" stop-color="#e8a577"/><stop offset="1" stop-color="#f9c8a0"/></linearGradient><linearGradient id="linear-gradient-3" x1="197.48" y1="146.07" x2="174.26" y2="188.87" xlink:href="#linear-gradient"/><linearGradient id="linear-gradient-4" x1="208.67" y1="197.61" x2="138.56" y2="207.73" gradientUnits="userSpaceOnUse"><stop offset="0" stop-color="#f5a877"/><stop offset="1" stop-color="#f9c8a0"/></linearGradient><linearGradient id="linear-gradient-5" x1="128.82" y1="162.33" x2="144.39" y2="192.88" xlink:href="#linear-gradient-4"/><linearGradient id="linear-gradient-6" x1="184.41" y1="172.4" x2="184.66" y2="167.02" gradientUnits="userSpaceOnUse"><stop offset="0" stop-color="#5193f4"/><stop offset="1" stop-color="#3851ff" stop-opacity="0.85"/></linearGradient><linearGradient id="linear-gradient-7" x1="134.23" y1="172.56" x2="134.48" y2="167.14" gradientUnits="userSpaceOnUse"><stop offset="0" stop-color="#5193f4"/><stop offset="1" stop-color="#3851ff" stop-opacity="0.88"/></linearGradient></defs><title>09 - Paweł</title><g id="Layer_26" data-name="Layer 26"><path class="cls-2" d="M173.81,345.49c-3,0-5.72-.06-8.41-.2-4.85-.23-9.73-.68-14.5-1.33l-2.05-.28c-2.77-.4-5.23-.81-7.61-1.27-3.52-.69-6.64-1.39-9.55-2.14l-.85-.22-.33-.09c-1.1-.28-2.21-.58-3.31-.89-1.49-.42-2.85-.82-4.14-1.23-1.66-.51-3.37-1.06-5.08-1.65l-.18-.06-.51-.18c-2.31-.8-4.73-1.71-7.09-2.65l-.76-.31c-.64-.26-1.32-.53-2-.82-3.56-1.48-7.16-3.14-10.67-4.92l-1.89-1-.79-.42-.86-.47H93l-.29-.28-.48-.26-.08,0-.76-.41-.37-.22-.6-.32c-3-1.65-5.79-3.33-8.4-5l-.09-.05-.32-.22-.51-.33-1-.67-1.66-1.11c-3.12-2.09-6.12-4.24-8.91-6.4-.11-.09-.19-.16-.28-.22l-.12-.1c-.18-.12-.39-.28-.59-.44-1.76-1.37-3.4-2.69-5-4l-.39-.34-.89-.76c-.27-.22-.56-.48-.86-.74-.55-.48-1.12-1-1.69-1.48L58,300.43q-.63-.57-1.26-1.17c-.33-.29-.7-.64-1.07-1-.14-.11-.34-.31-.53-.5s-.32-.29-.49-.48a6.19,6.19,0,0,1-.52-.51,3.25,3.25,0,0,1-.27-.26c-.25-.23-.49-.48-.74-.73l-.18-.18c-1.3-1.28-2.6-2.61-4-4.1-.48-.51-.95-1-1.42-1.53s-1-1.11-1.53-1.69c-1.58-1.76-3.18-3.63-4.9-5.71-.72-.89-1.43-1.78-2.14-2.68-1.11-1.41-2.07-2.68-3-3.88l-.44-.6c-.14-.18-.29-.38-.43-.59-.46-.61-.94-1.29-1.42-2l-.14-.2c-.21-.31-.45-.64-.67-1-.14-.19-.3-.41-.45-.65s-.17-.24-.25-.35l-.46-.68c-.23-.32-.47-.68-.69-1-1.19-1.77-2.35-3.58-3.44-5.38-.27-.43-.55-.88-.82-1.33-1.09-1.82-2.05-3.5-2.94-5.11-.41-.73-.82-1.48-1.21-2.22a2.68,2.68,0,0,1-.18-.33c-1-1.82-1.84-3.52-2.63-5.14l-.13-.28c-.34-.67-.67-1.36-1-2.06L18.19,246c-.07-.13-.15-.32-.23-.5a5.06,5.06,0,0,1-.23-.51c-.12-.25-.24-.51-.34-.76s-.32-.69-.46-1-.2-.42-.3-.67a2.14,2.14,0,0,1-.16-.39c-1.31-3-2.57-6.14-3.74-9.34-.66-1.8-1.17-3.28-1.61-4.66-.14-.38-.28-.82-.42-1.26l-.22-.66c-.46-1.44-.94-3-1.46-4.84l-.18-.63-.15-.16v-.41l-.12-.4-.15-.16v-.43c-.09-.3-.16-.56-.23-.83L8,217.78c-.09-.37-.19-.74-.28-1.1l-.06-.26c-.28-1.07-.55-2.16-.8-3.25-.63-2.69-1.2-5.45-1.69-8.19-.31-1.61-.59-3.31-.85-5l-.07-.44,0-.1v-.28c0-.21-.07-.43-.1-.64L3.89,198l.13-.26L4,197.34a1.08,1.08,0,0,1,0-.19c-.13-1-.26-1.92-.37-2.89l-.06-.51c-.1-.89-.2-1.79-.28-2.69l-.06-.63c0-.46-.09-.91-.12-1.37-.39-4.44-.61-8.91-.65-13.26,0-.57,0-1.16,0-1.74s0-.94,0-1.41c0-1.25,0-2.77.09-4.33v-.11l0-.82c0-.18,0-.41,0-.64s0-.25,0-.37.07-1.61.08-1.68,0-.43,0-.68c.13-2.35.29-4.51.5-6.55.21-2.24.48-4.6.81-7,.11-.8.23-1.6.35-2.39.19-1.25.39-2.49.62-3.72,0-.3.1-.63.16-1s.11-.61.17-.93c0-.17,0-.24.06-.31s.06-.37.11-.57,0-.16,0-.22c.25-1.35.55-2.79,1-4.64a1.86,1.86,0,0,0,.06-.29l.3-1.31c.51-2.22,1.06-4.36,1.62-6.38.62-2.29,1.33-4.68,2.1-7.08.34-1.05.68-2.11,1.05-3.15l.09-.28c.08-.24.16-.47.25-.7l.25-.71,0-.14,0-.09,0-.06c.08-.23.16-.46.25-.68l.3-.85.95-2.52c.31-.81.61-1.59.94-2.37s.52-1.29.8-1.95a3,3,0,0,1,.19-.46c1.1-2.63,2.27-5.24,3.49-7.76.5-1,1-2.12,1.56-3.17s1.06-2.09,1.62-3.13L23.26,92a3.34,3.34,0,0,1,.18-.32l.32-.59.55-1c.88-1.58,1.82-3.19,2.77-4.75l.64-1c.43-.72.9-1.46,1.37-2.19s1.11-1.72,1.67-2.57c.09-.14.23-.36.38-.57.28-.42.61-.92,1-1.42l.39-.56c1.16-1.71,2.42-3.47,3.82-5.35l.27-.36.6-.79c.12-.17.28-.37.43-.57l.94-1.21,1.13-1.45.77-.94c.14-.18.28-.36.43-.53a6.12,6.12,0,0,1,.4-.49c1-1.2,2.1-2.53,3.29-3.89,2.43-2.81,5-5.61,7.76-8.33l.61-.62c.42-.41.8-.79,1.19-1.16q1.53-1.51,3.12-3c1.13-1,2.26-2.07,3.41-3.07l.55-.49.56-.48.56-.47c.19-.17.38-.34.58-.5s.33-.3.55-.47l.35-.31,0,0c.88-.73,1.77-1.46,2.65-2.16,1.6-1.29,3.23-2.56,4.85-3.76v-.75h1c.56-.42,1.13-.83,1.7-1.24,1.72-1.24,3.46-2.43,5.15-3.54l1.57-1,.56-.35c1.88-1.22,4-2.5,6.13-3.75.58-.35,1.17-.69,1.77-1l.23-.13c.23-.13.45-.26.69-.38l.76-.43,1.74-.95.71-.38.23-.12c1.25-.67,2.6-1.37,4-2l2-1c2-1,4.12-1.93,6.16-2.81l.11,0c4.83-2.1,9.73-4,14.57-5.51a6.46,6.46,0,0,1,.78-.26c4.09-1.33,8.35-2.53,12.6-3.54a171.08,171.08,0,0,1,23.35-3.9h.09c3.53-.34,7.19-.57,10.87-.7,1.83-.06,3.7-.1,5.72-.1A174.75,174.75,0,0,1,193.2,3.74,170.93,170.93,0,0,1,219.8,8.9c1.76.48,3.43,1,5.1,1.51l.14,0c2.23.69,4.43,1.43,6.54,2.18l.26.09c4.38,1.57,8.74,3.35,13,5.29,1,.43,1.91.88,2.85,1.33,1.44.69,2.94,1.43,4.45,2.21l1.78.93,1.13.59.62.34,1.08.6c.56.3,1.12.62,1.69.95,1,.58,2,1.16,3,1.77l.62.36c1,.62,2,1.21,2.95,1.83,1.13.71,2.27,1.45,3.39,2.19s2.3,1.55,3.43,2.33c1.37,1,2.71,1.92,4.08,3,.42.3.87.63,1.31,1,1.88,1.42,3.72,2.87,5.47,4.33l1.12.92.08.08.3.24.47.4.24.2.41.36,1.13,1c1.16,1,2.24,2,3.31,3s2.32,2.16,3.57,3.38l.17.16c1,1,2,2,3,3,.09.08.23.23.36.37.61.62,1.25,1.29,1.88,2,1.29,1.37,2.59,2.8,3.85,4.25,1,1.08,1.95,2.23,3,3.5.84,1,1.67,2,2.49,3.06l.27.33.7.9.53.67.25.34,1.07,1.4c1.32,1.76,2.59,3.53,3.78,5.25.63.89,1.25,1.79,1.85,2.7s1.2,1.82,1.8,2.74c1.55,2.43,3,4.9,4.43,7.34l.16.3.39.66.91,1.64.93,1.73,0,.08.42.79c1.17,2.22,2.3,4.49,3.36,6.74.86,1.85,1.51,3.28,2.1,4.65.29.66.57,1.33.86,2,.4.92.78,1.87,1.17,2.84.49,1.23,1,2.47,1.43,3.72.2.53.39,1.07.59,1.61l.37,1,.15.43.08.22c.08.24.17.49.25.74,0,.06.05.14.07.21s.05.14.07.21l.2.57c.7,2.08,1.39,4.27,2.05,6.51.78,2.65,1.51,5.42,2.19,8.25.18.77.36,1.53.53,2.3s.4,1.85.59,2.79l.14.68c.06.26.12.57.17.89s.11.48.15.72a2.33,2.33,0,0,1,.05.28c.05.22.09.45.12.67s.14.65.19,1c.19,1,.37,2.09.54,3.16l.11.73c.67,4.18,1.18,8.43,1.5,12.62a3.75,3.75,0,0,1,.05.47c.06.66.1,1.36.15,2v.12c.06.81.11,1.62.14,2.45a3.62,3.62,0,0,1,0,.47c0,.27,0,.54,0,.81h0s0,.12,0,.2l0,.87c0,.11,0,.3,0,.47s0,.32,0,.5,0,.3,0,.5,0,.61,0,1c0,.19,0,.39,0,.58v.26q0,1.71,0,3.39c0,1.09,0,2.19,0,3.27v.48c-.06,2.91-.19,5.57-.38,8.16,0,.51-.07,1.06-.11,1.6-.18,2.29-.38,4.31-.6,6.19,0,.18,0,.36-.07.56a8,8,0,0,1-.1.84c0,.27-.06.64-.11,1l0,.09c0,.26-.06.52-.1.78v.15l0,.1v.06c0,.25-.06.49-.1.73v.14l-.15,1c-.1.69-.21,1.4-.33,2.09-.26,1.66-.53,3.23-.82,4.78-.45,2.34-.92,4.58-1.41,6.67l-.07.35c-.3,1.28-.6,2.51-.92,3.72-.07.32-.17.67-.26,1l-.2.77c0,.09-.05.18-.07.26s-.1.37-.17.59-.16.64-.27,1c-.26,1-.56,2-.86,3l-.08.28-.16.51c-.27.86-.55,1.77-.84,2.65l-.56,1.74-.09.25c-.11.35-.23.7-.36,1,0,.13-.1.31-.18.5-.87,2.53-1.79,5-2.71,7.3-.43,1.06-.87,2.12-1.32,3.17s-1,2.36-1.67,3.82l-.16.34c-.1.23-.2.46-.3.67l-.15.32-.17.36v.28l-.25.27-.09.18c-.64,1.35-1.29,2.7-2,4-.31.63-.64,1.25-1,1.87l-.35.67-.33.62c-.89,1.68-1.85,3.42-2.83,5.13-1.44,2.51-3,5-4.54,7.45l-1.09,1.67c-.47.72-.94,1.41-1.41,2.1l-.35.51-.35.49a6.31,6.31,0,0,1-.37.54l-.3.44-.37.52c-.3.42-.6.85-.91,1.26v.18l-.37.34c-.63.86-1.26,1.72-1.91,2.57-.75,1-1.6,2.09-2.65,3.4-.43.55-.87,1.09-1.31,1.63-1.07,1.31-2,2.37-2.83,3.34-.46.54-.94,1.09-1.42,1.63l-.87,1c-.91,1-1.82,2-2.73,3s-1.72,1.82-2.61,2.72-2,2-3.09,3.06a4.48,4.48,0,0,1-.38.37c-.23.23-.45.45-.68.66l-.35.33-.36.33-.37.34c-.07.08-.2.2-.33.32l-.43.4-.44.41c-1.05.95-2.26,2.05-3.48,3.09-1,.87-1.94,1.69-2.9,2.47l-1,.8c-1.07.87-2.15,1.74-3.24,2.59-1.79,1.4-3.62,2.77-5.43,4.06-.68.49-1.37,1-2.07,1.45-1.73,1.23-3.53,2.42-5.06,3.41l-2.21,1.41-1.91,1.16h0c-1.15.7-2.31,1.38-3.48,2.05l-1.67.95-.18.1-1.61.88a1.1,1.1,0,0,1-.23.13l-.45.24-.26.14-1,.54-2.57,1.33,0,0-.14.06-.27.14c-2.89,1.44-5.76,2.78-8.54,4-.58.26-1.18.51-1.79.77-.19.09-.43.18-.67.28-1.28.54-2.67,1.1-4.49,1.8s-3.23,1.21-4.73,1.72l-.41.15-.18.06a170.59,170.59,0,0,1-20.11,5.57c-3.5.74-7.1,1.39-10.68,1.91-1.58.23-3.31.46-5.28.68-4.6.55-9.38.9-14.19,1C177.79,345.46,176.06,345.49,173.81,345.49Z"/><path d="M173.81,4.15A171.8,171.8,0,0,1,193,5.23a168.86,168.86,0,0,1,26.37,5.11c1.74.48,3.46,1,5.18,1.54h0c2.26.7,4.51,1.45,6.73,2.25h0q6.55,2.35,12.86,5.24c.94.43,1.89.87,2.82,1.32q2.24,1.06,4.42,2.19l1.76.92,1.12.59.61.33,1.08.6c.56.3,1.11.61,1.66.93,1,.58,2,1.16,3,1.76l.64.38c1,.59,1.93,1.18,2.89,1.79,1.13.71,2.26,1.44,3.37,2.18s2.28,1.53,3.4,2.31c1.37.95,2.71,1.92,4,2.92.44.31.87.63,1.3,1q2.76,2.09,5.42,4.29l1.11.92.37.31.73.61.36.32,1.08.93.14.12c1.08,1,2.15,1.9,3.21,2.88s2.4,2.24,3.58,3.39l.11.1c1,1,2,2,3,3,.12.11.23.23.33.34.64.65,1.27,1.31,1.89,2q2,2.07,3.82,4.21,1.51,1.71,3,3.47c.84,1,1.66,2,2.47,3l.26.31.48.62.24.31.5.64.22.29,1.1,1.44q1.92,2.56,3.75,5.2c.62.89,1.23,1.78,1.83,2.68s1.19,1.8,1.78,2.72c1.52,2.38,3,4.81,4.39,7.27l.16.28c.13.22.26.44.38.66l.92,1.65.38.71.12.22.39.72a2.12,2.12,0,0,0,.11.21l.38.72c1.15,2.19,2.26,4.42,3.32,6.67.71,1.52,1.41,3,2.08,4.6.29.66.57,1.32.85,2,.4.93.78,1.87,1.16,2.82.49,1.22,1,2.45,1.42,3.69.29.77.56,1.54.84,2.31.09.27.19.54.28.82a.36.36,0,0,1,0,.11c.1.27.19.54.28.82a.49.49,0,0,1,0,.11c0,.07.05.13.07.2l.21.62c.72,2.13,1.4,4.29,2,6.46q1.18,4,2.17,8.18c.18.76.35,1.51.52,2.27.21.92.4,1.84.59,2.77l0,.13c0,.17.07.34.1.51s.13.61.18.92.11.5.15.75a.57.57,0,0,1,0,.18c.06.25.1.5.14.75s.13.62.18.93c.19,1.05.37,2.09.53,3.14l.12.74q1,6.21,1.49,12.55c0,.14,0,.27,0,.41.06.72.11,1.45.16,2.17s.11,1.64.14,2.47a2.61,2.61,0,0,1,0,.4c0,.29,0,.57,0,.86a.27.27,0,0,1,0,.09c0,.31,0,.62,0,.93,0,.14,0,.29,0,.43s0,.33,0,.5,0,.33,0,.5c0,.33,0,.67,0,1s0,.56,0,.84c0,1.11,0,2.23,0,3.34s0,2.17,0,3.24c0,.17,0,.34,0,.51-.06,2.7-.18,5.38-.38,8,0,.53-.07,1.07-.11,1.6-.16,2.05-.35,4.1-.59,6.13,0,.19,0,.37-.07.56s0,.53-.09.79-.07.67-.12,1-.08.66-.13,1c0,0,0,.05,0,.08s0,.09,0,.13c0,.28-.07.55-.11.83v0l-.15,1c-.1.69-.2,1.38-.32,2.06-.25,1.6-.52,3.18-.82,4.76-.42,2.22-.88,4.43-1.39,6.61l-.06.26h0l0,.14c-.28,1.21-.58,2.42-.89,3.62-.08.33-.17.67-.26,1L338,218c0,.13-.07.27-.11.4s-.11.4-.17.6-.17.66-.27,1c-.27,1-.56,2-.86,3l-.09.32-.14.44c-.27.88-.55,1.77-.84,2.64-.18.59-.37,1.17-.56,1.75-.14.41-.28.83-.43,1.24a4.59,4.59,0,0,1-.17.48q-1.27,3.67-2.71,7.28c-.42,1-.86,2.1-1.3,3.14-.53,1.27-1.09,2.53-1.66,3.78l-.15.34-.3.65c-.05.12-.11.24-.16.35l-.3.65s0,0,0,0l-.15.32,0,.06c-.64,1.35-1.29,2.69-2,4-.38.76-.77,1.5-1.16,2.25-.15.28-.29.56-.45.84q-1.37,2.6-2.82,5.13-2.16,3.75-4.5,7.38l-1.09,1.68c-.46.69-.92,1.37-1.39,2.05-.11.17-.22.34-.35.51s-.22.33-.34.49-.22.34-.34.5l-.34.49-.36.5c-.39.55-.78,1.1-1.18,1.64v0c-.65.89-1.3,1.77-2,2.65-.85,1.14-1.73,2.26-2.62,3.37-.43.54-.86,1.08-1.3,1.61-.91,1.11-1.84,2.22-2.8,3.31l-1.67,1.92-.62.7c-.89,1-1.79,2-2.7,2.93s-1.7,1.8-2.58,2.69-2,2-3.06,3c-.12.12-.24.24-.36.34s-.45.45-.68.66l-.35.33q-.18.18-.36.33l-.36.34c-.11.11-.22.22-.34.32l-.44.41-.44.41c-1.13,1-2.27,2.06-3.43,3.05-.95.84-1.9,1.65-2.87,2.44l-1,.8c-1.06.87-2.13,1.73-3.21,2.57q-2.64,2.07-5.38,4c-.68.49-1.36,1-2,1.44-1.65,1.17-3.34,2.29-5,3.39l-2.2,1.4-1.52.93h0c-1.26.77-2.53,1.51-3.81,2.25-.56.32-1.12.64-1.69.95l-.1.06-1.69.93-.14.07c-.25.15-.51.28-.76.42l-1,.51c-.87.46-1.75.92-2.63,1.36l-.1,0-.23.11c-2.79,1.4-5.63,2.73-8.5,4l-1.78.76-.66.28c-1.47.62-3,1.21-4.46,1.79s-3.11,1.16-4.68,1.7c-.19.08-.4.14-.6.21a167.83,167.83,0,0,1-19.92,5.52q-5.23,1.11-10.59,1.89c-1.74.26-3.48.48-5.23.68-4.63.55-9.33.89-14.07,1-1.84.08-3.68.1-5.53.1-2.8,0-5.58-.06-8.34-.2-4.85-.23-9.63-.67-14.37-1.32l-2.12-.29c-2.5-.36-5-.77-7.46-1.25-3.18-.62-6.34-1.31-9.46-2.12-.4-.09-.79-.2-1.18-.3-1.09-.28-2.18-.58-3.27-.89-1.37-.38-2.74-.78-4.1-1.21-1.69-.52-3.38-1.07-5.05-1.64-.2-.07-.4-.13-.59-.21-2.39-.83-4.77-1.72-7.11-2.66l-.74-.3c-.66-.26-1.32-.53-2-.81q-5.4-2.25-10.59-4.88l-2-1-.59-.32-.93-.5-.28-.15,0,0-.63-.33-.07,0-.81-.44-.3-.17-.62-.34c-2.85-1.59-5.66-3.25-8.4-5l-.05,0-.34-.23-.44-.28-1-.67-1.67-1.11c-3-2-6-4.12-8.82-6.34l-.32-.25-.12-.09c-.17-.12-.35-.25-.52-.39q-2.5-1.95-4.94-4l-1.26-1.08-.85-.73-1.69-1.48L59,299.32c-.41-.37-.82-.75-1.22-1.14s-.71-.65-1.06-1l-.53-.5c-.17-.16-.34-.32-.51-.5s-.34-.32-.51-.5l-.29-.28c-.24-.23-.49-.48-.73-.73l-.19-.18q-2-2-3.94-4c-.47-.5-.94-1-1.4-1.51s-1-1.11-1.51-1.67c-1.67-1.86-3.29-3.76-4.87-5.68-.72-.88-1.42-1.76-2.12-2.65-1-1.26-2-2.54-2.92-3.84l-.45-.61c-.14-.18-.27-.35-.39-.53-.49-.66-1-1.32-1.43-2l-.12-.17-.68-1c-.17-.23-.33-.46-.47-.69a2,2,0,0,1-.22-.31c-.17-.23-.32-.46-.47-.69s-.46-.67-.67-1q-1.77-2.64-3.42-5.35-.42-.66-.81-1.32c-1-1.67-2-3.36-2.92-5.07-.42-.74-.83-1.49-1.22-2.24l-.14-.25c-.9-1.69-1.78-3.4-2.62-5.13l-.14-.29c-.33-.66-.66-1.33-1-2l0-.06-.46-1c-.08-.16-.15-.32-.22-.48s-.16-.34-.23-.52-.24-.51-.34-.76-.31-.67-.45-1-.22-.47-.32-.71a1.78,1.78,0,0,1-.12-.29q-2-4.59-3.73-9.33c-.56-1.52-1.1-3-1.59-4.6-.16-.44-.3-.88-.44-1.32-.07-.2-.14-.4-.2-.59-.51-1.59-1-3.2-1.45-4.81-.09-.32-.19-.64-.27-1a0,0,0,0,1,0,0c-.09-.32-.18-.64-.26-1a0,0,0,0,1,0,0c-.09-.32-.18-.64-.26-1l-.18-.66c-.12-.44-.23-.89-.34-1.33-.28-1.07-.54-2.15-.79-3.22q-.95-4-1.68-8.12c-.31-1.65-.59-3.32-.84-5,0-.22-.07-.45-.1-.67a.13.13,0,0,1,0-.06c0-.31-.1-.63-.13-.94a.07.07,0,0,1,0-.06c-.06-.31-.1-.63-.14-.94a.11.11,0,0,1,0-.05c-.13-1-.26-1.94-.37-2.91L5,193.58c-.1-.88-.2-1.77-.28-2.66-.06-.66-.13-1.32-.18-2q-.57-6.52-.64-13.16c0-.57,0-1.15,0-1.72s0-.92,0-1.38c0-1.44,0-2.87.09-4.3v-.17l0-.76q0-.31,0-.63c0-.1,0-.2,0-.3l0-.69,0-.66c0-.11,0-.23,0-.34s0-.45,0-.68c.12-2.19.28-4.37.5-6.53q.33-3.5.8-7c.11-.79.23-1.58.35-2.37.19-1.23.39-2.46.61-3.68.05-.31.1-.62.16-.93s.11-.62.17-.93c0-.09,0-.19,0-.28s.08-.43.13-.65a.3.3,0,0,1,0-.1c.29-1.57.62-3.13,1-4.67,0-.11,0-.21.07-.31.09-.42.19-.85.29-1.27q.74-3.18,1.6-6.32,1-3.54,2.09-7c.33-1,.67-2.09,1-3.12.11-.31.21-.62.33-.93s.17-.5.26-.75l.06-.18s0,0,0-.06c.08-.23.16-.46.25-.69l.33-.93.53-1.41.4-1c.3-.78.6-1.55.92-2.32s.54-1.33.82-2a2.87,2.87,0,0,1,.15-.37q1.63-3.91,3.48-7.73c.5-1,1-2.1,1.54-3.14s1.06-2.08,1.61-3.11l.5-.93.37-.68.14-.25.12-.22.25-.46.53-.93c.88-1.59,1.8-3.17,2.75-4.72l.18-.3.45-.73c.44-.73.9-1.46,1.36-2.18s1.1-1.7,1.66-2.54a5.39,5.39,0,0,1,.33-.5q.48-.73,1-1.47l0,0,.21-.31.14-.2q1.84-2.7,3.8-5.32c.28-.37.56-.75.85-1.12s.43-.57.65-.86l.72-.93.73-.93.41-.52.76-.93c.13-.18.27-.35.42-.52a4.12,4.12,0,0,1,.33-.4q1.62-2,3.32-3.93,3.69-4.26,7.69-8.25l.64-.65,1.14-1.12q1.53-1.5,3.1-3c1.12-1,2.24-2,3.38-3l.56-.49.52-.45.56-.48c.17-.15.35-.31.54-.46s.36-.32.55-.47l.28-.24h0c.91-.76,1.83-1.52,2.75-2.25,1.78-1.44,3.58-2.83,5.42-4.18h0c.68-.51,1.37-1,2.07-1.51,1.67-1.2,3.38-2.38,5.1-3.51.51-.35,1-.69,1.56-1L82.1,31c2-1.3,4.05-2.55,6.12-3.75.58-.34,1.16-.68,1.75-1l.89-.5.77-.43.43-.24.5-.27.66-.36.11-.06,1-.52c1.3-.69,2.6-1.37,3.92-2l2-1q3-1.45,6.1-2.79l.11-.05q7.06-3.06,14.44-5.46a6.35,6.35,0,0,1,.7-.23q6.18-2,12.56-3.53A168.16,168.16,0,0,1,157.27,5h0q5.39-.53,10.85-.7c1.88-.07,3.77-.1,5.67-.1m0-3c-2,0-3.93,0-5.78.11-3.68.12-7.35.35-10.89.69L157,2a171.49,171.49,0,0,0-23.57,3.94c-4.25,1-8.53,2.21-12.71,3.57a7.56,7.56,0,0,0-.85.27c-4.86,1.58-9.78,3.44-14.63,5.54l-.08,0h0l0,0c-2,.88-4.12,1.83-6.17,2.82l-2,1c-1.36.66-2.72,1.37-4,2l-.24.13-.76.41-.08,0,0,0-.66.36-.26.14-.21.11,0,0,0,0-.18.1-.2.11c-.27.14-.53.29-.79.44l-.69.38-.23.13c-.59.33-1.18.68-1.77,1-2.18,1.26-4.26,2.54-6.2,3.79l-.56.35-1.6,1.06c-1.69,1.12-3.43,2.31-5.18,3.57l-1.31.94h-2v1.5C68.42,37,67,38.09,65.55,39.24c-.89.7-1.76,1.42-2.52,2.06l-.05,0-.31.27-.08.07-.13.11c-.19.15-.38.32-.56.48l-.57.48c-.17.15-.37.31-.55.48l-.55.47-.29.25-.28.25c-1.17,1-2.29,2-3.43,3.09s-2.13,2-3.16,3l-1.16,1.14,0,0,0,0-.27.28-.34.34c-2.74,2.74-5.37,5.56-7.81,8.39-1.17,1.33-2.29,2.66-3.33,3.94-.15.16-.28.32-.4.47s-.31.37-.44.55l-.73.9,0,0,0,0-.19.24-.2.26-.36.45-.38.49-.72.93-.21.27-.46.62q-.31.39-.6.78l-.25.33c-1.42,1.92-2.69,3.69-3.88,5.43l-.06.09-.05.07-.05.06,0,.07h0l-.12.18,0,0q-.51.74-1,1.47c-.14.19-.28.4-.41.61-.67,1-1.18,1.79-1.65,2.53s-.89,1.41-1.4,2.24l-.21.35-.21.34,0,0v0l0,.06-.14.24c-.95,1.54-1.89,3.16-2.79,4.78l-.27.48-.24.43,0,0,0,0-.11.2-.12.22a1.09,1.09,0,0,0-.08.15h0l-.15.27,0,0-.15.27-.21.39c-.11.2-.2.36-.28.52l-.24.44c-.6,1.13-1.16,2.2-1.66,3.21s-1,1.94-1.57,3.19c-1.21,2.52-2.4,5.15-3.5,7.79-.08.17-.15.34-.22.52-.27.64-.54,1.29-.8,2-.34.81-.65,1.62-.94,2.37-.07.19-.13.36-.2.52L12,113l-.26.7-.26.68v.07l-.07.19-.25.7-.21.57-.06.13-.06.22,0,.07c-.09.24-.18.49-.26.73l-.23.65-.09.28c-.35,1-.7,2-1.07,3.22-.77,2.4-1.49,4.81-2.12,7.14-.56,2-1.11,4.19-1.63,6.43-.1.42-.21.87-.3,1.31,0,.08,0,.12,0,.16l0,.07,0,.07c-.4,1.84-.7,3.28-1,4.64,0,.07,0,.16-.06.26s-.08.39-.11.59,0,.16-.05.24v0c-.07.33-.13.65-.18,1s-.11.63-.16,1c-.2,1.11-.4,2.3-.62,3.73-.13.8-.25,1.61-.36,2.41-.32,2.42-.6,4.79-.81,7.08-.21,2-.38,4.21-.51,6.61,0,.23,0,.46,0,.7a1.62,1.62,0,0,0,0,.22V165l0,.66,0,.63c0,.12,0,.24,0,.35s0,.47,0,.71v.93c-.06,1.53-.08,3.05-.09,4.34,0,.44,0,.92,0,1.4s0,1.19,0,1.78c0,4.36.26,8.87.65,13.36,0,.43.08.89.12,1.34l.07.65c.08.92.18,1.83.28,2.73l0,.27,0,.25c.11.95.24,1.92.37,2.88a2.51,2.51,0,0,0,0,.27c0,.23.06.48.1.74,0,.08,0,.17,0,.25,0,.27.07.53.11.78,0,.08,0,.17,0,.25s0,.16,0,.24,0,.19,0,.28c.26,1.77.55,3.48.86,5.14.5,2.76,1.08,5.54,1.71,8.25.31,1.32.56,2.34.81,3.29l0,.18c.09.4.19.79.3,1.18l.17.62c0,.22.11.43.16.63v.83l.32.32,0,.12a2.17,2.17,0,0,0,.07.24c0,.21.11.41.17.62l.07.26c.53,1.83,1,3.43,1.49,4.92.06.19.13.41.21.62.14.45.28.89.44,1.34.44,1.39,1,2.88,1.62,4.67,1.16,3.2,2.42,6.36,3.74,9.38.07.17.13.32.19.44s.2.46.33.73.28.64.43,1,.24.55.33.75.17.37.25.55l.24.53c.08.16.15.32.23.49l.21.45,0,.06,0,0c.32.71.67,1.42,1,2.07l0,.09.1.2c.78,1.6,1.64,3.31,2.64,5.18.06.11.12.22.19.33.37.73.79,1.48,1.22,2.25.88,1.59,1.85,3.28,3,5.13.26.45.54.91.84,1.37,1.08,1.78,2.24,3.6,3.45,5.4.2.32.44.69.71,1.06s.29.45.45.67.16.24.27.38.28.43.46.67.44.64.66,1l.11.15,0,0v0c.56.79,1,1.41,1.43,2,.14.2.29.4.45.61l.2.26.24.33c.87,1.19,1.85,2.48,3,3.9.72.9,1.43,1.8,2.16,2.69,1.73,2.11,3.35,4,5,5.79.58.66,1.07,1.2,1.54,1.7s.94,1,1.41,1.52c1.42,1.51,2.74,2.86,4,4.13l.21.2c.23.25.48.49.71.72l.29.27c.18.2.36.37.52.52s.34.34.52.5.36.36.55.53c.36.35.71.68,1.08,1s.79.75,1.25,1.17l1.75,1.58c.57.51,1.14,1,1.72,1.5q.42.39.87.75l.85.73.41.35c1.58,1.34,3.22,2.67,5,4.07.21.17.42.32.63.47h0l.08.06.21.16,0,0,0,0c2.81,2.19,5.84,4.36,9,6.47l1.66,1.11,1.05.68.33.21.13.09.06,0L81,320l.2.14.1.05c2.63,1.67,5.47,3.36,8.45,5l.63.35.16.09.05,0h0l.06,0,.82.44.12.07h0l.18.1,0,0,.55.55h.49l.59.32.27.14.28.15,0,0,0,0,2.07,1.06c3.53,1.78,7.17,3.46,10.78,5,.6.26,1.28.54,2,.82.24.11.49.21.75.31,2.34.94,4.75,1.84,7.17,2.68.16.07.34.13.51.19l.14,0c1.75.6,3.48,1.16,5.16,1.68,1.27.4,2.65.81,4.18,1.23,1.23.35,2.32.65,3.33.91l.33.09.88.22c2.92.75,6.06,1.46,9.6,2.15,2.4.46,4.89.88,7.61,1.27l.24,0,1.93.26c4.78.66,9.7,1.11,14.6,1.34,2.69.14,5.47.2,8.48.2,2.28,0,4,0,5.66-.1,4.82-.14,9.64-.49,14.3-1.05,2-.22,3.71-.45,5.32-.69,3.6-.53,7.23-1.17,10.77-1.92a171.93,171.93,0,0,0,20.27-5.62l.16-.05c.17-.06.35-.12.51-.19,1.5-.51,3-1.07,4.7-1.7,1.84-.71,3.24-1.28,4.56-1.83l.69-.29,1.79-.77c2.77-1.19,5.65-2.53,8.55-4l.29-.14,0,0,.16-.08c.94-.47,1.85-.95,2.62-1.35l.48-.25.48-.25,0,0,.05,0,.24-.13.42-.23.3-.16,1.58-.87.21-.12,1.65-.93c1.17-.68,2.18-1.27,3.16-1.86h0l.73-.43.77-.48.75-.45,0,0h0l.59-.38,1.63-1c1.53-1,3.32-2.18,5.11-3.45.66-.45,1.34-.93,2.1-1.47,1.8-1.29,3.65-2.67,5.47-4.1,1-.79,2.1-1.65,3.27-2.61l1-.81c1-.78,1.91-1.59,2.92-2.48,1.24-1.06,2.45-2.16,3.48-3.1l.16-.14.33-.32.11-.09a3.83,3.83,0,0,0,.29-.28,4.38,4.38,0,0,0,.39-.36l.31-.29.41-.38.17-.16.13-.13c.23-.21.46-.43.7-.67a5.29,5.29,0,0,0,.41-.4c1.12-1.07,2.14-2.08,3.12-3.09.81-.82,1.68-1.72,2.62-2.73,1.1-1.18,1.95-2.1,2.73-3l.31-.34.35-.4,1.68-1.93c.85-1,1.76-2.05,2.84-3.36.44-.54.89-1.09,1.33-1.65,1.06-1.32,1.91-2.41,2.68-3.44.62-.82,1.24-1.66,1.86-2.51l.71-.7v-.28l.63-.88.16-.22.2-.29.32-.46c.13-.17.26-.36.38-.54s.24-.34.34-.5.27-.39.38-.55c.47-.68.93-1.36,1.39-2.05v0l0,0,.53-.82.56-.85c1.57-2.45,3.11-5,4.57-7.51,1-1.7,1.94-3.45,2.86-5.19.11-.2.22-.4.32-.61l.14-.25.24-.47c.32-.62.64-1.23,1-1.86.61-1.21,1.25-2.52,1.95-4l.51-.51v-.59l0-.07,0-.09.13-.27c.09-.2.19-.41.28-.62s.13-.27.18-.4c.67-1.47,1.2-2.69,1.68-3.83.42-1,.88-2.07,1.32-3.18.93-2.32,1.84-4.78,2.73-7.32.09-.23.15-.43.21-.59l.34-1,.08-.24c.21-.62.4-1.21.58-1.8.26-.78.53-1.62.84-2.65,0-.08.05-.16.08-.24l.05-.16,0-.08,0-.08,0-.12,0-.14c.33-1.09.62-2.07.87-3,.1-.34.19-.69.28-1s.12-.39.17-.59l.06-.24,0-.08,0-.08v-.07l.07-.27.07-.28c.1-.35.19-.71.28-1.06.33-1.29.63-2.5.9-3.65v-.09l0-.14v0h0l0-.17c.49-2.08,1-4.34,1.41-6.7.29-1.55.57-3.13.83-4.83.13-.7.23-1.41.33-2.12v-.08l.14-.91,0-.22v0c0-.2.06-.4.08-.6l.05-.21v-.16l.12-.87q.07-.51.12-1.05c0-.26.07-.53.09-.8s.06-.39.08-.59c.22-1.87.41-3.92.59-6.21,0-.55.09-1.1.12-1.64.19-2.6.32-5.28.38-8.17v-.54c0-1.08,0-2.19,0-3.28s0-2.26,0-3.39v-.3c0-.19,0-.39,0-.59s0-.66,0-1c0-.16,0-.33,0-.5s0-.34,0-.51,0-.32,0-.48l0-.8c0-.08,0-.16,0-.24,0-.26,0-.52,0-.79s0-.32,0-.53c0-.75-.08-1.54-.15-2.46v-.12c-.05-.69-.1-1.39-.16-2.08,0-.14,0-.3,0-.47-.33-4.22-.84-8.49-1.51-12.71l-.07-.37-.05-.37c-.15-.92-.31-1.91-.54-3.18,0-.32-.12-.65-.19-1s-.07-.42-.12-.66a1.91,1.91,0,0,0-.06-.33c0-.24-.09-.48-.14-.72s-.11-.6-.19-.93c0-.08,0-.17-.05-.26l0-.17,0-.1,0-.1v0c-.2-.94-.39-1.88-.6-2.81-.17-.76-.35-1.53-.53-2.3-.69-2.87-1.43-5.67-2.21-8.33-.66-2.26-1.36-4.47-2.08-6.58l-.1-.32-.09-.26-.07-.19a2.25,2.25,0,0,0-.08-.24l-.24-.7-.1-.27c0-.13-.08-.26-.13-.38l-.1-.31v0l0,0-.27-.77c-.19-.52-.38-1.05-.58-1.57-.51-1.37-1-2.61-1.44-3.75s-.8-2-1.19-2.89c-.28-.66-.56-1.34-.86-2-.59-1.36-1.26-2.85-2.11-4.67-1.08-2.29-2.21-4.57-3.38-6.79-.08-.14-.13-.25-.19-.35l-.21-.41,0,0v-.05l-.07-.13-.26-.48L326,92l0,0v0l-.1-.18-.35-.64,0-.05,0,0-.45-.8-.47-.85-.41-.71-.07-.12-.06-.09c-1.41-2.49-2.91-5-4.48-7.43-.6-.94-1.2-1.86-1.81-2.77s-1.18-1.75-1.87-2.73c-1.19-1.73-2.48-3.51-3.81-5.28-.35-.48-.72-1-1.09-1.43h0c-.08-.12-.17-.23-.26-.35s-.35-.46-.54-.68l-.06-.09-.15-.19-.23-.3-.22-.29-.08-.09-.08-.09,0,0-.15-.19c-.68-.85-1.57-2-2.48-3.05s-2-2.42-3-3.53c-1.26-1.44-2.57-2.88-3.88-4.27-.62-.66-1.26-1.33-1.9-2a4.89,4.89,0,0,0-.4-.41c-1-1.05-2-2.06-3-3l-.19-.18c-1.24-1.21-2.41-2.31-3.57-3.38s-2.28-2.06-3.26-2.92l0,0h0l-.12-.1-.33-.29-.69-.59-.19-.18-.13-.11-.05,0-.06,0-.23-.2-.48-.39-.3-.26-.09-.07c-.37-.32-.76-.64-1.14-1-1.73-1.44-3.59-2.91-5.5-4.35-.47-.36-.91-.69-1.34-1-1.38-1-2.72-2-4.1-3-1.21-.84-2.34-1.61-3.45-2.35s-2.26-1.48-3.43-2.22-2.12-1.32-2.93-1.81l0,0,0,0-.34-.2-.26-.16c-1.05-.63-2.1-1.23-3.07-1.78-.6-.35-1.18-.68-1.73-1l-.18-.1-.86-.48-.34-.19-.28-.15-1.2-.63-1.77-.92c-1.51-.78-3-1.53-4.49-2.23-1-.49-2.06-1-2.86-1.34-4.28-2-8.68-3.75-13.09-5.33l-.49-.18h0c-2.06-.73-4.19-1.44-6.36-2.11l-.37-.12c-1.61-.51-3.22-1-4.91-1.45a172.48,172.48,0,0,0-26.83-5.2,175.4,175.4,0,0,0-19.56-1.1Z"/><path class="cls-3" d="M170,268a53.57,53.57,0,0,1-8,.55Z"/><path d="M170,268l-8,.55h.22A53.42,53.42,0,0,0,170,268Z"/><path class="cls-4" d="M343.54,166.52c0,.31,0,.62,0,.93H4q0-.31,0-.63c0-.1,0-.2,0-.3l0-.69,0-.66c0-.11,0-.23,0-.34s0-.45,0-.68c.12-2.19.28-4.37.5-6.53q.33-3.5.8-7c.11-.79.23-1.58.35-2.37.19-1.23.39-2.46.61-3.68.05-.31.1-.62.16-.93h.09l238-1.86,95.78-.75q.09.38.15.75a.57.57,0,0,1,0,.18c.06.25.1.5.14.75s.13.62.18.93c.19,1.05.37,2.09.53,3.14l.12.74q1,6.21,1.49,12.55c0,.14,0,.27,0,.41.06.72.11,1.45.16,2.17s.11,1.64.14,2.47a2.61,2.61,0,0,1,0,.4c0,.29,0,.57,0,.86A.27.27,0,0,1,343.54,166.52Z"/><path d="M343.6,167.88c0-.14,0-.29,0-.43,0-.31,0-.62,0-.93H4.05c0,.1,0,.2,0,.3s0,.42,0,.63l0,.76v.17H343.62C343.62,168.21,343.61,168.05,343.6,167.88Zm-3-26q-.06-.37-.15-.75c-.05-.31-.11-.61-.18-.92L228.45,141l-18.7.15-84.09.65-4.35,0-5,0-3.69,0-105.87.83c-.06.31-.12.62-.17.93s-.11.62-.16.93L113,143.79l3.35,0,5,0,4.34,0,84.49-.66,18.36-.14,16.36-.13,95.79-.75A.57.57,0,0,0,340.65,141.83Z"/><path class="cls-5" d="M341.53,146.83H321.44l-20.52-.73-34,1.55-35.73,1.17H191.1l-24.59,1.58-22.58-.48-35.19.09S78.26,151.09,78,151.28s-37.35,0-37.35,0l-31.84-.37-3.32-.24c.11-.79.23-1.58.35-2.37.19-1.23.39-2.46.61-3.68l119.25-.93,119.21-.93,95.79-.75c.06.25.1.5.14.75s.13.62.18.93C341.19,144.74,341.37,145.78,341.53,146.83Z"/><path class="cls-5" d="M343.54,166.43l-10.68.09H4.05l0-.69,0-.66c0-.11,0-.23,0-.34s0-.45,0-.68l7.06.06h20l20.51.72,34-1.54,35.73-1.18h40.1l24.59-1.58,22.58.48,35.19-.09s30.48-1.08,30.76-1.27,37.35,0,37.35,0l31.15.37c0,.14,0,.27,0,.41.06.72.11,1.45.16,2.17s.11,1.64.14,2.47a2.61,2.61,0,0,1,0,.4C343.52,165.86,343.53,166.14,343.54,166.43Z"/><circle cx="20.53" cy="158.94" r="1"/><path d="M99.08,156c6.36-.66,12.74-1.13,19.11-1.56s12.76-.76,19.15-1.06c3.19-.19,6.38-.14,9.58-.11s6.39.06,9.59.16l9.58.26c3.2.16,6.39.25,9.59.46-3.2.21-6.39.3-9.58.45l-9.58.26c-3.19.11-6.38.11-9.57.17s-6.38,0-9.57.21c-6.38.26-12.75.52-19.14.63S105.48,156.14,99.08,156Z"/><path d="M111.37,151.36a14.91,14.91,0,0,1,7.35,0,14.6,14.6,0,0,1-7.35,0Z"/><path d="M275,154.19c11-.67,21.95-1.09,32.92-1.65,11-.38,21.95-.91,32.93-1.18-11,.68-21.94,1.1-32.91,1.65C297,153.4,286,153.92,275,154.19Z"/><path class="cls-4" d="M307.63,69.36l.24.31H39.73l.73-.93.41-.52.76-.93c.13-.18.27-.35.42-.52a4.12,4.12,0,0,1,.33-.4q1.62-2,3.32-3.93,3.69-4.26,7.69-8.25l.64-.65,1.14-1.12q1.53-1.5,3.1-3c1.12-1,2.24-2,3.38-3l.56-.49.52-.45L124.28,45l119-.93,39.56-.31.37.31.73.61.36.32,1.08.93.14.12c1.08,1,2.15,1.9,3.21,2.88s2.4,2.24,3.58,3.39l.11.1c1,1,2,2,3,3,.12.11.23.23.33.34.64.65,1.27,1.31,1.89,2q2,2.07,3.82,4.21,1.51,1.71,3,3.47c.84,1,1.66,2,2.47,3l.26.31Z"/><path d="M308.37,70.31l-.5-.64-.24-.31-.48-.62H40.46l-.73.93L39,70.6H308.59ZM283.23,44.07l-.37-.31-1.11-.92L124.24,44.07l-60.41.47c-.19.15-.37.31-.54.46l-.56.48-.52.45-.56.49,62.6-.49L243.46,45l40.5-.32Z"/><path class="cls-5" d="M288.75,48.93l-20.69.94L232.33,51H192.24l-24.59,1.58-22.58-.48-35.2.09S79.39,53.31,79.12,53.5s-14.26.09-25.09,0l1.14-1.12q1.53-1.5,3.1-3c1.12-1,2.24-2,3.38-3l62.6-.49L243.46,45l40.5-.32.36.32,1.08.93.14.12C286.62,47,287.69,48,288.75,48.93Z"/><path class="cls-5" d="M307.15,68.74H40.46l.41-.52.76-.93c.13-.18.27-.35.42-.52l10.78.38L66,66.55l20.81-.94,35.73-1.18h40.09l24.59-1.58,22.58.48,35.2-.09s30.47-1.08,30.75-1.27,14.78-.08,25.68,0q1.51,1.71,3,3.47c.84,1,1.66,2,2.47,3Z"/><path d="M100.21,58.26c6.37-.66,12.74-1.13,19.12-1.56s12.76-.76,19.14-1.06c3.19-.19,6.39-.14,9.59-.11s6.39.06,9.58.16l9.59.26c3.19.16,6.39.25,9.58.46-3.19.21-6.38.3-9.57.45l-9.58.26c-3.19.11-6.38.11-9.57.17s-6.38,0-9.57.21c-6.38.26-12.76.52-19.14.63S106.61,58.36,100.21,58.26Z"/><path d="M112.5,53.58a14.91,14.91,0,0,1,7.35,0,14.6,14.6,0,0,1-7.35,0Z"/><path d="M295.74,55.74c-6.53.25-13.07.5-19.61.66,6.43-.39,12.85-.7,19.28-1C295.53,55.51,295.64,55.63,295.74,55.74Z"/><path class="cls-4" d="M284.32,45h-221c.17-.15.35-.31.54-.46s.36-.32.55-.47l.28-.24h0c.91-.76,1.83-1.52,2.75-2.25,1.78-1.44,3.58-2.83,5.42-4.18h0c.68-.51,1.37-1,2.07-1.51,1.67-1.2,3.38-2.38,5.1-3.51.51-.35,1-.69,1.56-1L82.1,31Q86,28.51,90,26.25l.89-.5.77-.43.43-.24.5-.27,66.75-.42,93.88-.59,1.12.59.61.33,1.08.6c.56.3,1.11.61,1.66.93,1,.58,2,1.16,3,1.76l.64.38c1,.59,1.93,1.18,2.89,1.79,1.13.71,2.26,1.44,3.37,2.18s2.28,1.53,3.4,2.31c1.81,1.26,3.58,2.55,5.34,3.88s3.65,2.82,5.42,4.29l1.11.92.37.31.73.61Z"/><path d="M284.32,45l-.36-.32-.73-.61H64.38c-.19.15-.37.31-.55.47s-.37.31-.54.46l-.56.48-.52.45H285.4Zm-30-20.61-1.12-.59-1.76-.92-157.13,1-1,.52-.77.42-.5.27-.43.24-.77.43,68.52-.43,95.54-.6Z"/><path class="cls-5" d="M260.69,28l.64.38-12.12.45-35.74.94H173.38l-24.59,1.28-22.58-.39L91,30.75,82.1,31Q86,28.51,90,26.25l.89-.5,68.52-.43,95.54-.6,1.08.6c.56.3,1.11.61,1.66.93C258.68,26.83,259.69,27.41,260.69,28Z"/><path class="cls-5" d="M283.23,44.07H64.38l.28-.24h0c.91-.76,1.83-1.52,2.75-2.25l.54,0,35.74-.95H143.8l24.59-1.28,22.58.39,35.19-.07s30.48-.88,30.76-1c.13-.08,9.9-.07,19.41-.06q2.76,2.09,5.42,4.29l1.11.92Z"/><ellipse cx="148.4" cy="34.12" rx="1" ry="0.81"/><path d="M126.38,36c-6.39.35-12.77.51-19.15.65s-12.77,0-19.14.32c-5.08.13-10.16.31-15.24.42h0c.68-.51,1.37-1,2.07-1.51,4.38-.21,8.75-.37,13.12-.57,3.19-.14,6.39-.08,9.58-.06s6.39,0,9.59.12C113.61,35.49,120,35.66,126.38,36Z"/><path d="M186.53,36.06c11-.56,21.94-.89,32.92-1.34s22-.74,32.93-.94c-11,.57-21.95.9-32.92,1.35S197.51,35.86,186.53,36.06Z"/><path class="cls-4" d="M256,25.32H91.63l.43-.24.5-.27.77-.42,1-.52q5.88-3.14,12-5.78l.11-.05q7.06-3.06,14.44-5.46a6.35,6.35,0,0,1,.7-.23q6.18-2,12.56-3.53A168.16,168.16,0,0,1,157.27,5h0q5.39-.53,10.85-.7c1.88-.07,3.77-.1,5.67-.1A171.8,171.8,0,0,1,193,5.23a168.86,168.86,0,0,1,26.37,5.11c1.74.48,3.46,1,5.18,1.54h0c2.26.7,4.51,1.45,6.73,2.25h0q6.55,2.35,12.86,5.24c.94.43,1.89.87,2.82,1.32q2.24,1.06,4.42,2.19l1.76.92,1.12.59.61.33Z"/><path d="M256,25.32l-1.08-.6-.61-.33h-161l-.77.42-.5.27-.43.24-.77.43-.89.5H257.66C257.11,25.93,256.56,25.62,256,25.32Z"/><path class="cls-5" d="M193,5.23H191l-22.58.56L157.29,5q5.39-.53,10.85-.7c1.88-.07,3.77-.1,5.67-.1A171.8,171.8,0,0,1,193,5.23Z"/><path class="cls-5" d="M253.19,23.8l1.12.59h-161l1-.52q5.88-3.14,12-5.78l19.9.06,22.58-.56,24.59,1.83h40.09L247,20.69q2.24,1.06,4.42,2.19Z"/><ellipse cx="168.78" cy="10.15" rx="1" ry="1.15"/><path d="M231.32,14.13l-2.23-.1c-3.18-.25-6.38-.21-9.57-.24s-6.38-.06-9.57-.17l-9.57-.28c-3.19-.17-6.39-.27-9.58-.49,3.19-.23,6.39-.33,9.58-.5l9.59-.27c3.2-.12,6.4-.12,9.59-.18,1.68,0,3.35,0,5,0h0C226.85,12.58,229.1,13.33,231.32,14.13Z"/><path d="M130.65,12.93c-3.26-.1-6.53-.22-9.79-.35a6.35,6.35,0,0,1,.7-.23Q126.11,12.62,130.65,12.93Z"/><path class="cls-4" d="M334.27,118.09H13.33c.08-.25.17-.5.26-.75l.06-.18s0,0,0-.06c.08-.23.16-.46.25-.69l.33-.93.53-1.41.4-1c.3-.78.6-1.55.92-2.32s.54-1.33.82-2a2.87,2.87,0,0,1,.15-.37q1.63-3.91,3.48-7.73c.5-1,1-2.1,1.54-3.14s1.06-2.08,1.61-3.11l.5-.93.37-.68.14-.25.12-.22.25-.46L112,92.5l4.37,0,102.48.8,12.58.1,92.35.72a2.12,2.12,0,0,0,.11.21l.38.72c1.15,2.19,2.26,4.42,3.32,6.67.71,1.52,1.41,3,2.08,4.6.29.66.57,1.32.85,2,.4.93.78,1.87,1.16,2.82.49,1.22,1,2.45,1.42,3.69.29.77.56,1.54.84,2.31.09.27.19.54.28.82A.36.36,0,0,1,334.27,118.09Z"/><path d="M334.55,118.91c-.09-.28-.18-.55-.28-.82a.36.36,0,0,0,0-.11c-.09-.28-.19-.55-.28-.82H13.65l-.06.18c-.09.25-.18.5-.26.75s-.22.62-.33.93H334.59A.49.49,0,0,0,334.55,118.91ZM323.9,94.36a2.12,2.12,0,0,1-.11-.21l-.39-.72-.12-.22-91.34-.71-14-.11L116.36,91.6l-90.75-.71-.53.93-.25.46-.12.22-.14.25,87.28.68,4.56,0,103.25.8,11.81.09,92.81.72Z"/><path class="cls-5" d="M327.6,101.75l-14.47.17s-37.1.19-37.36,0S245,100.66,245,100.66l-35.2-.1-22.58.49-24.59-1.59H122.56L86.83,98.29l-34-1.55-20.51.73H22.09c.52-1,1.06-2.08,1.61-3.11l.5-.93.37-.68,87.28.68,119.62.93,92.81.72C325.43,97.27,326.54,99.5,327.6,101.75Z"/><path class="cls-5" d="M334,117.16H20.9l-7.23-.06c.08-.23.16-.46.25-.69l.33-.93.53-1.41.4-1c.3-.78.6-1.55.92-2.32l25.66-.3s37.09-.19,37.36,0,30.75,1.27,30.75,1.27l35.2.09,22.57-.49,24.6,1.59h40.09L268.06,114l34,1.55,20.51-.73h10.54C333.4,115.62,333.67,116.39,334,117.16Z"/><circle cx="187.63" cy="104.83" r="1"/><path d="M286.25,109c-6.39.11-12.78,0-19.16-.13s-12.76-.37-19.14-.63c-3.19-.21-6.38-.18-9.57-.21s-6.38-.06-9.57-.16l-9.58-.26c-3.19-.16-6.38-.25-9.57-.46,3.19-.21,6.38-.3,9.58-.46l9.59-.26c3.19-.1,6.39-.11,9.58-.16s6.39-.07,9.58.11c6.39.31,12.77.61,19.15,1.06S279.89,108.36,286.25,109Z"/><path d="M274,104.35a13.53,13.53,0,0,1-3.67.46,13.2,13.2,0,0,1-3.67-.46,14.56,14.56,0,0,1,7.34,0Z"/><path d="M149.51,107.24c-11-.27-22-.79-32.93-1.18-11-.55-22-1-32.92-1.64,11,.27,22,.79,32.94,1.18C127.57,106.15,138.54,106.57,149.51,107.24Z"/><path class="cls-4" d="M340.82,142.76H6.76c0-.09,0-.19,0-.28s.08-.43.13-.65a.3.3,0,0,1,0-.1c.29-1.57.62-3.13,1-4.67,0-.11,0-.21.07-.31.09-.42.19-.85.29-1.27q.74-3.18,1.6-6.32,1-3.54,2.09-7c.33-1,.67-2.09,1-3.12.11-.31.21-.62.33-.93s.17-.5.26-.75l.06-.18s0,0,0-.06c.08-.23.16-.46.25-.69l96.54.75,7.07.06,2.71,0,8.31.06,38.13.3,18,.14,18.29.14,4.4,0h2.2l11.8.1,2.57,0h3.27l2.22,0,105.07.82a.49.49,0,0,1,0,.11c0,.07.05.13.07.2l.21.62c.72,2.13,1.4,4.29,2,6.46q1.18,4,2.17,8.18c.18.76.35,1.51.52,2.27.21.92.4,1.84.59,2.77l0,.13c0,.17.07.34.1.51s.13.61.18.92.11.5.15.75a.57.57,0,0,1,0,.18C340.74,142.26,340.78,142.51,340.82,142.76Z"/><path d="M334.66,119.22c0-.07-.05-.13-.07-.2a.49.49,0,0,0,0-.11c-.09-.28-.18-.55-.28-.82a.36.36,0,0,0,0-.11l-104.72-.82-2,0H225.4l-14-.11h0L207,117l-4.64,0h0l-13.74-.11-16.34-.13h0l-45.32-.35-6.41,0-2.64,0-103.63-.81-.33.93c-.09.23-.17.46-.25.69,0,0,0,0,0,.06l-.06.18,96.71.75,6.89,0,2.8,0,10.69.08,29.41.23h0l20.65.16h0l22.78.18,4.4,0H209l10.64.08,5.74,0H227l2.52,0,105.37.82Zm6.16,23.54c0-.25-.08-.5-.14-.75a.57.57,0,0,0,0-.18H6.94c-.05.22-.09.43-.13.65s0,.19,0,.28c-.06.31-.12.62-.17.93H341Q340.92,143.23,340.82,142.76Z"/><path class="cls-5" d="M336.91,126.3l-24.92.29s-37.09.18-37.35,0-30.76-1.27-30.76-1.27l-35.19-.09-22.58.48-24.59-1.58h-40.1L85.69,123l-34-1.55-20.51.73H12c.33-1,.67-2.09,1-3.12.11-.31.21-.62.33-.93s.17-.5.26-.75l96.71.75,119.2.93,105.37.82C335.59,122,336.27,124.13,336.91,126.3Z"/><path class="cls-5" d="M340.65,141.83H19.76L7,141.73c.29-1.57.62-3.13,1-4.67,0-.11,0-.21.07-.31.09-.42.19-.85.29-1.27l.51,0,31.84-.37s37.09-.19,37.35,0,30.76,1.26,30.76,1.26l35.19.1,22.58-.49,24.59,1.58h40.09l35.73,1.18,34,1.54,20.52-.72h18.75l0,.13c0,.17.07.34.1.51s.13.61.18.92S340.61,141.58,340.65,141.83Z"/><circle cx="332.09" cy="134.25" r="1"/><path d="M253.54,131.35c-6.39.1-12.78,0-19.16-.13s-12.76-.37-19.14-.63c-3.19-.22-6.38-.18-9.57-.21s-6.38-.06-9.57-.17l-9.58-.26c-3.19-.15-6.38-.24-9.57-.45,3.19-.21,6.38-.3,9.58-.46l9.58-.26c3.2-.1,6.4-.11,9.59-.16s6.39-.08,9.58.11c6.39.3,12.77.61,19.15,1.06S247.18,130.69,253.54,131.35Z"/><path d="M241.25,126.67a14.56,14.56,0,0,1-7.34,0,14.87,14.87,0,0,1,7.34,0Z"/><path d="M77.63,129.5c-11-.27-22-.79-32.94-1.18-11-.55-21.95-1-32.91-1.65,11,.27,21.95.8,32.93,1.18C55.68,128.41,66.66,128.83,77.63,129.5Z"/><path class="cls-4" d="M323.4,93.43H24.2l.37-.68.14-.25.12-.22.25-.46.53-.93c.94-1.69,1.92-3.37,2.93-5l.45-.73c1-1.59,2-3.17,3-4.72a5.39,5.39,0,0,1,.33-.5q.48-.73,1-1.47l.24-.35.14-.2q1.84-2.7,3.8-5.32c.5-.66,1-1.32,1.5-2l.72-.93.73-.93.41-.52.76-.93,186.1,1.45,79.9.62.24.31.5.64.22.29,1.1,1.44q1.92,2.56,3.75,5.2c.62.89,1.23,1.78,1.83,2.68s1.19,1.8,1.78,2.72q2.37,3.7,4.55,7.55c.13.22.26.44.38.66l.92,1.65.38.71Z"/><path d="M323.79,94.15l-.39-.72-.12-.22-.38-.71H24.71l-.14.25-.37.68-.5.93H323.9A2.12,2.12,0,0,1,323.79,94.15ZM307.87,69.67l-.24-.31-.48-.62-.26-.31L66,66.55l-23.64-.18a4.12,4.12,0,0,0-.33.4c-.15.17-.29.34-.42.52l-.76.93,66.86.52,119.21.93,81.43.64Z"/><path class="cls-5" d="M313.44,77.24l-1.45,0s-37.09.18-37.35,0S243.88,76,243.88,76l-35.19-.09-22.58.48L161.52,74.8h-40.1L85.69,73.62l-34-1.54-14.18.5c.5-.66,1-1.32,1.5-2l.72-.93.73-.93.41-.52,66.86.52,119.21.93,81.43.64.22.29,1.1,1.44Q311.61,74.6,313.44,77.24Z"/><path class="cls-5" d="M322.9,92.5H24.71l.12-.22.25-.46.53-.93c.94-1.69,1.92-3.37,2.93-5l12.09-.14s37.09-.18,37.35,0S108.74,87,108.74,87l35.19.09,22.58-.48,24.59,1.58h40.09l35.73,1.18,34,1.54,20.52-.72h.16c.13.22.26.44.38.66Z"/><path d="M253.54,82c-6.39.1-12.78,0-19.16-.13s-12.76-.37-19.14-.63c-3.19-.22-6.38-.19-9.57-.21s-6.38-.06-9.57-.17l-9.58-.26c-3.19-.15-6.38-.24-9.57-.45,3.19-.22,6.38-.31,9.58-.46l9.58-.26c3.2-.11,6.4-.11,9.59-.17s6.39-.07,9.58.12c6.39.3,12.77.61,19.15,1.06S247.18,81.35,253.54,82Z"/><path d="M241.25,77.34a13.59,13.59,0,0,1-3.67.47,13.21,13.21,0,0,1-3.67-.47,13.2,13.2,0,0,1,3.67-.46A13.58,13.58,0,0,1,241.25,77.34Z"/><path d="M77.62,80.16c-11-.27-22-.79-32.93-1.18-3.79-.19-7.57-.36-11.36-.53l.24-.35,11.14.42C55.68,79.07,66.66,79.49,77.62,80.16Z"/><path class="cls-4" d="M256.36,322.62l-1.69.93-.14.07c-.25.15-.51.28-.76.42l-1,.51c-.87.46-1.75.92-2.63,1.36l-.1,0-.23.11c-2.79,1.4-5.63,2.73-8.5,4l-1.78.76-.66.28c-1.47.62-3,1.21-4.46,1.79s-3.11,1.16-4.68,1.7c-.19.08-.4.14-.6.21a167.83,167.83,0,0,1-19.92,5.52q-5.23,1.11-10.59,1.89c-1.74.26-3.48.48-5.23.68-4.63.55-9.33.89-14.07,1-1.84.08-3.68.1-5.53.1-2.8,0-5.58-.06-8.34-.2-4.85-.23-9.63-.67-14.37-1.32l-2.12-.29c-2.5-.36-5-.77-7.46-1.25-3.18-.62-6.34-1.31-9.46-2.12-.4-.09-.79-.2-1.18-.3-1.09-.28-2.18-.58-3.27-.89-1.37-.38-2.74-.78-4.1-1.21-1.69-.52-3.38-1.07-5.05-1.64-.2-.07-.4-.13-.59-.21-2.39-.83-4.77-1.72-7.11-2.66l-.74-.3c-.66-.26-1.32-.53-2-.81q-5.4-2.25-10.59-4.88l-2-1-.59-.32-.93-.5-.28-.15,0,0,42.75-.33Z"/><path d="M135.85,322.56l-44.07.34.3.17.81.44.07,0,.63.33,0,0,.28.15.93.5.59.32,40.44-.32,118.67-.93.14-.07,1.69-.93.1-.06c.57-.31,1.13-.63,1.69-.95Z"/><path class="cls-5" d="M254.53,323.62c-.25.15-.51.28-.76.42l-1,.51c-.87.46-1.75.92-2.63,1.36l-.1,0-.23.11c-2.79,1.4-5.63,2.73-8.5,4H206.15l-26.29,1.69-24.14-.51-37.62.09-8.08.3c-.66-.26-1.32-.53-2-.81q-5.4-2.25-10.59-4.88l-2-1,40.44-.32Z"/><path d="M189.66,335.77c-3.42.22-6.83.32-10.24.48l-10.24.28c-3.41.12-6.82.12-10.23.18s-6.82,0-10.23.22c-6.82.28-13.64.56-20.46.68h-.65c-1.37-.38-2.74-.78-4.1-1.21,1.56-.12,3.13-.22,4.69-.33,6.82-.48,13.65-.81,20.47-1.14,3.41-.19,6.83-.15,10.25-.12s6.83.07,10.25.18l10.24.28C182.83,335.44,186.24,335.54,189.66,335.77Z"/><path d="M120.91,332.75a15.66,15.66,0,0,1,7.85,0,15.66,15.66,0,0,1-7.85,0Z"/><path class="cls-4" d="M338.13,217.45,338,218c0,.13-.07.27-.11.4s-.11.4-.17.6-.17.66-.27,1c-.27,1-.56,2-.86,3l-.09.32-.14.44c-.27.88-.55,1.77-.84,2.64-.18.59-.37,1.17-.56,1.75-.14.41-.28.83-.43,1.24a4.59,4.59,0,0,1-.17.48q-1.27,3.67-2.71,7.28c-.42,1-.86,2.1-1.3,3.14-.53,1.27-1.09,2.53-1.66,3.78l-.15.34-.3.65c-.05.12-.11.24-.16.35H19.55c-.08-.16-.15-.32-.22-.48s-.16-.34-.23-.52-.24-.51-.34-.76-.31-.67-.45-1-.22-.47-.32-.71a1.78,1.78,0,0,1-.12-.29q-2-4.59-3.73-9.33c-.56-1.52-1.1-3-1.59-4.6-.16-.44-.3-.88-.44-1.32-.07-.2-.14-.4-.2-.59-.51-1.59-1-3.2-1.45-4.81-.09-.32-.19-.64-.27-1a0,0,0,0,1,0,0l112.87-.88,10.64-.08,64.21-.5,10.78-.08,4.81,0h1.19l47.45-.37Z"/><path d="M19.1,244.41c.07.18.15.35.23.52s.14.32.22.48l.46,1H327.6l.15-.32s0,0,0,0l.3-.65c.05-.11.11-.23.16-.35l.3-.65Zm195.7-27h-1.05l-4.74,0-10.52.08-64,.5-11.75.09L9.91,219a0,0,0,0,0,0,0c.08.32.17.64.26,1a0,0,0,0,0,0,0c.08.33.18.65.27,1l112.9-.88,11.16-.09,62.78-.49,11-.09h0l4.86,0h1.35l46.85-.37,76.46-.6c0-.13.07-.27.11-.4l.15-.59c.09-.33.18-.67.26-1Z"/><path class="cls-5" d="M337.87,218.44c-.05.2-.11.4-.17.6s-.17.66-.27,1c-.27,1-.56,2-.86,3l-11.79-.42-36.35,1.66-38.2,1.25H207.37l-26.29,1.69-24.14-.51-37.63.1s-32.59,1.15-32.88,1.35-39.94,0-39.94,0l-33.94-.4c-.16-.44-.3-.88-.44-1.32-.07-.2-.14-.4-.2-.59-.51-1.59-1-3.2-1.45-4.81l124.06-1,126.89-1Z"/><path class="cls-5" d="M331.63,237.15c-.42,1-.86,2.1-1.3,3.14-.53,1.27-1.09,2.53-1.66,3.78l-.15.34H19.1c-.12-.25-.24-.51-.34-.76s-.31-.67-.45-1-.22-.47-.32-.71h18.4l21.93.78,14.2-.64,22.15-1,38.2-1.26h42.87L202,238.12l24.14.52,37.63-.1s32.58-1.16,32.88-1.36S321,237.11,331.63,237.15Z"/><circle cx="25" cy="236.31" r="1.07"/><path d="M109,233.21c6.81-.71,13.62-1.2,20.44-1.67s13.64-.81,20.47-1.13c3.41-.2,6.83-.15,10.24-.12s6.84.06,10.25.17l10.25.28c3.42.17,6.83.26,10.25.49-3.42.23-6.83.32-10.24.49L170.4,232c-3.41.11-6.82.11-10.23.17s-6.83,0-10.23.23c-6.82.27-13.64.55-20.47.67S115.82,233.32,109,233.21Z"/><path d="M122.12,228.21a15.69,15.69,0,0,1,7.86,0,15.69,15.69,0,0,1-7.86,0Z"/><path d="M334.51,229.39a4.59,4.59,0,0,1-.17.48l-2.07.1c-11.74.41-23.47,1-35.21,1.26,11.72-.72,23.46-1.17,35.19-1.76Z"/><path class="cls-4" d="M342.32,195.93c0,.33-.08.66-.13,1,0,0,0,.05,0,.08s0,.09,0,.13c0,.28-.07.55-.11.83v0l-.15,1c-.1.69-.2,1.38-.32,2.06-.25,1.6-.52,3.18-.82,4.76-.42,2.22-.88,4.43-1.39,6.61l-.06.26h0l0,.14c-.28,1.21-.58,2.42-.89,3.62-.08.33-.17.67-.26,1L338,218c0,.13-.07.27-.11.4s-.11.4-.17.6H9.92a0,0,0,0,1,0,0c-.09-.32-.18-.64-.26-1l-.18-.66c-.12-.44-.23-.89-.34-1.33-.28-1.07-.54-2.15-.79-3.22q-.95-4-1.68-8.12c-.31-1.65-.59-3.32-.84-5,0-.22-.07-.45-.1-.67a.13.13,0,0,1,0-.06c0-.31-.1-.63-.13-.94l9.47-.06,102.27-.64,26.35-.17,25.68-.16,2.76,0,39.93-.25h1.33l3.51,0h2.28l12.14-.07Z"/><path d="M9.65,218c.08.33.17.65.26,1a0,0,0,0,0,0,0c.08.32.17.64.26,1a0,0,0,0,0,0,0H337.43q.15-.5.27-1c.06-.2.12-.4.17-.6s.07-.27.11-.4Zm222.11-22.41-12.89.08h-2l-3,0h-.3l-44.77.28-16.91.11h-1.07l-33.7.22h-.6L13.12,197l-7.69.05c0,.31.08.63.14.94a.07.07,0,0,0,0,.06c0,.31.08.63.13.94a.13.13,0,0,0,0,.06l8.84-.06,103-.65,25.29-.16,27-.17,3.13,0,37.53-.24h2.68l3.72,0h2.28l11.6-.07,99-.63,12.37-.08c.05-.33.09-.66.13-1s.09-.67.12-1Z"/><path class="cls-5" d="M342.19,196.92s0,.05,0,.08,0,.09,0,.13c0,.28-.07.55-.11.83v0l-.15,1c-.1.69-.2,1.38-.32,2.06h-15l-21.93-.63-36.35,1.33-38.2,1H187.21l-26.29,1.36-24.14-.41-37.63.08s-32.58.93-32.88,1.09-39.94,0-39.94,0l-19.67-.18c-.31-1.65-.59-3.32-.84-5,0-.22-.07-.45-.1-.67l8.84-.06L173,198l156.84-1Z"/><path class="cls-5" d="M339.37,212.42l-.06.26h0l0,.14c-.28,1.21-.58,2.42-.89,3.62-.08.33-.17.67-.26,1L338,218H9.65l-.18-.66c-.12-.44-.23-.89-.34-1.33h7.1l21.93.62,36.35-1.33,38.21-1h42.86L181.87,213l24.14.42,37.63-.08s32.58-.93,32.88-1.1,39.94,0,39.94,0Z"/><ellipse cx="160.51" cy="207.4" rx="1.07" ry="0.86"/><path d="M55.07,211c6.81-.61,13.62-1,20.45-1.42S89.16,209,96,208.66c3.42-.15,6.83-.08,10.25-.06s6.83,0,10.24.13c6.83.14,13.66.32,20.49.69-6.83.37-13.65.54-20.47.69s-13.65,0-20.47.34c-6.82.17-13.64.43-20.47.52S61.9,211.14,55.07,211Z"/><path d="M68.21,207a17.34,17.34,0,0,1,7.85,0,17.34,17.34,0,0,1-7.85,0Z"/><path d="M201.26,209.48c11.73-.6,23.47-1,35.2-1.44,11.73-.33,23.47-.78,35.21-1-11.73.6-23.47,1-35.2,1.44S213,209.27,201.26,209.48Z"/><path class="cls-4" d="M343.72,174.06c0,1.08,0,2.17,0,3.24,0,.17,0,.34,0,.51-.06,2.7-.18,5.38-.38,8,0,.53-.07,1.07-.11,1.6-.16,2.05-.35,4.1-.59,6.13,0,.19,0,.37-.07.56s0,.53-.09.79-.07.67-.12,1-.08.66-.13,1c0,0,0,.05,0,.08s0,.09,0,.13c0,.28-.07.55-.11.83v0H5.57c-.06-.31-.1-.63-.14-.94a.11.11,0,0,1,0-.05c-.13-1-.26-1.94-.37-2.91L5,193.58c-.1-.88-.2-1.77-.28-2.66-.06-.66-.13-1.32-.18-2q-.57-6.52-.64-13.16c0-.57,0-1.15,0-1.72s0-.92,0-1.38c0-1.44,0-2.87.09-4.3v-.17l0-.76q0-.31,0-.63c0-.1,0-.2,0-.3l0-.69,77.28.69,103.43.93,103.43.93,55.41.5c0,.33,0,.67,0,1s0,.56,0,.84C343.71,171.83,343.72,173,343.72,174.06Z"/><path d="M343.63,168.88c0-.17,0-.33,0-.5s0-.33,0-.5L296,167.45l-59.76-.54-10.82-.09h-1.12l-2.28,0-5.68-.06h-2.1l-9.58-.09-11.76-.11h-.37l-3.34,0h-2l-5.2,0h-1.05l-2.26,0h0l-4.54-.05h0l-12-.1-21.5-.2h0l-2.22,0h0L129.1,166l-2.15,0h0l-11.16-.1h-.18l-5,0-106.49-1c0,.11,0,.23,0,.34l0,.66,0,.69c0,.1,0,.2,0,.3l70.28.63,35.79.32,5.7,0,7.24.07h0l2.09,0,2.88,0h.54l1.78,0H132l1.7,0h1.48l2.22,0h2.26l3.08,0H144l17.92.16,14.1.13h1.48l2.67,0H181l1.55,0,3.77,0,1.89,0H189l2,0h.47l4.53,0h0l9.38.08,9.16.08,2.11,0,4.16,0,1.88,0h1.45l12.16.11,107.36,1C343.66,169.55,343.65,169.21,343.63,168.88ZM5.42,197a.11.11,0,0,0,0,.05c0,.31.08.63.14.94a.07.07,0,0,0,0,.06c0,.31.08.63.13.94H341.9l.15-1v0c0-.28.08-.55.11-.83,0,0,0-.09,0-.13Z"/><path class="cls-5" d="M343.72,174.06c0,1.08,0,2.17,0,3.24,0,.17,0,.34,0,.51l-27.22.37s-39.66.23-39.94,0-32.88-1.56-32.88-1.56L206,176.5l-24.14.6-26.29-2H112.72l-38.21-1.45-36.35-1.9-21.93.89H3.89c0-1.44,0-2.87.09-4.3v-.17l0-.76q0-.31,0-.63l70.28.63,103.18.93,166.16,1.5c0,.28,0,.56,0,.84C343.71,171.83,343.72,173,343.72,174.06Z"/><path class="cls-5" d="M342.53,194.14c0,.26,0,.53-.09.79s-.07.67-.12,1-.08.66-.13,1c0,0,0,.05,0,.08H5.42c-.13-1-.26-1.94-.37-2.91L5,193.58c-.1-.88-.2-1.77-.28-2.66-.06-.66-.13-1.32-.18-2l21.8-.29s39.66-.23,39.94,0,32.88,1.56,32.88,1.56l37.63.12,24.14-.6,26.29,2h42.86l38.2,1.45L304.62,195l21.93-.9Z"/><ellipse cx="182.29" cy="181.77" rx="1.07" ry="1.23"/><path d="M287.73,187c-3.43.06-6.84,0-10.26,0l-10.24-.23c-6.82-.15-13.64-.47-20.46-.79-3.4-.27-6.82-.23-10.23-.26s-6.82-.07-10.23-.19l-10.24-.3c-3.41-.17-6.82-.28-10.24-.52,3.42-.24,6.83-.35,10.25-.53l10.25-.29c3.42-.13,6.84-.13,10.26-.19s6.83-.09,10.24.14c6.83.37,13.65.75,20.47,1.29l10.22.82C280.92,186.25,284.33,186.53,287.73,187Z"/><path d="M274.59,181.17a9.87,9.87,0,0,1-2,.41,16.13,16.13,0,0,1-2,.13,14.48,14.48,0,0,1-2-.13,9.26,9.26,0,0,1-2-.41,10.7,10.7,0,0,1,2-.41,14.47,14.47,0,0,1,2-.12,16.11,16.11,0,0,1,2,.12A10.63,10.63,0,0,1,274.59,181.17Z"/><path d="M141.53,184.75c-11.75-.35-23.48-1-35.22-1.48-11.72-.67-23.46-1.2-35.18-2,11.74.35,23.47,1,35.21,1.48C118.07,183.41,129.81,183.94,141.53,184.75Z"/><path class="cls-4" d="M313.17,271.31l-.34.49-.36.5c-.39.55-.78,1.1-1.18,1.64v0c-.65.89-1.3,1.77-2,2.65-.85,1.14-1.73,2.26-2.62,3.37-.43.54-.86,1.08-1.3,1.61-.91,1.11-1.84,2.22-2.8,3.31l-1.67,1.92-.62.7c-.89,1-1.79,2-2.7,2.93s-1.7,1.8-2.58,2.69-2,2-3.06,3c-.12.12-.24.24-.36.34s-.45.45-.68.66H56.7l-.53-.5c-.17-.16-.34-.32-.51-.5s-.34-.32-.51-.5c-.34-.32-.68-.66-1-1l-.19-.18q-2-2-3.94-4c-.47-.5-.94-1-1.4-1.51s-1-1.11-1.51-1.67c-1.67-1.86-3.29-3.76-4.87-5.68-.72-.88-1.42-1.76-2.12-2.65-1-1.26-2-2.54-2.92-3.84l-.45-.61c-.14-.18-.27-.35-.39-.53-.49-.66-1-1.32-1.43-2l-.12-.17-.68-1c-.17-.23-.33-.46-.47-.69a2,2,0,0,1-.22-.31c-.17-.23-.32-.46-.47-.69l88,.69,14.56.11,74.39.58,39.49.31Z"/><path d="M55.66,296.18c.17.18.34.34.51.5l.53.5c.35.35.7.68,1.06,1H289.85l.72-.67.35-.33c.23-.21.45-.43.68-.66s.24-.22.36-.34ZM248.6,269.81l-37.71-.29-75.07-.59-103.54-.81c.21.33.43.67.67,1s.3.46.47.69a2,2,0,0,0,.22.31l88.06.69,14,.11h0l73.15.57,39.72.31,63.88.5.36-.5.34-.49c.12-.16.23-.33.34-.5s.24-.33.34-.49Z"/><path class="cls-5" d="M312.47,272.3c-.39.55-.78,1.1-1.18,1.64v0c-.65.89-1.3,1.77-2,2.65-.85,1.14-1.73,2.26-2.62,3.37-5.69,0-9.92,0-10-.09-.3-.2-32.89-1.35-32.89-1.35l-37.62-.1L202,279l-26.29-1.7H132.87L94.67,276l-36.35-1.66-21.14.75-.45-.61c-.14-.18-.27-.35-.39-.53-.49-.66-1-1.32-1.43-2l-.12-.17-.68-1c-.17-.23-.33-.46-.47-.69l88.06.69,126.89,1Z"/><path class="cls-5" d="M295,293.14q-1.5,1.55-3.06,3H55.66c-.17-.15-.34-.32-.51-.5-.34-.32-.68-.66-1-1l-.19-.18q-2-2-3.94-4c-.47-.5-.94-1-1.4-1.51,8.21,0,37.59-.16,37.83,0s32.88,1.36,32.88,1.36l37.63.1,24.14-.52,26.29,1.69h42.86l38.2,1.26Z"/><circle cx="202.45" cy="283" r="1.07"/><path d="M300.92,286.82l-.62.7c-4.3,0-8.61-.09-12.91-.18-6.82-.12-13.64-.4-20.46-.67-3.41-.23-6.82-.2-10.23-.23s-6.82-.06-10.24-.18L236.23,286c-3.41-.17-6.83-.27-10.24-.49,3.41-.23,6.83-.32,10.24-.49l10.25-.28c3.42-.11,6.84-.11,10.25-.17s6.84-.08,10.25.12c6.82.32,13.65.65,20.46,1.13C291.93,286.11,296.43,286.43,300.92,286.82Z"/><path d="M294.75,282.48a15.69,15.69,0,0,1-7.86,0,13.93,13.93,0,0,1,3.93-.49A14.7,14.7,0,0,1,294.75,282.48Z"/><path d="M161.69,285.58c-11.75-.29-23.48-.85-35.21-1.26-11.73-.59-23.47-1-35.19-1.76,11.74.29,23.47.84,35.21,1.26C138.23,284.41,150,284.86,161.69,285.58Z"/><path class="cls-4" d="M290.57,297.51l-.72.67c-.11.11-.22.22-.34.32l-.44.41-.44.41c-1.13,1-2.27,2.06-3.43,3.05-.95.84-1.9,1.65-2.87,2.44l-1,.8c-1.06.87-2.13,1.73-3.21,2.57q-2.64,2.07-5.38,4c-.68.49-1.36,1-2,1.44-1.65,1.17-3.34,2.29-5,3.39l-2.2,1.4-1.52.93h0c-1.26.77-2.53,1.51-3.81,2.25-.56.32-1.12.64-1.69.95l-.1.06-1.69.93H93l-.07,0-.81-.44-.3-.17-.62-.34c-2.85-1.59-5.66-3.25-8.4-5l-.05,0-.34-.23-.44-.28-1-.67-1.67-1.11c-3-2-6-4.12-8.82-6.34l-.32-.25-.12-.09c-.17-.12-.35-.25-.52-.39q-2.5-1.95-4.94-4l-1.26-1.08-.85-.73-1.69-1.48L59,299.32c-.41-.37-.82-.75-1.22-1.14s-.71-.65-1.06-1l-.53-.5c-.17-.16-.34-.32-.51-.5s-.34-.32-.51-.5l64.61.5,128.44,1Z"/><path d="M91.16,322.56l.62.34.3.17.81.44.07,0,.63.33,0,0,.28.15.93.5h158l1-.51c.25-.14.51-.27.76-.42l.14-.07,1.69-.93.1-.06Zm156.23-26.38L54.13,294.67c.34.35.68.69,1,1,.17.18.34.35.51.5s.34.34.51.5l64.31.5,128.17,1,40.86.32c.12-.1.23-.21.34-.32l.72-.67.35-.33c.23-.21.45-.43.68-.66Z"/><path class="cls-5" d="M289.51,298.5l-.44.41-.44.41c-1.13,1-2.27,2.06-3.43,3.05-.95.84-1.9,1.65-2.87,2.44l-1,.8c-8.92-.35-18.78-.7-18.78-.7l-37.62-.1-24.15.52-26.29-1.7H131.66l-38.2-1.25-32.74-1.49L59,299.32c-.41-.37-.82-.75-1.22-1.14s-.71-.65-1.06-1l-.53-.5,64.31.5,128.17,1Z"/><path class="cls-5" d="M263.49,318.43l-1.52.93h0c-1.26.77-2.53,1.51-3.81,2.25-.56.32-1.12.64-1.69.95H91.16c-2.85-1.59-5.66-3.25-8.4-5l-.05,0-.34-.23-.44-.28-1-.67-1.67-1.11c3.54,0,5.9,0,6,.08.3.19,32.89,1.35,32.89,1.35l37.62.1,24.14-.52L206.15,318H249Z"/><path d="M272.91,311.35c-6.84.11-13.66,0-20.49-.14s-13.64-.39-20.46-.67c-3.41-.23-6.82-.2-10.23-.22s-6.82-.07-10.24-.18l-10.23-.28c-3.41-.16-6.83-.26-10.24-.49,3.41-.22,6.83-.32,10.24-.49l10.25-.27c3.42-.12,6.84-.12,10.25-.18s6.84-.08,10.25.12c6.82.33,13.65.65,20.46,1.14S266.11,310.64,272.91,311.35Z"/><path d="M259.77,306.35a15.66,15.66,0,0,1-7.85,0,13.93,13.93,0,0,1,3.93-.49A14.68,14.68,0,0,1,259.77,306.35Z"/><path d="M84.83,309.37q-7.22-.18-14.41-.46l-.32-.25-.12-.09Q77.41,308.93,84.83,309.37Z"/><path class="cls-4" d="M328.22,245.06c-.05.12-.11.24-.16.35l-.3.65s0,0,0,0l-.15.32,0,.06c-.64,1.35-1.29,2.69-2,4-.38.76-.77,1.5-1.16,2.25-.15.28-.29.56-.45.84q-1.37,2.6-2.82,5.13-2.16,3.75-4.5,7.38l-1.09,1.68c-.46.69-.92,1.37-1.39,2.05-.11.17-.22.34-.35.51s-.22.33-.34.49H34.11c-.17-.23-.33-.46-.47-.69a2,2,0,0,1-.22-.31c-.17-.23-.32-.46-.47-.69s-.46-.67-.67-1q-1.77-2.64-3.42-5.35-.42-.66-.81-1.32c-1-1.67-2-3.36-2.92-5.07-.42-.74-.83-1.49-1.22-2.24l-.14-.25c-.9-1.69-1.78-3.4-2.62-5.13l-.14-.29c-.33-.66-.66-1.33-1-2l0-.06-.46-1c-.08-.16-.15-.32-.22-.48s-.16-.34-.23-.52-.24-.51-.34-.76-.31-.67-.45-1l116.57.91,15.42.12,17.06.13,15.46.12,12.07.09,6.56.06h1.66l10.56.08,30.67.24Z"/><path d="M33.42,269.81a2,2,0,0,0,.22.31c.14.23.3.46.47.69l.68,1h278l.34-.49c.12-.16.23-.33.34-.5s.24-.33.34-.49.24-.34.35-.51Zm180.21-26.63-9.9-.08h-1.55l-6.47-.05-12.31-.1L169,242.83h0l-19.74-.15-15-.12-61.76-.48-54.65-.43a1.78,1.78,0,0,0,.12.29c.1.24.2.47.32.71s.29.67.45,1l97.88.76,18.84.15H139l14,.11h0l2.76,0h.05l26.42.2,11.83.09h0l6.6.06h1.77l11.28.09,31.09.24,82.95.65.3-.65c.05-.11.11-.23.16-.35l.3-.65.15-.34Z"/><path class="cls-5" d="M327.76,246.06s0,0,0,0l-.15.32,0,.06c-.64,1.35-1.29,2.69-2,4-.38.76-.77,1.5-1.16,2.25-.15.28-.29.56-.45.84-11.74,0-28.36.08-28.54,0s-32.88-1.35-32.88-1.35l-37.62-.1-24.15.51-26.29-1.69H131.66l-38.2-1.25L57.11,248l-21.93.78h-14l-.14-.29c-.33-.66-.66-1.33-1-2l0-.06-.46-1c-.08-.16-.15-.32-.22-.48s-.16-.34-.23-.52-.24-.51-.34-.76l97.88.76,128.17,1Z"/><path class="cls-5" d="M315.59,267.76c-.46.69-.92,1.37-1.39,2.05H33.42c-.17-.23-.32-.46-.47-.69s-.46-.67-.67-1q-1.77-2.64-3.42-5.35l16.42-.19s39.65-.2,39.93,0,32.89,1.36,32.89,1.36l37.62.1,24.14-.52,26.29,1.69H249l38.2,1.26Z"/><path d="M272.91,258.61c-6.84.11-13.66,0-20.49-.14s-13.64-.4-20.46-.67c-3.41-.23-6.82-.2-10.23-.23s-6.82-.06-10.24-.17l-10.23-.28c-3.41-.17-6.83-.26-10.24-.49,3.41-.23,6.83-.32,10.24-.49l10.25-.28c3.42-.11,6.84-.11,10.25-.17s6.84-.08,10.25.12c6.82.32,13.65.65,20.46,1.13S266.11,257.9,272.91,258.61Z"/><path d="M259.77,253.61a15.66,15.66,0,0,1-7.85,0,15.66,15.66,0,0,1,7.85,0Z"/><path d="M84.83,256.63c-11.74-.29-23.47-.85-35.21-1.26-8.57-.43-17.14-.79-25.71-1.23l-.14-.25c8.63.29,17.25.67,25.87,1C61.37,255.46,73.11,255.91,84.83,256.63Z"/><path class="cls-6" d="M216.16,260.28a12.37,12.37,0,0,1-1.75,4.68C208,275.85,185.87,287.61,169.9,288c-18.3.49-34.66-17.62-34.66-17.62,1.21-1,1.91-13.47,2.23-21a65.74,65.74,0,0,0,7.89,10.49c6.35,6.42,6.72,8.54,16.06,8.69h.6a53.57,53.57,0,0,0,8-.55,41.89,41.89,0,0,0,4.89-1h0a25.79,25.79,0,0,0,10.72-5.53c5.55-5.11,13.36-10.81,17.6-17.52a85.54,85.54,0,0,0,11.61-28c.25-1.18.46-2.19.65-3-2.65,15.67-2.13,36.28-.89,38.47C216.11,254.1,216.16,260.28,216.16,260.28Z"/><path class="cls-7" d="M218.08,202.46a.88.88,0,0,1-.05.15c0,.1-.07.19-.1.29a56.73,56.73,0,0,0-2.3,9.07c0,.27-.1.55-.14.82l0,.14c-.19.86-.4,1.87-.65,3a85.54,85.54,0,0,1-11.61,28c-4.24,6.71-12,12.41-17.6,17.52A25.79,25.79,0,0,1,174.88,267h0a41.89,41.89,0,0,1-4.89,1,53.57,53.57,0,0,1-8,.55h-.6c-9.34-.15-9.71-2.27-16.06-8.69a65.74,65.74,0,0,1-7.89-10.49v-.1c0-.31,0-.6,0-.89s0-.4,0-.57h0c.1-2.51.14-4.18.14-4.18l17.39,12.51,25-7.52,30-50.54a26.83,26.83,0,0,1,3.48-2.18,9.49,9.49,0,0,1,3.32-1.11,1.94,1.94,0,0,1,2,.93C219.43,196.77,219.34,198.83,218.08,202.46Z"/><path class="cls-8" d="M236.32,168.37c-.15,5.69-.25,12.36-1.56,17.52s-3,12.56-7.69,16.41c-3.86,3.15-7.39,1.87-9,.15a4,4,0,0,1-.39-.46,3,3,0,0,1-.4-.71c-.55-1.39-1-15.4,1.27-25.72,1.17-5.27,3-9.58,5.94-10.75a3.39,3.39,0,0,0,1.12,1.6c.75.49,1.92.46,3.6-1.6C232.62,160.62,236.46,162.67,236.32,168.37Z"/><path class="cls-9" d="M228.15,158.5c-.43,3.17-1.17,6.05-2.41,7.9a6.71,6.71,0,0,1-.43.58c-4.52,5.4-4.89,22.71-7.08,31.84s-1.17,3.28-3.65,15.12a85.54,85.54,0,0,1-11.61,28,38.25,38.25,0,0,1-4.56,5.72c-4.12,4.32-9.14,8.21-13,11.8A25.79,25.79,0,0,1,174.65,265s0,0,0,0a49.17,49.17,0,0,1-13.45,1.55c-9.34-.15-9.71-2.27-16.06-8.69a64.93,64.93,0,0,1-7.5-9.86c-4-6.23-7.77-13.16-10-17.09-3.65-6.36-8-24.15-9.2-28.82-.28-1.12-.68-2.79-1.1-4.82-1.37-6.51-3-16.76-1.82-24.4a39.16,39.16,0,0,0,.31-6.82c-.08-2.84-.35-5.9-.7-8.85-.1-.93-.22-1.84-.34-2.74-.92-6.78-2.1-12.36-2.1-12.36-1.82-10.45,7.14-30.45,7.14-30.45l1.72-3,3.39-6L164.26,97l26.88,1,31,6.64s2.19,7.49,3.36,12.5c.25,1.07.46,2,.59,2.77.37,2.09.92,6.66,1.4,11.06s.89,8.75.93,10.12C228.51,142.93,229.1,151.44,228.15,158.5Z"/><path class="cls-10" d="M206,174.31a9.84,9.84,0,0,0-.17-3.95c-1.2-5-4.19-11.82-10.14-12.22s-24.24.94-26.09,2.71-8,3.91-7.79,6.49a17.16,17.16,0,0,0,2.68,8.26,15.6,15.6,0,0,0,1.17,1.51c2.79,3.1,6.94,4.3,10.79,5.51a33.68,33.68,0,0,0,16.42,1.32,27.65,27.65,0,0,0,7.67-2.53A9.92,9.92,0,0,0,206,174.31Z"/><path class="cls-11" d="M229.21,164.81c-1.68,2.06-2.85,2.09-3.6,1.6-1.46,0-2.66,1.42-3.11,2.88s-.54,2.92-1,4.35a16.89,16.89,0,0,1-.65,1.58,1.42,1.42,0,0,1-.08.18,3.51,3.51,0,0,1-.8,1.29c-.64.44-1.09-.44-1.38-1.13-.1-.24-.18-.47-.24-.6a14.07,14.07,0,0,1-.76-2,35.31,35.31,0,0,1-.87-4,85.37,85.37,0,0,1-1-9.83c-.13-2.91-.18-5.83-.17-8.74,0-.78,0-1.55.11-2.33,0-.36.11-1-.14-1.35s-.63-.17-.93-.21a7.27,7.27,0,0,1-1.23-.26,5.19,5.19,0,0,1-1.61-.85,5,5,0,0,1-1.58-2.31c-.67,3.83-.45,8.66,1.31,10.84,2,2.49,2,6.54,2.37,9.57.52,4.79,1.45,9.69,1.74,14.56.29,5.12-.65,9.93-1.52,14.94-.55,3.19-1.47,6.69-1.34,9.94a26.18,26.18,0,0,1-.49,4.23c-2.34,7.8-4.91,15.69-7.29,21.5-5.14,12.57-23.57,30.16-30.31,36.32a25.79,25.79,0,0,0,10.72-5.53c5.55-5.11,13.36-10.81,17.6-17.52a85.54,85.54,0,0,0,11.61-28c.11-.53.21-1,.31-1.48l.27-.18.51-.33c1.29-6,1-3.7,2.4-9.5,1.61,1.72,5.14,3,9-.15,4.72-3.85,6.37-11.25,7.69-16.41s1.41-11.83,1.56-17.52S232.62,160.62,229.21,164.81Z"/><path class="cls-12" d="M218.07,202.45c0,.05,0,.11,0,.16-1.38,5.6-1.08,3.43-2.36,9.34q-.09.39-.18.84l0,.14c-.19.86-.4,1.87-.65,3a85.54,85.54,0,0,1-11.61,28c-4.24,6.71-12,12.41-17.6,17.52A25.79,25.79,0,0,1,174.88,267h0a41.89,41.89,0,0,1-4.89,1,53.57,53.57,0,0,1-8,.55h-.6c-9.34-.15-9.71-2.27-16.06-8.69a65.74,65.74,0,0,1-7.89-10.49h0s0-.06,0-.09a8.2,8.2,0,0,0,0-.89c0-.2,0-.4,0-.57l.05.07.08.11.07.09.37.35.18.16,0,0a61.64,61.64,0,0,0,7.06,9.2c6.35,6.42,6.72,8.54,16.06,8.69.76,0,1.51,0,2.27,0A47,47,0,0,0,174.87,265s0,0,0,0a25.79,25.79,0,0,0,10.72-5.53c5.55-5.11,13.36-10.81,17.6-17.52a85.54,85.54,0,0,0,11.61-28c.13-.6.24-1.15.35-1.66,1.72-8.12,1.4-5.95,2.52-10.29,0,0,0,0,0-.05h0l0,0Z"/><path class="cls-13" d="M171.2,203.87c-.18,2.74-2,5.21-7.55,5.62-.38,0-.79,0-1.21.06a13.09,13.09,0,0,1-2.48-1c-2.25-1.28-8.46-.68-10.81-.39s.36,2.24.36,2.24c-1.41.24-6.57-.14-8.92-2.14s.37-2.84,2.74-4.14,3.4.2,11.39-3.65C161,197.41,168.38,201.87,171.2,203.87Z"/><path class="cls-14" d="M222.17,104.68s2.19,7.49,3.36,12.5l-8-3.25-8.52,4.29s-.31,6.22-.19,11.21a8.8,8.8,0,0,1-3.7-5.61c-2-10.52-8.18-10.08-10.37-8.77s-22.35,5.12-37.25,9.06S124,120.6,124,120.6c-4.53.88-3.51,10.08-3.21,13.59s1.75,14.6-1.32,19.71a9,9,0,0,1-4.33,3.27c-.1-.93-.22-1.84-.34-2.74.82-1.22,1.74-3.87,1.61-9.65-.23-10.15.29-17,1.67-19.58s2-11.31,5.33-13.87c1.4-1.06.12-2-1.85-2.73l3.39-6L164.26,97l26.88,1Z"/><path class="cls-15" d="M146.45,191.52a7.55,7.55,0,0,0-.22-3.94c-.18-.88-.35-1.77-.51-2.65-.09-.45-.16-.9-.24-1.36a8,8,0,0,1-.27-1.15c-.15-.53-.65-2.8-1.33-2.68a6.07,6.07,0,0,0-1.21.63,8.94,8.94,0,0,1-3.9.89,6.8,6.8,0,0,0-2.77.67,6.41,6.41,0,0,0-2.64,2.44,3.24,3.24,0,0,0-.17.32c-1.74-2,4.17-6.29,4.5-6.53-1.84.59-4.87,2.29-7.55,1.49s-4-5.14-7.29-5.11c-4.63,0-1.46-5.54-1.46-5.54,3.88-2.78,8.51-4.67,13.35-4.39a16.69,16.69,0,0,1,9.13,3.37c2.67,2,5,4.84,5.23,8.29a32.43,32.43,0,0,1-1.22,11.38c-.3,1-.64,2-1,3C146.72,190.92,146.55,191.21,146.45,191.52Z"/><path class="cls-16" d="M123.36,111.33c-3.36,2.56-3.94,11.32-5.33,13.87s-1.9,9.43-1.67,19.58c.13,5.78-.79,8.43-1.61,9.65-.92-6.78-2.1-12.36-2.1-12.36-1.82-10.45,7.14-30.45,7.14-30.45l1.72-3C123.48,109.33,124.76,110.27,123.36,111.33Z"/><path class="cls-16" d="M228.15,158.5c0,.05,0,.1,0,.14a29.79,29.79,0,0,1-.87,4.25,12.5,12.5,0,0,1-1.52,3.51h-.13c-1.46,0-2.66,1.42-3.11,2.88s-.54,2.92-1,4.35a16.89,16.89,0,0,1-.65,1.58,1.42,1.42,0,0,1-.08.18,3.51,3.51,0,0,1-.8,1.29c-.64.44-1.09-.44-1.38-1.13-.1-.24-.18-.47-.24-.6a14.07,14.07,0,0,1-.76-2,35.31,35.31,0,0,1-.87-4,85.37,85.37,0,0,1-1-9.83c-.13-2.91-.18-5.83-.17-8.74,0-.78,0-1.55.11-2.33,0-.36.11-1-.14-1.35s-.63-.17-.93-.21a7.27,7.27,0,0,1-1.23-.26,5.19,5.19,0,0,1-1.61-.85,5,5,0,0,1-1.58-2.31c-.05-.14-.1-.29-.14-.44-.77-2.65-.13-5.44-.74-8.09a29.14,29.14,0,0,1-.44-5.1c-.12-5,.19-11.21.19-11.21l8.52-4.29,8,3.25c.25,1.07.46,2,.59,2.77.16.93.36,2.33.57,4,.05.38.1.78.15,1.18s.09.71.13,1.08c.19,1.54.37,3.19.55,4.82.49,4.46.89,8.75.93,10.12,0,.86.18,3.25.23,6.28A78.87,78.87,0,0,1,228.15,158.5Z"/><path class="cls-16" d="M228.13,158.64c-.1.74-.22,1.47-.36,2.17C227.91,160.11,228,159.39,228.13,158.64Z"/><path class="cls-16" d="M227.75,160.89l0-.08Z"/><path class="cls-16" d="M227.26,162.89c.19-.63.35-1.3.49-2C227.61,161.59,227.45,162.26,227.26,162.89Z"/><path d="M132.12,118.76c7.22,2.27,15.09,1,22.5.32q11.82-1.15,23.49-3.44c4.84-1,9.45-2.9,14.12-4.52a65.86,65.86,0,0,1,7.17-2.45c1.75-.38,4.86-.85,6.17.75.88,1.07.46,2.43.51,3.67a12.9,12.9,0,0,0,2,6,5.49,5.49,0,0,0,4.77,2.72c2.26-.17,4.69-1.53,6.59-2.71,1.1-.68,3.16-2,4.51-1.06,2.28,1.51,2.11,1.2,2.09,3.3a17.76,17.76,0,0,0,1.81-7.71c-.11-4-2.22-8.73-2.95-10.07-1.65-3-2.86-6.21-5-9-5-6.45-13.13-8.82-18.67-14.63-3-3.11-8.41-4.41-12.66-4.45a28.41,28.41,0,0,1-6.17-1.26c-2.76-.7-5.5-1.48-8.29-2a44.11,44.11,0,0,0-14-.52c-4.69.58-9.19,2-13.93,2.37-7.81.55-15.19,4.33-21.64,8.55a50.19,50.19,0,0,0-5.1,3.7c-1.24,1.06-2.6,2.16-2.92,3.85a12.2,12.2,0,0,0-.1,2.77c.16,3.79.1,7.56.19,11.33a9,9,0,0,0,4,7.7c3.13,2,5.85,4.49,9.31,6C130.6,118.24,131.36,118.52,132.12,118.76Z"/><path d="M169.34,164.13c-2.75,1.2-5.41,1.39-5.55-.58a4.13,4.13,0,0,1,1.89-3.8s-1.53,3.3-.18,2.56c0,0,.37-3,1.9-3.48a36.89,36.89,0,0,1,3.65-1.24c1.1-.22,3.07-1,4.31-1.09a13.61,13.61,0,0,0,4-1.17s-.33.73.58.66c0,0,.29-.77,2-.92s4.2-1.71,7.67-1a24.7,24.7,0,0,1,7.52,2.77c1.68,1,3.54,2.63-.29,2.89s-6.47-1-9.28-.36-4.31.54-7.23,1.2A109,109,0,0,0,169.34,164.13Z"/><path class="cls-17" d="M194.93,172.45c-.86,0-3,.26-5.24.46a24.8,24.8,0,0,1-5.4.08c-1.32-.23-4.19-.65-6.88-1-1-.13-2-.23-3-.32-.54-.05-1.07-.1-1.61-.11a7.56,7.56,0,0,0-.83,0c-.23,0-.52.14-.75,0s-.17-.46,0-.66a3.09,3.09,0,0,1,1.14-.95,7.52,7.52,0,0,1,1.29-.59,11.73,11.73,0,0,0,1.27-.41,8.66,8.66,0,0,0,1.83-1.21,8.25,8.25,0,0,1,3.86-2.15c2.39-.34,5.5-.54,7.74.29a9.14,9.14,0,0,1,2.64,2c1.73,1.7,3.55,3.79,4.91,3.82C198,171.87,196.59,172.48,194.93,172.45Z"/><path class="cls-18" d="M191,168.78a7.12,7.12,0,0,1-1.31,4.13c-1.22.11-2.48.2-3.56.2a10.9,10.9,0,0,1-1.84-.12c-.52-.09-1.29-.21-2.2-.34,0,0,0,0,0,0-1.37-.2-3.05-.44-4.67-.64a7,7,0,0,1-.77-3.22,5.86,5.86,0,0,1,.07-.94,8.25,8.25,0,0,1,3.86-2.15l1.16-.14a16.91,16.91,0,0,1,5.91.22,6.56,6.56,0,0,1,.67.21,9.14,9.14,0,0,1,2.64,2A5,5,0,0,1,191,168.78Z"/><path class="cls-19" d="M189,169a4.41,4.41,0,0,1-2.87,4.14,10.9,10.9,0,0,1-1.84-.12c-.52-.09-1.29-.21-2.2-.34,0,0,0,0,0,0a4.4,4.4,0,0,1-2-3.67,4.45,4.45,0,0,1,1.6-3.42,16.91,16.91,0,0,1,5.91.22A4.44,4.44,0,0,1,189,169Z"/><path class="cls-20" d="M188.22,169a3.63,3.63,0,0,1-2.37,3.41,8.34,8.34,0,0,1-1.51-.1l-1.81-.28s0,0,0,0a3.6,3.6,0,0,1-1.61-3,3.67,3.67,0,0,1,1.32-2.82,14.15,14.15,0,0,1,4.87.18A3.68,3.68,0,0,1,188.22,169Z"/><circle cx="184.4" cy="168.82" r="1.93"/><circle class="cls-18" cx="185" cy="167.82" r="0.23"/><circle class="cls-18" cx="186.16" cy="167.34" r="0.25"/><circle class="cls-18" cx="184.44" cy="168.24" r="0.12"/><path d="M171.71,167.1c2.13-.76,4.15-1.74,6.28-2.55a16.42,16.42,0,0,1,6.78-1.22,16,16,0,0,1,6.62,1.95,27,27,0,0,1,5.53,4c-1-.56-1.89-1.23-2.89-1.75l-1.46-.82c-.5-.26-1-.47-1.52-.71a17.91,17.91,0,0,0-6.33-1.64,18.3,18.3,0,0,0-6.48.95l-3.22,1A29,29,0,0,1,171.71,167.1Z"/><path class="cls-21" d="M140.75,172.63l-.42-.15a6.31,6.31,0,0,0-3.08-.1,17.47,17.47,0,0,0-2.06.53,6.59,6.59,0,0,1-1.16.3c-.21,0-.59,0-1.08,0-1.73.07-4.8.07-6-.56l-.25-.12-.13-.06,0,0-.22-.09a2.13,2.13,0,0,0-.75-.1c-.54,0-1,.29-1.67.32s-.07-.85.08-1.07a15.4,15.4,0,0,1,1.38-1.93,6.85,6.85,0,0,1,1.89-1.32,20.58,20.58,0,0,1,1.92-.87l.32-.13,1-.39.48-.17.3-.11.35-.11a2.66,2.66,0,0,1,.49-.1c2-.34,4.31.53,6.1,1.09l.53.16a6.86,6.86,0,0,1,2.23,1.18h0a11.26,11.26,0,0,1,2.78,3.31C144.91,174.18,143.3,173.75,140.75,172.63Z"/><path d="M122.29,170.42a14.45,14.45,0,0,1,4.93-4,14.1,14.1,0,0,1,6.25-1.53,14.69,14.69,0,0,1,1.62.11c.27,0,.54,0,.8.09l.79.18c.52.14,1.06.21,1.56.4s1,.39,1.5.59a9.11,9.11,0,0,1,1.43.72l1.4.79c.86.62,1.71,1.27,2.53,1.93l-2.72-1.61L141,167.4a8.54,8.54,0,0,0-1.43-.61,16.65,16.65,0,0,0-6.06-1.16,14.22,14.22,0,0,0-6,1.3c-.48.19-.93.45-1.4.68s-.9.53-1.33.83A16.46,16.46,0,0,0,122.29,170.42Z"/><path class="cls-22" d="M140.33,172.48a6.31,6.31,0,0,0-3.08-.1,17.47,17.47,0,0,0-2.06.53,6.59,6.59,0,0,1-1.16.3c-.21,0-.59,0-1.08,0-1.73.07-4.8.07-6-.56l-.25-.12-.13-.06,0,0-.22-.09c-.63-.76-.11-1.79.37-2.48a10.52,10.52,0,0,1,1.16-1.34l.68-.62a4.69,4.69,0,0,1,1-.66l.12-.06c.29-.13.59-.23.89-.33l.48-.17.3-.11.35-.11a1,1,0,0,0,.49-.1c2-.34,4.31.53,6.1,1.09l.53.16a6.86,6.86,0,0,1,2.23,1.18h0A5.64,5.64,0,0,1,140.33,172.48Z"/><path class="cls-19" d="M138.61,169.28a4.18,4.18,0,0,1-1.36,3.1c-1.44.26-2.69.79-3.22.83-.21,0-.59,0-1.08,0a4.23,4.23,0,0,1-2-6.51l.3-.11c2.19-.81,4.89.24,6.94.88A4.13,4.13,0,0,1,138.61,169.28Z"/><path class="cls-23" d="M137.7,169.39a3.3,3.3,0,0,1-1.07,2.44c-1.13.2-2.11.62-2.53.65l-.84,0a3.32,3.32,0,0,1-2.21-3.13,3.25,3.25,0,0,1,.66-2l.24-.09c1.71-.63,3.83.19,5.44.69A3.21,3.21,0,0,1,137.7,169.39Z"/><circle cx="134.42" cy="169.52" r="1.7"/><circle class="cls-18" cx="133.7" cy="169" r="0.26"/><circle class="cls-18" cx="132.72" cy="168.48" r="0.17"/><circle class="cls-18" cx="131.99" cy="168.07" r="0.1"/><path d="M158.86,206.92a5.31,5.31,0,0,1,4.52-2.36c3.05.1.42,2.07-.61,1.85A4.18,4.18,0,0,0,158.86,206.92Z"/><path d="M149.87,207.24s0-2.2-3.64-2-2.24,1.93-1.57,2S148.88,206.53,149.87,207.24Z"/><path class="cls-8" d="M145.2,233s2.12,10.8,7.08,11.61,7.79-1.41,12.27-.34,12.56-8.91,9.5-11.59S145.2,233,145.2,233Z"/><path class="cls-12" d="M144.14,196.7a22.57,22.57,0,0,0-2.08,3.34,8,8,0,0,0-1,3.57,4.53,4.53,0,0,0,1.38,3.22,13.36,13.36,0,0,0,3.14,2.29,8.48,8.48,0,0,1-3.67-1.72,5.48,5.48,0,0,1-1.35-1.66,5.24,5.24,0,0,1-.5-2.13,7.55,7.55,0,0,1,1.29-4A11.25,11.25,0,0,1,144.14,196.7Z"/><path class="cls-24" d="M175.58,230.12a5.84,5.84,0,0,1-.27,1.77c-.87,2.92-3.77,5.28-6.22,6.77a14,14,0,0,1-6.08,2,46,46,0,0,1-7,.31c-2.07-.08-4.47-.12-6.2-1.38a7.21,7.21,0,0,1-1.76-2.33,17.94,17.94,0,0,0-3-3.48,35.64,35.64,0,0,0-3-2.57l.44-.45,1.07-1.11,3.8-1.07,10.37-.1s17.33-4,17.82,1.12C175.57,229.78,175.58,230,175.58,230.12Z"/><path class="cls-25" d="M175.58,229.43a3.65,3.65,0,0,1-.27,1.38c-1.93-.35-4.06-1.35-6.08-1.44-2.41-.12-7.2,1.25-8.37,1.56s-6.17,1.06-8.47.29c-1.46-.48-6.47-.71-9.89-1.28l1.07-.87,3.8-.83,10.37-.08s17.33-3.1,17.82.87C175.57,229.17,175.58,229.3,175.58,229.43Z"/><path class="cls-12" d="M162.41,209.55a19.7,19.7,0,0,0,4.84-1.18,5.29,5.29,0,0,0,3.19-3.17,6.33,6.33,0,0,0,.28-2.31,11.15,11.15,0,0,0-.36-2.41,26.06,26.06,0,0,0-1.72-4.7,15,15,0,0,1,2.47,4.48,8.56,8.56,0,0,1,.28,5.26,5.46,5.46,0,0,1-1.52,2.29,6.62,6.62,0,0,1-2.35,1.29A12.69,12.69,0,0,1,162.41,209.55Z"/><path class="cls-26" d="M142.06,231.22a1.7,1.7,0,0,0,.24-.44c.22-.39.46-.77.71-1.14a14.31,14.31,0,0,1,4.84-4.73,6.29,6.29,0,0,1,5.27-.45c1.5.6,3.17,1.75,4.82,1a7.77,7.77,0,0,0,1.3-1,5,5,0,0,1,3.45-.88,18.12,18.12,0,0,1,4.5,1.53c1.13.44,2.3.79,3.45,1.15,1.38.44,3.36.74,4.38,1.87a2.18,2.18,0,0,1,.54,1.46,5,5,0,0,0-1.18-.46,13.68,13.68,0,0,0-4.84-.77,20.3,20.3,0,0,0-4.85,1.16,12.39,12.39,0,0,1-3.26.4c-2.26,0-4.49-.33-6.75-.34-1.36,0-2.73.13-4.08.13a45.38,45.38,0,0,0-4.66.31A7.43,7.43,0,0,0,142.06,231.22Z"/><path d="M122.2,163.89c2.62-.39,5.89.58,6.86.78a25.79,25.79,0,0,0,5.06,0c1.46-.15,6.09.63,7.4,0s2.68-1.68,1.61-2.56c-.28-.23-.55-.49-.81-.75a1.22,1.22,0,0,0-.17-.15,3.17,3.17,0,0,0-1-.26,3.46,3.46,0,0,1,.82,1.26c-.88-.88-.91-1.42-1.77-1.44,0,0,.75,1,.54,1.09,0,0-.21-.44-.22-.46a2.14,2.14,0,0,0-1.07-.75,5.31,5.31,0,0,0-1-.2l-.83-.14c-.61-.09-1.21-.17-1.82-.24a27.35,27.35,0,0,0-3-.25h0c-1.15,0-4.22-1.29-6.36-1.41s-3.41-.51-5.5.17-4.16,1.63-4.65,1.83-2.46,1-1.92,2.46,1.29,2,2.68,1.75S122.2,163.89,122.2,163.89Z"/><path d="M198.41,247.63c-4.12,4.32-9.14,8.21-13,11.8A25.79,25.79,0,0,1,174.65,265s0,0,0,0a49.17,49.17,0,0,1-13.45,1.55c-9.34-.15-9.71-2.27-16.06-8.69a64.93,64.93,0,0,1-7.5-9.86l3.92,3.87,7.88,7.23,11,3.94,14.42-1.53,9.46-3.43Z"/><path class="cls-27" d="M153.09,168.9a3.85,3.85,0,0,0-.3,1.86c0,.88-.08,1.76-.13,2.63-.1,1.76-.23,3.51-.4,5.26q-.31,3.43-.81,6.84c-.16,1.11-.3,2.24-.51,3.34-.24,1.27-.57,2.52-.87,3.77a4.72,4.72,0,0,0-.14,2.8,1.78,1.78,0,0,0,1.07.8,1.07,1.07,0,0,0,.95-.11,2,2,0,0,0,.69-1,16.53,16.53,0,0,0,.51-4.34c.23-3,.7-5.9,1.07-8.84a96.19,96.19,0,0,0,.67-11.12,4.27,4.27,0,0,0-.07-1.08,1.53,1.53,0,0,0-.91-1.08.67.67,0,0,0-.69.11A1,1,0,0,0,153.09,168.9Z"/><path class="cls-11" d="M117.3,197.24c-1.82-1.84-4.43-5.77-4.89-13.39-.11-1.86,0-4.5-1.06-6.17-.27-.44-.79-.61-1-1.08a3.7,3.7,0,0,1-.09-1.52c0-1.1.39-2.23.33-3.33-.08-1.31-.44-2.59-.49-3.91a2.51,2.51,0,0,1,1.48-2.77,3.45,3.45,0,0,1,4.19,1,39.16,39.16,0,0,1-.31,6.82C114.29,180.48,115.93,190.73,117.3,197.24Z"/><path class="cls-3" d="M173.81,342.49c-2.92,0-5.62-.06-8.26-.19-4.77-.23-9.56-.67-14.24-1.31l-2.05-.28c-2.7-.39-5.12-.8-7.45-1.25-3.46-.67-6.52-1.36-9.37-2.1l-.83-.21-.35-.09c-1.08-.28-2.16-.57-3.24-.88-1.48-.41-2.8-.8-4.06-1.2-1.65-.51-3.33-1.05-5-1.63l-.19-.06-.31-.11c-2.44-.85-4.81-1.74-7.13-2.67l-.72-.29c-.67-.27-1.32-.53-1.95-.8-3.53-1.47-7.06-3.1-10.51-4.85-.63-.31-1.25-.63-1.87-.95l-.71-.38-.89-.48-.16-.08,0,0-.25-.11L94,322.4h0l-.33-.18-.82-.44-.29-.17-.65-.35c-3-1.65-5.75-3.31-8.33-4.95l-.32-.21-.49-.32-1-.66L80.08,314c-3.07-2.05-6-4.16-8.74-6.28a4.15,4.15,0,0,0-.36-.28l-.11-.09-.45-.33c-1.8-1.4-3.4-2.7-4.93-4l-.39-.33-.85-.73-.84-.72c-.58-.51-1.14-1-1.69-1.49L60,298.21c-.4-.36-.79-.72-1.18-1.1s-.72-.66-1.05-1l-.29-.27a73.76,73.76,0,0,1,10.2-3.64c40.2-11.12,62.48-18.5,67.14-20.07,3.31,3.43,17.81,17.4,34.36,17.4h.77c15.75-.41,37.5-11.48,45.07-22.7,7.63,3.15,50.92,21.09,72.58,31.42-1,.9-2.17,2-3.36,3-1,.88-1.92,1.67-2.84,2.42l-1,.8c-1.06.87-2.12,1.72-3.19,2.55-1.76,1.38-3.55,2.72-5.33,4-.67.49-1.34,1-2,1.42-1.74,1.23-3.5,2.4-5,3.38l-2.18,1.39-1.18.72-.33.19c-1.25.77-2.51,1.5-3.78,2.23-.57.33-1.11.64-1.66.94l-.32.18-1.46.8-.2.11-.42.23-.3.16-.93.49c-.88.46-1.75.92-2.62,1.35l-.22.11-.07,0,0,0c-2.84,1.43-5.68,2.75-8.42,3.92-.59.27-1.17.51-1.76.76l-.65.27c-1.29.55-2.65,1.09-4.44,1.78-1.64.63-3.16,1.18-4.63,1.68a2.32,2.32,0,0,1-.37.14l-.23.08a170.15,170.15,0,0,1-19.74,5.47c-3.44.73-7,1.36-10.49,1.87-1.56.23-3.25.45-5.19.67-4.53.54-9.22.88-13.94,1C177.7,342.46,176,342.49,173.81,342.49Z"/><path d="M215.54,268.67c9.67,4,48.11,20,69.37,30-.54.48-1.09,1-1.65,1.45l0,0,0,0c-1,.84-1.87,1.62-2.78,2.36h0l0,0c-.31.26-.62.52-.94.77-1.13.93-2.16,1.75-3.16,2.53-1.75,1.37-3.52,2.7-5.28,3.95-.66.47-1.32.94-2,1.39l0,0,0,0c-1.72,1.21-3.46,2.36-4.92,3.31l-1.59,1-.57.37-.75.45,0,0h0l-.72.44c-1.17.72-2.34,1.4-3.74,2.21-.54.31-1.08.62-1.63.92l-.13.07,0,0-1.56.87-.1,0-.21.12-.35.19-.29.16-.46.24-.5.26c-.76.4-1.66.88-2.57,1.33l-.15.08h0l-.14.07c-2.82,1.42-5.63,2.72-8.37,3.9l-1.72.73-.05,0,0,0c-.18.09-.36.16-.58.25-1.25.52-2.64,1.08-4.36,1.75s-3.13,1.16-4.59,1.67l-.09,0-.09,0-.18.05-.24.09a166.36,166.36,0,0,1-19.57,5.42c-3.41.72-6.91,1.35-10.41,1.86-1.54.23-3.22.44-5.14.66-4.48.54-9.13.88-13.85,1-1.54.06-3.21.09-5.4.09-2.91,0-5.58-.06-8.2-.19-4.72-.23-9.46-.66-14.13-1.3l-1.86-.26-.21,0c-2.62-.37-5-.77-7.31-1.22-3.44-.67-6.48-1.35-9.28-2.08h-.1l-.71-.18-.38-.1c-1-.25-2-.53-3.22-.88-1.46-.4-2.77-.79-4-1.18-1.62-.5-3.29-1.05-4.94-1.61l-.21-.07-.2-.07-.09,0-.09,0c-2.35-.82-4.7-1.69-7-2.62l-.68-.28h-.06c-.66-.26-1.3-.52-1.91-.79-3.48-1.45-7-3.06-10.41-4.79l-2-1-.27-.15-.27-.15h0l0,0-.8-.43-.06-.06-.43-.21-.52-.29h0l-.09,0-.7-.38-.19-.11,0,0-.08,0-.07,0-.56-.31c-2.91-1.62-5.68-3.27-8.25-4.9h0l-.25-.16-.07-.05,0,0h0l-.19-.12-.2-.13,0,0h0l-1-.65-1.65-1.09c-3-2-5.93-4.11-8.62-6.19l-.39-.31-.06,0-.06-.05,0,0,0,0-.34-.25,0,0,0,0c-1.75-1.36-3.34-2.65-4.83-3.91l-.44-.37c-.26-.23-.53-.45-.79-.69l0,0,0,0c-.27-.21-.52-.43-.77-.65l0,0,0,0c-.56-.48-1.1-1-1.64-1.44L61,297.1l-.82-.77a72.6,72.6,0,0,1,7.9-2.68c38.09-10.53,60.13-17.71,66.33-19.79,4.41,4.4,18.6,17.18,34.77,17.18H170c15.67-.41,37.16-11.16,45.56-22.36M214.42,265h0C208,275.85,185.87,287.61,169.9,288h-.73c-18,0-33.93-17.63-33.93-17.63s-22.2,7.69-68,20.35a73.45,73.45,0,0,0-12.41,4.64l.29.28c.17.18.34.35.51.5s.34.34.51.5l.53.5c.35.35.7.68,1.06,1s.81.77,1.22,1.14l1.74,1.57,1.69,1.48.85.73,1.26,1.08q2.43,2.06,4.94,4c.17.14.35.27.52.39l.12.09.32.25c2.86,2.22,5.81,4.33,8.82,6.34l1.67,1.11,1,.67.44.28.34.23.05,0c2.74,1.74,5.55,3.4,8.4,5l.62.34.3.17.81.44.07,0,.63.33,0,0,.28.15.93.5.59.32,2,1q5.19,2.63,10.59,4.88c.65.28,1.31.55,2,.81l.74.3c2.34.94,4.72,1.83,7.11,2.66.19.08.39.14.59.21,1.67.57,3.36,1.12,5.05,1.64,1.36.43,2.73.83,4.1,1.21,1.09.31,2.18.61,3.27.89.39.1.78.21,1.18.3,3.12.81,6.28,1.5,9.46,2.12,2.47.48,5,.89,7.46,1.25l2.12.29c4.74.65,9.52,1.09,14.37,1.32,2.76.14,5.54.2,8.34.2,1.85,0,3.69,0,5.53-.1,4.74-.14,9.44-.48,14.07-1,1.75-.2,3.49-.42,5.23-.68q5.36-.78,10.59-1.89a167.83,167.83,0,0,0,19.92-5.52c.2-.07.41-.13.6-.21q2.35-.81,4.68-1.7c1.5-.58,3-1.17,4.46-1.79l.66-.28,1.78-.76c2.87-1.23,5.71-2.56,8.5-4l.23-.11.1,0c.88-.44,1.76-.9,2.63-1.36l1-.51c.25-.14.51-.27.76-.42l.14-.07,1.69-.93.1-.06c.57-.31,1.13-.63,1.69-.95,1.28-.74,2.55-1.48,3.81-2.25h0l1.52-.93,2.2-1.4c1.69-1.1,3.38-2.22,5-3.39.69-.47,1.37-.95,2-1.44q2.75-1.95,5.38-4c1.08-.84,2.15-1.7,3.21-2.57l1-.8c1-.79,1.92-1.6,2.87-2.44,1.16-1,2.3-2,3.43-3.05l.44-.41.44-.41c.12-.1.23-.21.34-.32l.36-.34C267.13,286.64,214.42,265,214.42,265Z"/><path class="cls-28" d="M169.64,341s1.22-22.61.37-28.67.19-21.35.19-21.35l1.69-.19s-.08,1.16-.16,2.7c-.16,3.29-.3,6.59-.37,9.9a90.49,90.49,0,0,0,.14,9.32,12.82,12.82,0,0,0,.4,2.27,14.32,14.32,0,0,1,.44,2.43,51.52,51.52,0,0,1,.12,7.46c-.06,1.76-.15,3.53-.27,5.29l-.18,2.45c-.06.82-.2,1.7-.2,2.53-.12,1.41-.18,2.89-.36,4.28q-.06.8-.15,1.59Z"/><line class="cls-29" x1="170.56" y1="289.79" x2="170.49" y2="291.79"/><line class="cls-30" x1="170.41" y1="293.76" x2="170.41" y2="293.77"/><path class="cls-31" d="M170.41,293.77,170,304.48s1.65,27.71-.65,36.88"/><path class="cls-29" d="M169.33,341.36a8.72,8.72,0,0,1-.66,1.89"/><path class="cls-32" d="M100.21,20.88V163.49L65.27,234.11,30.35,163.49V83c.54-.85,1.1-1.7,1.66-2.54a5.39,5.39,0,0,1,.33-.5q.48-.73,1-1.47l0,0,.21-.31.14-.2q1.84-2.7,3.8-5.32c.28-.37.56-.75.85-1.12s.43-.57.65-.86l.72-.93.73-.93.41-.52.76-.93c.13-.18.27-.35.42-.52a4.12,4.12,0,0,1,.33-.4q1.62-2,3.32-3.93,3.69-4.26,7.69-8.25l.64-.65,1.14-1.12q1.53-1.5,3.1-3c1.12-1,2.24-2,3.38-3l.56-.49.52-.45.56-.48c.17-.15.35-.31.54-.46s.36-.32.55-.47l.28-.24h0c.91-.76,1.83-1.52,2.75-2.25,1.78-1.44,3.58-2.83,5.42-4.18h0c.68-.51,1.37-1,2.07-1.51,1.67-1.2,3.38-2.38,5.1-3.51.51-.35,1-.69,1.56-1L82.1,31c2-1.3,4.05-2.55,6.12-3.75.58-.34,1.16-.68,1.75-1l.89-.5.77-.43.43-.24.5-.27.66-.36.11-.06,1-.52c1.3-.69,2.6-1.37,3.92-2Z"/><path class="cls-32" d="M321.44,89.91V162L286.5,232.61,251.58,162V72.57l.18-.34.45-.85c1-1.83,2-3.65,3-5.43a6.65,6.65,0,0,1,.33-.58c.32-.56.65-1.13,1-1.69l0,0,.21-.35.14-.23q1.85-3.12,3.8-6.13c.28-.43.56-.87.85-1.29s.43-.66.65-1l.72-1.07.73-1.08.41-.59.76-1.08c.13-.2.27-.4.42-.59a4,4,0,0,1,.33-.47q1.62-2.3,3.32-4.52,3-3.93,6.11-7.65c.44.31.87.63,1.3,1q2.76,2.09,5.42,4.29l1.11.92.37.31.73.61.36.32,1.08.93.14.12c1.08,1,2.15,1.9,3.21,2.88s2.4,2.24,3.58,3.39l.11.1c1,1,2,2,3,3,.12.11.23.23.33.34.64.65,1.27,1.31,1.89,2q2,2.07,3.82,4.21,1.51,1.71,3,3.47c.84,1,1.66,2,2.47,3l.26.31.48.62.24.31.5.64.22.29,1.1,1.44q1.92,2.56,3.75,5.2c.62.89,1.23,1.78,1.83,2.68s1.19,1.8,1.78,2.72C318.57,85,320,87.45,321.44,89.91Z"/><path class="cls-3" d="M34.86,162.09V78.88l.09-.13c1.16-1.69,2.39-3.42,3.77-5.27l.26-.35c.18-.25.37-.5.56-.74l.45-.6.93-1.2,1.14-1.46.72-.87.07-.09a4.12,4.12,0,0,1,.33-.4l0-.06.05-.07a2.43,2.43,0,0,1,.2-.25c1.08-1.32,2.19-2.63,3.35-4,2.39-2.76,5-5.51,7.62-8.18l.67-.67,1.1-1.08c1-1,2-2,3.07-2.92s2.22-2,3.35-3l.57-.5.48-.42.57-.48.5-.43c.23-.2.38-.34.55-.47l.33-.28c.9-.75,1.81-1.5,2.72-2.22,1.66-1.34,3.34-2.64,5-3.87l1-.73h0l1.45-1c1.7-1.22,3.4-2.38,5.06-3.47.52-.36,1-.69,1.54-1l.46-.29Q85.79,30.4,89,28.56l1.74-1,.25-.14.61-.34.15-.09v135.1L63.28,212Z"/><path d="M90.22,29.57V161.69L63.28,209,36.36,161.69V79.34c1.1-1.6,2.27-3.23,3.54-5l.27-.34.55-.74,0,0,0,0,.4-.53.19-.25.72-.93c.12-.15.24-.29.35-.44l.38-.48.16-.21.24-.3.7-.86.07-.08.06-.09.24-.29.1-.12.09-.12a.52.52,0,0,1,.1-.11l.06-.07.06-.08c1-1.24,2.1-2.53,3.26-3.85,2.36-2.73,4.9-5.45,7.54-8.1l0,0,0,0,.27-.28c.12-.11.23-.23.35-.35.36-.36.71-.71,1.09-1.07,1-1,2-2,3-2.9s2.18-2,3.34-3l.22-.2.33-.29.45-.39,0,0,0,0a5.34,5.34,0,0,1,.5-.43l0,0,0,0,.38-.33.07-.06.07-.05a4.59,4.59,0,0,1,.41-.36l.07-.06,0,0h0l.27-.22c.79-.67,1.73-1.45,2.71-2.22,1.5-1.22,3-2.4,4.53-3.53h0l.61-.45.16-.12,1.22-.9h0l.83-.6c1.69-1.21,3.37-2.37,5-3.44l0,0h0c.48-.34,1-.66,1.5-1l.39-.25.06,0,.06,0c1.86-1.21,3.88-2.45,6-3.68l.48-.28m3-5.12-.66.36-.5.27-.43.24-.77.43-.89.5c-.59.33-1.17.67-1.75,1-2.07,1.2-4.12,2.45-6.12,3.75l-.51.32c-.53.34-1,.68-1.56,1-1.72,1.13-3.43,2.31-5.1,3.51-.7.5-1.39,1-2.07,1.51h0c-1.84,1.35-3.64,2.74-5.42,4.18-.92.73-1.84,1.49-2.75,2.25h0l-.28.24c-.19.15-.37.31-.55.47s-.37.31-.54.46l-.56.48-.52.45-.56.49c-1.14,1-2.26,2-3.38,3s-2.08,2-3.1,3L54,53.54l-.64.65q-4,4-7.69,8.25-1.7,1.94-3.32,3.93a4.12,4.12,0,0,0-.33.4c-.15.17-.29.34-.42.52l-.76.93-.41.52-.73.93L39,70.6c-.22.29-.44.57-.65.86s-.57.75-.85,1.12q-1.95,2.63-3.8,5.32l-.14.2-.21.31v84.07L63.28,215l29.94-52.53v-138Z"/><path d="M94.3,23.87l-1,.52-.11.06-.66.36-.5.27-.43.24-.77.43-.89.5c-.59.33-1.17.67-1.75,1V161.15L63.28,204.91,38.36,161.15V71.46c-.29.37-.57.75-.85,1.12q-1.95,2.63-3.8,5.32l-.14.2-.21.31,0,0q-.51.73-1,1.47a5.39,5.39,0,0,0-.33.5c-1,1.55-2,3.13-3,4.72l-.45.73-.18.3V163.8l34.92,61.31L98.22,163.8V21.86C96.9,22.5,95.6,23.18,94.3,23.87Z"/><path class="cls-3" d="M255.89,161V25.94L256,26l.66.37.24.14c.59.33,1.16.66,1.73,1,2.14,1.24,4.18,2.48,6.07,3.71l.51.32,1.53,1c1.67,1.1,3.36,2.27,5.07,3.49l1.45,1.06h0l1,.74c1.65,1.22,3.33,2.52,5,3.85.92.73,1.83,1.48,2.73,2.24l.26.21c.24.19.39.33.54.46l.08.07.46.39c.23.19.41.34.57.49l.53.46.56.49c1.13,1,2.24,2,3.35,3s2.06,1.94,3.07,2.93l1.13,1.11.62.62c2.7,2.7,5.26,5.45,7.64,8.2,1.16,1.32,2.27,2.63,3.29,3.89a3.53,3.53,0,0,1,.27.32l.05.07.05.06a4.12,4.12,0,0,1,.33.4l.06.09c.26.3.5.6.75.91l1.12,1.42.92,1.2.42.55.59.78.28.37c1.37,1.84,2.6,3.57,3.75,5.26l.09.13V161l-28.42,49.9Z"/><path d="M257.39,28.52l.5.29c2.11,1.22,4.12,2.46,6,3.67l.05,0,.06,0c.13.08.27.16.41.26.51.32,1,.65,1.49,1l0,0h0c1.63,1.07,3.31,2.23,5,3.45.28.19.55.39.82.59h0l1.23.9.16.12.6.46h0c1.51,1.12,3,2.31,4.56,3.54,1,.75,1.9,1.53,2.69,2.2l.15.12.08.07.06.06.07.05c.15.11.28.24.42.36l.06.06.07.05.42.35,0,0,0,0,.5.43,0,0,0,0,.44.38.34.3.24.21c1.14,1,2.23,2,3.33,3s2,1.92,3.05,2.91l1.08,1.05.34.35.27.28,0,0,0,0c2.65,2.64,5.19,5.37,7.56,8.1,1.14,1.31,2.24,2.61,3.24,3.85l.06.07.07.07.09.11.09.12.1.12a3.07,3.07,0,0,1,.24.29l.06.09.07.08c.24.29.47.58.71.86l.23.3.16.2.38.49c.12.15.24.29.35.44l.7.91.21.27.4.53,0,0,0,0c.19.24.38.48.56.73l.24.32c1.3,1.74,2.46,3.37,3.56,5v82.35l-26.92,47.27-26.94-47.27V28.52m-3-5.11v138L284.33,214l29.92-52.53V77.37l-.21-.31-.14-.2q-1.84-2.7-3.8-5.32c-.28-.37-.56-.75-.85-1.12s-.43-.57-.65-.86l-.72-.93-.73-.93-.41-.52-.76-.93c-.13-.18-.27-.35-.42-.52a4.12,4.12,0,0,0-.33-.4q-1.62-2-3.32-3.93-3.69-4.26-7.69-8.25l-.64-.65-1.14-1.12q-1.53-1.5-3.1-3c-1.12-1-2.24-2-3.38-3l-.56-.49-.52-.45-.56-.48c-.17-.15-.35-.31-.54-.46s-.36-.32-.55-.47l-.28-.24h0c-.91-.76-1.83-1.52-2.75-2.25-1.78-1.44-3.58-2.83-5.42-4.18h0c-.68-.51-1.37-1-2.07-1.51-1.67-1.2-3.38-2.38-5.1-3.51-.51-.35-1-.69-1.56-1l-.51-.32c-2-1.3-4.05-2.55-6.12-3.75-.58-.34-1.16-.68-1.75-1l-.89-.5-.77-.43-.43-.24-.5-.27-.66-.36Z"/><path d="M249.39,20.82V162.76l34.94,61.31,34.92-61.31V85.13l-.18-.3-.45-.73c-1-1.59-2-3.17-3-4.72a5.39,5.39,0,0,0-.33-.5q-.48-.73-1-1.47l0,0-.21-.31-.14-.2q-1.84-2.7-3.8-5.32c-.28-.37-.56-.75-.85-1.12v89.69l-24.92,43.76-24.94-43.76V26.22c-.58-.34-1.16-.68-1.75-1l-.89-.5-.77-.43-.43-.24-.5-.27-.66-.36-.11-.06-1-.52C252,22.14,250.71,21.46,249.39,20.82Z"/><circle cx="170.29" cy="301.15" r="3.53"/><circle cx="170.29" cy="317.78" r="3.53"/><circle cx="170.29" cy="333.25" r="3.53"/><circle class="cls-33" cx="63.29" cy="136.26" r="18.17"/><path class="cls-18" d="M73.05,128.55a3.89,3.89,0,0,0-4.11-1.32,5.59,5.59,0,0,0-3.89,3.1.16.16,0,0,1-.2.1,9.59,9.59,0,0,0-2.27-.12c-.3,0-.6,0-.9.08a.16.16,0,0,1-.2-.1,5.27,5.27,0,0,0-1.79-2.1,5,5,0,0,0-3.75-1A3.86,3.86,0,0,0,52.65,131a.45.45,0,0,0,.07.18.81.81,0,0,0,.21-.1s0-.08.08-.12a4.06,4.06,0,0,1,2.5-1.84,2,2,0,0,1,2.57,1.5,10.4,10.4,0,0,1,.23,1.08.28.28,0,0,1-.07.17l-.08.08c-.23.24-.47.49-.72.73a.37.37,0,0,1-.2.09,4.76,4.76,0,0,0-.66.06,5.54,5.54,0,0,0-3,2c-.1.11-.06.22.08.29a3.86,3.86,0,0,0,2.11.37c.14,0,.27,0,.4-.07-.06.46-.12.92-.16,1.37a5.77,5.77,0,0,0,1,3.91,9.89,9.89,0,0,0,3.25,3,.72.72,0,0,1,.23.26c.13.25.22.52.35.77a2.81,2.81,0,0,1,.32,1.23c0,.15,0,.31.15.38s.29-.07.39-.18.15-.2.23-.3l.1-.11c0,.06,0,.1,0,.14.08.52.15,1,.24,1.56a9.77,9.77,0,0,0,.25,1.07.37.37,0,0,0,.23.21c.14,0,.18-.11.21-.23s.06-.34.1-.51c.09-.4.17-.8.26-1.2a1.29,1.29,0,0,1,.09-.2l.79,1.16a1,1,0,0,0,.26.25.27.27,0,0,0,.23,0,.31.31,0,0,0,.08-.22.9.9,0,0,0-.06-.22c-.1-.31-.2-.62-.29-.94a1.73,1.73,0,0,1,0-1.1l.22.24c.13.13.25.26.39.38s.21.16.34.07.13-.21.1-.33a2.23,2.23,0,0,1,.94-2.4,9.37,9.37,0,0,0,3.1-3.13,5.36,5.36,0,0,0,.83-2.72,9.23,9.23,0,0,0-.19-2.1.75.75,0,0,1,0-.15,3.57,3.57,0,0,0,2.43-.26c.24-.1.28-.21.09-.4-.35-.36-.71-.73-1.09-1.05a4.17,4.17,0,0,0-2-.93c-.23,0-.51,0-.7-.08s-.33-.38-.51-.53a.38.38,0,0,1-.09-.09.45.45,0,0,1-.08-.49c.11-.39.15-.82.29-1.21A2,2,0,0,1,70.26,129a3,3,0,0,1,1.82.48A4.2,4.2,0,0,1,73.59,131c.06.09.13.19.24.13a.28.28,0,0,0,.11-.22A4.13,4.13,0,0,0,73.05,128.55Z"/><circle class="cls-33" cx="283.23" cy="136.26" r="18.17"/><path class="cls-22" d="M293,128.55a3.89,3.89,0,0,0-4.11-1.32,5.59,5.59,0,0,0-3.89,3.1.16.16,0,0,1-.2.1,9.59,9.59,0,0,0-2.27-.12c-.3,0-.6,0-.9.08a.16.16,0,0,1-.2-.1,5.27,5.27,0,0,0-1.79-2.1,5,5,0,0,0-3.75-1,3.86,3.86,0,0,0-3.29,3.82.45.45,0,0,0,.07.18.81.81,0,0,0,.21-.1s.05-.08.08-.12a4.06,4.06,0,0,1,2.5-1.84,2,2,0,0,1,2.57,1.5,10.4,10.4,0,0,1,.23,1.08.28.28,0,0,1-.07.17.6.6,0,0,0-.08.08c-.23.24-.47.49-.72.73a.37.37,0,0,1-.2.09,4.76,4.76,0,0,0-.66.06,5.54,5.54,0,0,0-3,2c-.1.11-.06.22.08.29a3.86,3.86,0,0,0,2.11.37c.14,0,.27,0,.4-.07-.06.46-.12.92-.16,1.37a5.77,5.77,0,0,0,1,3.91,9.89,9.89,0,0,0,3.25,3,.72.72,0,0,1,.23.26c.13.25.22.52.35.77a2.81,2.81,0,0,1,.32,1.23c0,.15,0,.31.15.38s.29-.07.39-.18.15-.2.23-.3l.1-.11,0,.14c.08.52.15,1,.24,1.56a9.77,9.77,0,0,0,.25,1.07.37.37,0,0,0,.23.21c.14,0,.18-.11.21-.23s.06-.34.1-.51c.09-.4.17-.8.26-1.2a1.29,1.29,0,0,1,.09-.2l.79,1.16a1,1,0,0,0,.26.25.27.27,0,0,0,.23,0,.31.31,0,0,0,.08-.22.9.9,0,0,0-.06-.22c-.1-.31-.2-.62-.29-.94a1.73,1.73,0,0,1,0-1.1l.22.24c.13.13.25.26.39.38s.21.16.34.07.13-.21.1-.33a2.23,2.23,0,0,1,.94-2.4,9.37,9.37,0,0,0,3.1-3.13,5.36,5.36,0,0,0,.83-2.72,9.23,9.23,0,0,0-.19-2.1.75.75,0,0,1,0-.15,3.57,3.57,0,0,0,2.43-.26c.24-.1.28-.21.09-.4-.35-.36-.71-.73-1.09-1.05a4.17,4.17,0,0,0-2-.93c-.23,0-.51,0-.7-.08s-.33-.38-.51-.53a.38.38,0,0,1-.09-.09.45.45,0,0,1-.08-.49c.11-.39.15-.82.29-1.21A2,2,0,0,1,290.2,129a3,3,0,0,1,1.82.48,4.2,4.2,0,0,1,1.51,1.51c.06.09.13.19.24.13a.28.28,0,0,0,.11-.22A4.13,4.13,0,0,0,293,128.55Z"/></g></svg>