<svg xmlns="http://www.w3.org/2000/svg" xmlns:xlink="http://www.w3.org/1999/xlink" viewBox="0 0 350.2 350.53"><defs><style>.cls-1{fill:none;}.cls-2{mask:url(#mask);}.cls-3{clip-path:url(#clip-path);}.cls-4{fill:#003189;}.cls-5{fill:#0b58d3;}.cls-6{fill:#1e66d1;}.cls-7{fill:#367acc;}.cls-8{fill:#050a44;}.cls-9{clip-path:url(#clip-path-2);}.cls-10{fill:url(#linear-gradient);}.cls-11{fill:url(#linear-gradient-2);}.cls-12{fill:url(#linear-gradient-3);}.cls-13{fill:#352821;}.cls-14{fill:#2b201b;}.cls-15,.cls-18{fill:#fff;}.cls-16{opacity:0.1;}.cls-17{fill:#085147;}.cls-18{stroke:#000;stroke-width:10px;}.cls-19{fill:#ed9920;}.cls-20{fill:#f96310;}.cls-21{fill:#e8c325;}.cls-22{fill:#fcfff5;}.cls-23{fill:#222c2c;}.cls-24{fill:#ef7c1d;}</style><mask id="mask" x="-1176.93" y="1923.26" width="282.74" height="282.74" maskUnits="userSpaceOnUse"/><clipPath id="clip-path"><circle class="cls-1" cx="-270.15" cy="175.27" r="168.8"/></clipPath><clipPath id="clip-path-2"><circle class="cls-1" cx="175.1" cy="175.27" r="167.36"/></clipPath><linearGradient id="linear-gradient" x1="177.48" y1="-56.26" x2="177.38" y2="272.4" gradientUnits="userSpaceOnUse"><stop offset="0.07" stop-color="#16c8f2"/><stop offset="0.18" stop-color="#42bdd1"/><stop offset="0.35" stop-color="#7fafa3"/><stop offset="0.5" stop-color="#afa37f"/><stop offset="0.64" stop-color="#d29b66"/><stop offset="0.75" stop-color="#e79656"/><stop offset="0.82" stop-color="#ef9450"/></linearGradient><linearGradient id="linear-gradient-2" x1="172.89" y1="176.14" x2="172.14" y2="13.56" gradientUnits="userSpaceOnUse"><stop offset="0" stop-color="#dd6912"/><stop offset="0.71" stop-color="#e6b972"/><stop offset="0.84" stop-color="#e8c985"/></linearGradient><linearGradient id="linear-gradient-3" x1="177.46" y1="192.5" x2="177.39" y2="391.57" gradientUnits="userSpaceOnUse"><stop offset="0.07" stop-color="#16c8f2"/><stop offset="0.18" stop-color="#25ceda"/><stop offset="0.33" stop-color="#36d5c0"/><stop offset="0.48" stop-color="#42d9ae"/><stop offset="0.65" stop-color="#49dca3"/><stop offset="0.82" stop-color="#4bdd9f"/></linearGradient></defs><g id="NIEBIESKI_PAS" data-name="NIEBIESKI PAS"><g class="cls-3"><rect class="cls-4" x="-580.46" y="7.01" width="625.12" height="337.05"/><polygon class="cls-5" points="45.22 172.29 -8.24 172.29 -109.58 161 -263.13 172.29 -391.08 161 -489.26 171.6 -551.13 166.99 -580.09 177.64 -580.09 200.56 45.22 198.03 45.22 172.29"/><polygon class="cls-6" points="45.22 191.53 42.35 192.25 -13.05 192.25 -114.21 182.28 -267.49 192.25 -395.21 182.28 -493.22 191.65 -554.98 187.57 -580.09 195.74 -580.09 217.22 45.22 214.97 45.22 191.53"/><polygon class="cls-7" points="-580.64 219.05 -539.26 204.01 -482.5 208.19 -392.44 198.58 -275.07 208.81 -134.21 198.58 -41.25 208.81 9.66 208.81 45.77 198.58 45.77 231.99 -580.33 234.5 -580.64 219.05"/><polygon class="cls-8" points="-579.72 216.97 45.46 216.97 45.46 344.06 -580.64 344.06 -579.72 216.97"/></g></g><g id="BIAŁY_PAS" data-name="BIAŁY PAS"><g class="cls-9"><rect class="cls-10" x="-135.52" y="6.53" width="625.9" height="210.25"/><path class="cls-11" d="M173.08,55.56A161.84,161.84,0,0,0,11.25,217.4H334.92A161.84,161.84,0,0,0,173.08,55.56Z"/><rect class="cls-12" x="-135.52" y="216.78" width="625.9" height="127.28"/><path class="cls-13" d="M-33,212.62l8.45-14a212.61,212.61,0,0,0,33-33c8.85-11.1,13.37-19.2,15.22-29.17a53.34,53.34,0,0,0,.85-11.41,16.81,16.81,0,0,1,7.61-3A17,17,0,0,1,41,123.41c16.61,40.27,25.85,55.5,31.29,61.73a127.41,127.41,0,0,1,13.95,19c2.18,3.63,3.76,6.67,4.65,8.45Z"/><path class="cls-14" d="M-33,212.62l8.45-14,17.82-16,16.85-3.86,12.26,10.57,16.07-11,16.91-.85,11.84,9.72,3.21-4.41a139.43,139.43,0,0,1,9.49,11.78,139.62,139.62,0,0,1,11,18Z"/><path class="cls-15" d="M24.49,125.11A50.09,50.09,0,0,1,23,139.43a49.67,49.67,0,0,1-7.46,16.5l-4.86,6.86a23.9,23.9,0,0,0,8.93-5.13c4.12-3.81,5.68-8.19,6.77-7.82s.1,4,.84,8.88a26.49,26.49,0,0,0,4,10.35,30.31,30.31,0,0,0,4.44-10.35c1.57-7.27-.13-13.15.63-13.32s2.09,7.55,7.19,15.22a40.86,40.86,0,0,0,8.88,9.51,88.23,88.23,0,0,1-6.77-26.85,48.31,48.31,0,0,0,7.83,16.07,47.35,47.35,0,0,0,7.51,8c-1.61-3.08-3.69-7.19-6-12.1-2.6-5.45-4.43-9.57-6.32-13.87-2.07-4.69-4.68-10.76-7.63-17.94a17,17,0,0,0-8.87-1.26A16.81,16.81,0,0,0,24.49,125.11Z"/><path class="cls-16" d="M32.1,122.15A125.41,125.41,0,0,1,24.91,164,126.44,126.44,0,0,1-6.54,212.62H-33l8.45-14a232.3,232.3,0,0,0,23-21.4,151.32,151.32,0,0,0,11.8-14c5.45-7.43,9.79-13.46,12.31-22.25a51.56,51.56,0,0,0,1.93-15.94,16.57,16.57,0,0,1,3.37-1.85A16.89,16.89,0,0,1,32.1,122.15Z"/><path class="cls-13" d="M35.82,212.62l6.7-11a169.7,169.7,0,0,0,26.11-26.11c7-8.79,10.59-15.21,12.05-23.1a42.37,42.37,0,0,0,.67-9A13.39,13.39,0,0,1,94.4,142c13.15,31.88,20.47,43.94,24.77,48.87a100.17,100.17,0,0,1,11,15.07c1.73,2.87,3,5.28,3.68,6.69Z"/><path class="cls-14" d="M35.82,212.62l6.7-11,14.1-12.68L70,185.84l9.7,8.37,12.72-8.7,13.39-.67,9.38,7.7q1.26-1.75,2.54-3.5a110.24,110.24,0,0,1,16.2,23.58Z"/><path class="cls-15" d="M81.35,143.33a40.17,40.17,0,0,1-7.08,24.41l-3.85,5.43a19.09,19.09,0,0,0,7.08-4.06c3.26-3,4.49-6.49,5.35-6.2s.09,3.18.67,7a20.92,20.92,0,0,0,3.18,8.2,24,24,0,0,0,3.52-8.2c1.24-5.75-.11-10.41.5-10.54s1.65,6,5.69,12a32,32,0,0,0,7,7.53,70.48,70.48,0,0,1-5.36-21.26,38.1,38.1,0,0,0,12.14,19c-1.27-2.45-2.92-5.7-4.77-9.58-2.07-4.32-3.51-7.58-5-11-1.64-3.71-3.71-8.51-6-14.2a13.39,13.39,0,0,0-13.05,1.34Z"/><path class="cls-16" d="M87.37,141a99.19,99.19,0,0,1-5.69,33.14,100.24,100.24,0,0,1-24.9,38.49h-21l6.7-11a184.32,184.32,0,0,0,18.21-17,119.47,119.47,0,0,0,9.35-11.06c4.31-5.88,7.75-10.65,9.74-17.62a40.76,40.76,0,0,0,1.53-12.62A13.43,13.43,0,0,1,84,141.87,13,13,0,0,1,87.37,141Z"/><path class="cls-13" d="M362.67,218.25l-9-14.82a226.37,226.37,0,0,1-35-35c-9.4-11.79-14.21-20.4-16.17-31a56.51,56.51,0,0,1-.89-12.13,17.94,17.94,0,0,0-17.51-1.79c-17.64,42.76-27.46,58.93-33.23,65.55a135.33,135.33,0,0,0-14.82,20.21c-2.31,3.85-4,7.08-4.93,9Z"/><path class="cls-14" d="M362.67,218.25l-9-14.82-18.92-17-17.9-4.09-13,11.22-17.06-11.67-18-.9-12.57,10.33c-1.14-1.57-2.28-3.13-3.41-4.7a147.58,147.58,0,0,0-21.73,31.63Z"/><path class="cls-15" d="M301.61,125.3A53.83,53.83,0,0,0,311.09,158l5.17,7.28a25.27,25.27,0,0,1-9.49-5.44c-4.38-4-6-8.7-7.18-8.31s-.12,4.26-.9,9.43a28.12,28.12,0,0,1-4.27,11,32.41,32.41,0,0,1-4.71-11c-1.67-7.71.14-14-.68-14.14s-2.21,8-7.63,16.16a43.12,43.12,0,0,1-9.43,10.1,92.65,92.65,0,0,0,4-11.45,94.38,94.38,0,0,0,3.15-17.06,50.95,50.95,0,0,1-16.28,25.53c1.7-3.28,3.91-7.64,6.4-12.85,2.77-5.79,4.71-10.17,6.72-14.73,2.19-5,5-11.43,8.1-19a17.94,17.94,0,0,1,17.51,1.79Z"/><path class="cls-16" d="M293.52,122.16a132.93,132.93,0,0,0,41,96.08h28.12l-9-14.82a246.32,246.32,0,0,1-24.43-22.73,158.57,158.57,0,0,1-12.54-14.84c-5.79-7.88-10.4-14.29-13.07-23.63a54.14,54.14,0,0,1-2-16.93,18.32,18.32,0,0,0-8.09-3.14Z"/><polygon class="cls-17" points="-135.52 227.11 490.38 227.11 490.38 204.97 460.97 216.04 401.05 202.97 319.36 201.94 281 211.55 199.28 202.97 109.19 201.94 61.46 209.48 1.1 202.97 -42.75 208.96 -87.77 201.94 -135.52 210 -135.52 227.11"/><polygon class="cls-18" points="83.82 -0.93 83.82 247.66 172.2 312.53 260.58 247.66 260.58 -0.93 83.82 -0.93"/><path class="cls-19" d="M229.91,173.91c-.12.33-.25.66-.39,1h-3.15c.31-.68.62-1.37.91-2.07a55.55,55.55,0,0,0,3.19-32.11,55.31,55.31,0,0,0-3.15-10.44c-2.52-6.13-5.52-11.79-10-16.65a79.57,79.57,0,0,1,6.35,7.58,47.16,47.16,0,0,1,5,8.51,57.74,57.74,0,0,1,1.23,44.2Z"/><path class="cls-20" d="M234.77,174.89h-3.29a62.34,62.34,0,0,0,2.77-9.69,63.21,63.21,0,0,0,1.2-12.12A62.5,62.5,0,0,0,234.27,141a60.84,60.84,0,0,0-3.52-11.67c-2.83-6.86-6.17-13.19-11.23-18.62a87.8,87.8,0,0,1,7.12,8.47,53.77,53.77,0,0,1,5.63,9.52,64.75,64.75,0,0,1,2.5,46.24Z"/><path class="cls-19" d="M114.64,173.91c.12.33.25.66.39,1h3.16c-.32-.68-.63-1.37-.92-2.07A55.66,55.66,0,0,1,113,151.55a57.15,57.15,0,0,1,1.06-10.84,55.31,55.31,0,0,1,3.15-10.44c2.53-6.13,5.52-11.79,10-16.65a78.2,78.2,0,0,0-6.36,7.58,47.16,47.16,0,0,0-5,8.51,58.21,58.21,0,0,0-3.57,10.65,58,58,0,0,0,2.34,33.55Z"/><path class="cls-20" d="M109.78,174.89h3.3a60.22,60.22,0,0,1-2.77-9.69,62.23,62.23,0,0,1,3.49-35.92c2.83-6.86,6.18-13.19,11.23-18.62a86.29,86.29,0,0,0-7.11,8.47,52.59,52.59,0,0,0-5.63,9.52,64.44,64.44,0,0,0-5.6,24.43A64.83,64.83,0,0,0,109.78,174.89Z"/><path class="cls-20" d="M238.55,174v3.55c-.4,1.26-.84,2.52-1.32,3.75a69.21,69.21,0,0,1-7,13.55H114.16a69,69,0,0,1-7-13.55c-.48-1.25-.92-2.5-1.32-3.77V174Z"/><path class="cls-21" d="M129.68,189.3a5.12,5.12,0,0,1-1.86.33,5.45,5.45,0,0,1-2.79-.7,4.83,4.83,0,0,1-1.82-1.88,5.43,5.43,0,0,1-.63-2.6,5.91,5.91,0,0,1,.63-2.76,4.68,4.68,0,0,1,1.76-1.9,5,5,0,0,1,2.62-.68,5.65,5.65,0,0,1,1.73.26,5.81,5.81,0,0,1,1.4.62l-.8,1.92a3.71,3.71,0,0,0-2.26-.84,2.74,2.74,0,0,0-1.47.43,3.13,3.13,0,0,0-1.09,1.19,3.39,3.39,0,0,0-.41,1.65,3.84,3.84,0,0,0,.38,1.74,2.78,2.78,0,0,0,1.08,1.17,3.09,3.09,0,0,0,1.63.42,3.44,3.44,0,0,0,1.36-.25,2.8,2.8,0,0,0,1-.58l.84,1.82A4.31,4.31,0,0,1,129.68,189.3Z"/><path class="cls-21" d="M133,181.77a5.33,5.33,0,0,1,1.92-1.94,5.13,5.13,0,0,1,5.24,0,5.52,5.52,0,0,1,1.93,1.94,5.13,5.13,0,0,1,0,5.24,5.43,5.43,0,0,1-1.93,1.91,5.21,5.21,0,0,1-5.25,0A5.3,5.3,0,0,1,133,187a5.19,5.19,0,0,1,0-5.24Zm1.82,4.26a3.15,3.15,0,0,0,2.79,1.64,3,3,0,0,0,1.58-.44,3.1,3.1,0,0,0,1.11-1.19,3.43,3.43,0,0,0,.41-1.66,3.37,3.37,0,0,0-.42-1.67,3.13,3.13,0,0,0-1.14-1.2,3.13,3.13,0,0,0-3.2,0,3.13,3.13,0,0,0-1.14,1.2,3.37,3.37,0,0,0-.42,1.67A3.23,3.23,0,0,0,134.85,186Z"/><path class="cls-21" d="M144.86,179.23h3.08a6.22,6.22,0,0,1,3.24.76,4.54,4.54,0,0,1,1.85,2,5.85,5.85,0,0,1,.58,2.59,5,5,0,0,1-.69,2.62,4.84,4.84,0,0,1-1.88,1.74,5.68,5.68,0,0,1-2.6.6h-3.58Zm3.23,8.33a3.68,3.68,0,0,0,2.51-.81,3,3,0,0,0,.92-2.34,3.37,3.37,0,0,0-.51-2,2.73,2.73,0,0,0-1.19-1,3.3,3.3,0,0,0-1.28-.28h-1.65v6.39Z"/><path class="cls-21" d="M157.67,179.23v10.28h-2V179.23Z"/><path class="cls-21" d="M169.59,179.23v10.7h-.05l-7.2-6.5,0,6.08h-2.06V178.82h.09l7.18,6.6,0-6.19Z"/><path class="cls-21" d="M179.75,189a7.53,7.53,0,0,1-1.34.45,5.7,5.7,0,0,1-1.34.18,6.23,6.23,0,0,1-2.87-.64,4.59,4.59,0,0,1-1.91-1.76,4.9,4.9,0,0,1-.67-2.57,6.12,6.12,0,0,1,.71-3,4.67,4.67,0,0,1,1.92-1.87,5.6,5.6,0,0,1,2.65-.63,7.08,7.08,0,0,1,1.76.21,6.73,6.73,0,0,1,1.46.55l-.66,1.89a5.2,5.2,0,0,0-1.11-.42,5,5,0,0,0-1.18-.19,3.62,3.62,0,0,0-2.57.84,3.27,3.27,0,0,0-.88,2.49,3.09,3.09,0,0,0,.43,1.66,2.82,2.82,0,0,0,1.21,1.08,4,4,0,0,0,1.77.38,2.88,2.88,0,0,0,1.41-.27v-1.24h-1.78v-2h3.83v4.35A2.71,2.71,0,0,1,179.75,189Z"/><path class="cls-22" d="M193.68,179.23v2h-2.5v8.33h-2v-8.33h-2.41v-2Z"/><path class="cls-22" d="M201.18,189.51,199,186.24h-1.36v3.27h-2V179.23h3.12a4.33,4.33,0,0,1,3,.93,3.18,3.18,0,0,1,1.06,2.53,4.11,4.11,0,0,1-.4,1.78,2.92,2.92,0,0,1-1.22,1.31l2.39,3.73Zm-3.52-5.22h1.44a1.41,1.41,0,0,0,1.2-.49,1.59,1.59,0,0,0,.38-1,2,2,0,0,0-.32-1.07,1.36,1.36,0,0,0-1.24-.51h-1.46Z"/><path class="cls-22" d="M212.24,179.23v2h-5v2.2h4.42v2h-4.42v2.23h5.19v1.95h-7.22V179.23Z"/><path class="cls-22" d="M221.55,179.23v2h-5v2.2H221v2h-4.42v2.23h5.19v1.95h-7.22V179.23Z"/><path class="cls-23" d="M238.55,177.56c-.4,1.26-.84,2.52-1.32,3.75a69.21,69.21,0,0,1-7,13.55,70,70,0,0,1-5.78,7.53q-1,1.13-2,2.22-2.34,2.41-4.89,4.61a66.93,66.93,0,0,1-5.75,4.42,68.92,68.92,0,0,1-12.26,6.75l-1.62.66c-.55.21-1.08.45-1.64.63l-1.66.57c-.55.19-1.1.4-1.66.56l-1.69.49-.84.25-.42.12-.43.1-1.71.4-.86.2-.42.1-.44.08a70,70,0,0,1-27.91,0,69.41,69.41,0,0,1-31.17-15.16h0a65.55,65.55,0,0,1-5.08-4.78c-.7-.72-1.37-1.45-2-2.2a70,70,0,0,1-5.78-7.53,69,69,0,0,1-7-13.55c-.48-1.25-.92-2.5-1.32-3.77a69.77,69.77,0,0,1-1.5-36.66,69.09,69.09,0,0,1,4.3-12.83,70.62,70.62,0,0,1,6.73-11.69c1.91-2.72,4.72-5.29,7-7.71a53.63,53.63,0,0,0-7,9.46,86.72,86.72,0,0,0-5.16,10.61,67.14,67.14,0,0,0-3.76,38.72,64.44,64.44,0,0,0,1.66,6.57q.93,3,2.16,6a67.2,67.2,0,0,0,8.56,14.86,65.81,65.81,0,0,0,6,6.84l.71.69A66.69,66.69,0,0,0,159.14,220a68,68,0,0,0,13.05,1.26A67.28,67.28,0,0,0,185.24,220a66,66,0,0,0,12.55-3.78,67.19,67.19,0,0,0,21-13.8l.7-.69A66.87,66.87,0,0,0,234.06,180q1.22-2.94,2.16-6a67,67,0,0,0-2.11-45.29c-3.05-7.38-6.65-14.21-12.1-20.07a95,95,0,0,1,7.67,9.14,57,57,0,0,1,6.06,10.26,69.12,69.12,0,0,1,4.31,12.83,69.84,69.84,0,0,1-1.5,36.68Z"/><rect class="cls-23" x="117.03" y="194.07" width="110.33" height="1.58"/><rect class="cls-23" x="106.66" y="174.1" width="131.08" height="1.58"/><polygon class="cls-23" points="149.92 209.03 148.47 209.03 148.47 202.31 162.49 197.21 162.49 194.86 163.93 194.86 163.93 198.22 149.92 203.32 149.92 209.03"/><rect class="cls-23" x="171.48" y="194.86" width="1.45" height="19.63"/><rect class="cls-23" x="162.49" y="194.49" width="1.45" height="13.84"/><circle class="cls-24" cx="163.21" cy="208.32" r="1.91"/><path class="cls-23" d="M163.21,211a2.7,2.7,0,1,1,2.69-2.7A2.69,2.69,0,0,1,163.21,211Zm0-3.82a1.13,1.13,0,1,0,1.12,1.12A1.12,1.12,0,0,0,163.21,207.2Z"/><circle class="cls-24" cx="172.2" cy="214.48" r="1.91"/><path class="cls-23" d="M172.2,217.18a2.7,2.7,0,1,1,2.69-2.7A2.69,2.69,0,0,1,172.2,217.18Zm0-3.82a1.13,1.13,0,1,0,1.12,1.12A1.12,1.12,0,0,0,172.2,213.36Z"/><circle class="cls-24" cx="149.19" cy="209.03" r="1.91"/><path class="cls-23" d="M149.19,211.73a2.7,2.7,0,1,1,2.7-2.7A2.7,2.7,0,0,1,149.19,211.73Zm0-3.82a1.13,1.13,0,1,0,1.13,1.12A1.12,1.12,0,0,0,149.19,207.91Z"/><polygon class="cls-23" points="195.93 209.03 194.48 209.03 194.48 203.32 180.47 198.22 180.47 194.86 181.91 194.86 181.91 197.21 195.93 202.31 195.93 209.03"/><rect class="cls-23" x="180.46" y="194.49" width="1.45" height="13.84"/><circle class="cls-24" cx="181.19" cy="208.32" r="1.91"/><path class="cls-23" d="M181.19,211a2.7,2.7,0,1,1,2.69-2.7A2.69,2.69,0,0,1,181.19,211Zm0-3.82a1.13,1.13,0,1,0,1.12,1.12A1.12,1.12,0,0,0,181.19,207.2Z"/><circle class="cls-24" cx="195.2" cy="209.03" r="1.91"/><path class="cls-23" d="M195.2,211.73a2.7,2.7,0,1,1,2.7-2.7A2.7,2.7,0,0,1,195.2,211.73Zm0-3.82a1.13,1.13,0,1,0,1.13,1.12A1.12,1.12,0,0,0,195.2,207.91Z"/><path class="cls-19" d="M179.18,115.28c-1.3,1.79-3.54,3.26-7,4.32-3.44-1.06-5.69-2.53-7-4.32a8.62,8.62,0,0,1-1.17-7.08c.94-4.49,4.19-9.78,8.15-15.31,4,5.53,7.21,10.82,8.14,15.31A8.58,8.58,0,0,1,179.18,115.28Z"/><path class="cls-24" d="M179.18,115.28c-1.3,1.79-3.54,3.26-7,4.32-3.44-1.06-5.69-2.53-7-4.32a8.62,8.62,0,0,1-1.17-7.08,14.28,14.28,0,0,1,16.29,0A8.58,8.58,0,0,1,179.18,115.28Z"/><path class="cls-20" d="M179.18,115.28c-1.3,1.79-3.54,3.26-7,4.32-3.44-1.06-5.69-2.53-7-4.32a8.3,8.3,0,0,1,14,0Z"/><path class="cls-19" d="M165.81,127.2c.16,2.52-.76,5.43-3.05,8.83-3.84,1.52-6.92,1.81-9.39,1.14-2.76-.74-4.76-2.69-6.24-5.48-2.47-4.66-3.46-11.7-4-19.45,7.58,2.1,14.37,4.49,18.5,7.82C164.11,122.05,165.63,124.39,165.81,127.2Z"/><path class="cls-24" d="M165.81,127.2c.16,2.52-.76,5.43-3.05,8.83-3.84,1.52-6.92,1.81-9.39,1.14-2.76-.74-4.76-2.69-6.24-5.48a15.86,15.86,0,0,1,5.39-8.08,16.33,16.33,0,0,1,9.12-3.55C164.11,122.05,165.63,124.39,165.81,127.2Z"/><path class="cls-20" d="M165.81,127.2c.16,2.52-.76,5.43-3.05,8.83-3.84,1.52-6.92,1.81-9.39,1.14a9.27,9.27,0,0,1,3.42-8.38A9.56,9.56,0,0,1,165.81,127.2Z"/><path class="cls-19" d="M163.08,148.72c.71,3.48,0,7.72-2.54,12.89-5.07,2.83-9.3,3.82-12.88,3.35-4-.52-7.16-2.85-9.76-6.47-4.35-6-7.09-15.67-9.33-26.38,11,1.5,20.91,3.55,27.32,7.43C159.72,141.86,162.29,144.82,163.08,148.72Z"/><path class="cls-24" d="M163.08,148.72c.71,3.48,0,7.72-2.54,12.89-5.07,2.83-9.3,3.82-12.88,3.35-4-.52-7.16-2.85-9.76-6.47a22.28,22.28,0,0,1,5.95-12.28,22.84,22.84,0,0,1,12-6.67C159.72,141.86,162.29,144.82,163.08,148.72Z"/><path class="cls-20" d="M163.08,148.72c.71,3.48,0,7.72-2.54,12.89-5.07,2.83-9.3,3.82-12.88,3.35a13,13,0,0,1,3.15-12.33A13.43,13.43,0,0,1,163.08,148.72Z"/><rect class="cls-23" x="157.9" y="145.83" width="1.77" height="27.52" transform="translate(-66.34 160.62) rotate(-45.41)"/><ellipse class="cls-23" cx="154.48" cy="127.7" rx="1.51" ry="1.49"/><ellipse class="cls-23" cx="172.21" cy="110.97" rx="1.69" ry="1.66"/><ellipse class="cls-23" cx="149.15" cy="149.93" rx="2.18" ry="2.15"/><polygon class="cls-23" points="169.47 174.89 167.7 174.89 167.7 141.98 153.86 128.33 155.1 127.07 169.47 141.24 169.47 174.89"/><path class="cls-19" d="M178.59,127.2c-.16,2.52.76,5.43,3,8.83,3.84,1.52,6.92,1.81,9.39,1.14,2.76-.74,4.76-2.69,6.24-5.48,2.47-4.66,3.45-11.7,4-19.45-7.58,2.1-14.37,4.49-18.5,7.82C180.29,122.05,178.77,124.39,178.59,127.2Z"/><path class="cls-24" d="M178.59,127.2c-.16,2.52.76,5.43,3,8.83,3.84,1.52,6.92,1.81,9.39,1.14,2.76-.74,4.76-2.69,6.24-5.48a16,16,0,0,0-5.39-8.08,16.33,16.33,0,0,0-9.12-3.55C180.29,122.05,178.77,124.39,178.59,127.2Z"/><path class="cls-20" d="M178.59,127.2c-.16,2.52.76,5.43,3,8.83,3.84,1.52,6.92,1.81,9.39,1.14a9.27,9.27,0,0,0-3.42-8.38A9.56,9.56,0,0,0,178.59,127.2Z"/><path class="cls-19" d="M181.32,148.72c-.71,3.48,0,7.72,2.54,12.89,5.07,2.83,9.3,3.82,12.88,3.35,4-.52,7.16-2.85,9.76-6.47,4.35-6,7.08-15.67,9.33-26.38-11,1.5-20.91,3.55-27.32,7.43C184.68,141.86,182.11,144.82,181.32,148.72Z"/><path class="cls-24" d="M181.32,148.72c-.71,3.48,0,7.72,2.54,12.89,5.07,2.83,9.3,3.82,12.88,3.35,4-.52,7.16-2.85,9.76-6.47a22.34,22.34,0,0,0-5.95-12.28,22.84,22.84,0,0,0-12-6.67C184.68,141.86,182.11,144.82,181.32,148.72Z"/><path class="cls-20" d="M181.32,148.72c-.71,3.48,0,7.72,2.54,12.89,5.07,2.83,9.3,3.82,12.88,3.35a13,13,0,0,0-3.15-12.33A13.43,13.43,0,0,0,181.32,148.72Z"/><rect class="cls-23" x="171.85" y="158.71" width="27.52" height="1.77" transform="translate(-58.61 176.27) rotate(-44.6)"/><ellipse class="cls-23" cx="189.92" cy="127.7" rx="1.51" ry="1.49"/><ellipse class="cls-23" cx="195.25" cy="149.93" rx="2.18" ry="2.15"/><polygon class="cls-23" points="176.7 174.89 174.93 174.89 174.93 141.24 189.3 127.07 190.54 128.33 176.7 141.98 176.7 174.89"/><rect class="cls-23" x="171.31" y="111.47" width="1.77" height="63.42"/></g></g></svg>